<?xml version="1.0" standalone="no"?><!DOCTYPE svg PUBLIC "-//W3C//DTD SVG 1.1//EN" "http://www.w3.org/Graphics/SVG/1.1/DTD/svg11.dtd"><svg height="1024" node-id="1" sillyvg="true" template-height="1024" template-width="1024" version="1.1" viewBox="0 0 1024 1024" width="1024" xmlns="http://www.w3.org/2000/svg" xmlns:xlink="http://www.w3.org/1999/xlink"><defs node-id="78"><linearGradient gradientUnits="objectBoundingBox" id="linearGradient-1" node-id="5" spreadMethod="pad" x1="0.5" x2="0.5" y1="1" y2="-0.0000000000000002471453"><stop offset="0" stop-color="#ffffff" stop-opacity="0.1"></stop><stop offset="0.13" stop-color="#fbfdff" stop-opacity="0.19"></stop><stop offset="0.41" stop-color="#f1f7ff" stop-opacity="0.43"></stop><stop offset="0.81" stop-color="#e1eeff" stop-opacity="0.82"></stop><stop offset="1" stop-color="#d9e9ff"></stop></linearGradient><linearGradient gradientUnits="objectBoundingBox" id="linearGradient-2" node-id="11" spreadMethod="pad" x1="0.5" x2="0.5" y1="1.002219" y2="0.0007036488"><stop offset="0" stop-color="#ffffff" stop-opacity="0.1"></stop><stop offset="1" stop-color="#d9e9ff"></stop></linearGradient><linearGradient gradientUnits="objectBoundingBox" id="linearGradient-3" node-id="14" spreadMethod="pad" x1="0.500936" x2="0.500936" y1="1" y2="0.000069385685"><stop offset="0" stop-color="#ffffff" stop-opacity="0.1"></stop><stop offset="0.14" stop-color="#f8fbff" stop-opacity="0.27"></stop><stop offset="0.37" stop-color="#edf5ff" stop-opacity="0.52"></stop><stop offset="0.58" stop-color="#e4f0ff" stop-opacity="0.73"></stop><stop offset="0.76" stop-color="#deecff" stop-opacity="0.88"></stop><stop offset="0.91" stop-color="#daeaff" stop-opacity="0.97"></stop><stop offset="1" stop-color="#d9e9ff"></stop></linearGradient><linearGradient gradientUnits="objectBoundingBox" id="linearGradient-4" node-id="22" spreadMethod="pad" x1="0.49983978" x2="0.49983978" y1="0.999312" y2="-0.0008112773"><stop offset="0" stop-color="#ffffff" stop-opacity="0.1"></stop><stop offset="0.09" stop-color="#fefeff" stop-opacity="0.13"></stop><stop offset="0.23" stop-color="#fbfcff" stop-opacity="0.21"></stop><stop offset="0.4" stop-color="#f5f9ff" stop-opacity="0.33"></stop><stop offset="0.59" stop-color="#eef5ff" stop-opacity="0.51"></stop><stop offset="0.79" stop-color="#e4efff" stop-opacity="0.74"></stop><stop offset="1" stop-color="#d9e9ff"></stop></linearGradient><linearGradient gradientUnits="objectBoundingBox" id="linearGradient-5" node-id="30" spreadMethod="pad" x1="0.49999997" x2="0.49999997" y1="0" y2="0.99999994"><stop offset="0" stop-color="#5baafd"></stop><stop offset="1" stop-color="#aad2fe"></stop></linearGradient><linearGradient gradientUnits="objectBoundingBox" id="linearGradient-6" node-id="33" spreadMethod="pad" x1="0.49999997" x2="0.59065247" y1="0.14905335" y2="0.55333024"><stop offset="0" stop-color="#afd5fe"></stop><stop offset="1" stop-color="#3798fc"></stop></linearGradient><linearGradient gradientUnits="objectBoundingBox" id="linearGradient-7" node-id="36" spreadMethod="pad" x1="0.49999997" x2="0.49999997" y1="0" y2="0.99999994"><stop offset="0" stop-color="#4ba2fc"></stop><stop offset="1" stop-color="#f9fcff"></stop></linearGradient><linearGradient gradientUnits="objectBoundingBox" id="linearGradient-8" node-id="39" spreadMethod="pad" x1="0.49999997" x2="0.47684595" y1="0.48504913" y2="0.5424614"><stop offset="0" stop-color="#ffffff"></stop><stop offset="1" stop-color="#f7f7f7"></stop></linearGradient><linearGradient gradientUnits="objectBoundingBox" id="linearGradient-9" node-id="42" spreadMethod="pad" x1="0.49999997" x2="0.49999997" y1="0" y2="0.99999994"><stop offset="0" stop-color="#dbeaff"></stop><stop offset="1" stop-color="#fcfcfc" stop-opacity="0"></stop></linearGradient><linearGradient gradientUnits="objectBoundingBox" id="linearGradient-10" node-id="45" spreadMethod="pad" x1="0.49999997" x2="0.49999997" y1="0" y2="0.99999994"><stop offset="0" stop-color="#94c7fd"></stop><stop offset="1" stop-color="#4aa1fc"></stop></linearGradient><linearGradient gradientUnits="objectBoundingBox" id="linearGradient-11" node-id="48" spreadMethod="pad" x1="0.49999997" x2="0.49999997" y1="0" y2="0.99999994"><stop offset="0" stop-color="#9eccfd"></stop><stop offset="1" stop-color="#3798fc"></stop></linearGradient></defs><path d="M 0.00 0.00 L 1024.00 0.00 L 1024.00 1024.00 L 0.00 1024.00 Z" fill="#ffffff" fill-rule="evenodd" node-id="174" stroke="none" target-height="1024" target-width="1024" target-x="0" target-y="0"></path><g node-id="176"><path d="M 0.00 0.00 L 1024.00 0.00 L 1024.00 1024.00 L 0.00 1024.00 Z" fill="#d8d8d8" fill-opacity="0" fill-rule="nonzero" group-id="1" id="矩形" node-id="53" stroke="none" target-height="1024" target-width="1024" target-x="0" target-y="0"></path></g><path d="M 1023.00 740.00 L 1022.70 745.20 L 1021.90 750.40 L 1020.60 755.60 L 1018.70 760.90 L 1016.20 766.20 L 1013.10 771.60 L 1009.00 777.40 L 1004.10 783.30 L 998.40 789.30 L 991.80 795.40 L 984.10 801.60 L 976.50 807.10 L 968.10 812.60 L 958.70 818.10 L 948.40 823.70 L 937.10 829.30 L 923.20 835.50 L 908.00 841.70 L 891.40 847.80 L 873.20 853.80 L 853.90 859.60 L 833.40 865.10 L 811.80 870.30 L 790.00 875.00 L 767.30 879.40 L 743.50 883.50 L 719.70 887.10 L 695.10 890.30 L 669.80 893.10 L 644.40 895.50 L 618.50 897.40 L 592.00 899.00 L 565.50 900.10 L 538.70 900.80 L 511.50 901.00 L 484.30 900.80 L 457.50 900.10 L 431.00 899.00 L 404.50 897.40 L 378.60 895.50 L 353.20 893.10 L 327.90 890.30 L 303.30 887.10 L 279.50 883.50 L 255.70 879.40 L 233.00 875.00 L 211.20 870.30 L 189.60 865.10 L 169.10 859.60 L 149.80 853.80 L 131.60 847.80 L 115.00 841.70 L 99.80 835.50 L 85.90 829.30 L 74.60 823.70 L 64.30 818.10 L 54.90 812.60 L 46.50 807.10 L 38.90 801.60 L 31.20 795.40 L 24.60 789.30 L 18.90 783.30 L 14.00 777.40 L 9.90 771.60 L 6.80 766.20 L 4.30 760.90 L 2.40 755.60 L 1.10 750.40 L 0.30 745.20 L 0.00 740.00 L 0.30 734.80 L 1.10 729.60 L 2.40 724.40 L 4.30 719.10 L 6.80 713.80 L 9.90 708.40 L 14.00 702.60 L 18.90 696.70 L 24.60 690.70 L 31.20 684.60 L 38.90 678.40 L 46.50 672.90 L 54.90 667.40 L 64.30 661.90 L 74.60 656.30 L 85.90 650.70 L 99.80 644.50 L 115.00 638.30 L 131.60 632.20 L 149.80 626.20 L 169.10 620.40 L 189.60 614.90 L 211.20 609.70 L 233.00 605.00 L 255.70 600.60 L 279.50 596.50 L 303.30 592.90 L 327.90 589.70 L 353.20 586.90 L 378.60 584.50 L 404.50 582.60 L 431.00 581.00 L 457.50 579.90 L 484.30 579.20 L 511.50 579.00 L 538.70 579.20 L 565.50 579.90 L 592.00 581.00 L 618.50 582.60 L 644.40 584.50 L 669.80 586.90 L 695.10 589.70 L 719.70 592.90 L 743.50 596.50 L 767.30 600.60 L 790.00 605.00 L 811.80 609.70 L 833.40 614.90 L 853.90 620.40 L 873.20 626.20 L 891.40 632.20 L 908.00 638.30 L 923.20 644.50 L 937.10 650.70 L 948.40 656.30 L 958.70 661.90 L 968.10 667.40 L 976.50 672.90 L 984.10 678.40 L 991.80 684.60 L 998.40 690.70 L 1004.10 696.70 L 1009.00 702.60 L 1013.10 708.40 L 1016.20 713.80 L 1018.70 719.10 L 1020.60 724.40 L 1021.90 729.60 L 1022.70 734.80 L 1023.00 740.00 Z" fill="url(#linearGradient-1)" fill-rule="nonzero" id="椭圆形" node-id="54" stroke="none" target-height="322" target-width="1023" target-x="0" target-y="579"></path><path d="M 199.70 592.00 L 204.00 640.00 L 177.00 636.80 Z" fill="#e4efff" fill-rule="nonzero" id="路径" node-id="55" stroke="none" target-height="48" target-width="27" target-x="177" target-y="592"></path><path d="M 200.00 592.00 L 230.00 629.90 L 204.50 640.00 Z" fill="#f3f8ff" fill-rule="nonzero" id="路径" node-id="56" stroke="none" target-height="48" target-width="30" target-x="200" target-y="592"></path><path d="M 99.50 605.00 L 105.00 666.00 L 71.00 661.90 Z" fill="#e4efff" fill-rule="nonzero" id="路径" node-id="57" stroke="none" target-height="61" target-width="34" target-x="71" target-y="605"></path><path d="M 99.00 605.00 L 138.00 653.20 L 105.00 666.00 Z" fill="#f3f8ff" fill-rule="nonzero" id="路径" node-id="58" stroke="none" target-height="61" target-width="39" target-x="99" target-y="605"></path><path d="M 147.60 562.00 L 157.00 665.00 L 94.00 658.60 Z" fill="#e4efff" fill-rule="nonzero" id="路径" node-id="59" stroke="none" target-height="103" target-width="63" target-x="94" target-y="562"></path><path d="M 147.00 562.00 L 214.00 642.90 L 156.50 665.00 Z" fill="#f3f8ff" fill-rule="nonzero" id="路径" node-id="60" stroke="none" target-height="103" target-width="67" target-x="147" target-y="562"></path><path d="M 167.20 341.20 L 166.00 336.40 L 164.30 332.00 L 162.00 327.80 L 159.30 323.90 L 156.20 320.40 L 152.70 317.20 L 148.90 314.50 L 144.80 312.20 L 140.40 310.30 L 135.80 309.00 L 131.00 308.20 L 126.00 308.00 L 121.90 308.20 L 114.10 309.60 L 106.70 312.40 L 103.20 314.30 L 96.80 319.10 L 89.80 316.90 L 82.50 316.30 L 78.60 316.50 L 74.90 317.00 L 71.40 318.00 L 68.00 319.40 L 61.70 323.10 L 56.50 328.10 L 54.30 331.00 L 52.50 334.20 L 51.00 337.60 L 49.90 341.20 L 46.00 342.40 L 42.40 344.00 L 39.20 346.20 L 36.30 348.70 L 33.90 351.60 L 31.90 354.90 L 30.40 358.40 L 29.40 362.20 L 29.00 366.10 L 29.40 369.80 L 30.20 373.20 L 31.40 376.40 L 33.10 379.40 L 35.10 382.20 L 37.40 384.70 L 40.10 386.90 L 43.00 388.70 L 46.10 390.20 L 49.50 391.20 L 53.00 391.80 L 56.70 392.00 L 160.30 392.00 L 164.00 391.80 L 167.50 391.20 L 170.90 390.20 L 174.00 388.70 L 176.90 386.90 L 179.60 384.70 L 181.90 382.20 L 183.90 379.40 L 185.60 376.40 L 186.80 373.20 L 187.60 369.80 L 188.00 366.10 L 187.60 362.20 L 186.60 358.40 L 185.10 354.90 L 183.10 351.70 L 180.70 348.80 L 177.80 346.20 L 174.60 344.00 L 171.10 342.40 L 167.20 341.20 Z" fill="url(#linearGradient-2)" fill-rule="nonzero" id="路径" node-id="61" stroke="none" target-height="84" target-width="159" target-x="29" target-y="308"></path><path d="M 767.90 204.30 L 763.80 199.30 L 758.80 195.40 L 753.10 192.50 L 750.00 191.60 L 743.60 190.70 L 741.60 187.90 L 736.70 183.20 L 730.90 179.80 L 724.50 177.70 L 717.60 177.00 L 713.50 177.20 L 709.40 178.00 L 705.50 179.30 L 701.80 181.10 L 698.40 183.30 L 695.30 186.10 L 689.70 184.90 L 686.90 184.80 L 682.50 185.10 L 678.50 186.10 L 674.70 187.60 L 671.30 189.60 L 668.30 192.00 L 665.80 194.90 L 663.00 199.80 L 661.70 205.30 L 658.40 206.30 L 655.50 207.80 L 652.70 209.60 L 650.30 211.80 L 648.30 214.30 L 646.60 217.10 L 645.30 220.10 L 644.40 223.20 L 644.00 226.60 L 644.20 229.70 L 644.90 232.60 L 646.00 235.30 L 649.30 240.30 L 651.40 242.40 L 656.50 245.90 L 662.50 248.20 L 665.70 248.80 L 669.20 249.00 L 765.80 249.00 L 769.30 248.80 L 772.60 248.20 L 775.70 247.20 L 781.30 244.30 L 785.80 240.30 L 787.60 237.90 L 789.00 235.30 L 790.10 232.60 L 790.80 229.70 L 791.00 226.60 L 790.80 223.70 L 790.30 220.90 L 789.30 218.30 L 788.00 215.80 L 785.80 212.80 L 783.00 210.20 L 779.70 207.90 L 776.10 206.20 L 772.20 205.00 L 767.90 204.30 Z" fill="url(#linearGradient-3)" fill-rule="nonzero" id="路径" node-id="62" stroke="none" target-height="72" target-width="147" target-x="644" target-y="177"></path><path d="M 948.40 171.70 L 945.70 167.00 L 942.80 162.50 L 939.40 158.50 L 935.70 154.70 L 931.70 151.30 L 927.40 148.40 L 922.80 145.80 L 918.00 143.60 L 913.00 141.90 L 907.90 140.70 L 902.60 139.90 L 897.10 139.60 L 891.00 140.00 L 885.10 140.90 L 879.30 142.50 L 873.70 144.70 L 868.40 147.50 L 863.30 150.80 L 858.40 142.90 L 852.30 136.00 L 847.70 132.00 L 842.80 128.60 L 837.50 125.70 L 831.90 123.30 L 826.10 121.60 L 820.10 120.50 L 815.60 120.10 L 806.30 120.40 L 801.60 121.10 L 796.90 122.20 L 792.50 123.70 L 784.20 127.60 L 779.10 130.90 L 774.40 134.70 L 770.20 138.90 L 764.70 146.10 L 760.40 154.10 L 757.40 162.70 L 755.90 172.00 L 750.90 173.80 L 746.30 176.00 L 741.90 178.60 L 737.80 181.50 L 734.00 184.80 L 730.50 188.30 L 727.40 192.10 L 724.60 196.20 L 722.20 200.50 L 720.10 205.00 L 718.50 209.60 L 717.20 214.50 L 716.40 219.40 L 716.00 224.40 L 716.10 229.60 L 716.70 234.80 L 717.70 240.00 L 719.20 244.90 L 721.00 249.60 L 723.30 254.00 L 726.00 258.30 L 729.00 262.20 L 732.20 265.90 L 735.90 269.30 L 739.80 272.30 L 743.90 275.00 L 748.30 277.40 L 752.90 279.40 L 757.70 280.90 L 762.60 282.00 L 767.70 282.70 L 773.00 283.00 L 931.90 283.00 L 937.20 282.80 L 942.30 282.10 L 947.30 280.90 L 952.10 279.40 L 956.70 277.40 L 961.10 275.00 L 965.30 272.30 L 969.20 269.20 L 972.80 265.80 L 976.10 262.20 L 979.10 258.20 L 981.80 253.90 L 984.00 249.40 L 985.90 244.70 L 987.30 239.70 L 988.40 234.50 L 988.90 229.30 L 989.00 224.10 L 988.60 219.10 L 987.70 214.10 L 986.40 209.30 L 984.70 204.60 L 982.60 200.10 L 980.10 195.80 L 977.30 191.70 L 974.10 187.90 L 970.50 184.40 L 966.70 181.20 L 962.50 178.30 L 958.10 175.80 L 948.40 171.70 Z" fill="url(#linearGradient-4)" fill-rule="nonzero" id="路径" node-id="63" stroke="none" target-height="162.9" target-width="273" target-x="716" target-y="120.1"></path><path d="M 904.00 605.00 L 899.20 669.00 L 863.00 658.50 Z" fill="#e4efff" fill-rule="nonzero" id="路径" node-id="64" stroke="none" target-height="64" target-width="41" target-x="863" target-y="605"></path><path d="M 903.80 605.00 L 934.00 661.40 L 899.00 669.00 Z" fill="#f3f8ff" fill-rule="nonzero" id="路径" node-id="65" stroke="none" target-height="64" target-width="35" target-x="899" target-y="605"></path><g node-id="177"><g node-id="178"><path d="M 461.10 335.70 L 465.20 335.30 L 467.20 335.70 L 470.80 337.40 L 473.60 340.20 L 475.40 344.00 L 475.80 346.80 L 475.60 349.40 L 474.70 351.90 L 473.40 354.20 L 471.60 356.10 L 469.30 357.60 L 473.70 373.70 L 469.10 374.90 L 464.80 358.80 L 462.10 358.60 L 459.60 357.90 L 457.30 356.60 L 455.40 354.80 L 453.90 352.70 L 452.80 350.10 L 452.50 345.90 L 453.50 342.00 L 455.80 338.80 L 457.30 337.50 L 461.10 335.70 Z" fill="url(#linearGradient-5)" fill-rule="nonzero" group-id="2,3" id="形状结合" node-id="68" stroke="none" target-height="39.600006" target-width="23.299988" target-x="452.5" target-y="335.3"></path><path d="M 585.10 419.20 L 586.50 425.90 L 587.30 432.50 L 587.40 439.10 L 587.00 445.60 L 585.90 452.10 L 584.30 458.50 L 582.10 464.80 L 579.30 471.00 L 576.10 477.00 L 572.40 482.80 L 568.20 488.30 L 563.40 493.70 L 558.30 498.70 L 552.80 503.40 L 546.80 507.90 L 540.40 512.00 L 533.80 515.60 L 526.80 518.80 L 519.40 521.70 L 511.50 524.10 L 503.60 525.90 L 495.70 527.10 L 488.10 527.90 L 480.50 528.00 L 472.90 527.70 L 465.50 526.80 L 458.40 525.50 L 451.40 523.70 L 444.60 521.40 L 438.20 518.70 L 432.10 515.60 L 426.30 512.00 L 420.80 508.00 L 415.80 503.70 L 411.20 498.90 L 407.00 493.80 L 403.30 488.40 L 400.20 482.60 L 397.50 476.50 L 395.40 470.00 L 394.00 463.40 L 393.20 456.80 L 393.10 450.20 L 393.60 443.60 L 394.60 437.10 L 396.20 430.70 L 398.40 424.40 L 401.20 418.20 L 404.40 412.30 L 408.10 406.50 L 412.30 400.90 L 417.10 395.50 L 422.20 390.50 L 427.70 385.80 L 433.70 381.40 L 440.10 377.30 L 446.70 373.60 L 453.80 370.40 L 461.20 367.60 L 469.00 365.20 L 476.90 363.40 L 484.80 362.10 L 492.40 361.40 L 500.00 361.20 L 507.60 361.60 L 515.00 362.40 L 522.20 363.70 L 529.10 365.50 L 535.90 367.80 L 542.30 370.50 L 548.40 373.70 L 554.20 377.20 L 559.70 381.20 L 564.70 385.60 L 569.30 390.30 L 573.50 395.40 L 577.20 400.90 L 580.30 406.60 L 583.00 412.70 L 585.10 419.20 Z" fill="url(#linearGradient-6)" fill-rule="nonzero" group-id="2,3" id="椭圆形" node-id="69" stroke="none" target-height="166.79999" target-width="194.30002" target-x="393.1" target-y="361.2"></path><path d="M 698.40 444.80 L 699.10 448.50 L 699.20 452.40 L 698.80 456.30 L 697.90 460.40 L 696.30 464.80 L 693.80 469.80 L 690.50 475.00 L 686.30 480.50 L 681.10 486.30 L 675.70 491.50 L 669.50 496.90 L 662.40 502.50 L 654.40 508.20 L 637.70 518.70 L 628.20 524.00 L 618.00 529.40 L 604.20 535.90 L 589.40 542.40 L 573.40 548.60 L 557.30 554.40 L 540.30 559.80 L 522.50 564.90 L 504.50 569.40 L 487.10 573.20 L 470.20 576.30 L 453.30 578.80 L 437.20 580.70 L 422.00 581.90 L 410.40 582.40 L 399.60 582.50 L 379.90 581.70 L 370.10 580.80 L 361.20 579.50 L 353.10 577.90 L 345.80 576.10 L 338.40 573.70 L 332.00 571.00 L 326.50 568.20 L 321.90 565.10 L 318.40 562.10 L 315.50 559.00 L 313.20 555.80 L 311.40 552.40 L 310.10 548.80 L 309.40 545.10 L 309.30 541.30 L 309.70 537.30 L 310.60 533.20 L 312.20 528.90 L 314.70 523.90 L 318.00 518.70 L 322.20 513.20 L 327.40 507.40 L 332.80 502.10 L 339.00 496.70 L 346.10 491.20 L 354.10 485.50 L 370.80 474.90 L 380.20 469.60 L 390.50 464.30 L 404.30 457.70 L 419.10 451.30 L 435.00 445.00 L 451.20 439.30 L 468.20 433.80 L 486.00 428.70 L 504.00 424.20 L 521.40 420.40 L 538.30 417.30 L 555.20 414.80 L 571.30 413.00 L 586.50 411.80 L 598.00 411.30 L 608.90 411.10 L 628.60 411.90 L 638.40 412.90 L 647.30 414.10 L 655.40 415.70 L 662.70 417.50 L 670.10 419.90 L 676.50 422.60 L 681.90 425.50 L 686.60 428.60 L 690.10 431.50 L 693.00 434.60 L 695.30 437.80 L 697.10 441.20 L 698.40 444.80 Z" fill="url(#linearGradient-7)" fill-rule="nonzero" group-id="2,3" id="椭圆形" node-id="70" stroke="none" target-height="171.4" target-width="389.90002" target-x="309.3" target-y="411.1"></path><path d="M 651.30 470.00 L 651.50 467.50 L 652.20 466.20 L 653.80 464.40 L 656.10 462.80 L 658.90 461.50 L 662.20 460.50 L 665.60 460.00 L 668.60 460.10 L 671.40 460.70 L 673.60 461.70 L 675.50 463.60 L 676.00 464.80 L 675.70 467.30 L 675.00 468.60 L 673.50 470.40 L 671.10 472.00 L 668.40 473.30 L 665.10 474.30 L 661.70 474.70 L 658.70 474.70 L 655.90 474.10 L 653.70 473.10 L 652.50 472.20 L 651.30 470.00 Z M 362.60 535.50 L 365.90 534.50 L 368.90 534.00 L 371.80 534.10 L 374.00 534.60 L 375.40 535.30 L 377.00 537.30 L 377.20 539.80 L 376.70 541.20 L 375.50 543.20 L 373.40 545.30 L 371.00 547.00 L 367.90 548.60 L 364.60 549.60 L 361.60 550.10 L 358.80 550.00 L 356.50 549.40 L 355.20 548.70 L 353.60 546.80 L 353.40 544.20 L 353.80 542.80 L 355.10 540.80 L 357.10 538.80 L 359.60 537.00 L 362.60 535.50 Z M 543.70 463.20 L 543.50 461.10 L 544.00 459.00 L 545.20 456.80 L 546.80 454.90 L 549.00 453.00 L 554.70 449.60 L 561.80 447.40 L 569.20 446.60 L 575.80 447.30 L 578.50 448.20 L 580.80 449.30 L 582.70 450.80 L 584.00 452.50 L 584.80 454.50 L 584.90 456.60 L 584.40 458.70 L 583.20 460.90 L 581.60 462.80 L 579.50 464.70 L 573.80 468.10 L 566.70 470.30 L 559.30 471.20 L 552.70 470.40 L 550.00 469.60 L 547.70 468.40 L 545.70 466.90 L 544.40 465.20 L 543.70 463.20 Z M 442.00 474.60 L 449.30 473.00 L 455.90 473.10 L 458.70 473.60 L 461.10 474.50 L 463.20 475.80 L 464.70 477.40 L 465.60 479.30 L 466.00 481.30 L 465.70 483.50 L 464.70 485.80 L 463.30 487.90 L 461.40 490.00 L 458.90 492.10 L 452.90 495.50 L 449.30 496.90 L 445.50 498.00 L 438.70 498.70 L 435.40 498.50 L 432.60 497.90 L 430.20 497.00 L 428.10 495.70 L 426.60 494.10 L 425.60 492.30 L 425.30 490.20 L 425.60 488.10 L 426.50 485.70 L 427.90 483.60 L 429.90 481.50 L 435.20 477.60 L 442.00 474.60 Z" fill="url(#linearGradient-8)" fill-rule="nonzero" group-id="2,3" id="形状结合" node-id="71" stroke="none" target-height="103.49997" target-width="322.6" target-x="353.4" target-y="446.6"></path><path d="M 613.20 489.50 L 613.40 491.50 L 613.10 493.60 L 612.00 496.00 L 610.10 498.80 L 607.10 502.00 L 602.90 505.60 L 597.20 509.60 L 584.40 517.00 L 568.00 524.70 L 548.80 532.20 L 527.80 539.00 L 516.40 542.20 L 504.90 545.10 L 483.30 549.70 L 463.00 552.80 L 444.90 554.40 L 430.10 554.40 L 423.20 553.70 L 417.80 552.70 L 413.60 551.50 L 410.50 550.00 L 408.40 548.50 L 407.00 546.80 L 406.20 545.00 L 406.00 543.00 L 406.40 540.80 L 407.40 538.40 L 409.30 535.70 L 412.30 532.50 L 416.60 528.90 L 422.20 524.90 L 435.00 517.50 L 451.40 509.80 L 470.60 502.30 L 491.60 495.50 L 503.00 492.30 L 514.60 489.40 L 536.10 484.80 L 556.50 481.70 L 574.50 480.10 L 589.30 480.10 L 596.20 480.80 L 601.60 481.80 L 605.90 483.00 L 608.90 484.50 L 611.00 486.00 L 612.40 487.70 L 613.20 489.50 Z" fill="#ffffff" fill-rule="nonzero" group-id="2,3" id="椭圆形复制-6" node-id="72" stroke="none" target-height="74.30002" target-width="207.40002" target-x="406" target-y="480.1"></path><path d="M 439.10 524.70 L 369.50 730.90 L 392.50 730.70 L 415.40 729.90 L 438.30 728.40 L 461.00 726.40 L 483.70 723.70 L 506.30 720.40 L 528.90 716.40 L 551.40 711.80 L 573.90 706.60 L 596.30 700.70 L 618.70 694.20 L 641.10 687.00 L 663.50 679.20 L 685.90 670.70 L 708.30 661.50 L 730.70 651.70 L 728.70 649.40 L 699.30 618.50 L 573.90 488.50 L 439.10 524.70 Z" fill="url(#linearGradient-9)" fill-rule="nonzero" group-id="2,3" id="路径-2" node-id="73" stroke="none" target-height="242.40002" target-width="361.2" target-x="369.5" target-y="488.5"></path><g node-id="179"><path d="M 482.20 573.80 L 465.50 623.60 L 473.70 623.10 L 472.50 606.70 L 497.80 605.10 L 499.00 621.50 L 508.50 620.90 L 509.90 640.90 L 500.30 641.50 L 501.40 658.00 L 476.20 659.60 L 475.10 643.10 L 439.20 645.40 L 438.00 627.20 L 456.10 575.40 Z" fill="url(#linearGradient-10)" fill-rule="nonzero" group-id="2,3,4" id="路径" node-id="75" stroke="none" target-height="85.79999" target-width="71.899994" target-x="438" target-y="573.8"></path><path d="M 560.20 565.30 L 560.00 572.50 L 559.20 578.80 L 558.00 584.40 L 556.40 589.20 L 554.60 593.10 L 552.60 596.40 L 550.30 599.40 L 547.70 601.90 L 544.90 604.00 L 541.80 605.80 L 538.40 607.20 L 534.70 608.30 L 530.70 608.90 L 526.20 609.10 L 521.70 608.90 L 517.60 608.30 L 513.90 607.20 L 510.50 605.80 L 507.30 604.00 L 504.50 601.90 L 501.90 599.40 L 499.50 596.40 L 497.40 593.10 L 495.60 589.20 L 493.90 584.40 L 492.70 578.80 L 491.80 572.50 L 491.50 565.30 L 491.70 558.20 L 492.50 551.80 L 493.70 546.30 L 495.30 541.40 L 497.10 537.60 L 499.10 534.20 L 501.40 531.30 L 504.00 528.80 L 506.80 526.60 L 509.90 524.90 L 513.30 523.40 L 517.00 522.40 L 521.10 521.80 L 525.60 521.50 L 530.10 521.80 L 534.20 522.40 L 537.90 523.40 L 541.30 524.80 L 544.40 526.60 L 547.20 528.80 L 549.80 531.30 L 552.20 534.20 L 554.20 537.60 L 556.10 541.40 L 557.80 546.30 L 559.00 551.80 L 559.90 558.10 L 560.20 565.30 Z M 518.10 565.30 L 518.30 573.90 L 518.90 579.80 L 519.50 583.40 L 520.40 585.90 L 521.40 587.60 L 522.70 589.00 L 524.20 589.70 L 526.10 590.00 L 527.90 589.70 L 529.50 589.00 L 530.70 587.60 L 531.70 585.90 L 532.50 583.30 L 533.10 579.70 L 533.60 573.80 L 533.70 565.30 L 533.50 556.70 L 532.90 550.80 L 532.20 547.20 L 531.40 544.70 L 530.50 543.00 L 529.20 541.70 L 527.60 540.90 L 525.80 540.70 L 523.90 540.90 L 522.40 541.70 L 521.10 543.00 L 520.10 544.70 L 519.30 547.20 L 518.70 550.90 L 518.20 556.70 L 518.10 565.30 Z M 599.90 542.40 L 593.10 595.20 L 601.10 593.00 L 596.80 577.00 L 621.40 570.40 L 625.70 586.40 L 635.10 583.90 L 640.40 603.50 L 631.00 606.00 L 635.30 622.20 L 610.60 628.80 L 606.30 612.60 L 571.30 622.00 L 566.60 604.20 L 574.40 549.20 L 599.90 542.40 Z" fill="url(#linearGradient-11)" fill-rule="nonzero" group-id="2,3,4" id="形状" node-id="76" stroke="none" target-height="107.29999" target-width="148.90002" target-x="491.5" target-y="521.5"></path></g></g></g></svg>