<svg viewBox="0 0 4800 4800" xmlns="http://www.w3.org/2000/svg"><mask id="b" x="0" y="0" width="4800" height="4800"><path fill="url(#a)" d="M0 0h4800v4800H0z"/></mask><path fill="#006aff" d="M0 0h4800v4800H0z"/><g style="transform-origin:center center" stroke="#7fb4ff" stroke-width="2.4" mask="url(#b)"><path fill="none" d="M0 0h141.176v141.176H0zM141.176 0h141.176v141.176H141.176zM282.353 0h141.176v141.176H282.353z"/><path fill="#7fb4ffff" d="M423.529 0h141.176v141.176H423.529z"/><path fill="#7fb4ffe0" d="M564.706 0h141.176v141.176H564.706z"/><path fill="#7fb4ff87" d="M705.882 0h141.176v141.176H705.882z"/><path fill="#7fb4ff81" d="M847.059 0h141.176v141.176H847.059z"/><path fill="none" d="M988.235 0h141.176v141.176H988.235z"/><path fill="#7fb4ff38" d="M1129.412 0h141.176v141.176h-141.176z"/><path fill="#7fb4ffce" d="M1270.588 0h141.176v141.176h-141.176z"/><path fill="none" d="M1411.765 0h141.176v141.176h-141.176zM1552.941 0h141.176v141.176h-141.176zM1694.118 0h141.176v141.176h-141.176zM1835.294 0h141.176v141.176h-141.176zM1976.471 0h141.176v141.176h-141.176zM2117.647 0h141.176v141.176h-141.176z"/><path fill="#7fb4ff04" d="M2258.824 0H2400v141.176h-141.176z"/><path fill="#7fb4ff6c" d="M2400 0h141.176v141.176H2400z"/><path fill="none" d="M2541.176 0h141.176v141.176h-141.176z"/><path fill="#7fb4ff95" d="M2682.353 0h141.176v141.176h-141.176z"/><path fill="none" d="M2823.529 0h141.176v141.176h-141.176zM2964.706 0h141.176v141.176h-141.176zM3105.882 0h141.176v141.176h-141.176zM3247.059 0h141.176v141.176h-141.176zM3388.235 0h141.176v141.176h-141.176zM3529.412 0h141.176v141.176h-141.176z"/><path fill="#7fb4ff3c" d="M3670.588 0h141.176v141.176h-141.176z"/><path fill="none" d="M3811.765 0h141.176v141.176h-141.176zM3952.941 0h141.176v141.176h-141.176zM4094.118 0h141.176v141.176h-141.176zM4235.294 0h141.176v141.176h-141.176zM4376.471 0h141.176v141.176h-141.176zM4517.647 0h141.176v141.176h-141.176zM4658.824 0H4800v141.176h-141.176zM0 141.176h141.176v141.176H0z"/><path fill="#7fb4ff6f" d="M141.176 141.176h141.176v141.176H141.176z"/><path fill="#7fb4ffe9" d="M282.353 141.176h141.176v141.176H282.353z"/><path fill="none" d="M423.529 141.176h141.176v141.176H423.529zM564.706 141.176h141.176v141.176H564.706z"/><path fill="#7fb4ffc1" d="M705.882 141.176h141.176v141.176H705.882z"/><path fill="none" d="M847.059 141.176h141.176v141.176H847.059zM988.235 141.176h141.176v141.176H988.235zM1129.412 141.176h141.176v141.176h-141.176z"/><path fill="#7fb4ff39" d="M1270.588 141.176h141.176v141.176h-141.176z"/><path fill="none" d="M1411.765 141.176h141.176v141.176h-141.176zM1552.941 141.176h141.176v141.176h-141.176z"/><path fill="#7fb4ff23" d="M1694.118 141.176h141.176v141.176h-141.176z"/><path fill="#7fb4ff00" d="M1835.294 141.176h141.176v141.176h-141.176z"/><path fill="none" d="M1976.471 141.176h141.176v141.176h-141.176z"/><path fill="#7fb4ff5f" d="M2117.647 141.176h141.176v141.176h-141.176z"/><path fill="#7fb4ffca" d="M2258.824 141.176H2400v141.176h-141.176z"/><path fill="none" d="M2400 141.176h141.176v141.176H2400zM2541.176 141.176h141.176v141.176h-141.176zM2682.353 141.176h141.176v141.176h-141.176zM2823.529 141.176h141.176v141.176h-141.176zM2964.706 141.176h141.176v141.176h-141.176z"/><path fill="#7fb4ffa0" d="M3105.882 141.176h141.176v141.176h-141.176z"/><path fill="none" d="M3247.059 141.176h141.176v141.176h-141.176zM3388.235 141.176h141.176v141.176h-141.176zM3529.412 141.176h141.176v141.176h-141.176zM3670.588 141.176h141.176v141.176h-141.176zM3811.765 141.176h141.176v141.176h-141.176zM3952.941 141.176h141.176v141.176h-141.176zM4094.118 141.176h141.176v141.176h-141.176zM4235.294 141.176h141.176v141.176h-141.176z"/><path fill="#7fb4fffd" d="M4376.471 141.176h141.176v141.176h-141.176z"/><path fill="none" d="M4517.647 141.176h141.176v141.176h-141.176zM4658.824 141.176H4800v141.176h-141.176zM0 282.353h141.176v141.176H0zM141.176 282.353h141.176v141.176H141.176z"/><path fill="#7fb4ffe3" d="M282.353 282.353h141.176v141.176H282.353z"/><path fill="none" d="M423.529 282.353h141.176v141.176H423.529zM564.706 282.353h141.176v141.176H564.706z"/><path fill="none" d="M705.882 282.353h141.176v141.176H705.882z"/><path fill="#7fb4ff3c" d="M847.059 282.353h141.176v141.176H847.059z"/><path fill="none" d="M988.235 282.353h141.176v141.176H988.235z"/><path fill="#7fb4ff0d" d="M1129.412 282.353h141.176v141.176h-141.176z"/><path fill="none" d="M1270.588 282.353h141.176v141.176h-141.176zM1411.765 282.353h141.176v141.176h-141.176zM1552.941 282.353h141.176v141.176h-141.176z"/><path fill="#7fb4ffad" d="M1694.118 282.353h141.176v141.176h-141.176z"/><path fill="none" d="M1835.294 282.353h141.176v141.176h-141.176zM1976.471 282.353h141.176v141.176h-141.176zM2117.647 282.353h141.176v141.176h-141.176zM2258.824 282.353H2400v141.176h-141.176z"/><path fill="#7fb4ff08" d="M2400 282.353h141.176v141.176H2400z"/><path fill="none" d="M2541.176 282.353h141.176v141.176h-141.176zM2682.353 282.353h141.176v141.176h-141.176zM2823.529 282.353h141.176v141.176h-141.176z"/><path fill="#7fb4ff2a" d="M2964.706 282.353h141.176v141.176h-141.176z"/><path fill="#7fb4ff71" d="M3105.882 282.353h141.176v141.176h-141.176z"/><path fill="none" d="M3247.059 282.353h141.176v141.176h-141.176z"/><path fill="#7fb4ff8f" d="M3388.235 282.353h141.176v141.176h-141.176z"/><path fill="#7fb4ff5d" d="M3529.412 282.353h141.176v141.176h-141.176z"/><path fill="none" d="M3670.588 282.353h141.176v141.176h-141.176z"/><path fill="#7fb4ffc8" d="M3811.765 282.353h141.176v141.176h-141.176z"/><path fill="#7fb4ff2a" d="M3952.941 282.353h141.176v141.176h-141.176z"/><path fill="#7fb4fff6" d="M4094.118 282.353h141.176v141.176h-141.176z"/><path fill="none" d="M4235.294 282.353h141.176v141.176h-141.176zM4376.471 282.353h141.176v141.176h-141.176zM4517.647 282.353h141.176v141.176h-141.176zM4658.824 282.353H4800v141.176h-141.176zM0 423.529h141.176v141.176H0zM141.176 423.529h141.176v141.176H141.176zM282.353 423.529h141.176v141.176H282.353zM423.529 423.529h141.176v141.176H423.529zM564.706 423.529h141.176v141.176H564.706z"/><path fill="#7fb4ff6e" d="M705.882 423.529h141.176v141.176H705.882z"/><path fill="none" d="M847.059 423.529h141.176v141.176H847.059z"/><path fill="#7fb4ff5c" d="M988.235 423.529h141.176v141.176H988.235z"/><path fill="#7fb4ff72" d="M1129.412 423.529h141.176v141.176h-141.176z"/><path fill="none" d="M1270.588 423.529h141.176v141.176h-141.176z"/><path fill="#7fb4ff4d" d="M1411.765 423.529h141.176v141.176h-141.176z"/><path fill="none" d="M1552.941 423.529h141.176v141.176h-141.176z"/><path fill="#7fb4ff5c" d="M1694.118 423.529h141.176v141.176h-141.176z"/><path fill="none" d="M1835.294 423.529h141.176v141.176h-141.176zM1976.471 423.529h141.176v141.176h-141.176zM2117.647 423.529h141.176v141.176h-141.176zM2258.824 423.529H2400v141.176h-141.176zM2400 423.529h141.176v141.176H2400z"/><path fill="#7fb4ff7f" d="M2541.176 423.529h141.176v141.176h-141.176z"/><path fill="#7fb4ff4d" d="M2682.353 423.529h141.176v141.176h-141.176z"/><path fill="none" d="M2823.529 423.529h141.176v141.176h-141.176zM2964.706 423.529h141.176v141.176h-141.176zM3105.882 423.529h141.176v141.176h-141.176zM3247.059 423.529h141.176v141.176h-141.176z"/><path fill="#7fb4ff12" d="M3388.235 423.529h141.176v141.176h-141.176z"/><path fill="#7fb4ff40" d="M3529.412 423.529h141.176v141.176h-141.176z"/><path fill="none" d="M3670.588 423.529h141.176v141.176h-141.176zM3811.765 423.529h141.176v141.176h-141.176zM3952.941 423.529h141.176v141.176h-141.176zM4094.118 423.529h141.176v141.176h-141.176z"/><path fill="#7fb4ffc1" d="M4235.294 423.529h141.176v141.176h-141.176z"/><path fill="#7fb4ff92" d="M4376.471 423.529h141.176v141.176h-141.176z"/><path fill="none" d="M4517.647 423.529h141.176v141.176h-141.176zM4658.824 423.529H4800v141.176h-141.176zM0 564.706h141.176v141.176H0zM141.176 564.706h141.176v141.176H141.176z"/><path fill="#7fb4fff9" d="M282.353 564.706h141.176v141.176H282.353z"/><path fill="none" d="M423.529 564.706h141.176v141.176H423.529zM564.706 564.706h141.176v141.176H564.706z"/><path fill="none" d="M705.882 564.706h141.176v141.176H705.882zM847.059 564.706h141.176v141.176H847.059zM988.235 564.706h141.176v141.176H988.235zM1129.412 564.706h141.176v141.176h-141.176zM1270.588 564.706h141.176v141.176h-141.176zM1411.765 564.706h141.176v141.176h-141.176zM1552.941 564.706h141.176v141.176h-141.176zM1694.118 564.706h141.176v141.176h-141.176z"/><path fill="#7fb4ff6f" d="M1835.294 564.706h141.176v141.176h-141.176z"/><path fill="none" d="M1976.471 564.706h141.176v141.176h-141.176zM2117.647 564.706h141.176v141.176h-141.176zM2258.824 564.706H2400v141.176h-141.176zM2400 564.706h141.176v141.176H2400zM2541.176 564.706h141.176v141.176h-141.176zM2682.353 564.706h141.176v141.176h-141.176z"/><path fill="#7fb4ff87" d="M2823.529 564.706h141.176v141.176h-141.176z"/><path fill="none" d="M2964.706 564.706h141.176v141.176h-141.176zM3105.882 564.706h141.176v141.176h-141.176zM3247.059 564.706h141.176v141.176h-141.176z"/><path fill="#7fb4ff38" d="M3388.235 564.706h141.176v141.176h-141.176z"/><path fill="none" d="M3529.412 564.706h141.176v141.176h-141.176zM3670.588 564.706h141.176v141.176h-141.176zM3811.765 564.706h141.176v141.176h-141.176zM3952.941 564.706h141.176v141.176h-141.176zM4094.118 564.706h141.176v141.176h-141.176z"/><path fill="#7fb4ff3a" d="M4235.294 564.706h141.176v141.176h-141.176z"/><path fill="none" d="M4376.471 564.706h141.176v141.176h-141.176zM4517.647 564.706h141.176v141.176h-141.176z"/><path fill="#7fb4ff4b" d="M4658.824 564.706H4800v141.176h-141.176z"/><path fill="none" d="M0 705.882h141.176v141.176H0z"/><path fill="#7fb4ffc8" d="M141.176 705.882h141.176v141.176H141.176z"/><path fill="none" d="M282.353 705.882h141.176v141.176H282.353zM423.529 705.882h141.176v141.176H423.529zM564.706 705.882h141.176v141.176H564.706z"/><path fill="none" d="M705.882 705.882h141.176v141.176H705.882zM847.059 705.882h141.176v141.176H847.059zM988.235 705.882h141.176v141.176H988.235z"/><path fill="#7fb4ffc3" d="M1129.412 705.882h141.176v141.176h-141.176z"/><path fill="#7fb4ff1f" d="M1270.588 705.882h141.176v141.176h-141.176z"/><path fill="none" d="M1411.765 705.882h141.176v141.176h-141.176z"/><path fill="#7fb4ff50" d="M1552.941 705.882h141.176v141.176h-141.176z"/><path fill="none" d="M1694.118 705.882h141.176v141.176h-141.176z"/><path fill="#7fb4ff4d" d="M1835.294 705.882h141.176v141.176h-141.176z"/><path fill="#7fb4ff4b" d="M1976.471 705.882h141.176v141.176h-141.176z"/><path fill="none" d="M2117.647 705.882h141.176v141.176h-141.176zM2258.824 705.882H2400v141.176h-141.176zM2400 705.882h141.176v141.176H2400zM2541.176 705.882h141.176v141.176h-141.176zM2682.353 705.882h141.176v141.176h-141.176z"/><path fill="#7fb4ffd8" d="M2823.529 705.882h141.176v141.176h-141.176z"/><path fill="#7fb4ffb5" d="M2964.706 705.882h141.176v141.176h-141.176z"/><path fill="none" d="M3105.882 705.882h141.176v141.176h-141.176zM3247.059 705.882h141.176v141.176h-141.176zM3388.235 705.882h141.176v141.176h-141.176zM3529.412 705.882h141.176v141.176h-141.176zM3670.588 705.882h141.176v141.176h-141.176zM3811.765 705.882h141.176v141.176h-141.176z"/><path fill="#7fb4fff5" d="M3952.941 705.882h141.176v141.176h-141.176z"/><path fill="#7fb4ff99" d="M4094.118 705.882h141.176v141.176h-141.176z"/><path fill="none" d="M4235.294 705.882h141.176v141.176h-141.176zM4376.471 705.882h141.176v141.176h-141.176zM4517.647 705.882h141.176v141.176h-141.176zM4658.824 705.882H4800v141.176h-141.176zM0 847.059h141.176v141.176H0z"/><path fill="#7fb4ff45" d="M141.176 847.059h141.176v141.176H141.176z"/><path fill="none" d="M282.353 847.059h141.176v141.176H282.353zM423.529 847.059h141.176v141.176H423.529z"/><path fill="#7fb4ffb4" d="M564.706 847.059h141.176v141.176H564.706z"/><path fill="none" d="M705.882 847.059h141.176v141.176H705.882z"/><path fill="#7fb4ff83" d="M847.059 847.059h141.176v141.176H847.059z"/><path fill="#7fb4ffbe" d="M988.235 847.059h141.176v141.176H988.235z"/><path fill="none" d="M1129.412 847.059h141.176v141.176h-141.176zM1270.588 847.059h141.176v141.176h-141.176z"/><path fill="#7fb4ff52" d="M1411.765 847.059h141.176v141.176h-141.176z"/><path fill="none" d="M1552.941 847.059h141.176v141.176h-141.176zM1694.118 847.059h141.176v141.176h-141.176zM1835.294 847.059h141.176v141.176h-141.176zM1976.471 847.059h141.176v141.176h-141.176zM2117.647 847.059h141.176v141.176h-141.176zM2258.824 847.059H2400v141.176h-141.176zM2400 847.059h141.176v141.176H2400zM2541.176 847.059h141.176v141.176h-141.176zM2682.353 847.059h141.176v141.176h-141.176zM2823.529 847.059h141.176v141.176h-141.176zM2964.706 847.059h141.176v141.176h-141.176zM3105.882 847.059h141.176v141.176h-141.176zM3247.059 847.059h141.176v141.176h-141.176z"/><path fill="#7fb4ff3e" d="M3388.235 847.059h141.176v141.176h-141.176z"/><path fill="none" d="M3529.412 847.059h141.176v141.176h-141.176zM3670.588 847.059h141.176v141.176h-141.176zM3811.765 847.059h141.176v141.176h-141.176zM3952.941 847.059h141.176v141.176h-141.176z"/><path fill="#7fb4ffc6" d="M4094.118 847.059h141.176v141.176h-141.176z"/><path fill="none" d="M4235.294 847.059h141.176v141.176h-141.176zM4376.471 847.059h141.176v141.176h-141.176zM4517.647 847.059h141.176v141.176h-141.176z"/><path fill="#7fb4ffe2" d="M4658.824 847.059H4800v141.176h-141.176z"/><path fill="#7fb4ffb6" d="M0 988.235h141.176v141.176H0z"/><path fill="#7fb4ff1c" d="M141.176 988.235h141.176v141.176H141.176z"/><path fill="#7fb4ff80" d="M282.353 988.235h141.176v141.176H282.353z"/><path fill="none" d="M423.529 988.235h141.176v141.176H423.529zM564.706 988.235h141.176v141.176H564.706z"/><path fill="none" d="M705.882 988.235h141.176v141.176H705.882zM847.059 988.235h141.176v141.176H847.059z"/><path fill="#7fb4ffe6" d="M988.235 988.235h141.176v141.176H988.235z"/><path fill="#7fb4ff75" d="M1129.412 988.235h141.176v141.176h-141.176z"/><path fill="none" d="M1270.588 988.235h141.176v141.176h-141.176zM1411.765 988.235h141.176v141.176h-141.176zM1552.941 988.235h141.176v141.176h-141.176zM1694.118 988.235h141.176v141.176h-141.176z"/><path fill="#7fb4ff75" d="M1835.294 988.235h141.176v141.176h-141.176z"/><path fill="none" d="M1976.471 988.235h141.176v141.176h-141.176zM2117.647 988.235h141.176v141.176h-141.176zM2258.824 988.235H2400v141.176h-141.176zM2400 988.235h141.176v141.176H2400zM2541.176 988.235h141.176v141.176h-141.176zM2682.353 988.235h141.176v141.176h-141.176zM2823.529 988.235h141.176v141.176h-141.176z"/><path fill="#7fb4ff8e" d="M2964.706 988.235h141.176v141.176h-141.176z"/><path fill="#7fb4ff81" d="M3105.882 988.235h141.176v141.176h-141.176z"/><path fill="none" d="M3247.059 988.235h141.176v141.176h-141.176zM3388.235 988.235h141.176v141.176h-141.176zM3529.412 988.235h141.176v141.176h-141.176z"/><path fill="#7fb4ff15" d="M3670.588 988.235h141.176v141.176h-141.176z"/><path fill="#7fb4ff8e" d="M3811.765 988.235h141.176v141.176h-141.176z"/><path fill="#7fb4ff33" d="M3952.941 988.235h141.176v141.176h-141.176z"/><path fill="#7fb4ffc4" d="M4094.118 988.235h141.176v141.176h-141.176z"/><path fill="none" d="M4235.294 988.235h141.176v141.176h-141.176z"/><path fill="#7fb4ff61" d="M4376.471 988.235h141.176v141.176h-141.176z"/><path fill="none" d="M4517.647 988.235h141.176v141.176h-141.176z"/><path fill="#7fb4ffe1" d="M4658.824 988.235H4800v141.176h-141.176z"/><path fill="none" d="M0 1129.412h141.176v141.176H0zM141.176 1129.412h141.176v141.176H141.176zM282.353 1129.412h141.176v141.176H282.353zM423.529 1129.412h141.176v141.176H423.529z"/><path fill="#7fb4ff34" d="M564.706 1129.412h141.176v141.176H564.706z"/><path fill="none" d="M705.882 1129.412h141.176v141.176H705.882zM847.059 1129.412h141.176v141.176H847.059zM988.235 1129.412h141.176v141.176H988.235z"/><path fill="#7fb4ff3a" d="M1129.412 1129.412h141.176v141.176h-141.176z"/><path fill="#7fb4ffd3" d="M1270.588 1129.412h141.176v141.176h-141.176z"/><path fill="none" d="M1411.765 1129.412h141.176v141.176h-141.176zM1552.941 1129.412h141.176v141.176h-141.176z"/><path fill="#7fb4ff8c" d="M1694.118 1129.412h141.176v141.176h-141.176z"/><path fill="#7fb4ff3d" d="M1835.294 1129.412h141.176v141.176h-141.176z"/><path fill="none" d="M1976.471 1129.412h141.176v141.176h-141.176zM2117.647 1129.412h141.176v141.176h-141.176zM2258.824 1129.412H2400v141.176h-141.176z"/><path fill="#7fb4ff45" d="M2400 1129.412h141.176v141.176H2400z"/><path fill="none" d="M2541.176 1129.412h141.176v141.176h-141.176z"/><path fill="#7fb4fffd" d="M2682.353 1129.412h141.176v141.176h-141.176z"/><path fill="none" d="M2823.529 1129.412h141.176v141.176h-141.176zM2964.706 1129.412h141.176v141.176h-141.176zM3105.882 1129.412h141.176v141.176h-141.176z"/><path fill="#7fb4fff3" d="M3247.059 1129.412h141.176v141.176h-141.176z"/><path fill="none" d="M3388.235 1129.412h141.176v141.176h-141.176z"/><path fill="#7fb4fffc" d="M3529.412 1129.412h141.176v141.176h-141.176z"/><path fill="#7fb4ffa2" d="M3670.588 1129.412h141.176v141.176h-141.176z"/><path fill="none" d="M3811.765 1129.412h141.176v141.176h-141.176zM3952.941 1129.412h141.176v141.176h-141.176zM4094.118 1129.412h141.176v141.176h-141.176z"/><path fill="#7fb4ffce" d="M4235.294 1129.412h141.176v141.176h-141.176z"/><path fill="#7fb4ff2e" d="M4376.471 1129.412h141.176v141.176h-141.176z"/><path fill="none" d="M4517.647 1129.412h141.176v141.176h-141.176z"/><path fill="#7fb4ff77" d="M4658.824 1129.412H4800v141.176h-141.176z"/><path fill="none" d="M0 1270.588h141.176v141.176H0z"/><path fill="#7fb4ff88" d="M141.176 1270.588h141.176v141.176H141.176z"/><path fill="#7fb4ff50" d="M282.353 1270.588h141.176v141.176H282.353z"/><path fill="#7fb4ffe3" d="M423.529 1270.588h141.176v141.176H423.529z"/><path fill="#7fb4ff3a" d="M564.706 1270.588h141.176v141.176H564.706z"/><path fill="#7fb4ff52" d="M705.882 1270.588h141.176v141.176H705.882z"/><path fill="none" d="M847.059 1270.588h141.176v141.176H847.059zM988.235 1270.588h141.176v141.176H988.235zM1129.412 1270.588h141.176v141.176h-141.176z"/><path fill="#7fb4ffe5" d="M1270.588 1270.588h141.176v141.176h-141.176z"/><path fill="none" d="M1411.765 1270.588h141.176v141.176h-141.176z"/><path fill="#7fb4ff55" d="M1552.941 1270.588h141.176v141.176h-141.176z"/><path fill="none" d="M1694.118 1270.588h141.176v141.176h-141.176z"/><path fill="#7fb4ffeb" d="M1835.294 1270.588h141.176v141.176h-141.176z"/><path fill="none" d="M1976.471 1270.588h141.176v141.176h-141.176zM2117.647 1270.588h141.176v141.176h-141.176z"/><path fill="#7fb4ff56" d="M2258.824 1270.588H2400v141.176h-141.176z"/><path fill="none" d="M2400 1270.588h141.176v141.176H2400zM2541.176 1270.588h141.176v141.176h-141.176z"/><path fill="#7fb4ff86" d="M2682.353 1270.588h141.176v141.176h-141.176z"/><path fill="#7fb4ff47" d="M2823.529 1270.588h141.176v141.176h-141.176z"/><path fill="none" d="M2964.706 1270.588h141.176v141.176h-141.176z"/><path fill="#7fb4ff34" d="M3105.882 1270.588h141.176v141.176h-141.176z"/><path fill="none" d="M3247.059 1270.588h141.176v141.176h-141.176zM3388.235 1270.588h141.176v141.176h-141.176z"/><path fill="#7fb4ff09" d="M3529.412 1270.588h141.176v141.176h-141.176z"/><path fill="none" d="M3670.588 1270.588h141.176v141.176h-141.176z"/><path fill="#7fb4ffde" d="M3811.765 1270.588h141.176v141.176h-141.176z"/><path fill="#7fb4fff5" d="M3952.941 1270.588h141.176v141.176h-141.176z"/><path fill="#7fb4ff7d" d="M4094.118 1270.588h141.176v141.176h-141.176z"/><path fill="none" d="M4235.294 1270.588h141.176v141.176h-141.176zM4376.471 1270.588h141.176v141.176h-141.176z"/><path fill="#7fb4ffa9" d="M4517.647 1270.588h141.176v141.176h-141.176z"/><path fill="none" d="M4658.824 1270.588H4800v141.176h-141.176zM0 1411.765h141.176v141.176H0zM141.176 1411.765h141.176v141.176H141.176zM282.353 1411.765h141.176v141.176H282.353z"/><path fill="#7fb4ff5c" d="M423.529 1411.765h141.176v141.176H423.529z"/><path fill="none" d="M564.706 1411.765h141.176v141.176H564.706z"/><path fill="none" d="M705.882 1411.765h141.176v141.176H705.882z"/><path fill="#7fb4ff6c" d="M847.059 1411.765h141.176v141.176H847.059z"/><path fill="none" d="M988.235 1411.765h141.176v141.176H988.235z"/><path fill="#7fb4ff41" d="M1129.412 1411.765h141.176v141.176h-141.176z"/><path fill="none" d="M1270.588 1411.765h141.176v141.176h-141.176z"/><path fill="#7fb4ffe1" d="M1411.765 1411.765h141.176v141.176h-141.176z"/><path fill="#7fb4ff1f" d="M1552.941 1411.765h141.176v141.176h-141.176z"/><path fill="#7fb4ffa4" d="M1694.118 1411.765h141.176v141.176h-141.176z"/><path fill="none" d="M1835.294 1411.765h141.176v141.176h-141.176zM1976.471 1411.765h141.176v141.176h-141.176zM2117.647 1411.765h141.176v141.176h-141.176zM2258.824 1411.765H2400v141.176h-141.176zM2400 1411.765h141.176v141.176H2400z"/><path fill="#7fb4ff19" d="M2541.176 1411.765h141.176v141.176h-141.176z"/><path fill="#7fb4ffc1" d="M2682.353 1411.765h141.176v141.176h-141.176z"/><path fill="none" d="M2823.529 1411.765h141.176v141.176h-141.176z"/><path fill="#7fb4ffe7" d="M2964.706 1411.765h141.176v141.176h-141.176z"/><path fill="#7fb4ff70" d="M3105.882 1411.765h141.176v141.176h-141.176z"/><path fill="none" d="M3247.059 1411.765h141.176v141.176h-141.176zM3388.235 1411.765h141.176v141.176h-141.176zM3529.412 1411.765h141.176v141.176h-141.176zM3670.588 1411.765h141.176v141.176h-141.176z"/><path fill="#7fb4ffa9" d="M3811.765 1411.765h141.176v141.176h-141.176z"/><path fill="#7fb4ff50" d="M3952.941 1411.765h141.176v141.176h-141.176z"/><path fill="none" d="M4094.118 1411.765h141.176v141.176h-141.176zM4235.294 1411.765h141.176v141.176h-141.176zM4376.471 1411.765h141.176v141.176h-141.176zM4517.647 1411.765h141.176v141.176h-141.176zM4658.824 1411.765H4800v141.176h-141.176zM0 1552.941h141.176v141.176H0z"/><path fill="#7fb4ffa1" d="M141.176 1552.941h141.176v141.176H141.176z"/><path fill="#7fb4ff17" d="M282.353 1552.941h141.176v141.176H282.353z"/><path fill="none" d="M423.529 1552.941h141.176v141.176H423.529zM564.706 1552.941h141.176v141.176H564.706z"/><path fill="none" d="M705.882 1552.941h141.176v141.176H705.882zM847.059 1552.941h141.176v141.176H847.059z"/><path fill="#7fb4ff13" d="M988.235 1552.941h141.176v141.176H988.235z"/><path fill="none" d="M1129.412 1552.941h141.176v141.176h-141.176zM1270.588 1552.941h141.176v141.176h-141.176zM1411.765 1552.941h141.176v141.176h-141.176z"/><path fill="#7fb4ff84" d="M1552.941 1552.941h141.176v141.176h-141.176z"/><path fill="none" d="M1694.118 1552.941h141.176v141.176h-141.176zM1835.294 1552.941h141.176v141.176h-141.176z"/><path fill="#7fb4ff0d" d="M1976.471 1552.941h141.176v141.176h-141.176z"/><path fill="#7fb4ff16" d="M2117.647 1552.941h141.176v141.176h-141.176z"/><path fill="none" d="M2258.824 1552.941H2400v141.176h-141.176z"/><path fill="#7fb4ff29" d="M2400 1552.941h141.176v141.176H2400z"/><path fill="none" d="M2541.176 1552.941h141.176v141.176h-141.176zM2682.353 1552.941h141.176v141.176h-141.176z"/><path fill="#7fb4ff75" d="M2823.529 1552.941h141.176v141.176h-141.176z"/><path fill="#7fb4ffef" d="M2964.706 1552.941h141.176v141.176h-141.176z"/><path fill="none" d="M3105.882 1552.941h141.176v141.176h-141.176zM3247.059 1552.941h141.176v141.176h-141.176zM3388.235 1552.941h141.176v141.176h-141.176zM3529.412 1552.941h141.176v141.176h-141.176zM3670.588 1552.941h141.176v141.176h-141.176zM3811.765 1552.941h141.176v141.176h-141.176zM3952.941 1552.941h141.176v141.176h-141.176zM4094.118 1552.941h141.176v141.176h-141.176z"/><path fill="#7fb4ff6e" d="M4235.294 1552.941h141.176v141.176h-141.176z"/><path fill="#7fb4ffe0" d="M4376.471 1552.941h141.176v141.176h-141.176z"/><path fill="none" d="M4517.647 1552.941h141.176v141.176h-141.176z"/><path fill="#7fb4ff15" d="M4658.824 1552.941H4800v141.176h-141.176z"/><path fill="#7fb4ff3c" d="M0 1694.118h141.176v141.176H0z"/><path fill="#7fb4ff74" d="M141.176 1694.118h141.176v141.176H141.176z"/><path fill="none" d="M282.353 1694.118h141.176v141.176H282.353z"/><path fill="#7fb4ff05" d="M423.529 1694.118h141.176v141.176H423.529z"/><path fill="none" d="M564.706 1694.118h141.176v141.176H564.706z"/><path fill="none" d="M705.882 1694.118h141.176v141.176H705.882z"/><path fill="#7fb4ff8a" d="M847.059 1694.118h141.176v141.176H847.059z"/><path fill="#7fb4ff3b" d="M988.235 1694.118h141.176v141.176H988.235z"/><path fill="none" d="M1129.412 1694.118h141.176v141.176h-141.176zM1270.588 1694.118h141.176v141.176h-141.176zM1411.765 1694.118h141.176v141.176h-141.176zM1552.941 1694.118h141.176v141.176h-141.176z"/><path fill="#7fb4ff73" d="M1694.118 1694.118h141.176v141.176h-141.176z"/><path fill="none" d="M1835.294 1694.118h141.176v141.176h-141.176zM1976.471 1694.118h141.176v141.176h-141.176zM2117.647 1694.118h141.176v141.176h-141.176z"/><path fill="#7fb4ff82" d="M2258.824 1694.118H2400v141.176h-141.176z"/><path fill="#7fb4ff41" d="M2400 1694.118h141.176v141.176H2400z"/><path fill="none" d="M2541.176 1694.118h141.176v141.176h-141.176zM2682.353 1694.118h141.176v141.176h-141.176zM2823.529 1694.118h141.176v141.176h-141.176z"/><path fill="#7fb4fff0" d="M2964.706 1694.118h141.176v141.176h-141.176z"/><path fill="#7fb4ff9e" d="M3105.882 1694.118h141.176v141.176h-141.176z"/><path fill="none" d="M3247.059 1694.118h141.176v141.176h-141.176zM3388.235 1694.118h141.176v141.176h-141.176zM3529.412 1694.118h141.176v141.176h-141.176zM3670.588 1694.118h141.176v141.176h-141.176z"/><path fill="#7fb4ff00" d="M3811.765 1694.118h141.176v141.176h-141.176z"/><path fill="none" d="M3952.941 1694.118h141.176v141.176h-141.176zM4094.118 1694.118h141.176v141.176h-141.176z"/><path fill="#7fb4ff99" d="M4235.294 1694.118h141.176v141.176h-141.176z"/><path fill="none" d="M4376.471 1694.118h141.176v141.176h-141.176zM4517.647 1694.118h141.176v141.176h-141.176zM4658.824 1694.118H4800v141.176h-141.176z"/><path fill="#7fb4ffd6" d="M0 1835.294h141.176v141.176H0z"/><path fill="none" d="M141.176 1835.294h141.176v141.176H141.176zM282.353 1835.294h141.176v141.176H282.353zM423.529 1835.294h141.176v141.176H423.529zM564.706 1835.294h141.176v141.176H564.706z"/><path fill="#7fb4ff76" d="M705.882 1835.294h141.176v141.176H705.882z"/><path fill="none" d="M847.059 1835.294h141.176v141.176H847.059z"/><path fill="#7fb4ffac" d="M988.235 1835.294h141.176v141.176H988.235z"/><path fill="#7fb4ff4b" d="M1129.412 1835.294h141.176v141.176h-141.176z"/><path fill="#7fb4ffa5" d="M1270.588 1835.294h141.176v141.176h-141.176z"/><path fill="none" d="M1411.765 1835.294h141.176v141.176h-141.176zM1552.941 1835.294h141.176v141.176h-141.176zM1694.118 1835.294h141.176v141.176h-141.176zM1835.294 1835.294h141.176v141.176h-141.176z"/><path fill="#7fb4ff46" d="M1976.471 1835.294h141.176v141.176h-141.176z"/><path fill="#7fb4ff56" d="M2117.647 1835.294h141.176v141.176h-141.176z"/><path fill="#7fb4ff3a" d="M2258.824 1835.294H2400v141.176h-141.176z"/><path fill="none" d="M2400 1835.294h141.176v141.176H2400zM2541.176 1835.294h141.176v141.176h-141.176z"/><path fill="#7fb4ff56" d="M2682.353 1835.294h141.176v141.176h-141.176z"/><path fill="none" d="M2823.529 1835.294h141.176v141.176h-141.176zM2964.706 1835.294h141.176v141.176h-141.176z"/><path fill="#7fb4ffc2" d="M3105.882 1835.294h141.176v141.176h-141.176z"/><path fill="none" d="M3247.059 1835.294h141.176v141.176h-141.176z"/><path fill="#7fb4ff01" d="M3388.235 1835.294h141.176v141.176h-141.176z"/><path fill="none" d="M3529.412 1835.294h141.176v141.176h-141.176zM3670.588 1835.294h141.176v141.176h-141.176zM3811.765 1835.294h141.176v141.176h-141.176zM3952.941 1835.294h141.176v141.176h-141.176zM4094.118 1835.294h141.176v141.176h-141.176zM4235.294 1835.294h141.176v141.176h-141.176z"/><path fill="#7fb4ff06" d="M4376.471 1835.294h141.176v141.176h-141.176z"/><path fill="none" d="M4517.647 1835.294h141.176v141.176h-141.176zM4658.824 1835.294H4800v141.176h-141.176z"/><path fill="#7fb4ff0d" d="M0 1976.471h141.176v141.176H0z"/><path fill="none" d="M141.176 1976.471h141.176v141.176H141.176zM282.353 1976.471h141.176v141.176H282.353zM423.529 1976.471h141.176v141.176H423.529zM564.706 1976.471h141.176v141.176H564.706z"/><path fill="none" d="M705.882 1976.471h141.176v141.176H705.882zM847.059 1976.471h141.176v141.176H847.059z"/><path fill="#7fb4ffad" d="M988.235 1976.471h141.176v141.176H988.235z"/><path fill="none" d="M1129.412 1976.471h141.176v141.176h-141.176z"/><path fill="#7fb4ff19" d="M1270.588 1976.471h141.176v141.176h-141.176z"/><path fill="none" d="M1411.765 1976.471h141.176v141.176h-141.176z"/><path fill="#7fb4ff23" d="M1552.941 1976.471h141.176v141.176h-141.176z"/><path fill="none" d="M1694.118 1976.471h141.176v141.176h-141.176z"/><path fill="#7fb4ffdc" d="M1835.294 1976.471h141.176v141.176h-141.176z"/><path fill="#7fb4ffa6" d="M1976.471 1976.471h141.176v141.176h-141.176z"/><path fill="#7fb4ff43" d="M2117.647 1976.471h141.176v141.176h-141.176z"/><path fill="none" d="M2258.824 1976.471H2400v141.176h-141.176zM2400 1976.471h141.176v141.176H2400zM2541.176 1976.471h141.176v141.176h-141.176z"/><path fill="#7fb4ffe3" d="M2682.353 1976.471h141.176v141.176h-141.176z"/><path fill="#7fb4ff33" d="M2823.529 1976.471h141.176v141.176h-141.176z"/><path fill="none" d="M2964.706 1976.471h141.176v141.176h-141.176zM3105.882 1976.471h141.176v141.176h-141.176zM3247.059 1976.471h141.176v141.176h-141.176z"/><path fill="#7fb4ff9b" d="M3388.235 1976.471h141.176v141.176h-141.176z"/><path fill="none" d="M3529.412 1976.471h141.176v141.176h-141.176zM3670.588 1976.471h141.176v141.176h-141.176zM3811.765 1976.471h141.176v141.176h-141.176zM3952.941 1976.471h141.176v141.176h-141.176z"/><path fill="#7fb4ff54" d="M4094.118 1976.471h141.176v141.176h-141.176z"/><path fill="#7fb4ffe5" d="M4235.294 1976.471h141.176v141.176h-141.176z"/><path fill="none" d="M4376.471 1976.471h141.176v141.176h-141.176zM4517.647 1976.471h141.176v141.176h-141.176zM4658.824 1976.471H4800v141.176h-141.176z"/><path fill="#7fb4ff28" d="M0 2117.647h141.176v141.176H0z"/><path fill="none" d="M141.176 2117.647h141.176v141.176H141.176zM282.353 2117.647h141.176v141.176H282.353z"/><path fill="#7fb4fffe" d="M423.529 2117.647h141.176v141.176H423.529z"/><path fill="#7fb4ff86" d="M564.706 2117.647h141.176v141.176H564.706z"/><path fill="none" d="M705.882 2117.647h141.176v141.176H705.882zM847.059 2117.647h141.176v141.176H847.059z"/><path fill="#7fb4ff78" d="M988.235 2117.647h141.176v141.176H988.235z"/><path fill="none" d="M1129.412 2117.647h141.176v141.176h-141.176zM1270.588 2117.647h141.176v141.176h-141.176zM1411.765 2117.647h141.176v141.176h-141.176zM1552.941 2117.647h141.176v141.176h-141.176zM1694.118 2117.647h141.176v141.176h-141.176z"/><path fill="#7fb4ffb0" d="M1835.294 2117.647h141.176v141.176h-141.176z"/><path fill="#7fb4fff3" d="M1976.471 2117.647h141.176v141.176h-141.176z"/><path fill="none" d="M2117.647 2117.647h141.176v141.176h-141.176zM2258.824 2117.647H2400v141.176h-141.176zM2400 2117.647h141.176v141.176H2400zM2541.176 2117.647h141.176v141.176h-141.176zM2682.353 2117.647h141.176v141.176h-141.176z"/><path fill="#7fb4fffb" d="M2823.529 2117.647h141.176v141.176h-141.176z"/><path fill="none" d="M2964.706 2117.647h141.176v141.176h-141.176z"/><path fill="#7fb4fffe" d="M3105.882 2117.647h141.176v141.176h-141.176z"/><path fill="none" d="M3247.059 2117.647h141.176v141.176h-141.176zM3388.235 2117.647h141.176v141.176h-141.176zM3529.412 2117.647h141.176v141.176h-141.176zM3670.588 2117.647h141.176v141.176h-141.176zM3811.765 2117.647h141.176v141.176h-141.176zM3952.941 2117.647h141.176v141.176h-141.176z"/><path fill="#7fb4ffea" d="M4094.118 2117.647h141.176v141.176h-141.176z"/><path fill="none" d="M4235.294 2117.647h141.176v141.176h-141.176z"/><path fill="#7fb4ff1c" d="M4376.471 2117.647h141.176v141.176h-141.176z"/><path fill="#7fb4ff4b" d="M4517.647 2117.647h141.176v141.176h-141.176z"/><path fill="none" d="M4658.824 2117.647H4800v141.176h-141.176z"/><path fill="#7fb4ff92" d="M0 2258.824h141.176V2400H0z"/><path fill="none" d="M141.176 2258.824h141.176V2400H141.176zM282.353 2258.824h141.176V2400H282.353zM423.529 2258.824h141.176V2400H423.529zM564.706 2258.824h141.176V2400H564.706z"/><path fill="none" d="M705.882 2258.824h141.176V2400H705.882z"/><path fill="#7fb4ff7b" d="M847.059 2258.824h141.176V2400H847.059z"/><path fill="#7fb4ffe5" d="M988.235 2258.824h141.176V2400H988.235z"/><path fill="none" d="M1129.412 2258.824h141.176V2400h-141.176zM1270.588 2258.824h141.176V2400h-141.176z"/><path fill="#7fb4ff6d" d="M1411.765 2258.824h141.176V2400h-141.176z"/><path fill="none" d="M1552.941 2258.824h141.176V2400h-141.176zM1694.118 2258.824h141.176V2400h-141.176zM1835.294 2258.824h141.176V2400h-141.176zM1976.471 2258.824h141.176V2400h-141.176zM2117.647 2258.824h141.176V2400h-141.176zM2258.824 2258.824H2400V2400h-141.176zM2400 2258.824h141.176V2400H2400z"/><path fill="#7fb4ff13" d="M2541.176 2258.824h141.176V2400h-141.176z"/><path fill="none" d="M2682.353 2258.824h141.176V2400h-141.176zM2823.529 2258.824h141.176V2400h-141.176z"/><path fill="#7fb4ffda" d="M2964.706 2258.824h141.176V2400h-141.176z"/><path fill="none" d="M3105.882 2258.824h141.176V2400h-141.176zM3247.059 2258.824h141.176V2400h-141.176z"/><path fill="#7fb4ff24" d="M3388.235 2258.824h141.176V2400h-141.176z"/><path fill="none" d="M3529.412 2258.824h141.176V2400h-141.176zM3670.588 2258.824h141.176V2400h-141.176z"/><path fill="#7fb4fff5" d="M3811.765 2258.824h141.176V2400h-141.176z"/><path fill="none" d="M3952.941 2258.824h141.176V2400h-141.176zM4094.118 2258.824h141.176V2400h-141.176zM4235.294 2258.824h141.176V2400h-141.176zM4376.471 2258.824h141.176V2400h-141.176zM4517.647 2258.824h141.176V2400h-141.176z"/><path fill="#7fb4ffe7" d="M4658.824 2258.824H4800V2400h-141.176z"/><path fill="#7fb4ffbb" d="M0 2400h141.176v141.176H0z"/><path fill="none" d="M141.176 2400h141.176v141.176H141.176z"/><path fill="#7fb4ffbd" d="M282.353 2400h141.176v141.176H282.353z"/><path fill="none" d="M423.529 2400h141.176v141.176H423.529z"/><path fill="#7fb4ff53" d="M564.706 2400h141.176v141.176H564.706z"/><path fill="#7fb4ff63" d="M705.882 2400h141.176v141.176H705.882z"/><path fill="none" d="M847.059 2400h141.176v141.176H847.059zM988.235 2400h141.176v141.176H988.235zM1129.412 2400h141.176v141.176h-141.176zM1270.588 2400h141.176v141.176h-141.176zM1411.765 2400h141.176v141.176h-141.176zM1552.941 2400h141.176v141.176h-141.176zM1694.118 2400h141.176v141.176h-141.176z"/><path fill="#7fb4ffb7" d="M1835.294 2400h141.176v141.176h-141.176z"/><path fill="none" d="M1976.471 2400h141.176v141.176h-141.176z"/><path fill="#7fb4ff0d" d="M2117.647 2400h141.176v141.176h-141.176z"/><path fill="none" d="M2258.824 2400H2400v141.176h-141.176z"/><path fill="#7fb4ff10" d="M2400 2400h141.176v141.176H2400z"/><path fill="none" d="M2541.176 2400h141.176v141.176h-141.176zM2682.353 2400h141.176v141.176h-141.176z"/><path fill="#7fb4ff3e" d="M2823.529 2400h141.176v141.176h-141.176z"/><path fill="#7fb4ff5c" d="M2964.706 2400h141.176v141.176h-141.176z"/><path fill="none" d="M3105.882 2400h141.176v141.176h-141.176z"/><path fill="#7fb4ff39" d="M3247.059 2400h141.176v141.176h-141.176z"/><path fill="none" d="M3388.235 2400h141.176v141.176h-141.176zM3529.412 2400h141.176v141.176h-141.176zM3670.588 2400h141.176v141.176h-141.176z"/><path fill="#7fb4ff45" d="M3811.765 2400h141.176v141.176h-141.176z"/><path fill="#7fb4ffc7" d="M3952.941 2400h141.176v141.176h-141.176z"/><path fill="none" d="M4094.118 2400h141.176v141.176h-141.176zM4235.294 2400h141.176v141.176h-141.176z"/><path fill="#7fb4ff85" d="M4376.471 2400h141.176v141.176h-141.176z"/><path fill="none" d="M4517.647 2400h141.176v141.176h-141.176zM4658.824 2400H4800v141.176h-141.176zM0 2541.176h141.176v141.176H0z"/><path fill="#7fb4ffdb" d="M141.176 2541.176h141.176v141.176H141.176z"/><path fill="none" d="M282.353 2541.176h141.176v141.176H282.353zM423.529 2541.176h141.176v141.176H423.529zM564.706 2541.176h141.176v141.176H564.706z"/><path fill="none" d="M705.882 2541.176h141.176v141.176H705.882zM847.059 2541.176h141.176v141.176H847.059zM988.235 2541.176h141.176v141.176H988.235z"/><path fill="#7fb4ffde" d="M1129.412 2541.176h141.176v141.176h-141.176z"/><path fill="#7fb4ff86" d="M1270.588 2541.176h141.176v141.176h-141.176z"/><path fill="none" d="M1411.765 2541.176h141.176v141.176h-141.176zM1552.941 2541.176h141.176v141.176h-141.176z"/><path fill="#7fb4ff67" d="M1694.118 2541.176h141.176v141.176h-141.176z"/><path fill="none" d="M1835.294 2541.176h141.176v141.176h-141.176zM1976.471 2541.176h141.176v141.176h-141.176zM2117.647 2541.176h141.176v141.176h-141.176z"/><path fill="#7fb4ff64" d="M2258.824 2541.176H2400v141.176h-141.176z"/><path fill="#7fb4ff1d" d="M2400 2541.176h141.176v141.176H2400z"/><path fill="none" d="M2541.176 2541.176h141.176v141.176h-141.176zM2682.353 2541.176h141.176v141.176h-141.176z"/><path fill="#7fb4ff38" d="M2823.529 2541.176h141.176v141.176h-141.176z"/><path fill="none" d="M2964.706 2541.176h141.176v141.176h-141.176zM3105.882 2541.176h141.176v141.176h-141.176z"/><path fill="#7fb4ffc9" d="M3247.059 2541.176h141.176v141.176h-141.176z"/><path fill="none" d="M3388.235 2541.176h141.176v141.176h-141.176zM3529.412 2541.176h141.176v141.176h-141.176z"/><path fill="#7fb4ffbe" d="M3670.588 2541.176h141.176v141.176h-141.176z"/><path fill="none" d="M3811.765 2541.176h141.176v141.176h-141.176zM3952.941 2541.176h141.176v141.176h-141.176z"/><path fill="#7fb4ff38" d="M4094.118 2541.176h141.176v141.176h-141.176z"/><path fill="none" d="M4235.294 2541.176h141.176v141.176h-141.176zM4376.471 2541.176h141.176v141.176h-141.176zM4517.647 2541.176h141.176v141.176h-141.176zM4658.824 2541.176H4800v141.176h-141.176zM0 2682.353h141.176v141.176H0zM141.176 2682.353h141.176v141.176H141.176zM282.353 2682.353h141.176v141.176H282.353zM423.529 2682.353h141.176v141.176H423.529zM564.706 2682.353h141.176v141.176H564.706z"/><path fill="none" d="M705.882 2682.353h141.176v141.176H705.882zM847.059 2682.353h141.176v141.176H847.059zM988.235 2682.353h141.176v141.176H988.235zM1129.412 2682.353h141.176v141.176h-141.176zM1270.588 2682.353h141.176v141.176h-141.176zM1411.765 2682.353h141.176v141.176h-141.176zM1552.941 2682.353h141.176v141.176h-141.176z"/><path fill="#7fb4ff13" d="M1694.118 2682.353h141.176v141.176h-141.176z"/><path fill="none" d="M1835.294 2682.353h141.176v141.176h-141.176z"/><path fill="#7fb4ff77" d="M1976.471 2682.353h141.176v141.176h-141.176z"/><path fill="#7fb4ff43" d="M2117.647 2682.353h141.176v141.176h-141.176z"/><path fill="none" d="M2258.824 2682.353H2400v141.176h-141.176zM2400 2682.353h141.176v141.176H2400zM2541.176 2682.353h141.176v141.176h-141.176z"/><path fill="#7fb4ff85" d="M2682.353 2682.353h141.176v141.176h-141.176z"/><path fill="#7fb4ff19" d="M2823.529 2682.353h141.176v141.176h-141.176z"/><path fill="none" d="M2964.706 2682.353h141.176v141.176h-141.176zM3105.882 2682.353h141.176v141.176h-141.176zM3247.059 2682.353h141.176v141.176h-141.176z"/><path fill="#7fb4ffaa" d="M3388.235 2682.353h141.176v141.176h-141.176z"/><path fill="none" d="M3529.412 2682.353h141.176v141.176h-141.176z"/><path fill="#7fb4ff4f" d="M3670.588 2682.353h141.176v141.176h-141.176z"/><path fill="none" d="M3811.765 2682.353h141.176v141.176h-141.176zM3952.941 2682.353h141.176v141.176h-141.176zM4094.118 2682.353h141.176v141.176h-141.176zM4235.294 2682.353h141.176v141.176h-141.176zM4376.471 2682.353h141.176v141.176h-141.176z"/><path fill="#7fb4ff27" d="M4517.647 2682.353h141.176v141.176h-141.176z"/><path fill="none" d="M4658.824 2682.353H4800v141.176h-141.176z"/><path fill="#7fb4fff3" d="M0 2823.529h141.176v141.176H0z"/><path fill="none" d="M141.176 2823.529h141.176v141.176H141.176zM282.353 2823.529h141.176v141.176H282.353zM423.529 2823.529h141.176v141.176H423.529zM564.706 2823.529h141.176v141.176H564.706z"/><path fill="none" d="M705.882 2823.529h141.176v141.176H705.882z"/><path fill="#7fb4ff21" d="M847.059 2823.529h141.176v141.176H847.059z"/><path fill="#7fb4ffce" d="M988.235 2823.529h141.176v141.176H988.235z"/><path fill="none" d="M1129.412 2823.529h141.176v141.176h-141.176z"/><path fill="#7fb4ff89" d="M1270.588 2823.529h141.176v141.176h-141.176z"/><path fill="none" d="M1411.765 2823.529h141.176v141.176h-141.176z"/><path fill="#7fb4ff49" d="M1552.941 2823.529h141.176v141.176h-141.176z"/><path fill="none" d="M1694.118 2823.529h141.176v141.176h-141.176zM1835.294 2823.529h141.176v141.176h-141.176zM1976.471 2823.529h141.176v141.176h-141.176z"/><path fill="#7fb4ff10" d="M2117.647 2823.529h141.176v141.176h-141.176z"/><path fill="none" d="M2258.824 2823.529H2400v141.176h-141.176zM2400 2823.529h141.176v141.176H2400z"/><path fill="#7fb4ffcc" d="M2541.176 2823.529h141.176v141.176h-141.176z"/><path fill="none" d="M2682.353 2823.529h141.176v141.176h-141.176zM2823.529 2823.529h141.176v141.176h-141.176zM2964.706 2823.529h141.176v141.176h-141.176zM3105.882 2823.529h141.176v141.176h-141.176zM3247.059 2823.529h141.176v141.176h-141.176zM3388.235 2823.529h141.176v141.176h-141.176z"/><path fill="#7fb4ff93" d="M3529.412 2823.529h141.176v141.176h-141.176z"/><path fill="none" d="M3670.588 2823.529h141.176v141.176h-141.176zM3811.765 2823.529h141.176v141.176h-141.176z"/><path fill="#7fb4ff9f" d="M3952.941 2823.529h141.176v141.176h-141.176z"/><path fill="#7fb4ff19" d="M4094.118 2823.529h141.176v141.176h-141.176z"/><path fill="none" d="M4235.294 2823.529h141.176v141.176h-141.176zM4376.471 2823.529h141.176v141.176h-141.176zM4517.647 2823.529h141.176v141.176h-141.176zM4658.824 2823.529H4800v141.176h-141.176zM0 2964.706h141.176v141.176H0zM141.176 2964.706h141.176v141.176H141.176z"/><path fill="#7fb4ff39" d="M282.353 2964.706h141.176v141.176H282.353z"/><path fill="#7fb4ff2e" d="M423.529 2964.706h141.176v141.176H423.529z"/><path fill="none" d="M564.706 2964.706h141.176v141.176H564.706z"/><path fill="#7fb4ff57" d="M705.882 2964.706h141.176v141.176H705.882z"/><path fill="#7fb4ff11" d="M847.059 2964.706h141.176v141.176H847.059z"/><path fill="none" d="M988.235 2964.706h141.176v141.176H988.235zM1129.412 2964.706h141.176v141.176h-141.176z"/><path fill="#7fb4ff77" d="M1270.588 2964.706h141.176v141.176h-141.176z"/><path fill="none" d="M1411.765 2964.706h141.176v141.176h-141.176zM1552.941 2964.706h141.176v141.176h-141.176zM1694.118 2964.706h141.176v141.176h-141.176zM1835.294 2964.706h141.176v141.176h-141.176zM1976.471 2964.706h141.176v141.176h-141.176z"/><path fill="#7fb4ffb6" d="M2117.647 2964.706h141.176v141.176h-141.176z"/><path fill="#7fb4ff9b" d="M2258.824 2964.706H2400v141.176h-141.176z"/><path fill="none" d="M2400 2964.706h141.176v141.176H2400z"/><path fill="#7fb4ff81" d="M2541.176 2964.706h141.176v141.176h-141.176z"/><path fill="none" d="M2682.353 2964.706h141.176v141.176h-141.176zM2823.529 2964.706h141.176v141.176h-141.176z"/><path fill="#7fb4ff62" d="M2964.706 2964.706h141.176v141.176h-141.176z"/><path fill="#7fb4ff84" d="M3105.882 2964.706h141.176v141.176h-141.176z"/><path fill="none" d="M3247.059 2964.706h141.176v141.176h-141.176zM3388.235 2964.706h141.176v141.176h-141.176zM3529.412 2964.706h141.176v141.176h-141.176zM3670.588 2964.706h141.176v141.176h-141.176zM3811.765 2964.706h141.176v141.176h-141.176zM3952.941 2964.706h141.176v141.176h-141.176zM4094.118 2964.706h141.176v141.176h-141.176zM4235.294 2964.706h141.176v141.176h-141.176zM4376.471 2964.706h141.176v141.176h-141.176zM4517.647 2964.706h141.176v141.176h-141.176zM4658.824 2964.706H4800v141.176h-141.176zM0 3105.882h141.176v141.176H0z"/><path fill="#7fb4ff40" d="M141.176 3105.882h141.176v141.176H141.176z"/><path fill="#7fb4ff5b" d="M282.353 3105.882h141.176v141.176H282.353z"/><path fill="none" d="M423.529 3105.882h141.176v141.176H423.529z"/><path fill="#7fb4ffbd" d="M564.706 3105.882h141.176v141.176H564.706z"/><path fill="none" d="M705.882 3105.882h141.176v141.176H705.882zM847.059 3105.882h141.176v141.176H847.059zM988.235 3105.882h141.176v141.176H988.235z"/><path fill="#7fb4fff7" d="M1129.412 3105.882h141.176v141.176h-141.176z"/><path fill="none" d="M1270.588 3105.882h141.176v141.176h-141.176zM1411.765 3105.882h141.176v141.176h-141.176zM1552.941 3105.882h141.176v141.176h-141.176zM1694.118 3105.882h141.176v141.176h-141.176zM1835.294 3105.882h141.176v141.176h-141.176z"/><path fill="#7fb4ff9d" d="M1976.471 3105.882h141.176v141.176h-141.176z"/><path fill="none" d="M2117.647 3105.882h141.176v141.176h-141.176zM2258.824 3105.882H2400v141.176h-141.176z"/><path fill="#7fb4ff28" d="M2400 3105.882h141.176v141.176H2400z"/><path fill="none" d="M2541.176 3105.882h141.176v141.176h-141.176z"/><path fill="#7fb4ff23" d="M2682.353 3105.882h141.176v141.176h-141.176z"/><path fill="#7fb4ff88" d="M2823.529 3105.882h141.176v141.176h-141.176z"/><path fill="#7fb4ff51" d="M2964.706 3105.882h141.176v141.176h-141.176z"/><path fill="#7fb4ffd3" d="M3105.882 3105.882h141.176v141.176h-141.176z"/><path fill="none" d="M3247.059 3105.882h141.176v141.176h-141.176z"/><path fill="#7fb4ffc3" d="M3388.235 3105.882h141.176v141.176h-141.176z"/><path fill="none" d="M3529.412 3105.882h141.176v141.176h-141.176zM3670.588 3105.882h141.176v141.176h-141.176z"/><path fill="#7fb4ff76" d="M3811.765 3105.882h141.176v141.176h-141.176z"/><path fill="none" d="M3952.941 3105.882h141.176v141.176h-141.176z"/><path fill="#7fb4ff5e" d="M4094.118 3105.882h141.176v141.176h-141.176z"/><path fill="#7fb4ff0e" d="M4235.294 3105.882h141.176v141.176h-141.176z"/><path fill="#7fb4fff9" d="M4376.471 3105.882h141.176v141.176h-141.176z"/><path fill="none" d="M4517.647 3105.882h141.176v141.176h-141.176zM4658.824 3105.882H4800v141.176h-141.176zM0 3247.059h141.176v141.176H0zM141.176 3247.059h141.176v141.176H141.176z"/><path fill="#7fb4ffec" d="M282.353 3247.059h141.176v141.176H282.353z"/><path fill="none" d="M423.529 3247.059h141.176v141.176H423.529z"/><path fill="#7fb4ff24" d="M564.706 3247.059h141.176v141.176H564.706z"/><path fill="none" d="M705.882 3247.059h141.176v141.176H705.882z"/><path fill="#7fb4ff4b" d="M847.059 3247.059h141.176v141.176H847.059z"/><path fill="none" d="M988.235 3247.059h141.176v141.176H988.235zM1129.412 3247.059h141.176v141.176h-141.176zM1270.588 3247.059h141.176v141.176h-141.176z"/><path fill="#7fb4ff2d" d="M1411.765 3247.059h141.176v141.176h-141.176z"/><path fill="#7fb4ffa2" d="M1552.941 3247.059h141.176v141.176h-141.176z"/><path fill="none" d="M1694.118 3247.059h141.176v141.176h-141.176zM1835.294 3247.059h141.176v141.176h-141.176zM1976.471 3247.059h141.176v141.176h-141.176z"/><path fill="#7fb4ff20" d="M2117.647 3247.059h141.176v141.176h-141.176z"/><path fill="none" d="M2258.824 3247.059H2400v141.176h-141.176zM2400 3247.059h141.176v141.176H2400zM2541.176 3247.059h141.176v141.176h-141.176zM2682.353 3247.059h141.176v141.176h-141.176zM2823.529 3247.059h141.176v141.176h-141.176zM2964.706 3247.059h141.176v141.176h-141.176zM3105.882 3247.059h141.176v141.176h-141.176zM3247.059 3247.059h141.176v141.176h-141.176zM3388.235 3247.059h141.176v141.176h-141.176z"/><path fill="#7fb4ff53" d="M3529.412 3247.059h141.176v141.176h-141.176z"/><path fill="none" d="M3670.588 3247.059h141.176v141.176h-141.176zM3811.765 3247.059h141.176v141.176h-141.176zM3952.941 3247.059h141.176v141.176h-141.176z"/><path fill="#7fb4ff08" d="M4094.118 3247.059h141.176v141.176h-141.176z"/><path fill="none" d="M4235.294 3247.059h141.176v141.176h-141.176z"/><path fill="#7fb4ff5f" d="M4376.471 3247.059h141.176v141.176h-141.176z"/><path fill="none" d="M4517.647 3247.059h141.176v141.176h-141.176zM4658.824 3247.059H4800v141.176h-141.176zM0 3388.235h141.176v141.176H0zM141.176 3388.235h141.176v141.176H141.176zM282.353 3388.235h141.176v141.176H282.353zM423.529 3388.235h141.176v141.176H423.529z"/><path fill="#7fb4ff59" d="M564.706 3388.235h141.176v141.176H564.706z"/><path fill="none" d="M705.882 3388.235h141.176v141.176H705.882zM847.059 3388.235h141.176v141.176H847.059z"/><path fill="#7fb4fff4" d="M988.235 3388.235h141.176v141.176H988.235z"/><path fill="none" d="M1129.412 3388.235h141.176v141.176h-141.176z"/><path fill="#7fb4ffc5" d="M1270.588 3388.235h141.176v141.176h-141.176z"/><path fill="none" d="M1411.765 3388.235h141.176v141.176h-141.176zM1552.941 3388.235h141.176v141.176h-141.176zM1694.118 3388.235h141.176v141.176h-141.176zM1835.294 3388.235h141.176v141.176h-141.176zM1976.471 3388.235h141.176v141.176h-141.176zM2117.647 3388.235h141.176v141.176h-141.176z"/><path fill="#7fb4ff93" d="M2258.824 3388.235H2400v141.176h-141.176z"/><path fill="none" d="M2400 3388.235h141.176v141.176H2400zM2541.176 3388.235h141.176v141.176h-141.176zM2682.353 3388.235h141.176v141.176h-141.176zM2823.529 3388.235h141.176v141.176h-141.176zM2964.706 3388.235h141.176v141.176h-141.176zM3105.882 3388.235h141.176v141.176h-141.176z"/><path fill="#7fb4ff5a" d="M3247.059 3388.235h141.176v141.176h-141.176z"/><path fill="none" d="M3388.235 3388.235h141.176v141.176h-141.176zM3529.412 3388.235h141.176v141.176h-141.176z"/><path fill="#7fb4ff06" d="M3670.588 3388.235h141.176v141.176h-141.176z"/><path fill="none" d="M3811.765 3388.235h141.176v141.176h-141.176z"/><path fill="#7fb4ffe7" d="M3952.941 3388.235h141.176v141.176h-141.176z"/><path fill="none" d="M4094.118 3388.235h141.176v141.176h-141.176zM4235.294 3388.235h141.176v141.176h-141.176z"/><path fill="#7fb4ff28" d="M4376.471 3388.235h141.176v141.176h-141.176z"/><path fill="#7fb4ffde" d="M4517.647 3388.235h141.176v141.176h-141.176z"/><path fill="none" d="M4658.824 3388.235H4800v141.176h-141.176z"/><path fill="#7fb4ff42" d="M0 3529.412h141.176v141.176H0z"/><path fill="none" d="M141.176 3529.412h141.176v141.176H141.176z"/><path fill="#7fb4ff8d" d="M282.353 3529.412h141.176v141.176H282.353z"/><path fill="none" d="M423.529 3529.412h141.176v141.176H423.529zM564.706 3529.412h141.176v141.176H564.706z"/><path fill="none" d="M705.882 3529.412h141.176v141.176H705.882zM847.059 3529.412h141.176v141.176H847.059zM988.235 3529.412h141.176v141.176H988.235zM1129.412 3529.412h141.176v141.176h-141.176zM1270.588 3529.412h141.176v141.176h-141.176zM1411.765 3529.412h141.176v141.176h-141.176z"/><path fill="#7fb4ffd4" d="M1552.941 3529.412h141.176v141.176h-141.176z"/><path fill="none" d="M1694.118 3529.412h141.176v141.176h-141.176zM1835.294 3529.412h141.176v141.176h-141.176zM1976.471 3529.412h141.176v141.176h-141.176z"/><path fill="#7fb4ff2f" d="M2117.647 3529.412h141.176v141.176h-141.176z"/><path fill="#7fb4ffb7" d="M2258.824 3529.412H2400v141.176h-141.176z"/><path fill="none" d="M2400 3529.412h141.176v141.176H2400zM2541.176 3529.412h141.176v141.176h-141.176zM2682.353 3529.412h141.176v141.176h-141.176zM2823.529 3529.412h141.176v141.176h-141.176zM2964.706 3529.412h141.176v141.176h-141.176zM3105.882 3529.412h141.176v141.176h-141.176zM3247.059 3529.412h141.176v141.176h-141.176z"/><path fill="#7fb4ff2c" d="M3388.235 3529.412h141.176v141.176h-141.176z"/><path fill="none" d="M3529.412 3529.412h141.176v141.176h-141.176zM3670.588 3529.412h141.176v141.176h-141.176zM3811.765 3529.412h141.176v141.176h-141.176zM3952.941 3529.412h141.176v141.176h-141.176zM4094.118 3529.412h141.176v141.176h-141.176zM4235.294 3529.412h141.176v141.176h-141.176zM4376.471 3529.412h141.176v141.176h-141.176zM4517.647 3529.412h141.176v141.176h-141.176zM4658.824 3529.412H4800v141.176h-141.176zM0 3670.588h141.176v141.176H0zM141.176 3670.588h141.176v141.176H141.176zM282.353 3670.588h141.176v141.176H282.353z"/><path fill="#7fb4ffc2" d="M423.529 3670.588h141.176v141.176H423.529z"/><path fill="none" d="M564.706 3670.588h141.176v141.176H564.706z"/><path fill="none" d="M705.882 3670.588h141.176v141.176H705.882zM847.059 3670.588h141.176v141.176H847.059zM988.235 3670.588h141.176v141.176H988.235zM1129.412 3670.588h141.176v141.176h-141.176z"/><path fill="#7fb4ff5d" d="M1270.588 3670.588h141.176v141.176h-141.176z"/><path fill="none" d="M1411.765 3670.588h141.176v141.176h-141.176zM1552.941 3670.588h141.176v141.176h-141.176zM1694.118 3670.588h141.176v141.176h-141.176zM1835.294 3670.588h141.176v141.176h-141.176zM1976.471 3670.588h141.176v141.176h-141.176zM2117.647 3670.588h141.176v141.176h-141.176zM2258.824 3670.588H2400v141.176h-141.176zM2400 3670.588h141.176v141.176H2400zM2541.176 3670.588h141.176v141.176h-141.176z"/><path fill="#7fb4ffce" d="M2682.353 3670.588h141.176v141.176h-141.176z"/><path fill="none" d="M2823.529 3670.588h141.176v141.176h-141.176zM2964.706 3670.588h141.176v141.176h-141.176zM3105.882 3670.588h141.176v141.176h-141.176zM3247.059 3670.588h141.176v141.176h-141.176zM3388.235 3670.588h141.176v141.176h-141.176zM3529.412 3670.588h141.176v141.176h-141.176z"/><path fill="#7fb4ff19" d="M3670.588 3670.588h141.176v141.176h-141.176z"/><path fill="#7fb4ff35" d="M3811.765 3670.588h141.176v141.176h-141.176z"/><path fill="#7fb4ff16" d="M3952.941 3670.588h141.176v141.176h-141.176z"/><path fill="none" d="M4094.118 3670.588h141.176v141.176h-141.176zM4235.294 3670.588h141.176v141.176h-141.176zM4376.471 3670.588h141.176v141.176h-141.176zM4517.647 3670.588h141.176v141.176h-141.176zM4658.824 3670.588H4800v141.176h-141.176z"/><path fill="#7fb4ff02" d="M0 3811.765h141.176v141.176H0z"/><path fill="none" d="M141.176 3811.765h141.176v141.176H141.176z"/><path fill="#7fb4ffe0" d="M282.353 3811.765h141.176v141.176H282.353z"/><path fill="none" d="M423.529 3811.765h141.176v141.176H423.529z"/><path fill="#7fb4ffcc" d="M564.706 3811.765h141.176v141.176H564.706z"/><path fill="#7fb4ff01" d="M705.882 3811.765h141.176v141.176H705.882z"/><path fill="#7fb4ff94" d="M847.059 3811.765h141.176v141.176H847.059z"/><path fill="none" d="M988.235 3811.765h141.176v141.176H988.235zM1129.412 3811.765h141.176v141.176h-141.176zM1270.588 3811.765h141.176v141.176h-141.176z"/><path fill="#7fb4ff17" d="M1411.765 3811.765h141.176v141.176h-141.176z"/><path fill="#7fb4fffc" d="M1552.941 3811.765h141.176v141.176h-141.176z"/><path fill="none" d="M1694.118 3811.765h141.176v141.176h-141.176z"/><path fill="#7fb4ff0d" d="M1835.294 3811.765h141.176v141.176h-141.176z"/><path fill="none" d="M1976.471 3811.765h141.176v141.176h-141.176zM2117.647 3811.765h141.176v141.176h-141.176z"/><path fill="#7fb4ff74" d="M2258.824 3811.765H2400v141.176h-141.176z"/><path fill="none" d="M2400 3811.765h141.176v141.176H2400z"/><path fill="#7fb4ff4c" d="M2541.176 3811.765h141.176v141.176h-141.176z"/><path fill="none" d="M2682.353 3811.765h141.176v141.176h-141.176zM2823.529 3811.765h141.176v141.176h-141.176z"/><path fill="#7fb4ff4f" d="M2964.706 3811.765h141.176v141.176h-141.176z"/><path fill="#7fb4ffb2" d="M3105.882 3811.765h141.176v141.176h-141.176z"/><path fill="none" d="M3247.059 3811.765h141.176v141.176h-141.176zM3388.235 3811.765h141.176v141.176h-141.176zM3529.412 3811.765h141.176v141.176h-141.176zM3670.588 3811.765h141.176v141.176h-141.176zM3811.765 3811.765h141.176v141.176h-141.176zM3952.941 3811.765h141.176v141.176h-141.176zM4094.118 3811.765h141.176v141.176h-141.176z"/><path fill="#7fb4ffa1" d="M4235.294 3811.765h141.176v141.176h-141.176z"/><path fill="none" d="M4376.471 3811.765h141.176v141.176h-141.176zM4517.647 3811.765h141.176v141.176h-141.176z"/><path fill="#7fb4ff01" d="M4658.824 3811.765H4800v141.176h-141.176z"/><path fill="none" d="M0 3952.941h141.176v141.176H0zM141.176 3952.941h141.176v141.176H141.176zM282.353 3952.941h141.176v141.176H282.353zM423.529 3952.941h141.176v141.176H423.529zM564.706 3952.941h141.176v141.176H564.706z"/><path fill="#7fb4ff52" d="M705.882 3952.941h141.176v141.176H705.882z"/><path fill="none" d="M847.059 3952.941h141.176v141.176H847.059zM988.235 3952.941h141.176v141.176H988.235zM1129.412 3952.941h141.176v141.176h-141.176zM1270.588 3952.941h141.176v141.176h-141.176zM1411.765 3952.941h141.176v141.176h-141.176zM1552.941 3952.941h141.176v141.176h-141.176zM1694.118 3952.941h141.176v141.176h-141.176zM1835.294 3952.941h141.176v141.176h-141.176zM1976.471 3952.941h141.176v141.176h-141.176z"/><path fill="#7fb4ff25" d="M2117.647 3952.941h141.176v141.176h-141.176z"/><path fill="none" d="M2258.824 3952.941H2400v141.176h-141.176z"/><path fill="#7fb4ff92" d="M2400 3952.941h141.176v141.176H2400z"/><path fill="none" d="M2541.176 3952.941h141.176v141.176h-141.176z"/><path fill="#7fb4ff06" d="M2682.353 3952.941h141.176v141.176h-141.176z"/><path fill="none" d="M2823.529 3952.941h141.176v141.176h-141.176zM2964.706 3952.941h141.176v141.176h-141.176zM3105.882 3952.941h141.176v141.176h-141.176zM3247.059 3952.941h141.176v141.176h-141.176zM3388.235 3952.941h141.176v141.176h-141.176zM3529.412 3952.941h141.176v141.176h-141.176z"/><path fill="#7fb4ff4a" d="M3670.588 3952.941h141.176v141.176h-141.176z"/><path fill="#7fb4ffc4" d="M3811.765 3952.941h141.176v141.176h-141.176z"/><path fill="none" d="M3952.941 3952.941h141.176v141.176h-141.176zM4094.118 3952.941h141.176v141.176h-141.176zM4235.294 3952.941h141.176v141.176h-141.176zM4376.471 3952.941h141.176v141.176h-141.176z"/><path fill="#7fb4ffae" d="M4517.647 3952.941h141.176v141.176h-141.176z"/><path fill="#7fb4ff5e" d="M4658.824 3952.941H4800v141.176h-141.176z"/><path fill="none" d="M0 4094.118h141.176v141.176H0z"/><path fill="#7fb4ff22" d="M141.176 4094.118h141.176v141.176H141.176z"/><path fill="none" d="M282.353 4094.118h141.176v141.176H282.353zM423.529 4094.118h141.176v141.176H423.529zM564.706 4094.118h141.176v141.176H564.706z"/><path fill="none" d="M705.882 4094.118h141.176v141.176H705.882zM847.059 4094.118h141.176v141.176H847.059zM988.235 4094.118h141.176v141.176H988.235zM1129.412 4094.118h141.176v141.176h-141.176zM1270.588 4094.118h141.176v141.176h-141.176zM1411.765 4094.118h141.176v141.176h-141.176zM1552.941 4094.118h141.176v141.176h-141.176zM1694.118 4094.118h141.176v141.176h-141.176z"/><path fill="#7fb4ff1e" d="M1835.294 4094.118h141.176v141.176h-141.176z"/><path fill="none" d="M1976.471 4094.118h141.176v141.176h-141.176zM2117.647 4094.118h141.176v141.176h-141.176z"/><path fill="#7fb4ffaf" d="M2258.824 4094.118H2400v141.176h-141.176z"/><path fill="#7fb4ff4c" d="M2400 4094.118h141.176v141.176H2400z"/><path fill="#7fb4ffbb" d="M2541.176 4094.118h141.176v141.176h-141.176z"/><path fill="none" d="M2682.353 4094.118h141.176v141.176h-141.176z"/><path fill="#7fb4fff8" d="M2823.529 4094.118h141.176v141.176h-141.176z"/><path fill="none" d="M2964.706 4094.118h141.176v141.176h-141.176z"/><path fill="#7fb4ff50" d="M3105.882 4094.118h141.176v141.176h-141.176z"/><path fill="#7fb4fff2" d="M3247.059 4094.118h141.176v141.176h-141.176z"/><path fill="#7fb4ff69" d="M3388.235 4094.118h141.176v141.176h-141.176z"/><path fill="none" d="M3529.412 4094.118h141.176v141.176h-141.176zM3670.588 4094.118h141.176v141.176h-141.176zM3811.765 4094.118h141.176v141.176h-141.176z"/><path fill="#7fb4ff11" d="M3952.941 4094.118h141.176v141.176h-141.176z"/><path fill="none" d="M4094.118 4094.118h141.176v141.176h-141.176zM4235.294 4094.118h141.176v141.176h-141.176z"/><path fill="#7fb4fff0" d="M4376.471 4094.118h141.176v141.176h-141.176z"/><path fill="none" d="M4517.647 4094.118h141.176v141.176h-141.176zM4658.824 4094.118H4800v141.176h-141.176z"/><path fill="#7fb4ff27" d="M0 4235.294h141.176v141.176H0z"/><path fill="none" d="M141.176 4235.294h141.176v141.176H141.176zM282.353 4235.294h141.176v141.176H282.353z"/><path fill="#7fb4ff38" d="M423.529 4235.294h141.176v141.176H423.529z"/><path fill="none" d="M564.706 4235.294h141.176v141.176H564.706z"/><path fill="none" d="M705.882 4235.294h141.176v141.176H705.882zM847.059 4235.294h141.176v141.176H847.059z"/><path fill="#7fb4ff16" d="M988.235 4235.294h141.176v141.176H988.235z"/><path fill="#7fb4ff06" d="M1129.412 4235.294h141.176v141.176h-141.176z"/><path fill="none" d="M1270.588 4235.294h141.176v141.176h-141.176z"/><path fill="#7fb4ff1e" d="M1411.765 4235.294h141.176v141.176h-141.176z"/><path fill="none" d="M1552.941 4235.294h141.176v141.176h-141.176zM1694.118 4235.294h141.176v141.176h-141.176z"/><path fill="#7fb4ffa7" d="M1835.294 4235.294h141.176v141.176h-141.176z"/><path fill="none" d="M1976.471 4235.294h141.176v141.176h-141.176zM2117.647 4235.294h141.176v141.176h-141.176zM2258.824 4235.294H2400v141.176h-141.176zM2400 4235.294h141.176v141.176H2400zM2541.176 4235.294h141.176v141.176h-141.176zM2682.353 4235.294h141.176v141.176h-141.176zM2823.529 4235.294h141.176v141.176h-141.176z"/><path fill="#7fb4ff3e" d="M2964.706 4235.294h141.176v141.176h-141.176z"/><path fill="none" d="M3105.882 4235.294h141.176v141.176h-141.176zM3247.059 4235.294h141.176v141.176h-141.176zM3388.235 4235.294h141.176v141.176h-141.176z"/><path fill="#7fb4ff31" d="M3529.412 4235.294h141.176v141.176h-141.176z"/><path fill="#7fb4ff89" d="M3670.588 4235.294h141.176v141.176h-141.176z"/><path fill="none" d="M3811.765 4235.294h141.176v141.176h-141.176z"/><path fill="#7fb4ff62" d="M3952.941 4235.294h141.176v141.176h-141.176z"/><path fill="none" d="M4094.118 4235.294h141.176v141.176h-141.176zM4235.294 4235.294h141.176v141.176h-141.176z"/><path fill="#7fb4ffdf" d="M4376.471 4235.294h141.176v141.176h-141.176z"/><path fill="none" d="M4517.647 4235.294h141.176v141.176h-141.176z"/><path fill="#7fb4ff2a" d="M4658.824 4235.294H4800v141.176h-141.176z"/><path fill="#7fb4ff16" d="M0 4376.471h141.176v141.176H0z"/><path fill="#7fb4ff17" d="M141.176 4376.471h141.176v141.176H141.176z"/><path fill="none" d="M282.353 4376.471h141.176v141.176H282.353z"/><path fill="#7fb4ffbb" d="M423.529 4376.471h141.176v141.176H423.529z"/><path fill="none" d="M564.706 4376.471h141.176v141.176H564.706z"/><path fill="none" d="M705.882 4376.471h141.176v141.176H705.882zM847.059 4376.471h141.176v141.176H847.059z"/><path fill="#7fb4ffb7" d="M988.235 4376.471h141.176v141.176H988.235z"/><path fill="#7fb4ff71" d="M1129.412 4376.471h141.176v141.176h-141.176z"/><path fill="#7fb4ff55" d="M1270.588 4376.471h141.176v141.176h-141.176z"/><path fill="none" d="M1411.765 4376.471h141.176v141.176h-141.176z"/><path fill="#7fb4ff73" d="M1552.941 4376.471h141.176v141.176h-141.176z"/><path fill="none" d="M1694.118 4376.471h141.176v141.176h-141.176zM1835.294 4376.471h141.176v141.176h-141.176zM1976.471 4376.471h141.176v141.176h-141.176z"/><path fill="#7fb4ff4b" d="M2117.647 4376.471h141.176v141.176h-141.176z"/><path fill="#7fb4ff71" d="M2258.824 4376.471H2400v141.176h-141.176z"/><path fill="none" d="M2400 4376.471h141.176v141.176H2400zM2541.176 4376.471h141.176v141.176h-141.176z"/><path fill="#7fb4ff5a" d="M2682.353 4376.471h141.176v141.176h-141.176z"/><path fill="#7fb4ff45" d="M2823.529 4376.471h141.176v141.176h-141.176z"/><path fill="#7fb4fff5" d="M2964.706 4376.471h141.176v141.176h-141.176z"/><path fill="none" d="M3105.882 4376.471h141.176v141.176h-141.176zM3247.059 4376.471h141.176v141.176h-141.176zM3388.235 4376.471h141.176v141.176h-141.176zM3529.412 4376.471h141.176v141.176h-141.176zM3670.588 4376.471h141.176v141.176h-141.176zM3811.765 4376.471h141.176v141.176h-141.176zM3952.941 4376.471h141.176v141.176h-141.176z"/><path fill="#7fb4ffe7" d="M4094.118 4376.471h141.176v141.176h-141.176z"/><path fill="none" d="M4235.294 4376.471h141.176v141.176h-141.176zM4376.471 4376.471h141.176v141.176h-141.176z"/><path fill="#7fb4ff0c" d="M4517.647 4376.471h141.176v141.176h-141.176z"/><path fill="none" d="M4658.824 4376.471H4800v141.176h-141.176zM0 4517.647h141.176v141.176H0zM141.176 4517.647h141.176v141.176H141.176zM282.353 4517.647h141.176v141.176H282.353zM423.529 4517.647h141.176v141.176H423.529zM564.706 4517.647h141.176v141.176H564.706z"/><path fill="none" d="M705.882 4517.647h141.176v141.176H705.882z"/><path fill="#7fb4ff78" d="M847.059 4517.647h141.176v141.176H847.059z"/><path fill="none" d="M988.235 4517.647h141.176v141.176H988.235zM1129.412 4517.647h141.176v141.176h-141.176zM1270.588 4517.647h141.176v141.176h-141.176zM1411.765 4517.647h141.176v141.176h-141.176zM1552.941 4517.647h141.176v141.176h-141.176z"/><path fill="#7fb4ff48" d="M1694.118 4517.647h141.176v141.176h-141.176z"/><path fill="#7fb4ff75" d="M1835.294 4517.647h141.176v141.176h-141.176z"/><path fill="#7fb4fff0" d="M1976.471 4517.647h141.176v141.176h-141.176z"/><path fill="none" d="M2117.647 4517.647h141.176v141.176h-141.176z"/><path fill="#7fb4ff5a" d="M2258.824 4517.647H2400v141.176h-141.176z"/><path fill="#7fb4ff31" d="M2400 4517.647h141.176v141.176H2400z"/><path fill="#7fb4ff70" d="M2541.176 4517.647h141.176v141.176h-141.176z"/><path fill="none" d="M2682.353 4517.647h141.176v141.176h-141.176z"/><path fill="#7fb4ff19" d="M2823.529 4517.647h141.176v141.176h-141.176z"/><path fill="none" d="M2964.706 4517.647h141.176v141.176h-141.176zM3105.882 4517.647h141.176v141.176h-141.176z"/><path fill="#7fb4fff5" d="M3247.059 4517.647h141.176v141.176h-141.176z"/><path fill="none" d="M3388.235 4517.647h141.176v141.176h-141.176zM3529.412 4517.647h141.176v141.176h-141.176z"/><path fill="#7fb4ffbc" d="M3670.588 4517.647h141.176v141.176h-141.176z"/><path fill="none" d="M3811.765 4517.647h141.176v141.176h-141.176zM3952.941 4517.647h141.176v141.176h-141.176z"/><path fill="#7fb4ff5c" d="M4094.118 4517.647h141.176v141.176h-141.176z"/><path fill="none" d="M4235.294 4517.647h141.176v141.176h-141.176z"/><path fill="#7fb4ffc2" d="M4376.471 4517.647h141.176v141.176h-141.176z"/><path fill="none" d="M4517.647 4517.647h141.176v141.176h-141.176z"/><path fill="#7fb4ff1b" d="M4658.824 4517.647H4800v141.176h-141.176z"/><path fill="#7fb4ff86" d="M0 4658.824h141.176V4800H0z"/><path fill="none" d="M141.176 4658.824h141.176V4800H141.176zM282.353 4658.824h141.176V4800H282.353z"/><path fill="#7fb4ff16" d="M423.529 4658.824h141.176V4800H423.529z"/><path fill="#7fb4ff49" d="M564.706 4658.824h141.176V4800H564.706z"/><path fill="#7fb4ff56" d="M705.882 4658.824h141.176V4800H705.882z"/><path fill="none" d="M847.059 4658.824h141.176V4800H847.059zM988.235 4658.824h141.176V4800H988.235zM1129.412 4658.824h141.176V4800h-141.176z"/><path fill="#7fb4ffd3" d="M1270.588 4658.824h141.176V4800h-141.176z"/><path fill="none" d="M1411.765 4658.824h141.176V4800h-141.176zM1552.941 4658.824h141.176V4800h-141.176zM1694.118 4658.824h141.176V4800h-141.176zM1835.294 4658.824h141.176V4800h-141.176zM1976.471 4658.824h141.176V4800h-141.176zM2117.647 4658.824h141.176V4800h-141.176zM2258.824 4658.824H2400V4800h-141.176zM2400 4658.824h141.176V4800H2400zM2541.176 4658.824h141.176V4800h-141.176zM2682.353 4658.824h141.176V4800h-141.176zM2823.529 4658.824h141.176V4800h-141.176zM2964.706 4658.824h141.176V4800h-141.176zM3105.882 4658.824h141.176V4800h-141.176zM3247.059 4658.824h141.176V4800h-141.176zM3388.235 4658.824h141.176V4800h-141.176z"/><path fill="#7fb4ffa6" d="M3529.412 4658.824h141.176V4800h-141.176z"/><path fill="#7fb4ff7c" d="M3670.588 4658.824h141.176V4800h-141.176z"/><path fill="none" d="M3811.765 4658.824h141.176V4800h-141.176zM3952.941 4658.824h141.176V4800h-141.176z"/><path fill="#7fb4ff2f" d="M4094.118 4658.824h141.176V4800h-141.176z"/><path fill="none" d="M4235.294 4658.824h141.176V4800h-141.176zM4376.471 4658.824h141.176V4800h-141.176z"/><path fill="#7fb4ffae" d="M4517.647 4658.824h141.176V4800h-141.176z"/><path fill="#7fb4ffcf" d="M4658.824 4658.824H4800V4800h-141.176z"/></g><defs><radialGradient id="a"><stop offset="0" stop-color="#fff"/><stop offset="100%" stop-color="#fff" stop-opacity="0"/></radialGradient></defs></svg>