<?xml version="1.0" standalone="no"?><!DOCTYPE svg PUBLIC "-//W3C//DTD SVG 1.1//EN" "http://www.w3.org/Graphics/SVG/1.1/DTD/svg11.dtd"><svg height="1024" node-id="1" sillyvg="true" template-height="1024" template-width="1024" version="1.1" viewBox="0 0 1024 1024" width="1024" xmlns="http://www.w3.org/2000/svg" xmlns:xlink="http://www.w3.org/1999/xlink"><defs node-id="164"><linearGradient gradientUnits="objectBoundingBox" id="linearGradient-1" node-id="5" spreadMethod="pad" x1="0.5" x2="0.5" y1="1" y2="-0.0000000000000002471453"><stop offset="0" stop-color="#ffffff" stop-opacity="0.1"></stop><stop offset="0.13" stop-color="#fbfdff" stop-opacity="0.19"></stop><stop offset="0.41" stop-color="#f1f7ff" stop-opacity="0.43"></stop><stop offset="0.81" stop-color="#e1eeff" stop-opacity="0.82"></stop><stop offset="1" stop-color="#d9e9ff"></stop></linearGradient><linearGradient gradientUnits="objectBoundingBox" id="linearGradient-2" node-id="11" spreadMethod="pad" x1="0.5" x2="0.5" y1="1.002219" y2="0.0007036488"><stop offset="0" stop-color="#ffffff" stop-opacity="0.1"></stop><stop offset="1" stop-color="#d9e9ff"></stop></linearGradient><linearGradient gradientUnits="objectBoundingBox" id="linearGradient-3" node-id="14" spreadMethod="pad" x1="0.500936" x2="0.500936" y1="1" y2="0.000069385685"><stop offset="0" stop-color="#ffffff" stop-opacity="0.1"></stop><stop offset="0.14" stop-color="#f8fbff" stop-opacity="0.27"></stop><stop offset="0.37" stop-color="#edf5ff" stop-opacity="0.52"></stop><stop offset="0.58" stop-color="#e4f0ff" stop-opacity="0.73"></stop><stop offset="0.76" stop-color="#deecff" stop-opacity="0.88"></stop><stop offset="0.91" stop-color="#daeaff" stop-opacity="0.97"></stop><stop offset="1" stop-color="#d9e9ff"></stop></linearGradient><linearGradient gradientUnits="objectBoundingBox" id="linearGradient-4" node-id="22" spreadMethod="pad" x1="0.49983978" x2="0.49983978" y1="0.999312" y2="-0.0008112773"><stop offset="0" stop-color="#ffffff" stop-opacity="0.1"></stop><stop offset="0.09" stop-color="#fefeff" stop-opacity="0.13"></stop><stop offset="0.23" stop-color="#fbfcff" stop-opacity="0.21"></stop><stop offset="0.4" stop-color="#f5f9ff" stop-opacity="0.33"></stop><stop offset="0.59" stop-color="#eef5ff" stop-opacity="0.51"></stop><stop offset="0.79" stop-color="#e4efff" stop-opacity="0.74"></stop><stop offset="1" stop-color="#d9e9ff"></stop></linearGradient><linearGradient gradientUnits="objectBoundingBox" id="linearGradient1" node-id="216" spreadMethod="pad" x1="0" x2="1" y1="0.4995383" y2="0.4995383"><stop offset="0" stop-color="#eeeeee"></stop><stop offset="0.03" stop-color="#dddddd"></stop><stop offset="1" stop-color="#d8d8d8"></stop></linearGradient><linearGradient gradientUnits="objectBoundingBox" id="linearGradient-5" node-id="30" spreadMethod="pad" x1="0" x2="1" y1="0.4995383" y2="0.4995383"><stop offset="0" stop-color="#eeeeee"></stop><stop offset="0.03" stop-color="#dddddd"></stop><stop offset="1" stop-color="#d8d8d8"></stop></linearGradient><linearGradient gradientUnits="objectBoundingBox" id="linearGradient-6" node-id="34" spreadMethod="pad" x1="-0.0000000000000013743573" x2="1" y1="0.49949548" y2="0.49949548"><stop offset="0" stop-color="#eeeeee"></stop><stop offset="0.03" stop-color="#b4d7fe"></stop><stop offset="1" stop-color="#b0d3fa"></stop></linearGradient><linearGradient gradientUnits="objectBoundingBox" id="linearGradient-7" node-id="38" spreadMethod="pad" x1="-0.0000000000000019216842" x2="1" y1="0.5" y2="0.5"><stop offset="0" stop-color="#b2d5fc"></stop><stop offset="0.03" stop-color="#dddddd"></stop><stop offset="1" stop-color="#a8d2ff"></stop></linearGradient><linearGradient gradientUnits="objectBoundingBox" id="linearGradient-8" node-id="42" spreadMethod="pad" x1="0.09286911" x2="0.78641695" y1="0.5" y2="0.51200986"><stop offset="0" stop-color="#afd5fe"></stop><stop offset="0.052418754" stop-color="#99cafd"></stop><stop offset="1" stop-color="#b5d4f6"></stop></linearGradient><linearGradient gradientUnits="objectBoundingBox" id="linearGradient-9" node-id="46" spreadMethod="pad" x1="0" x2="1" y1="0.50541514" y2="0.50541514"><stop offset="0" stop-color="#eeeeee"></stop><stop offset="0.03" stop-color="#b2d4f8"></stop><stop offset="1" stop-color="#b2d4fa"></stop></linearGradient><linearGradient gradientUnits="objectBoundingBox" id="linearGradient-10" node-id="50" spreadMethod="pad" x1="0" x2="1" y1="0.5" y2="0.5"><stop offset="0" stop-color="#eeeeee"></stop><stop offset="0.03" stop-color="#dddddd"></stop><stop offset="1" stop-color="#d8d8d8"></stop></linearGradient><linearGradient gradientUnits="objectBoundingBox" id="linearGradient-11" node-id="54" spreadMethod="pad" x1="-0.0011750881" x2="1.0019585" y1="0.50069326" y2="0.50069326"><stop offset="0" stop-color="#97c9fd"></stop><stop offset="0.063881345" stop-color="#4199f3"></stop><stop offset="1" stop-color="#3f9cfc"></stop></linearGradient><linearGradient gradientUnits="objectBoundingBox" id="linearGradient-12" node-id="58" spreadMethod="pad" x1="-0.0000000000000012913089" x2="1" y1="0.49964106" y2="0.49964106"><stop offset="0" stop-color="#eeeeee"></stop><stop offset="0.03" stop-color="#dddddd"></stop><stop offset="1" stop-color="#d8d8d8"></stop></linearGradient><linearGradient gradientUnits="objectBoundingBox" id="linearGradient-13" node-id="62" spreadMethod="pad" x1="-0.0000000000000012913089" x2="1" y1="0.49964106" y2="0.49964106"><stop offset="0" stop-color="#68aff7"></stop><stop offset="0.51830614" stop-color="#6bb1f8"></stop><stop offset="1" stop-color="#6bb1f7"></stop></linearGradient><linearGradient gradientUnits="objectBoundingBox" id="linearGradient-14" node-id="66" spreadMethod="pad" x1="0" x2="0.9999322" y1="0.5" y2="0.5"><stop offset="0" stop-color="#eeeeee"></stop><stop offset="1" stop-color="#d8d8d8"></stop></linearGradient><linearGradient gradientUnits="objectBoundingBox" id="linearGradient-15" node-id="69" spreadMethod="pad" x1="0.30907866" x2="0.75498027" y1="0.4850446" y2="0.7307428"><stop offset="0" stop-color="#5fabf8"></stop><stop offset="1" stop-color="#6eb2f7"></stop></linearGradient><linearGradient gradientUnits="objectBoundingBox" id="linearGradient-16" node-id="72" spreadMethod="pad" x1="-0.0018800527" x2="0.99924797" y1="0.50114095" y2="0.50114095"><stop offset="0" stop-color="#5babfc"></stop><stop offset="1" stop-color="#459ffb"></stop></linearGradient><linearGradient gradientUnits="objectBoundingBox" id="linearGradient-17" node-id="75" spreadMethod="pad" x1="-0.000007044598" x2="1" y1="0.50004935" y2="0.50004935"><stop offset="0" stop-color="#96c5f4"></stop><stop offset="1" stop-color="#3f9cfa"></stop></linearGradient><linearGradient gradientUnits="objectBoundingBox" id="linearGradient-18" node-id="78" spreadMethod="pad" x1="0.37627852" x2="0.6237215" y1="0.23066665" y2="0.8827617"><stop offset="0" stop-color="#c4daf1"></stop><stop offset="1" stop-color="#5daaf8"></stop></linearGradient><linearGradient gradientUnits="objectBoundingBox" id="linearGradient-19" node-id="81" spreadMethod="pad" x1="-0.002352201" x2="0.99968547" y1="0.49919412" y2="0.49919412"><stop offset="0" stop-color="#c4daf1"></stop><stop offset="1" stop-color="#3497fb"></stop></linearGradient><linearGradient gradientUnits="objectBoundingBox" id="linearGradient-20" node-id="84" spreadMethod="pad" x1="0.0000000000000037421606" x2="1.0019749" y1="0.49945596" y2="0.49945596"><stop offset="0" stop-color="#87bdf5"></stop><stop offset="1" stop-color="#6ab2fd"></stop></linearGradient><linearGradient gradientUnits="objectBoundingBox" id="linearGradient-21" node-id="87" spreadMethod="pad" x1="-0.0000000000000009364649" x2="0.85432035" y1="0.5" y2="0.51332146"><stop offset="0" stop-color="#97c9fd"></stop><stop offset="1" stop-color="#54a7fc"></stop></linearGradient><linearGradient gradientUnits="objectBoundingBox" id="linearGradient-22" node-id="90" spreadMethod="pad" x1="0" x2="1" y1="0.5" y2="0.5"><stop offset="0" stop-color="#79bafd"></stop><stop offset="1" stop-color="#57a9fc"></stop></linearGradient><linearGradient gradientUnits="objectBoundingBox" id="linearGradient-23" node-id="93" spreadMethod="pad" x1="-0.0000000000000018254149" x2="1" y1="0.4979662" y2="0.4979662"><stop offset="0" stop-color="#69b2fc"></stop><stop offset="1" stop-color="#54a7fc"></stop></linearGradient><linearGradient gradientUnits="objectBoundingBox" id="linearGradient-24" node-id="96" spreadMethod="pad" x1="0" x2="1" y1="0.4980892" y2="0.4980892"><stop offset="0" stop-color="#eeeeee"></stop><stop offset="1" stop-color="#d8d8d8"></stop></linearGradient><linearGradient gradientUnits="objectBoundingBox" id="linearGradient-25" node-id="99" spreadMethod="pad" x1="0" x2="1" y1="0.50324255" y2="0.50324255"><stop offset="0" stop-color="#eeeeee"></stop><stop offset="1" stop-color="#d8d8d8"></stop></linearGradient><linearGradient gradientUnits="objectBoundingBox" id="linearGradient-26" node-id="102" spreadMethod="pad" x1="-0.0000033421643" x2="0.9999563" y1="0.50022566" y2="0.50022566"><stop offset="0" stop-color="#3597fb"></stop><stop offset="1" stop-color="#b9dafe"></stop></linearGradient></defs><path d="M 0.00 0.00 L 1024.00 0.00 L 1024.00 1024.00 L 0.00 1024.00 Z" fill="#ffffff" fill-rule="evenodd" node-id="377" stroke="none" target-height="1024" target-width="1024" target-x="0" target-y="0"></path><g node-id="454"><path d="M 0.00 0.00 L 1024.00 0.00 L 1024.00 1024.00 L 0.00 1024.00 Z" fill="#d8d8d8" fill-opacity="0" fill-rule="nonzero" group-id="1" id="矩形" node-id="107" stroke="none" target-height="1024" target-width="1024" target-x="0" target-y="0"></path></g><path d="M 1023.00 740.00 L 1022.70 745.20 L 1021.90 750.40 L 1020.60 755.60 L 1018.70 760.90 L 1016.20 766.20 L 1013.10 771.60 L 1009.00 777.40 L 1004.10 783.30 L 998.40 789.30 L 991.80 795.40 L 984.10 801.60 L 976.50 807.10 L 968.10 812.60 L 958.70 818.10 L 948.40 823.70 L 937.10 829.30 L 923.20 835.50 L 908.00 841.70 L 891.40 847.80 L 873.20 853.80 L 853.90 859.60 L 833.40 865.10 L 811.80 870.30 L 790.00 875.00 L 767.30 879.40 L 743.50 883.50 L 719.70 887.10 L 695.10 890.30 L 669.80 893.10 L 644.40 895.50 L 618.50 897.40 L 592.00 899.00 L 565.50 900.10 L 538.70 900.80 L 511.50 901.00 L 484.30 900.80 L 457.50 900.10 L 431.00 899.00 L 404.50 897.40 L 378.60 895.50 L 353.20 893.10 L 327.90 890.30 L 303.30 887.10 L 279.50 883.50 L 255.70 879.40 L 233.00 875.00 L 211.20 870.30 L 189.60 865.10 L 169.10 859.60 L 149.80 853.80 L 131.60 847.80 L 115.00 841.70 L 99.80 835.50 L 85.90 829.30 L 74.60 823.70 L 64.30 818.10 L 54.90 812.60 L 46.50 807.10 L 38.90 801.60 L 31.20 795.40 L 24.60 789.30 L 18.90 783.30 L 14.00 777.40 L 9.90 771.60 L 6.80 766.20 L 4.30 760.90 L 2.40 755.60 L 1.10 750.40 L 0.30 745.20 L 0.00 740.00 L 0.30 734.80 L 1.10 729.60 L 2.40 724.40 L 4.30 719.10 L 6.80 713.80 L 9.90 708.40 L 14.00 702.60 L 18.90 696.70 L 24.60 690.70 L 31.20 684.60 L 38.90 678.40 L 46.50 672.90 L 54.90 667.40 L 64.30 661.90 L 74.60 656.30 L 85.90 650.70 L 99.80 644.50 L 115.00 638.30 L 131.60 632.20 L 149.80 626.20 L 169.10 620.40 L 189.60 614.90 L 211.20 609.70 L 233.00 605.00 L 255.70 600.60 L 279.50 596.50 L 303.30 592.90 L 327.90 589.70 L 353.20 586.90 L 378.60 584.50 L 404.50 582.60 L 431.00 581.00 L 457.50 579.90 L 484.30 579.20 L 511.50 579.00 L 538.70 579.20 L 565.50 579.90 L 592.00 581.00 L 618.50 582.60 L 644.40 584.50 L 669.80 586.90 L 695.10 589.70 L 719.70 592.90 L 743.50 596.50 L 767.30 600.60 L 790.00 605.00 L 811.80 609.70 L 833.40 614.90 L 853.90 620.40 L 873.20 626.20 L 891.40 632.20 L 908.00 638.30 L 923.20 644.50 L 937.10 650.70 L 948.40 656.30 L 958.70 661.90 L 968.10 667.40 L 976.50 672.90 L 984.10 678.40 L 991.80 684.60 L 998.40 690.70 L 1004.10 696.70 L 1009.00 702.60 L 1013.10 708.40 L 1016.20 713.80 L 1018.70 719.10 L 1020.60 724.40 L 1021.90 729.60 L 1022.70 734.80 L 1023.00 740.00 Z" fill="url(#linearGradient-1)" fill-rule="nonzero" id="椭圆形" node-id="108" stroke="none" target-height="322" target-width="1023" target-x="0" target-y="579"></path><path d="M 199.70 592.00 L 204.00 640.00 L 177.00 636.80 Z" fill="#e4efff" fill-rule="nonzero" id="路径" node-id="109" stroke="none" target-height="48" target-width="27" target-x="177" target-y="592"></path><path d="M 200.00 592.00 L 230.00 629.90 L 204.50 640.00 Z" fill="#f3f8ff" fill-rule="nonzero" id="路径" node-id="110" stroke="none" target-height="48" target-width="30" target-x="200" target-y="592"></path><path d="M 99.50 605.00 L 105.00 666.00 L 71.00 661.90 Z" fill="#e4efff" fill-rule="nonzero" id="路径" node-id="111" stroke="none" target-height="61" target-width="34" target-x="71" target-y="605"></path><path d="M 99.00 605.00 L 138.00 653.20 L 105.00 666.00 Z" fill="#f3f8ff" fill-rule="nonzero" id="路径" node-id="112" stroke="none" target-height="61" target-width="39" target-x="99" target-y="605"></path><path d="M 147.60 562.00 L 157.00 665.00 L 94.00 658.60 Z" fill="#e4efff" fill-rule="nonzero" id="路径" node-id="113" stroke="none" target-height="103" target-width="63" target-x="94" target-y="562"></path><path d="M 147.00 562.00 L 214.00 642.90 L 156.50 665.00 Z" fill="#f3f8ff" fill-rule="nonzero" id="路径" node-id="114" stroke="none" target-height="103" target-width="67" target-x="147" target-y="562"></path><path d="M 167.20 341.20 L 166.00 336.40 L 164.30 332.00 L 162.00 327.80 L 159.30 323.90 L 156.20 320.40 L 152.70 317.20 L 148.90 314.50 L 144.80 312.20 L 140.40 310.30 L 135.80 309.00 L 131.00 308.20 L 126.00 308.00 L 121.90 308.20 L 114.10 309.60 L 106.70 312.40 L 103.20 314.30 L 96.80 319.10 L 89.80 316.90 L 82.50 316.30 L 78.60 316.50 L 74.90 317.00 L 71.40 318.00 L 68.00 319.40 L 61.70 323.10 L 56.50 328.10 L 54.30 331.00 L 52.50 334.20 L 51.00 337.60 L 49.90 341.20 L 46.00 342.40 L 42.40 344.00 L 39.20 346.20 L 36.30 348.70 L 33.90 351.60 L 31.90 354.90 L 30.40 358.40 L 29.40 362.20 L 29.00 366.10 L 29.40 369.80 L 30.20 373.20 L 31.40 376.40 L 33.10 379.40 L 35.10 382.20 L 37.40 384.70 L 40.10 386.90 L 43.00 388.70 L 46.10 390.20 L 49.50 391.20 L 53.00 391.80 L 56.70 392.00 L 160.30 392.00 L 164.00 391.80 L 167.50 391.20 L 170.90 390.20 L 174.00 388.70 L 176.90 386.90 L 179.60 384.70 L 181.90 382.20 L 183.90 379.40 L 185.60 376.40 L 186.80 373.20 L 187.60 369.80 L 188.00 366.10 L 187.60 362.20 L 186.60 358.40 L 185.10 354.90 L 183.10 351.70 L 180.70 348.80 L 177.80 346.20 L 174.60 344.00 L 171.10 342.40 L 167.20 341.20 Z" fill="url(#linearGradient-2)" fill-rule="nonzero" id="路径" node-id="115" stroke="none" target-height="84" target-width="159" target-x="29" target-y="308"></path><path d="M 767.90 204.30 L 763.80 199.30 L 758.80 195.40 L 753.10 192.50 L 750.00 191.60 L 743.60 190.70 L 741.60 187.90 L 736.70 183.20 L 730.90 179.80 L 724.50 177.70 L 717.60 177.00 L 713.50 177.20 L 709.40 178.00 L 705.50 179.30 L 701.80 181.10 L 698.40 183.30 L 695.30 186.10 L 689.70 184.90 L 686.90 184.80 L 682.50 185.10 L 678.50 186.10 L 674.70 187.60 L 671.30 189.60 L 668.30 192.00 L 665.80 194.90 L 663.00 199.80 L 661.70 205.30 L 658.40 206.30 L 655.50 207.80 L 652.70 209.60 L 650.30 211.80 L 648.30 214.30 L 646.60 217.10 L 645.30 220.10 L 644.40 223.20 L 644.00 226.60 L 644.20 229.70 L 644.90 232.60 L 646.00 235.30 L 649.30 240.30 L 651.40 242.40 L 656.50 245.90 L 662.50 248.20 L 665.70 248.80 L 669.20 249.00 L 765.80 249.00 L 769.30 248.80 L 772.60 248.20 L 775.70 247.20 L 781.30 244.30 L 785.80 240.30 L 787.60 237.90 L 789.00 235.30 L 790.10 232.60 L 790.80 229.70 L 791.00 226.60 L 790.80 223.70 L 790.30 220.90 L 789.30 218.30 L 788.00 215.80 L 785.80 212.80 L 783.00 210.20 L 779.70 207.90 L 776.10 206.20 L 772.20 205.00 L 767.90 204.30 Z" fill="url(#linearGradient-3)" fill-rule="nonzero" id="路径" node-id="116" stroke="none" target-height="72" target-width="147" target-x="644" target-y="177"></path><path d="M 948.40 171.70 L 945.70 167.00 L 942.80 162.50 L 939.40 158.50 L 935.70 154.70 L 931.70 151.30 L 927.40 148.40 L 922.80 145.80 L 918.00 143.60 L 913.00 141.90 L 907.90 140.70 L 902.60 139.90 L 897.10 139.60 L 891.00 140.00 L 885.10 140.90 L 879.30 142.50 L 873.70 144.70 L 868.40 147.50 L 863.30 150.80 L 858.40 142.90 L 852.30 136.00 L 847.70 132.00 L 842.80 128.60 L 837.50 125.70 L 831.90 123.30 L 826.10 121.60 L 820.10 120.50 L 815.60 120.10 L 806.30 120.40 L 801.60 121.10 L 796.90 122.20 L 792.50 123.70 L 784.20 127.60 L 779.10 130.90 L 774.40 134.70 L 770.20 138.90 L 764.70 146.10 L 760.40 154.10 L 757.40 162.70 L 755.90 172.00 L 750.90 173.80 L 746.30 176.00 L 741.90 178.60 L 737.80 181.50 L 734.00 184.80 L 730.50 188.30 L 727.40 192.10 L 724.60 196.20 L 722.20 200.50 L 720.10 205.00 L 718.50 209.60 L 717.20 214.50 L 716.40 219.40 L 716.00 224.40 L 716.10 229.60 L 716.70 234.80 L 717.70 240.00 L 719.20 244.90 L 721.00 249.60 L 723.30 254.00 L 726.00 258.30 L 729.00 262.20 L 732.20 265.90 L 735.90 269.30 L 739.80 272.30 L 743.90 275.00 L 748.30 277.40 L 752.90 279.40 L 757.70 280.90 L 762.60 282.00 L 767.70 282.70 L 773.00 283.00 L 931.90 283.00 L 937.20 282.80 L 942.30 282.10 L 947.30 280.90 L 952.10 279.40 L 956.70 277.40 L 961.10 275.00 L 965.30 272.30 L 969.20 269.20 L 972.80 265.80 L 976.10 262.20 L 979.10 258.20 L 981.80 253.90 L 984.00 249.40 L 985.90 244.70 L 987.30 239.70 L 988.40 234.50 L 988.90 229.30 L 989.00 224.10 L 988.60 219.10 L 987.70 214.10 L 986.40 209.30 L 984.70 204.60 L 982.60 200.10 L 980.10 195.80 L 977.30 191.70 L 974.10 187.90 L 970.50 184.40 L 966.70 181.20 L 962.50 178.30 L 958.10 175.80 L 948.40 171.70 Z" fill="url(#linearGradient-4)" fill-rule="nonzero" id="路径" node-id="117" stroke="none" target-height="162.9" target-width="273" target-x="716" target-y="120.1"></path><path d="M 904.00 605.00 L 899.20 669.00 L 863.00 658.50 Z" fill="#e4efff" fill-rule="nonzero" id="路径" node-id="118" stroke="none" target-height="64" target-width="41" target-x="863" target-y="605"></path><path d="M 903.80 605.00 L 934.00 661.40 L 899.00 669.00 Z" fill="#f3f8ff" fill-rule="nonzero" id="路径" node-id="119" stroke="none" target-height="64" target-width="35" target-x="899" target-y="605"></path><g node-id="455"><g node-id="456"><g node-id="458"><g node-id="461"><path d="M 659.20 587.40 L 661.20 587.80 L 663.60 589.00 L 664.70 590.30 L 665.20 592.00 L 665.10 595.70 L 664.00 602.70 L 664.90 607.30 L 666.80 613.40 L 656.50 615.10 L 655.80 608.60 L 655.10 607.80 L 654.00 607.40 L 651.50 607.00 L 650.40 605.20 L 649.70 602.30 L 649.30 601.80 L 647.70 601.30 L 647.30 600.40 L 649.00 597.20 L 649.90 592.70 L 651.10 590.40 L 652.70 589.10 L 654.60 588.00 L 656.80 587.50 L 659.20 587.40 Z" fill="#fecca9" fill-rule="nonzero" group-id="2,3,5,8" id="路径" node-id="124" stroke="none" target-height="27.699951" target-width="19.5" target-x="647.3" target-y="587.4"></path><path d="M 653.00 607.30 L 654.50 607.50 L 655.40 608.10 L 656.50 605.90 L 653.00 607.30 Z" fill="#cd916a" fill-rule="nonzero" group-id="2,3,5,8" id="路径" node-id="125" stroke="none" target-height="2.1999512" target-width="3.5" target-x="653" target-y="605.9"></path></g><path d="M 656.50 580.80 L 660.20 580.60 L 663.00 580.80 L 665.10 581.40 L 667.00 582.40 L 669.60 585.00 L 670.90 587.30 L 672.40 591.90 L 673.70 594.50 L 674.50 595.00 L 675.50 595.10 L 677.50 594.80 L 679.00 594.00 L 678.20 596.70 L 676.80 598.70 L 679.50 598.80 L 678.20 603.20 L 677.20 604.80 L 675.70 606.40 L 673.00 607.80 L 671.20 608.20 L 668.50 608.20 L 666.60 607.80 L 665.00 606.90 L 663.80 605.90 L 662.40 603.40 L 659.70 603.30 L 658.30 602.80 L 657.10 601.80 L 655.90 599.70 L 654.30 591.60 L 650.00 592.80 L 648.40 592.80 L 647.40 590.70 L 647.00 588.80 L 647.20 587.10 L 647.90 585.60 L 649.00 584.20 L 650.50 582.90 L 654.30 581.20 L 656.50 580.80 Z" fill="#003a8c" fill-rule="nonzero" group-id="2,3,5" id="Path" node-id="126" stroke="none" target-height="27.600037" target-width="32.5" target-x="647" target-y="580.6"></path></g><path d="M 697.80 738.90 L 696.90 735.30 L 694.40 729.40 L 700.80 726.30 L 703.80 738.00 L 703.10 739.70 L 699.10 745.20 L 695.60 744.90 L 697.10 742.40 L 697.80 738.90 Z" fill="#fecca9" fill-rule="nonzero" group-id="2,3" id="Path" node-id="127" stroke="none" target-height="18.900024" target-width="9.399963" target-x="694.4" target-y="726.3"></path><path d="M 649.90 741.70 L 650.40 740.10 L 650.80 736.70 L 651.10 727.70 L 659.10 727.70 L 655.60 743.70 L 654.20 744.90 L 648.10 747.90 L 645.10 745.90 L 647.60 744.50 L 649.90 741.70 Z" fill="#fecca9" fill-rule="nonzero" group-id="2,3" id="Path" node-id="128" stroke="none" target-height="20.200012" target-width="14" target-x="645.1" target-y="727.7"></path><path d="M 692.60 749.20 L 693.60 749.60 L 695.60 749.20 L 703.70 744.80 L 704.20 743.70 L 704.00 740.80 L 704.30 739.50 L 705.50 740.20 L 707.40 743.00 L 708.90 742.20 L 706.50 738.30 L 705.60 734.50 L 703.70 732.50 L 702.10 732.10 L 701.80 737.20 L 700.90 739.80 L 699.90 741.30 L 698.50 742.60 L 696.50 743.60 L 695.10 745.10 L 693.30 747.50 L 692.60 749.20 Z" fill="#001529" fill-rule="nonzero" group-id="2,3" id="Path" node-id="129" stroke="none" target-height="17.5" target-width="16.300049" target-x="692.6" target-y="732.1"></path><path d="M 640.40 748.40 L 641.10 749.10 L 643.10 749.80 L 652.30 749.70 L 653.30 748.90 L 654.40 746.30 L 655.40 745.20 L 656.10 746.40 L 656.50 749.80 L 658.10 749.80 L 657.80 745.20 L 658.80 741.40 L 658.10 738.80 L 656.90 737.70 L 654.20 742.00 L 652.20 744.00 L 650.60 744.80 L 648.70 745.30 L 646.50 745.30 L 644.60 745.80 L 641.80 747.20 L 640.40 748.40 Z" fill="#001529" fill-rule="nonzero" group-id="2,3" id="Path" node-id="130" stroke="none" target-height="12.099976" target-width="18.399963" target-x="640.4" target-y="737.7"></path><path d="M 667.70 651.50 L 662.30 660.80 L 657.60 670.00 L 653.20 680.10 L 651.50 685.10 L 650.50 689.50 L 643.70 727.70 L 666.80 729.60 L 667.30 714.70 L 668.90 703.10 L 672.10 689.90 L 679.00 667.20 L 678.90 665.90 L 678.10 663.80 L 675.30 659.10 L 671.50 654.50 L 667.70 651.50 Z" fill="#143e81" fill-rule="nonzero" group-id="2,3" id="Path" node-id="131" stroke="none" target-height="78.099976" target-width="35.299988" target-x="643.7" target-y="651.5"></path><path d="M 684.90 648.00 L 687.00 650.10 L 688.30 651.90 L 689.50 654.00 L 690.50 656.80 L 691.10 660.00 L 691.40 666.70 L 692.40 670.80 L 695.90 680.50 L 700.70 691.60 L 706.10 702.70 L 716.00 721.90 L 689.60 732.00 L 681.10 704.00 L 674.00 684.30 L 672.60 679.40 L 670.00 668.40 L 669.10 662.70 L 668.70 657.00 L 668.90 651.50 L 670.20 650.70 L 673.70 649.20 L 678.80 648.00 L 681.70 647.80 L 684.90 648.00 Z" fill="#3e65a3" fill-rule="nonzero" group-id="2,3" id="Path" node-id="132" stroke="none" target-height="84.20001" target-width="47.299988" target-x="668.7" target-y="647.8"></path><path d="M 641.70 627.60 L 639.50 630.90 L 637.30 633.40 L 635.00 634.80 L 631.30 634.50 L 617.20 630.30 L 615.90 629.20 L 614.70 626.30 L 613.50 625.20 L 612.50 625.40 L 610.00 627.10 L 608.80 629.70 L 608.80 632.30 L 609.20 633.40 L 610.30 634.40 L 612.50 634.80 L 627.70 641.20 L 634.40 643.30 L 637.40 643.80 L 639.50 643.70 L 641.70 642.90 L 643.80 641.60 L 647.40 638.20 L 650.70 633.60 L 646.80 629.40 L 643.50 627.80 L 641.70 627.60 Z" fill="#fecca9" fill-rule="nonzero" group-id="2,3" id="Path" node-id="133" stroke="none" target-height="18.599976" target-width="41.900024" target-x="608.8" target-y="625.2"></path><path d="M 645.40 626.30 L 645.90 627.50 L 648.60 630.00 L 649.30 631.20 L 650.40 635.80 L 651.90 638.10 L 654.00 639.40 L 658.90 640.40 L 659.60 640.70 L 660.30 641.80 L 660.80 644.40 L 660.50 646.70 L 659.90 649.10 L 656.80 657.10 L 656.60 658.00 L 657.00 658.60 L 660.70 657.90 L 675.20 653.20 L 680.70 652.40 L 685.70 651.10 L 690.20 648.90 L 691.30 647.90 L 692.40 645.50 L 684.90 641.20 L 681.40 638.20 L 680.10 636.10 L 679.10 633.40 L 676.40 623.70 L 674.80 619.50 L 673.00 616.10 L 671.60 614.10 L 669.90 612.50 L 667.90 611.30 L 665.80 610.50 L 663.20 610.10 L 660.00 610.20 L 657.70 610.60 L 653.60 612.40 L 651.00 614.40 L 648.80 616.80 L 647.00 619.40 L 645.40 623.60 L 645.40 626.30 Z" fill="#53a4fc" fill-rule="nonzero" group-id="2,3" id="Path" node-id="134" stroke="none" target-height="48.5" target-width="47" target-x="645.4" target-y="610.1"></path><path d="M 650.40 635.80 L 651.90 638.10 L 654.00 639.40 L 656.50 634.20 L 658.00 629.80 L 659.10 625.50 L 659.90 619.80 L 650.40 635.80 Z" fill="#096dd9" fill-rule="nonzero" group-id="2,3" id="Path" node-id="135" stroke="none" target-height="19.600037" target-width="9.5" target-x="650.4" target-y="619.8"></path><path d="M 651.90 614.40 L 650.00 615.20 L 648.90 616.20 L 640.10 627.70 L 640.90 628.80 L 643.90 631.60 L 647.50 634.40 L 650.20 636.20 L 650.70 636.30 L 652.30 635.40 L 653.50 634.10 L 657.30 628.20 L 659.00 624.90 L 660.10 621.90 L 660.40 620.20 L 659.90 617.50 L 658.10 615.70 L 654.70 614.60 L 651.90 614.40 Z" fill="#40a9ff" fill-rule="nonzero" group-id="2,3" id="Path" node-id="136" stroke="none" target-height="21.899963" target-width="20.300049" target-x="640.1" target-y="614.4"></path></g><g node-id="457"><path d="M 566.60 670.30 L 531.30 651.40 L 526.40 647.40 L 522.10 644.80 L 556.20 662.90 L 560.60 665.60 L 566.60 670.30 Z" fill="url(#linearGradient1)" fill-rule="nonzero" group-id="2,4" id="路径" node-id="138" stroke="none" target-height="25.5" target-width="44.5" target-x="522.1" target-y="644.8"></path><path d="M 566.60 670.30 L 531.30 651.40 L 526.40 647.40 L 522.10 644.80 L 556.20 662.90 L 560.60 665.60 L 566.60 670.30" fill="url(#linearGradient-5)" fill-rule="nonzero" group-id="2,4" id="路径" node-id="139" stroke="none" target-height="25.5" target-width="44.5" target-x="522.1" target-y="644.8"></path><path d="M 638.30 484.60 L 604.80 466.40 L 609.50 468.40 L 615.70 470.00 L 620.20 471.60 L 653.60 489.80 L 649.10 488.10 L 643.00 486.60 L 638.30 484.60 Z" fill="url(#linearGradient-6)" fill-rule="nonzero" group-id="2,4" id="路径" node-id="140" stroke="none" target-height="23.399994" target-width="48.799988" target-x="604.8" target-y="466.4"></path><g node-id="459"><path d="M 605.30 465.60 L 639.70 483.40 Z" fill="url(#linearGradient-7)" fill-rule="nonzero" group-id="2,4,6" node-id="421" stroke="none" target-height="17.799988" target-width="34.400024" target-x="605.3" target-y="465.6"></path><path d="M 645.70 485.80 L 611.30 467.90 L 616.30 468.90 L 650.70 487.70 L 648.50 487.00" fill="url(#linearGradient-8)" fill-rule="nonzero" group-id="2,4,6" node-id="423" stroke="none" target-height="19.800018" target-width="39.400024" target-x="611.3" target-y="467.9"></path><path d="M 650.20 487.50 L 616.30 468.90 L 620.50 470.30 L 654.00 488.90 L 650.20 487.50 Z" fill="url(#linearGradient-9)" fill-rule="nonzero" group-id="2,4,6" node-id="425" stroke="none" target-height="20" target-width="37.700012" target-x="616.3" target-y="468.9"></path><path d="M 654.90 488.30 L 655.40 488.60" fill="url(#linearGradient-10)" fill-rule="nonzero" group-id="2,4,6" node-id="427" stroke="none" target-height="0.3000183" target-width="0.5" target-x="654.9" target-y="488.3"></path></g><path d="M 579.30 558.90 L 581.30 554.20 L 584.40 542.90 L 585.60 534.90 L 585.70 528.20 L 585.50 522.80 L 584.80 517.70 L 583.80 512.90 L 582.40 508.20 L 580.60 503.70 L 578.40 499.50 L 576.00 495.60 L 573.20 492.00 L 570.10 488.70 L 566.70 485.60 L 563.10 483.00 L 525.10 462.20 L 529.00 464.50 L 532.60 467.20 L 535.90 470.20 L 539.10 473.60 L 541.80 477.20 L 544.30 481.10 L 546.40 485.30 L 548.30 489.80 L 549.70 494.40 L 550.70 499.30 L 551.30 504.40 L 551.60 514.30 L 550.50 523.00 L 549.10 529.40 L 547.10 535.50 L 544.90 540.90 L 542.30 546.10 L 540.30 549.70 L 535.20 557.00 L 530.20 562.50 L 526.70 565.90 L 520.50 570.70 L 515.80 573.60 L 510.90 576.20 L 506.30 578.10 L 498.80 580.40 L 493.90 581.30 L 489.10 581.80 L 482.60 581.80 L 473.50 580.40 L 468.00 578.60 L 462.60 576.20 L 496.80 594.60 L 503.40 597.50 L 507.70 598.90 L 516.70 600.20 L 523.20 600.20 L 528.10 599.70 L 536.80 597.80 L 545.10 594.70 L 553.90 589.70 L 557.80 586.80 L 564.30 581.00 L 569.20 575.40 L 574.20 568.20 L 579.30 558.90 Z" fill="url(#linearGradient-11)" fill-rule="nonzero" group-id="2,4" id="路径" node-id="146" stroke="none" target-height="138" target-width="123.100006" target-x="462.6" target-y="462.2"></path><path d="M 459.80 672.90 L 426.30 655.70 L 420.90 652.50 L 415.70 649.00 L 410.80 645.10 L 408.90 643.00 L 407.40 640.50 L 441.60 659.30 L 443.10 661.70 L 444.90 663.90 L 447.30 665.80 L 459.80 672.90 Z" fill="url(#linearGradient-12)" fill-rule="nonzero" group-id="2,4" id="路径" node-id="147" stroke="none" target-height="32.400024" target-width="52.399994" target-x="407.4" target-y="640.5"></path><path d="M 426.30 655.70 L 420.90 652.50 L 415.70 649.00 L 410.80 645.10 L 408.00 642.40 L 407.20 641.30 L 441.30 658.30 L 443.30 661.00 L 445.50 663.50 L 453.00 668.70 L 460.70 673.40 L 426.30 655.70 Z" fill="url(#linearGradient-13)" fill-rule="nonzero" group-id="2,4" id="路径" node-id="148" stroke="none" target-height="32.100037" target-width="53.5" target-x="407.2" target-y="641.3"></path><path d="M 386.20 576.80 L 420.00 595.20 L 423.90 597.80 L 427.40 600.60 L 430.70 603.90 L 433.60 607.50 L 436.10 611.30 L 440.20 620.40 L 441.80 625.50 L 442.90 630.70 L 443.40 636.20 L 443.50 641.50 L 443.10 647.20 L 442.30 653.30 L 441.00 659.60 L 407.20 641.30 L 408.50 634.90 L 409.40 628.90 L 409.70 623.20 L 409.70 617.80 L 409.10 612.40 L 408.10 607.20 L 406.50 602.10 L 402.30 592.90 L 399.80 589.10 L 396.90 585.50 L 393.70 582.20 L 390.10 579.40 L 386.20 576.80 Z" fill="url(#linearGradient-14)" fill-rule="nonzero" group-id="2,4" id="路径" node-id="149" stroke="none" target-height="82.79999" target-width="57.299988" target-x="386.2" target-y="576.8"></path><path d="M 407.20 641.30 L 408.50 634.90 L 409.40 628.90 L 409.70 623.20 L 409.70 617.80 L 409.10 612.40 L 408.10 607.20 L 406.50 602.10 L 402.30 592.90 L 399.80 589.10 L 396.90 585.50 L 393.70 582.20 L 390.10 579.40 L 386.20 576.80 L 420.90 593.90 L 424.70 596.50 L 428.20 599.40 L 431.40 602.80 L 434.20 606.40 L 436.70 610.30 L 440.80 619.50 L 442.40 624.60 L 443.40 629.90 L 443.90 635.50 L 444.00 641.10 L 443.50 646.90 L 442.50 653.10 L 441.00 659.60 L 407.20 641.30 Z" fill="url(#linearGradient-15)" fill-rule="nonzero" group-id="2,4" id="路径" node-id="150" stroke="none" target-height="82.79999" target-width="57.799988" target-x="386.2" target-y="576.8"></path><path d="M 575.00 391.60 L 585.00 395.20 L 596.30 400.50 L 558.30 380.10 L 546.20 375.10 L 540.50 373.20 L 537.70 373.10 L 536.40 373.40 L 534.80 374.50 L 528.00 382.60 L 525.30 385.50 L 520.00 390.10 L 512.70 394.90 L 508.40 397.10 L 502.20 399.50 L 494.90 401.10 L 491.10 401.50 L 485.90 401.50 L 478.40 400.30 L 474.70 399.20 L 469.00 396.60 L 504.40 415.70 L 508.60 417.40 L 512.20 418.60 L 517.10 419.40 L 524.90 419.70 L 532.70 418.60 L 539.10 416.70 L 546.60 413.10 L 553.70 408.30 L 559.80 402.80 L 568.90 392.40 L 571.60 391.20 L 573.60 391.20 L 575.00 391.60 Z" fill="url(#linearGradient-16)" fill-rule="nonzero" group-id="2,4" id="路径" node-id="151" stroke="none" target-height="46.600006" target-width="127.29999" target-x="469" target-y="373.1"></path><path d="M 368.40 571.00 L 367.00 569.90 L 366.00 568.50 L 365.40 566.80 L 365.00 538.60 L 365.10 512.10 L 365.40 511.10 L 367.20 508.70 L 369.80 506.60 L 376.30 503.30 L 381.10 500.40 L 385.50 497.20 L 389.50 493.70 L 393.20 490.00 L 396.50 485.90 L 400.00 480.70 L 403.00 475.10 L 405.50 469.00 L 407.50 462.50 L 409.10 455.40 L 409.60 450.60 L 409.50 440.90 L 407.10 424.00 L 407.30 420.20 L 407.90 418.50 L 409.00 416.90 L 410.70 415.20 L 447.80 385.50 L 449.50 384.30 L 451.50 383.70 L 453.00 383.70 L 454.40 384.20 L 488.10 402.80 L 486.70 402.20 L 485.20 402.20 L 483.30 402.90 L 481.50 404.10 L 444.40 433.80 L 442.70 435.50 L 441.60 437.10 L 441.00 438.80 L 440.80 442.60 L 443.20 459.40 L 443.40 469.20 L 442.80 474.00 L 441.20 481.10 L 439.20 487.60 L 436.70 493.70 L 433.70 499.30 L 430.20 504.50 L 426.90 508.60 L 423.30 512.30 L 419.30 515.80 L 414.80 519.00 L 402.10 526.20 L 399.80 528.50 L 399.10 529.70 L 398.80 530.70 L 398.70 543.90 L 399.00 583.60 L 399.10 585.40 L 399.70 587.10 L 400.70 588.50 L 402.10 589.60 L 368.40 571.00 Z" fill="url(#linearGradient-17)" fill-rule="nonzero" group-id="2,4" id="路径" node-id="152" stroke="none" target-height="205.89996" target-width="123.100006" target-x="365" target-y="383.7"></path><g node-id="460"><path d="M 372.60 505.20 L 369.40 506.70 L 367.70 508.10 L 365.90 510.00 L 365.10 511.80 L 365.00 538.20 L 365.40 566.30 L 366.00 567.90 L 367.00 569.40 L 368.40 570.50 L 402.50 588.90 L 401.10 587.80 L 400.10 586.40 L 399.50 584.80 L 399.20 556.60 L 399.30 530.30 L 400.00 528.50 L 401.80 526.50 L 403.50 525.20 L 406.70 523.60 L 372.60 505.20 Z" fill="url(#linearGradient-18)" fill-rule="nonzero" group-id="2,4,7" node-id="438" stroke="none" target-height="83.70001" target-width="41.700012" target-x="365" target-y="505.2"></path><path d="M 442.10 445.40 L 441.60 443.00 L 441.60 440.60 L 442.10 438.20 L 408.00 419.80 L 407.60 422.20 L 407.60 424.60 L 409.50 436.40 L 410.00 441.30 L 410.10 451.00 L 409.50 455.90 L 407.40 464.90 L 404.20 473.80 L 399.60 482.20 L 396.90 486.00 L 391.60 492.20 L 389.10 494.60 L 385.90 497.10 L 377.70 502.50 L 372.60 505.20 L 406.90 523.80 L 412.00 521.10 L 416.90 518.10 L 423.20 513.10 L 430.20 505.50 L 434.30 499.70 L 438.30 492.20 L 440.10 487.80 L 442.20 481.00 L 443.70 474.20 L 444.30 469.30 L 444.40 464.50 L 443.60 454.80 L 442.10 445.40 Z" fill="url(#linearGradient-19)" fill-rule="nonzero" group-id="2,4,7" node-id="440" stroke="none" target-height="104" target-width="71.79999" target-x="372.6" target-y="419.8"></path><path d="M 410.50 416.20 L 408.90 418.00 L 408.00 419.80 L 442.10 438.20 L 443.00 436.40 L 444.60 434.70 L 410.50 416.20 Z" fill="url(#linearGradient-20)" fill-rule="nonzero" group-id="2,4,7" node-id="442" stroke="none" target-height="22" target-width="36.600006" target-x="408" target-y="416.2"></path><path d="M 444.70 434.70 L 410.50 416.20 L 411.20 415.70 L 449.50 385.50 L 483.60 403.90 L 444.70 434.70" fill="url(#linearGradient-21)" fill-rule="nonzero" group-id="2,4,7" node-id="444" stroke="none" target-height="49.200012" target-width="73.100006" target-x="410.5" target-y="385.5"></path><path d="M 483.60 404.00 L 449.50 385.50 L 450.90 384.70 L 485.00 403.20 L 483.60 404.00" fill="url(#linearGradient-22)" fill-rule="nonzero" group-id="2,4,7" node-id="446" stroke="none" target-height="19.299988" target-width="35.5" target-x="449.5" target-y="384.7"></path><path d="M 485.00 403.20 L 450.90 384.70 L 452.50 384.20 L 454.30 384.20 L 488.40 402.80 L 486.70 402.80 L 485.00 403.30" fill="url(#linearGradient-23)" fill-rule="nonzero" group-id="2,4,7" node-id="448" stroke="none" target-height="19.099976" target-width="37.5" target-x="450.9" target-y="384.2"></path><path d="M 488.40 402.80 L 455.20 384.70 L 488.40 402.80" fill="url(#linearGradient-24)" fill-rule="nonzero" group-id="2,4,7" node-id="450" stroke="none" target-height="18.099976" target-width="33.19998" target-x="455.2" target-y="384.7"></path><path d="M 489.30 403.10 L 455.20 384.60 L 489.30 403.10" fill="url(#linearGradient-25)" fill-rule="nonzero" group-id="2,4,7" node-id="452" stroke="none" target-height="18.5" target-width="34.099976" target-x="455.2" target-y="384.6"></path></g><path d="M 658.10 493.00 L 659.10 501.90 L 659.80 510.80 L 660.00 519.80 L 659.30 533.30 L 657.10 547.10 L 656.20 549.30 L 655.00 551.30 L 653.40 552.90 L 642.00 560.00 L 637.70 563.40 L 633.70 567.10 L 630.00 571.30 L 626.60 575.60 L 623.60 580.20 L 621.00 585.10 L 618.80 590.10 L 617.00 595.30 L 615.60 600.50 L 614.60 605.90 L 614.10 611.40 L 614.10 616.80 L 614.60 622.30 L 616.00 629.70 L 616.00 631.70 L 614.90 635.40 L 613.90 637.10 L 606.60 644.50 L 600.50 650.10 L 594.00 655.40 L 587.40 660.40 L 580.40 665.00 L 571.30 670.30 L 569.10 670.90 L 566.00 670.50 L 564.60 669.70 L 560.20 666.00 L 556.80 663.70 L 553.10 661.80 L 549.40 660.20 L 545.40 659.00 L 541.40 658.20 L 537.30 657.80 L 533.20 657.80 L 529.00 658.30 L 524.00 659.30 L 519.10 660.80 L 514.50 662.70 L 510.00 665.10 L 505.70 667.80 L 501.80 671.00 L 498.10 674.40 L 493.40 680.00 L 491.80 681.30 L 488.00 682.90 L 485.80 683.00 L 483.70 682.50 L 476.70 680.40 L 469.80 677.80 L 463.10 674.70 L 456.70 671.10 L 450.50 667.20 L 444.60 662.80 L 442.80 660.60 L 441.30 658.30 L 442.70 651.90 L 443.50 645.90 L 443.90 640.20 L 443.80 634.80 L 443.30 629.40 L 442.20 624.10 L 440.60 619.00 L 438.50 614.00 L 435.70 608.80 L 432.60 604.30 L 429.20 600.40 L 425.40 597.10 L 422.10 594.80 L 418.60 592.80 L 414.80 591.30 L 410.60 590.00 L 404.00 588.80 L 401.10 587.20 L 400.20 586.00 L 399.50 584.40 L 399.30 582.10 L 399.00 555.80 L 399.10 529.50 L 399.30 528.50 L 400.10 527.30 L 402.40 525.00 L 415.20 517.90 L 419.60 514.70 L 423.60 511.20 L 427.30 507.50 L 430.60 503.50 L 434.10 498.30 L 437.10 492.70 L 439.70 486.70 L 441.70 480.20 L 443.30 473.20 L 443.90 468.40 L 443.70 458.70 L 441.30 442.00 L 441.50 438.10 L 442.10 436.50 L 443.20 434.90 L 444.90 433.20 L 484.00 402.40 L 486.00 401.80 L 489.00 402.30 L 490.30 403.10 L 494.70 407.70 L 498.30 410.70 L 502.20 413.30 L 506.40 415.40 L 510.70 417.10 L 515.30 418.20 L 519.90 418.90 L 524.60 419.00 L 529.40 418.60 L 534.50 417.60 L 539.50 416.00 L 544.60 413.80 L 549.60 410.90 L 554.30 407.60 L 558.80 403.70 L 563.10 399.10 L 568.30 392.50 L 569.50 391.40 L 572.40 390.00 L 575.90 390.50 L 583.00 392.90 L 590.00 395.80 L 596.80 399.20 L 603.30 403.00 L 609.50 407.20 L 615.50 411.90 L 616.90 413.40 L 617.50 414.80 L 617.50 417.90 L 615.40 426.30 L 614.70 431.20 L 614.30 436.00 L 614.80 445.60 L 615.50 450.20 L 618.00 459.00 L 619.80 463.20 L 624.30 470.80 L 627.00 474.20 L 630.00 477.40 L 633.30 480.20 L 636.80 482.60 L 640.70 484.80 L 643.60 485.90 L 652.90 488.40 L 656.20 490.30 L 657.50 491.60 L 658.10 493.00 Z M 528.80 599.00 L 538.20 596.80 L 547.10 593.20 L 552.60 590.00 L 557.80 586.20 L 562.70 581.90 L 567.20 577.20 L 571.30 572.10 L 574.90 566.50 L 578.10 560.60 L 580.80 554.40 L 582.90 547.90 L 584.40 541.20 L 585.40 534.30 L 585.70 527.20 L 585.20 520.80 L 584.20 514.90 L 582.80 509.50 L 580.90 504.50 L 578.40 499.60 L 575.60 495.20 L 572.40 491.20 L 568.80 487.60 L 564.80 484.40 L 560.50 481.60 L 555.80 479.30 L 550.80 477.30 L 545.70 475.90 L 540.30 474.90 L 534.50 474.30 L 528.50 474.30 L 522.20 475.40 L 517.70 476.60 L 513.30 478.30 L 509.00 480.30 L 503.50 483.60 L 498.30 487.40 L 493.40 491.70 L 489.00 496.40 L 484.90 501.60 L 481.20 507.10 L 478.10 512.90 L 475.40 519.00 L 473.30 525.20 L 471.80 531.60 L 470.90 538.10 L 470.60 544.60 L 471.00 551.20 L 471.90 557.30 L 473.30 563.00 L 475.20 568.40 L 477.70 573.60 L 480.60 578.40 L 483.90 582.60 L 487.70 586.50 L 491.80 590.00 L 496.20 592.90 L 501.00 595.40 L 506.10 597.30 L 511.30 598.60 L 516.80 599.40 L 522.60 599.50 L 528.70 599.00" fill="url(#linearGradient-26)" fill-rule="nonzero" group-id="2,4" id="形状" node-id="162" stroke="none" target-height="293" target-width="261" target-x="399" target-y="390"></path></g></g></svg>