<?xml version="1.0" standalone="no"?><!DOCTYPE svg PUBLIC "-//W3C//DTD SVG 1.1//EN" "http://www.w3.org/Graphics/SVG/1.1/DTD/svg11.dtd"><svg height="1024" node-id="1" sillyvg="true" template-height="1024" template-width="1024" version="1.1" viewBox="0 0 1024 1024" width="1024" xmlns="http://www.w3.org/2000/svg" xmlns:xlink="http://www.w3.org/1999/xlink"><defs node-id="94"><linearGradient gradientUnits="objectBoundingBox" id="linearGradient-1" node-id="5" spreadMethod="pad" x1="0.5" x2="0.5" y1="1.0012227" y2="-0.0005798328"><stop offset="0" stop-color="#ffffff" stop-opacity="0.1"></stop><stop offset="1" stop-color="#d9e9ff"></stop></linearGradient><linearGradient gradientUnits="objectBoundingBox" id="linearGradient-2" node-id="8" spreadMethod="pad" x1="0.5008439" x2="0.5008439" y1="1" y2="0.00006494738"><stop offset="0" stop-color="#ffffff" stop-opacity="0.1"></stop><stop offset="0.14" stop-color="#f8fbff" stop-opacity="0.27"></stop><stop offset="0.37" stop-color="#edf5ff" stop-opacity="0.52"></stop><stop offset="0.58" stop-color="#e4f0ff" stop-opacity="0.73"></stop><stop offset="0.76" stop-color="#deecff" stop-opacity="0.88"></stop><stop offset="0.91" stop-color="#daeaff" stop-opacity="0.97"></stop><stop offset="1" stop-color="#d9e9ff"></stop></linearGradient><linearGradient gradientUnits="objectBoundingBox" id="linearGradient-3" node-id="16" spreadMethod="pad" x1="0.5000459" x2="0.5000459" y1="0.999312" y2="-0.0008112773"><stop offset="0" stop-color="#ffffff" stop-opacity="0.1"></stop><stop offset="0.09" stop-color="#fefeff" stop-opacity="0.13"></stop><stop offset="0.23" stop-color="#fbfcff" stop-opacity="0.21"></stop><stop offset="0.4" stop-color="#f5f9ff" stop-opacity="0.33"></stop><stop offset="0.59" stop-color="#eef5ff" stop-opacity="0.51"></stop><stop offset="0.79" stop-color="#e4efff" stop-opacity="0.74"></stop><stop offset="1" stop-color="#d9e9ff"></stop></linearGradient><linearGradient gradientUnits="objectBoundingBox" id="linearGradient-4" node-id="24" spreadMethod="pad" x1="0.5" x2="0.5" y1="1" y2="0"><stop offset="0" stop-color="#ffffff" stop-opacity="0.1"></stop><stop offset="0.13" stop-color="#fbfdff" stop-opacity="0.19"></stop><stop offset="0.41" stop-color="#f1f7ff" stop-opacity="0.43"></stop><stop offset="0.81" stop-color="#e1eeff" stop-opacity="0.82"></stop><stop offset="1" stop-color="#d9e9ff"></stop></linearGradient><linearGradient gradientUnits="objectBoundingBox" id="linearGradient-5" node-id="30" spreadMethod="pad" x1="0.5" x2="0.5" y1="1" y2="0"><stop offset="0" stop-color="#ffffff"></stop><stop offset="1" stop-color="#d9e9ff"></stop></linearGradient><linearGradient gradientUnits="objectBoundingBox" id="linearGradient-6" node-id="33" spreadMethod="pad" x1="0" x2="1" y1="0.5000606" y2="0.5000606"><stop offset="0" stop-color="#e0e7ff"></stop><stop offset="0.33" stop-color="#ccdffb"></stop><stop offset="0.71" stop-color="#bbd9f7"></stop><stop offset="1" stop-color="#b5d7f6"></stop></linearGradient><linearGradient gradientUnits="objectBoundingBox" id="linearGradient-7" node-id="38" spreadMethod="pad" x1="0" x2="1" y1="0.5" y2="0.5"><stop offset="0" stop-color="#eef6ff"></stop><stop offset="1" stop-color="#d2e6fe"></stop></linearGradient><linearGradient gradientUnits="objectBoundingBox" id="linearGradient-8" node-id="41" spreadMethod="pad" x1="-11.9812565" x2="-12.9812565" y1="-13.616924" y2="-13.616924"><stop offset="0" stop-color="#ecf5ff"></stop><stop offset="0.24839494" stop-color="#f9fcff"></stop><stop offset="0.45" stop-color="#daeaff"></stop><stop offset="0.74703074" stop-color="#c7dfff"></stop><stop offset="1" stop-color="#c0dbff"></stop></linearGradient><linearGradient gradientUnits="objectBoundingBox" id="linearGradient-9" node-id="47" spreadMethod="pad" x1="1" x2="-0.14890306" y1="0.5" y2="0.5"><stop offset="0" stop-color="#ffffff"></stop><stop offset="0.06" stop-color="#f9fcff"></stop><stop offset="0.67480433" stop-color="#daeaff"></stop><stop offset="0.8496967" stop-color="#c7dfff"></stop><stop offset="1" stop-color="#c0dbff"></stop></linearGradient><linearGradient gradientUnits="objectBoundingBox" id="linearGradient-10" node-id="53" spreadMethod="pad" x1="0.28697047" x2="1.0688382" y1="0.56985587" y2="0.4588483"><stop offset="0" stop-color="#d7e8ff"></stop><stop offset="1" stop-color="#eaf3ff"></stop></linearGradient><linearGradient gradientUnits="objectBoundingBox" id="linearGradient-11" node-id="56" spreadMethod="pad" x1="-14.16744" x2="-13.16744" y1="-40.547054" y2="-40.547054"><stop offset="0" stop-color="#cbe2fc"></stop><stop offset="0.04" stop-color="#fcfdff"></stop><stop offset="0.35" stop-color="#e9f3ff"></stop><stop offset="0.66" stop-color="#deecff"></stop><stop offset="1" stop-color="#daeaff"></stop></linearGradient></defs><path d="M 0.00 0.00 L 1024.00 0.00 L 1024.00 1024.00 L 0.00 1024.00 Z" fill="#ffffff" fill-rule="evenodd" node-id="212" stroke="none" target-height="1024" target-width="1024" target-x="0" target-y="0"></path><g node-id="214"><g node-id="215"><path d="M 0.00 0.00 L 1024.00 0.00 L 1024.00 1024.00 L 0.00 1024.00 Z" fill="#f4f7f9" fill-opacity="0" fill-rule="nonzero" group-id="1,2" id="矩形" node-id="65" stroke="none" target-height="1024" target-width="1024" target-x="0" target-y="0"></path></g><path d="M 201.40 594.00 L 206.00 642.00 L 177.00 638.80 Z" fill="#e4efff" fill-rule="nonzero" group-id="1" id="路径" node-id="66" stroke="none" target-height="48" target-width="29" target-x="177" target-y="594"></path><path d="M 200.00 594.00 L 230.00 631.90 L 204.50 642.00 Z" fill="#f3f8ff" fill-rule="nonzero" group-id="1" id="路径" node-id="67" stroke="none" target-height="48" target-width="30" target-x="200" target-y="594"></path><path d="M 100.30 606.00 L 106.00 667.00 L 71.00 662.90 Z" fill="#e4efff" fill-rule="nonzero" group-id="1" id="路径" node-id="68" stroke="none" target-height="61" target-width="35" target-x="71" target-y="606"></path><path d="M 101.00 606.00 L 138.00 654.20 L 106.70 667.00 Z" fill="#f3f8ff" fill-rule="nonzero" group-id="1" id="路径" node-id="69" stroke="none" target-height="61" target-width="37" target-x="101" target-y="606"></path><path d="M 148.50 564.00 L 158.00 665.00 L 94.00 658.70 Z" fill="#e4efff" fill-rule="nonzero" group-id="1" id="路径" node-id="70" stroke="none" target-height="101" target-width="64" target-x="94" target-y="564"></path><path d="M 147.00 564.00 L 214.00 643.40 L 156.50 665.00 Z" fill="#f3f8ff" fill-rule="nonzero" group-id="1" id="路径" node-id="71" stroke="none" target-height="101" target-width="67" target-x="147" target-y="564"></path><path d="M 167.20 342.00 L 166.00 337.10 L 164.30 332.50 L 162.00 328.20 L 159.30 324.20 L 156.20 320.60 L 152.70 317.40 L 148.80 314.60 L 144.70 312.20 L 140.30 310.40 L 135.70 309.00 L 130.90 308.20 L 125.80 308.00 L 121.80 308.20 L 114.00 309.60 L 106.60 312.50 L 103.10 314.50 L 96.70 319.30 L 89.70 317.00 L 82.50 316.30 L 78.60 316.40 L 74.90 317.00 L 71.30 318.00 L 67.90 319.40 L 64.70 321.20 L 61.70 323.30 L 58.90 325.70 L 56.40 328.50 L 54.30 331.50 L 52.40 334.70 L 51.00 338.20 L 49.90 342.00 L 46.00 343.20 L 42.40 344.90 L 39.20 347.10 L 36.40 349.70 L 33.90 352.70 L 31.90 356.00 L 30.40 359.60 L 29.40 363.40 L 29.00 367.50 L 29.40 371.20 L 30.20 374.70 L 31.40 378.00 L 33.10 381.10 L 35.10 384.00 L 37.40 386.50 L 40.10 388.70 L 43.00 390.60 L 46.10 392.10 L 49.50 393.20 L 53.00 393.80 L 56.70 394.00 L 160.30 394.00 L 164.00 393.80 L 167.50 393.20 L 170.90 392.10 L 174.00 390.60 L 176.90 388.80 L 179.60 386.50 L 181.90 384.00 L 183.90 381.10 L 185.60 378.00 L 186.80 374.70 L 187.60 371.20 L 188.00 367.50 L 187.60 363.40 L 186.60 359.60 L 185.10 356.00 L 183.10 352.70 L 180.70 349.70 L 177.80 347.10 L 174.60 344.90 L 171.10 343.20 L 167.20 342.00 Z" fill="url(#linearGradient-1)" fill-rule="nonzero" group-id="1" id="路径" node-id="72" stroke="none" target-height="86" target-width="159" target-x="29" target-y="308"></path><path d="M 768.70 203.10 L 764.60 198.00 L 759.60 193.90 L 753.80 191.00 L 750.80 190.00 L 744.30 189.10 L 742.20 186.20 L 737.30 181.40 L 731.50 177.80 L 725.00 175.70 L 718.10 175.00 L 713.90 175.30 L 709.90 176.00 L 705.90 177.40 L 702.20 179.20 L 698.80 181.50 L 695.60 184.30 L 690.00 183.20 L 683.80 183.20 L 680.70 183.80 L 674.90 185.80 L 671.50 187.90 L 668.50 190.40 L 665.90 193.40 L 663.20 198.40 L 661.80 204.10 L 658.50 205.10 L 655.50 206.60 L 652.80 208.50 L 650.40 210.80 L 648.30 213.30 L 646.60 216.20 L 645.30 219.20 L 644.40 222.50 L 644.00 226.00 L 644.20 229.10 L 644.90 232.10 L 646.00 234.90 L 647.50 237.60 L 649.30 240.00 L 651.50 242.20 L 656.60 245.80 L 662.60 248.20 L 665.90 248.80 L 669.30 249.00 L 766.70 249.00 L 770.20 248.80 L 773.50 248.20 L 776.60 247.20 L 782.20 244.20 L 786.80 240.00 L 788.60 237.60 L 790.00 234.90 L 791.10 232.10 L 791.80 229.10 L 792.00 226.00 L 791.80 223.00 L 791.30 220.20 L 790.30 217.50 L 789.00 214.90 L 786.70 211.80 L 783.90 209.10 L 780.60 206.80 L 777.90 205.40 L 772.00 203.50 L 768.70 203.10 Z" fill="url(#linearGradient-2)" fill-rule="nonzero" group-id="1" id="路径" node-id="73" stroke="none" target-height="74" target-width="148" target-x="644" target-y="175"></path><path d="M 949.60 171.70 L 947.00 167.00 L 944.00 162.50 L 940.70 158.50 L 937.00 154.70 L 932.90 151.30 L 928.70 148.40 L 924.10 145.80 L 919.30 143.60 L 914.40 141.90 L 909.20 140.70 L 904.00 139.90 L 898.50 139.60 L 892.50 140.00 L 886.60 140.90 L 880.80 142.50 L 875.20 144.70 L 869.90 147.50 L 864.90 150.80 L 859.90 142.90 L 853.90 136.00 L 849.30 132.00 L 844.40 128.60 L 839.10 125.70 L 833.50 123.30 L 827.80 121.60 L 821.80 120.50 L 812.70 120.00 L 808.00 120.40 L 803.30 121.10 L 798.70 122.20 L 790.00 125.40 L 786.00 127.60 L 780.90 130.90 L 776.20 134.70 L 772.00 138.90 L 768.20 143.60 L 765.00 148.70 L 762.30 154.10 L 759.30 162.70 L 757.80 172.00 L 752.80 173.80 L 748.20 176.00 L 743.80 178.60 L 739.80 181.50 L 736.00 184.80 L 732.50 188.30 L 729.40 192.10 L 726.60 196.20 L 724.10 200.50 L 722.10 205.00 L 720.50 209.60 L 719.20 214.50 L 718.40 219.40 L 718.00 224.40 L 718.10 229.60 L 718.70 234.80 L 719.70 240.00 L 721.20 244.90 L 723.00 249.60 L 725.30 254.00 L 727.90 258.30 L 730.90 262.20 L 734.20 265.90 L 737.80 269.30 L 741.70 272.30 L 745.80 275.00 L 750.20 277.40 L 754.80 279.40 L 759.50 280.90 L 764.50 282.00 L 769.50 282.70 L 774.80 283.00 L 933.10 283.00 L 938.40 282.80 L 943.50 282.10 L 948.40 280.90 L 953.20 279.40 L 957.80 277.40 L 962.20 275.00 L 966.30 272.30 L 970.20 269.20 L 973.90 265.80 L 977.20 262.20 L 980.10 258.20 L 982.80 253.90 L 985.10 249.40 L 986.90 244.70 L 988.40 239.70 L 989.40 234.50 L 989.90 229.30 L 990.00 224.10 L 989.60 219.10 L 988.70 214.10 L 987.40 209.30 L 985.70 204.60 L 983.60 200.10 L 981.10 195.80 L 978.30 191.70 L 975.10 187.90 L 971.60 184.40 L 967.70 181.20 L 963.60 178.30 L 959.20 175.80 L 949.60 171.70 Z" fill="url(#linearGradient-3)" fill-rule="nonzero" group-id="1" id="路径" node-id="74" stroke="none" target-height="163" target-width="272" target-x="718" target-y="120"></path><path d="M 1024.00 742.00 L 1023.70 747.30 L 1022.90 752.50 L 1021.60 757.70 L 1019.70 763.00 L 1017.20 768.30 L 1014.10 773.80 L 1010.00 779.60 L 1005.10 785.60 L 999.40 791.60 L 992.70 797.80 L 985.00 804.00 L 977.40 809.50 L 969.00 815.00 L 959.70 820.60 L 949.30 826.20 L 938.00 831.90 L 924.10 838.10 L 908.90 844.30 L 892.20 850.50 L 874.00 856.60 L 854.70 862.30 L 834.30 867.90 L 812.60 873.20 L 790.80 877.90 L 768.00 882.30 L 744.20 886.40 L 720.40 890.00 L 695.80 893.20 L 670.40 896.00 L 645.00 898.40 L 619.10 900.40 L 592.60 902.00 L 566.00 903.10 L 539.20 903.80 L 512.00 904.00 L 484.80 903.80 L 458.00 903.10 L 431.40 902.00 L 404.90 900.40 L 379.00 898.40 L 353.60 896.00 L 328.20 893.20 L 303.60 890.00 L 279.80 886.40 L 256.00 882.30 L 233.20 877.90 L 211.40 873.20 L 189.70 867.90 L 169.30 862.30 L 150.00 856.60 L 131.80 850.50 L 115.10 844.30 L 99.90 838.10 L 86.00 831.90 L 74.70 826.20 L 64.30 820.60 L 55.00 815.00 L 46.60 809.50 L 39.00 804.00 L 31.30 797.80 L 24.60 791.60 L 18.90 785.60 L 14.00 779.60 L 9.90 773.80 L 6.80 768.30 L 4.30 763.00 L 2.40 757.70 L 1.10 752.50 L 0.30 747.30 L 0.00 742.00 L 0.30 736.70 L 1.10 731.50 L 2.40 726.30 L 4.30 721.00 L 6.80 715.70 L 9.90 710.20 L 14.00 704.40 L 18.90 698.40 L 24.60 692.40 L 31.30 686.20 L 39.00 680.00 L 46.60 674.50 L 55.00 669.00 L 64.30 663.40 L 74.70 657.80 L 86.00 652.10 L 99.90 645.90 L 115.10 639.70 L 131.80 633.50 L 150.00 627.40 L 169.30 621.70 L 189.70 616.10 L 211.40 610.80 L 233.20 606.10 L 256.00 601.70 L 279.80 597.60 L 303.60 594.00 L 328.20 590.80 L 353.60 588.00 L 379.00 585.60 L 404.90 583.60 L 431.40 582.00 L 458.00 580.90 L 484.80 580.20 L 512.00 580.00 L 539.20 580.20 L 566.00 580.90 L 592.60 582.00 L 619.10 583.60 L 645.00 585.60 L 670.40 588.00 L 695.80 590.80 L 720.40 594.00 L 744.20 597.60 L 768.00 601.70 L 790.80 606.10 L 812.60 610.80 L 834.30 616.10 L 854.70 621.70 L 874.00 627.40 L 892.20 633.50 L 908.90 639.70 L 924.10 645.90 L 938.00 652.10 L 949.30 657.80 L 959.70 663.40 L 969.00 669.00 L 977.40 674.50 L 985.00 680.00 L 992.70 686.20 L 999.40 692.40 L 1005.10 698.40 L 1010.00 704.40 L 1014.10 710.20 L 1017.20 715.70 L 1019.70 721.00 L 1021.60 726.30 L 1022.90 731.50 L 1023.70 736.70 L 1024.00 742.00 Z" fill="url(#linearGradient-4)" fill-rule="nonzero" group-id="1" id="椭圆形" node-id="75" stroke="none" target-height="324" target-width="1024" target-x="0" target-y="580"></path><path d="M 906.00 606.00 L 901.10 670.00 L 865.00 659.50 Z" fill="#e4efff" fill-rule="nonzero" group-id="1" id="路径" node-id="76" stroke="none" target-height="64" target-width="41" target-x="865" target-y="606"></path><path d="M 904.80 606.00 L 935.00 662.40 L 900.00 670.00 Z" fill="#f3f8ff" fill-rule="nonzero" group-id="1" id="路径" node-id="77" stroke="none" target-height="64" target-width="35" target-x="900" target-y="606"></path><path d="M 707.00 615.00 L 516.00 585.40 L 516.00 384.00 L 707.00 413.60 Z" fill="url(#linearGradient-5)" fill-rule="nonzero" group-id="1" id="路径" node-id="78" stroke="none" target-height="231" target-width="191" target-x="516" target-y="384"></path><path d="M 349.00 618.00 L 515.00 586.80 L 515.00 385.00 L 349.00 416.20 Z" fill="url(#linearGradient-6)" fill-rule="nonzero" group-id="1" id="路径" node-id="79" stroke="none" target-height="233" target-width="166" target-x="349" target-y="385"></path><path d="M 539.00 647.00 L 348.00 617.40 L 348.00 416.00 L 539.00 445.60 Z" fill="url(#linearGradient-7)" fill-rule="nonzero" group-id="1" id="路径" node-id="80" stroke="none" target-height="231" target-width="191" target-x="348" target-y="416"></path><path d="M 541.00 647.00 L 707.00 615.80 L 707.00 414.00 L 541.00 445.20 Z" fill="url(#linearGradient-8)" fill-rule="nonzero" group-id="1" id="路径" node-id="81" stroke="none" target-height="233" target-width="166" target-x="541" target-y="414"></path><path d="M 487.50 494.00 L 297.00 464.20 L 348.50 415.00 L 539.00 444.80 Z" fill="url(#linearGradient-9)" fill-rule="nonzero" group-id="1" id="路径" node-id="82" stroke="none" target-height="79" target-width="242" target-x="297" target-y="415"></path><g node-id="216"><path d="M 477.70 429.30 L 493.00 438.00 L 481.20 438.60 L 470.00 440.30 L 464.00 441.70 L 458.30 443.50 L 454.60 445.10 L 451.40 446.90 L 448.60 449.00 L 434.60 462.80 L 430.40 466.20 L 425.70 469.30 L 422.40 471.10 L 418.60 472.60 L 414.40 473.70 L 410.10 474.50 L 405.30 474.80 L 399.80 474.50 L 394.30 473.80 L 388.00 472.40 L 380.80 470.20 L 374.80 467.90 L 366.80 463.90 L 363.70 461.70 L 361.70 459.60 L 360.50 457.90 L 359.80 455.90 L 359.70 454.00 L 360.10 452.30 L 362.40 449.20 L 364.20 447.70 L 367.30 445.80 L 371.10 444.30 L 375.10 443.20 L 379.20 442.50 L 383.30 442.30 L 391.10 443.10 L 400.10 443.10 L 409.30 441.80 L 413.90 440.60 L 418.40 439.20 L 426.70 435.50 L 430.50 433.20 L 433.90 430.70 L 439.30 425.90 L 442.00 424.40 L 445.10 423.30 L 448.30 422.70 L 455.00 422.50 L 460.10 423.10 L 464.90 424.20 L 473.00 426.90 L 477.70 429.30 Z" fill="url(#linearGradient-10)" fill-rule="nonzero" group-id="1,3" id="路径" node-id="84" stroke="none" target-height="52.299988" target-width="133.29999" target-x="359.7" target-y="422.5"></path><path d="M 433.50 413.50 L 428.90 414.20 L 425.60 415.20 L 422.10 416.60 L 418.20 418.90 L 413.20 423.20 L 410.70 426.20 L 404.60 435.10 L 403.40 436.20 L 402.00 436.90 L 400.10 437.20 L 397.40 436.40 L 395.60 435.30 L 378.00 420.50 L 371.30 429.50 L 377.30 435.70 L 386.80 444.30 L 393.70 449.40 L 396.80 451.10 L 399.00 452.00 L 402.20 452.40 L 412.80 451.10 L 416.50 450.10 L 421.60 447.80 L 424.40 446.00 L 429.80 441.30 L 447.40 420.20 L 433.50 413.50 Z" fill="#143e81" fill-rule="nonzero" group-id="1,3" id="路径" node-id="85" stroke="none" target-height="38.899994" target-width="76.100006" target-x="371.3" target-y="413.5"></path><path d="M 374.70 413.90 L 358.40 435.70 L 360.50 437.10 L 362.10 437.60 L 363.80 437.60 L 365.90 437.00 L 367.20 436.20 L 370.30 432.90 L 379.80 418.90 L 374.70 413.90 Z" fill="#003a8c" fill-rule="nonzero" group-id="1,3" id="路径" node-id="86" stroke="none" target-height="23.700012" target-width="21.399994" target-x="358.4" target-y="413.9"></path><path d="M 373.60 412.40 L 365.60 421.40 L 367.10 423.10 L 357.10 434.80 L 358.40 436.10 L 376.50 415.20 Z" fill="#001529" fill-rule="nonzero" group-id="1,3" id="路径" node-id="87" stroke="none" target-height="23.700012" target-width="19.399994" target-x="357.1" target-y="412.4"></path><path d="M 434.10 414.20 L 430.70 415.70 L 428.20 417.30 L 425.60 419.20 L 422.70 422.00 L 419.20 426.70 L 411.90 440.70 L 410.50 442.60 L 408.50 444.30 L 406.30 444.60 L 403.10 443.50 L 383.30 433.60 L 377.60 443.60 L 384.50 448.70 L 391.50 453.20 L 399.30 457.40 L 403.20 459.00 L 406.70 459.90 L 409.10 460.20 L 411.10 460.00 L 412.80 459.50 L 419.20 456.10 L 427.60 451.10 L 453.00 434.60 L 454.80 426.60 L 434.10 414.20 Z" fill="#3e65a3" fill-rule="nonzero" group-id="1,3" id="路径" node-id="88" stroke="none" target-height="46" target-width="77.19998" target-x="377.6" target-y="414.2"></path><path d="M 379.30 428.60 L 363.00 450.40 L 365.10 451.80 L 366.60 452.20 L 368.40 452.30 L 370.40 451.70 L 371.70 450.90 L 374.90 447.50 L 384.40 433.50 L 379.30 428.60 Z" fill="#003a8c" fill-rule="nonzero" group-id="1,3" id="路径" node-id="89" stroke="none" target-height="23.699982" target-width="21.399994" target-x="363" target-y="428.6"></path><path d="M 378.10 427.10 L 370.10 436.10 L 371.60 437.70 L 361.70 449.40 L 363.00 450.80 L 381.10 429.90 Z" fill="#001529" fill-rule="nonzero" group-id="1,3" id="路径" node-id="90" stroke="none" target-height="23.699982" target-width="19.399994" target-x="361.7" target-y="427.1"></path><path d="M 493.00 438.00 L 490.70 429.00 L 489.10 425.00 L 485.20 417.80 L 480.90 412.40 L 478.30 410.00 L 475.30 407.90 L 472.00 406.20 L 468.40 404.90 L 464.30 404.20 L 459.70 404.00 L 449.60 404.60 L 436.00 406.20 L 431.80 407.20 L 428.40 408.50 L 426.50 409.60 L 425.20 410.90 L 424.80 412.00 L 425.10 413.70 L 426.20 414.60 L 434.00 418.40 L 437.00 420.30 L 440.30 422.80 L 443.40 425.60 L 446.20 428.90 L 447.70 431.30 L 450.10 437.50 L 450.80 438.00 L 453.50 437.50 L 459.50 435.30 L 466.00 433.60 L 470.00 433.20 L 474.10 433.10 L 478.80 433.70 L 483.60 434.70 L 493.00 438.00 Z" fill="#53a4fc" fill-rule="nonzero" group-id="1,3" id="路径" node-id="91" stroke="none" target-height="34" target-width="68.20001" target-x="424.8" target-y="404"></path></g><path d="M 592.60 494.00 L 759.00 462.90 L 707.40 414.00 L 541.00 445.10 Z" fill="url(#linearGradient-11)" fill-rule="nonzero" group-id="1" id="路径" node-id="92" stroke="none" target-height="80" target-width="218" target-x="541" target-y="414"></path></g></svg>