<?xml version="1.0" standalone="no"?><!DOCTYPE svg PUBLIC "-//W3C//DTD SVG 1.1//EN" "http://www.w3.org/Graphics/SVG/1.1/DTD/svg11.dtd"><svg height="1024" node-id="1" sillyvg="true" template-height="1024" template-width="1024" version="1.1" viewBox="0 0 1024 1024" width="1024" xmlns="http://www.w3.org/2000/svg" xmlns:xlink="http://www.w3.org/1999/xlink"><defs node-id="69"><linearGradient gradientUnits="objectBoundingBox" id="linearGradient-1" node-id="5" spreadMethod="pad" x1="0.5" x2="0.5" y1="0" y2="1"><stop offset="0" stop-color="#f9fafc"></stop><stop offset="1" stop-color="#f0f2f5"></stop></linearGradient><linearGradient gradientUnits="objectBoundingBox" id="linearGradient-4" node-id="9" spreadMethod="pad" x1="0.5" x2="0.5" y1="-0.3250104" y2="1.4466056"><stop offset="0" stop-color="#fbfcfe"></stop><stop offset="1" stop-color="#ced6e5"></stop></linearGradient><linearGradient gradientUnits="objectBoundingBox" id="linearGradient-5" node-id="12" spreadMethod="pad" x1="0.079356186" x2="0.079356186" y1="0.22613586" y2="1"><stop offset="0" stop-color="#fcfdff"></stop><stop offset="1" stop-color="#f5f8ff"></stop></linearGradient><linearGradient gradientUnits="objectBoundingBox" id="linearGradient-6" node-id="15" spreadMethod="pad" x1="0.079356186" x2="0.079356186" y1="0.22613586" y2="1"><stop offset="0" stop-color="#fcfdff"></stop><stop offset="1" stop-color="#f5f8ff"></stop></linearGradient><linearGradient gradientUnits="objectBoundingBox" id="linearGradient-9" node-id="23" spreadMethod="pad" x1="0" x2="1" y1="0.5" y2="0.5"><stop offset="0" stop-color="#8f9bb3"></stop><stop offset="1" stop-color="#596680"></stop></linearGradient><linearGradient gradientUnits="objectBoundingBox" id="linearGradient-10" node-id="26" spreadMethod="pad" x1="0.5" x2="0.5" y1="0" y2="0.9117061"><stop offset="0" stop-color="#e9edf3"></stop><stop offset="1" stop-color="#cbd3e1"></stop></linearGradient><linearGradient gradientUnits="objectBoundingBox" id="linearGradient-11" node-id="29" spreadMethod="pad" x1="0.5" x2="0.5" y1="1" y2="0.11278778"><stop offset="0" stop-color="#ff3959"></stop><stop offset="1" stop-color="#ff528b"></stop></linearGradient><linearGradient gradientUnits="objectBoundingBox" id="linearGradient1" node-id="113" spreadMethod="pad" x1="0" x2="1" y1="0.5" y2="0.5"><stop offset="0" stop-color="#e9edf3"></stop><stop offset="1" stop-color="#cbd3e1"></stop></linearGradient><linearGradient gradientUnits="objectBoundingBox" id="linearGradient-12" node-id="32" spreadMethod="pad" x1="0" x2="1" y1="0.5" y2="0.5"><stop offset="0" stop-color="#e9edf3"></stop><stop offset="1" stop-color="#cbd3e1"></stop></linearGradient><linearGradient gradientUnits="objectBoundingBox" id="linearGradient-13" node-id="35" spreadMethod="pad" x1="0" x2="1" y1="0.5" y2="0.5"><stop offset="0" stop-color="#e9edf3"></stop><stop offset="1" stop-color="#cbd3e1"></stop></linearGradient><filter filterUnits="objectBoundingBox" height="843.3857" id="filter-8" node-id="19" width="800.5715" x="-157.42859" y="-85.7"><feOffset color-interpolation-filters="linearRGB" dx="0" dy="43" in="SourceAlpha" result="shadowOffsetOuter1"></feOffset><feGaussianBlur color-interpolation-filters="linearRGB" in="shadowOffsetOuter1" result="shadowBlurOuter1" stdDeviation="64.5 64.5"></feGaussianBlur><feColorMatrix color-interpolation-filters="linearRGB" in="shadowBlurOuter1" result="result3" type="matrix" values="0 0 0 0 0.56 0 0 0 0 0.6066667 0 0 0 0 0.7 0 0 0 0.36166957 0"></feColorMatrix></filter><mask height="154.28572" id="mask-3" maskUnits="userSpaceOnUse" node-id="45" width="8.571503" x="507.71426" y="95.57143"><path d="M 912.00 512.00 L 911.70 528.00 L 910.70 543.80 L 909.20 559.40 L 907.00 575.00 L 904.20 590.40 L 900.90 605.70 L 896.90 620.90 L 892.40 635.80 L 887.20 650.50 L 881.60 665.10 L 875.30 679.40 L 868.50 693.40 L 861.10 707.20 L 853.30 720.70 L 844.80 733.90 L 835.80 746.80 L 826.40 759.30 L 816.40 771.50 L 805.90 783.30 L 794.80 794.80 L 783.30 805.90 L 771.50 816.40 L 759.30 826.40 L 746.80 835.80 L 733.90 844.80 L 720.70 853.30 L 707.20 861.10 L 693.40 868.50 L 679.40 875.30 L 665.10 881.60 L 650.50 887.20 L 635.80 892.40 L 620.90 896.90 L 605.70 900.90 L 590.40 904.20 L 575.00 907.00 L 559.40 909.20 L 543.80 910.70 L 528.00 911.70 L 512.00 912.00 L 496.00 911.70 L 480.20 910.70 L 464.60 909.20 L 449.00 907.00 L 433.60 904.20 L 418.30 900.90 L 403.10 896.90 L 388.20 892.40 L 373.50 887.20 L 358.90 881.60 L 344.60 875.30 L 330.60 868.50 L 316.80 861.10 L 303.30 853.30 L 290.10 844.80 L 277.20 835.80 L 264.70 826.40 L 252.50 816.40 L 240.70 805.90 L 229.20 794.80 L 218.10 783.30 L 207.60 771.50 L 197.60 759.30 L 188.20 746.80 L 179.20 733.90 L 170.70 720.70 L 162.90 707.20 L 155.50 693.40 L 148.70 679.40 L 142.40 665.10 L 136.80 650.50 L 131.60 635.80 L 127.10 620.90 L 123.10 605.70 L 119.80 590.40 L 117.00 575.00 L 114.80 559.40 L 113.30 543.80 L 112.30 528.00 L 112.00 512.00 L 112.30 496.00 L 113.30 480.20 L 114.80 464.60 L 117.00 449.00 L 119.80 433.60 L 123.10 418.30 L 127.10 403.10 L 131.60 388.20 L 136.80 373.50 L 142.40 358.90 L 148.70 344.60 L 155.50 330.60 L 162.90 316.80 L 170.70 303.30 L 179.20 290.10 L 188.20 277.20 L 197.60 264.70 L 207.60 252.50 L 218.10 240.70 L 229.20 229.20 L 240.70 218.10 L 252.50 207.60 L 264.70 197.60 L 277.20 188.20 L 290.10 179.20 L 303.30 170.70 L 316.80 162.90 L 330.60 155.50 L 344.60 148.70 L 358.90 142.40 L 373.50 136.80 L 388.20 131.60 L 403.10 127.10 L 418.30 123.10 L 433.60 119.80 L 449.00 117.00 L 464.60 114.80 L 480.20 113.30 L 496.00 112.30 L 512.00 112.00 L 528.00 112.30 L 543.80 113.30 L 559.40 114.80 L 575.00 117.00 L 590.40 119.80 L 605.70 123.10 L 620.90 127.10 L 635.80 131.60 L 650.50 136.80 L 665.10 142.40 L 679.40 148.70 L 693.40 155.50 L 707.20 162.90 L 720.70 170.70 L 733.90 179.20 L 746.80 188.20 L 759.30 197.60 L 771.50 207.60 L 783.30 218.10 L 794.80 229.20 L 805.90 240.70 L 816.40 252.50 L 826.40 264.70 L 835.80 277.20 L 844.80 290.10 L 853.30 303.30 L 861.10 316.80 L 868.50 330.60 L 875.30 344.60 L 881.60 358.90 L 887.20 373.50 L 892.40 388.20 L 896.90 403.10 L 900.90 418.30 L 904.20 433.60 L 907.00 449.00 L 909.20 464.60 L 910.70 480.20 L 911.70 496.00 L 912.00 512.00 Z" fill="#ffffff" fill-rule="evenodd" node-id="143" stroke="none" target-height="800" target-width="800" target-x="112" target-y="112"></path></mask><mask height="154.2857" id="mask1" maskUnits="userSpaceOnUse" node-id="147" width="8.571442" x="336.2857" y="781.28577"><path d="M 912.00 512.00 L 911.70 528.00 L 910.70 543.80 L 909.20 559.40 L 907.00 575.00 L 904.20 590.40 L 900.90 605.70 L 896.90 620.90 L 892.40 635.80 L 887.20 650.50 L 881.60 665.10 L 875.30 679.40 L 868.50 693.40 L 861.10 707.20 L 853.30 720.70 L 844.80 733.90 L 835.80 746.80 L 826.40 759.30 L 816.40 771.50 L 805.90 783.30 L 794.80 794.80 L 783.30 805.90 L 771.50 816.40 L 759.30 826.40 L 746.80 835.80 L 733.90 844.80 L 720.70 853.30 L 707.20 861.10 L 693.40 868.50 L 679.40 875.30 L 665.10 881.60 L 650.50 887.20 L 635.80 892.40 L 620.90 896.90 L 605.70 900.90 L 590.40 904.20 L 575.00 907.00 L 559.40 909.20 L 543.80 910.70 L 528.00 911.70 L 512.00 912.00 L 496.00 911.70 L 480.20 910.70 L 464.60 909.20 L 449.00 907.00 L 433.60 904.20 L 418.30 900.90 L 403.10 896.90 L 388.20 892.40 L 373.50 887.20 L 358.90 881.60 L 344.60 875.30 L 330.60 868.50 L 316.80 861.10 L 303.30 853.30 L 290.10 844.80 L 277.20 835.80 L 264.70 826.40 L 252.50 816.40 L 240.70 805.90 L 229.20 794.80 L 218.10 783.30 L 207.60 771.50 L 197.60 759.30 L 188.20 746.80 L 179.20 733.90 L 170.70 720.70 L 162.90 707.20 L 155.50 693.40 L 148.70 679.40 L 142.40 665.10 L 136.80 650.50 L 131.60 635.80 L 127.10 620.90 L 123.10 605.70 L 119.80 590.40 L 117.00 575.00 L 114.80 559.40 L 113.30 543.80 L 112.30 528.00 L 112.00 512.00 L 112.30 496.00 L 113.30 480.20 L 114.80 464.60 L 117.00 449.00 L 119.80 433.60 L 123.10 418.30 L 127.10 403.10 L 131.60 388.20 L 136.80 373.50 L 142.40 358.90 L 148.70 344.60 L 155.50 330.60 L 162.90 316.80 L 170.70 303.30 L 179.20 290.10 L 188.20 277.20 L 197.60 264.70 L 207.60 252.50 L 218.10 240.70 L 229.20 229.20 L 240.70 218.10 L 252.50 207.60 L 264.70 197.60 L 277.20 188.20 L 290.10 179.20 L 303.30 170.70 L 316.80 162.90 L 330.60 155.50 L 344.60 148.70 L 358.90 142.40 L 373.50 136.80 L 388.20 131.60 L 403.10 127.10 L 418.30 123.10 L 433.60 119.80 L 449.00 117.00 L 464.60 114.80 L 480.20 113.30 L 496.00 112.30 L 512.00 112.00 L 528.00 112.30 L 543.80 113.30 L 559.40 114.80 L 575.00 117.00 L 590.40 119.80 L 605.70 123.10 L 620.90 127.10 L 635.80 131.60 L 650.50 136.80 L 665.10 142.40 L 679.40 148.70 L 693.40 155.50 L 707.20 162.90 L 720.70 170.70 L 733.90 179.20 L 746.80 188.20 L 759.30 197.60 L 771.50 207.60 L 783.30 218.10 L 794.80 229.20 L 805.90 240.70 L 816.40 252.50 L 826.40 264.70 L 835.80 277.20 L 844.80 290.10 L 853.30 303.30 L 861.10 316.80 L 868.50 330.60 L 875.30 344.60 L 881.60 358.90 L 887.20 373.50 L 892.40 388.20 L 896.90 403.10 L 900.90 418.30 L 904.20 433.60 L 907.00 449.00 L 909.20 464.60 L 910.70 480.20 L 911.70 496.00 L 912.00 512.00 Z" fill="#ffffff" fill-rule="evenodd" node-id="151" stroke="none" target-height="800" target-width="800" target-x="112" target-y="112"></path></mask><mask height="154.2857" id="mask2" maskUnits="userSpaceOnUse" node-id="155" width="8.571472" x="679.1428" y="781.28577"><path d="M 912.00 512.00 L 911.70 528.00 L 910.70 543.80 L 909.20 559.40 L 907.00 575.00 L 904.20 590.40 L 900.90 605.70 L 896.90 620.90 L 892.40 635.80 L 887.20 650.50 L 881.60 665.10 L 875.30 679.40 L 868.50 693.40 L 861.10 707.20 L 853.30 720.70 L 844.80 733.90 L 835.80 746.80 L 826.40 759.30 L 816.40 771.50 L 805.90 783.30 L 794.80 794.80 L 783.30 805.90 L 771.50 816.40 L 759.30 826.40 L 746.80 835.80 L 733.90 844.80 L 720.70 853.30 L 707.20 861.10 L 693.40 868.50 L 679.40 875.30 L 665.10 881.60 L 650.50 887.20 L 635.80 892.40 L 620.90 896.90 L 605.70 900.90 L 590.40 904.20 L 575.00 907.00 L 559.40 909.20 L 543.80 910.70 L 528.00 911.70 L 512.00 912.00 L 496.00 911.70 L 480.20 910.70 L 464.60 909.20 L 449.00 907.00 L 433.60 904.20 L 418.30 900.90 L 403.10 896.90 L 388.20 892.40 L 373.50 887.20 L 358.90 881.60 L 344.60 875.30 L 330.60 868.50 L 316.80 861.10 L 303.30 853.30 L 290.10 844.80 L 277.20 835.80 L 264.70 826.40 L 252.50 816.40 L 240.70 805.90 L 229.20 794.80 L 218.10 783.30 L 207.60 771.50 L 197.60 759.30 L 188.20 746.80 L 179.20 733.90 L 170.70 720.70 L 162.90 707.20 L 155.50 693.40 L 148.70 679.40 L 142.40 665.10 L 136.80 650.50 L 131.60 635.80 L 127.10 620.90 L 123.10 605.70 L 119.80 590.40 L 117.00 575.00 L 114.80 559.40 L 113.30 543.80 L 112.30 528.00 L 112.00 512.00 L 112.30 496.00 L 113.30 480.20 L 114.80 464.60 L 117.00 449.00 L 119.80 433.60 L 123.10 418.30 L 127.10 403.10 L 131.60 388.20 L 136.80 373.50 L 142.40 358.90 L 148.70 344.60 L 155.50 330.60 L 162.90 316.80 L 170.70 303.30 L 179.20 290.10 L 188.20 277.20 L 197.60 264.70 L 207.60 252.50 L 218.10 240.70 L 229.20 229.20 L 240.70 218.10 L 252.50 207.60 L 264.70 197.60 L 277.20 188.20 L 290.10 179.20 L 303.30 170.70 L 316.80 162.90 L 330.60 155.50 L 344.60 148.70 L 358.90 142.40 L 373.50 136.80 L 388.20 131.60 L 403.10 127.10 L 418.30 123.10 L 433.60 119.80 L 449.00 117.00 L 464.60 114.80 L 480.20 113.30 L 496.00 112.30 L 512.00 112.00 L 528.00 112.30 L 543.80 113.30 L 559.40 114.80 L 575.00 117.00 L 590.40 119.80 L 605.70 123.10 L 620.90 127.10 L 635.80 131.60 L 650.50 136.80 L 665.10 142.40 L 679.40 148.70 L 693.40 155.50 L 707.20 162.90 L 720.70 170.70 L 733.90 179.20 L 746.80 188.20 L 759.30 197.60 L 771.50 207.60 L 783.30 218.10 L 794.80 229.20 L 805.90 240.70 L 816.40 252.50 L 826.40 264.70 L 835.80 277.20 L 844.80 290.10 L 853.30 303.30 L 861.10 316.80 L 868.50 330.60 L 875.30 344.60 L 881.60 358.90 L 887.20 373.50 L 892.40 388.20 L 896.90 403.10 L 900.90 418.30 L 904.20 433.60 L 907.00 449.00 L 909.20 464.60 L 910.70 480.20 L 911.70 496.00 L 912.00 512.00 Z" fill="#ffffff" fill-rule="evenodd" node-id="159" stroke="none" target-height="800" target-width="800" target-x="112" target-y="112"></path></mask></defs><g node-id="212"><path d="M 12.00 12.00 L 1012.00 12.00 L 1012.00 1012.00 L 12.00 1012.00 Z" fill="none" group-id="1" hidden="true" id="矩形" node-id="40" stroke="none" target-height="1000" target-width="1000" target-x="12" target-y="12" visibility="hidden"></path><g node-id="213"><path d="M 512.00 940.60 L 526.90 940.30 L 541.50 939.60 L 556.00 938.30 L 570.30 936.60 L 584.40 934.50 L 598.40 931.90 L 612.30 928.80 L 626.10 925.20 L 639.60 921.30 L 652.80 916.90 L 665.90 912.10 L 678.80 906.90 L 691.60 901.20 L 704.10 895.20 L 716.30 888.80 L 728.30 882.00 L 740.10 874.90 L 751.60 867.40 L 765.10 857.90 L 778.20 847.90 L 790.90 837.40 L 803.20 826.50 L 815.00 815.00 L 826.50 803.20 L 837.40 790.90 L 847.90 778.20 L 857.90 765.10 L 867.40 751.60 L 874.90 740.10 L 882.00 728.30 L 888.80 716.30 L 895.20 704.10 L 901.20 691.60 L 906.90 678.80 L 912.10 665.90 L 916.90 652.80 L 921.30 639.60 L 925.20 626.10 L 928.80 612.30 L 931.90 598.40 L 934.50 584.40 L 936.60 570.30 L 938.30 556.00 L 939.60 541.50 L 940.30 526.90 L 940.60 512.00 L 940.30 497.10 L 939.60 482.50 L 938.30 468.00 L 936.60 453.70 L 934.50 439.60 L 931.90 425.60 L 928.80 411.70 L 925.20 397.90 L 921.30 384.40 L 916.90 371.20 L 912.10 358.10 L 906.90 345.20 L 901.20 332.40 L 895.20 319.90 L 888.80 307.70 L 882.00 295.70 L 874.90 283.90 L 867.40 272.40 L 857.90 258.90 L 847.90 245.80 L 837.40 233.10 L 826.50 220.80 L 815.00 209.00 L 803.20 197.50 L 790.90 186.60 L 778.20 176.10 L 765.10 166.10 L 751.60 156.60 L 740.10 149.10 L 728.30 142.00 L 716.30 135.20 L 704.10 128.80 L 691.60 122.80 L 678.80 117.10 L 665.90 111.90 L 652.80 107.10 L 639.60 102.70 L 626.10 98.80 L 612.30 95.20 L 598.40 92.10 L 584.40 89.50 L 570.30 87.40 L 556.00 85.70 L 541.50 84.40 L 526.90 83.70 L 512.00 83.40 L 497.10 83.70 L 482.50 84.40 L 468.00 85.70 L 453.70 87.40 L 439.60 89.50 L 425.60 92.10 L 411.70 95.20 L 397.90 98.80 L 384.40 102.70 L 371.20 107.10 L 358.10 111.90 L 345.20 117.10 L 332.40 122.80 L 319.90 128.80 L 307.70 135.20 L 295.70 142.00 L 283.90 149.10 L 272.40 156.60 L 258.90 166.10 L 245.80 176.10 L 233.10 186.60 L 220.80 197.50 L 209.00 209.00 L 197.50 220.80 L 186.60 233.10 L 176.10 245.80 L 166.10 258.90 L 156.60 272.40 L 149.10 283.90 L 142.00 295.70 L 135.20 307.70 L 128.80 319.90 L 122.80 332.40 L 117.10 345.20 L 111.90 358.10 L 107.10 371.20 L 102.70 384.40 L 98.80 397.90 L 95.20 411.70 L 92.10 425.60 L 89.50 439.60 L 87.40 453.70 L 85.70 468.00 L 84.40 482.50 L 83.70 497.10 L 83.40 512.00 L 83.70 526.90 L 84.40 541.50 L 85.70 556.00 L 87.40 570.30 L 89.50 584.40 L 92.10 598.40 L 95.20 612.30 L 98.80 626.10 L 102.70 639.60 L 107.10 652.80 L 111.90 665.90 L 117.10 678.80 L 122.80 691.60 L 128.80 704.10 L 135.20 716.30 L 142.00 728.30 L 149.10 740.10 L 156.60 751.60 L 166.10 765.10 L 176.10 778.20 L 186.60 790.90 L 197.50 803.20 L 209.00 815.00 L 220.80 826.50 L 233.10 837.40 L 245.80 847.90 L 258.90 857.90 L 272.40 867.40 L 283.90 874.90 L 295.70 882.00 L 307.70 888.80 L 319.90 895.20 L 332.40 901.20 L 345.20 906.90 L 358.10 912.10 L 371.20 916.90 L 384.40 921.30 L 397.90 925.20 L 411.70 928.80 L 425.60 931.90 L 439.60 934.50 L 453.70 936.60 L 468.00 938.30 L 482.50 939.60 L 497.10 940.30 L 512.00 940.60 Z" fill="#ffffff" fill-rule="evenodd" group-id="1,2" hidden="true" id="椭圆形" node-id="42" stroke="none" target-height="857.19995" target-width="857.19995" target-x="83.4" target-y="83.4" visibility="hidden"></path><path d="M 526.20 936.80 L 527.60 937.00 L 528.70 937.70 L 529.50 938.80 L 529.80 940.20 L 529.60 941.60 L 528.90 942.80 L 527.80 943.60 L 526.40 943.90 L 512.00 944.10 L 510.60 943.90 L 509.50 943.10 L 508.70 942.00 L 508.40 940.60 L 508.70 939.20 L 509.50 938.00 L 510.60 937.30 L 512.00 937.00 L 526.20 936.80 Z M 476.60 935.60 L 491.00 936.50 L 492.40 936.80 L 493.40 937.70 L 494.10 938.80 L 494.40 940.20 L 494.00 941.60 L 493.20 942.70 L 492.00 943.40 L 490.60 943.60 L 476.20 942.70 L 474.90 942.30 L 473.80 941.40 L 473.20 940.30 L 473.00 938.80 L 473.40 937.50 L 474.20 936.40 L 475.40 935.70 L 476.60 935.60 Z M 568.50 933.30 L 569.90 933.40 L 571.10 934.00 L 572.00 935.00 L 572.50 936.30 L 572.40 937.80 L 571.80 939.00 L 570.80 939.90 L 569.40 940.40 L 555.10 942.00 L 553.70 941.90 L 552.50 941.20 L 551.70 940.20 L 551.20 938.80 L 551.40 937.40 L 552.00 936.20 L 553.10 935.30 L 554.40 934.90 L 568.50 933.30 Z M 430.50 932.90 L 431.10 931.50 L 432.00 930.60 L 433.30 930.00 L 434.70 930.00 L 448.70 932.30 L 450.00 932.80 L 451.00 933.70 L 451.60 934.90 L 451.70 936.40 L 451.20 937.70 L 450.30 938.70 L 449.00 939.30 L 447.60 939.40 L 433.40 937.00 L 432.10 936.50 L 431.10 935.50 L 430.60 934.30 L 430.50 932.90 Z M 610.30 925.60 L 611.70 925.50 L 613.00 926.00 L 614.00 926.90 L 614.60 928.20 L 614.60 929.70 L 614.20 930.90 L 613.20 931.90 L 611.90 932.50 L 597.90 935.60 L 596.40 935.60 L 595.20 935.10 L 594.20 934.10 L 593.70 932.80 L 593.70 931.40 L 594.20 930.10 L 595.10 929.20 L 596.50 928.60 L 610.30 925.60 Z M 388.90 922.70 L 389.60 921.40 L 390.60 920.50 L 391.90 920.10 L 393.30 920.20 L 407.00 923.90 L 408.30 924.60 L 409.20 925.60 L 409.70 926.80 L 409.60 928.30 L 409.00 929.60 L 408.00 930.50 L 406.70 930.90 L 405.30 930.90 L 391.40 927.10 L 390.10 926.40 L 389.20 925.40 L 388.80 924.10 L 388.90 922.70 Z M 651.10 913.70 L 652.60 913.50 L 653.90 913.90 L 655.00 914.70 L 655.70 915.90 L 655.90 917.30 L 655.50 918.60 L 654.70 919.70 L 653.50 920.50 L 639.80 924.90 L 638.30 925.10 L 637.00 924.70 L 636.00 923.80 L 635.30 922.60 L 635.20 921.20 L 635.60 919.90 L 636.40 918.80 L 637.70 918.10 L 651.10 913.70 Z M 348.50 908.30 L 349.30 907.10 L 350.40 906.40 L 351.80 906.10 L 353.20 906.30 L 366.40 911.40 L 367.60 912.20 L 368.40 913.30 L 368.70 914.60 L 368.50 916.00 L 367.80 917.20 L 366.70 918.00 L 365.40 918.30 L 364.00 918.10 L 350.50 913.00 L 349.30 912.20 L 348.60 911.00 L 348.30 909.70 L 348.50 908.30 Z M 690.50 897.80 L 691.90 897.50 L 693.20 897.70 L 694.40 898.40 L 695.20 899.60 L 695.50 901.00 L 695.30 902.30 L 694.60 903.50 L 693.50 904.30 L 680.30 910.10 L 678.90 910.40 L 677.60 910.20 L 676.40 909.40 L 675.60 908.20 L 675.30 906.80 L 675.60 905.50 L 676.30 904.40 L 677.50 903.60 L 690.50 897.80 Z M 309.80 890.00 L 310.70 888.90 L 311.90 888.20 L 313.20 888.10 L 314.60 888.50 L 327.20 894.80 L 328.40 895.70 L 329.00 896.90 L 329.20 898.20 L 328.90 899.60 L 328.00 900.70 L 326.80 901.40 L 325.50 901.60 L 324.10 901.30 L 311.30 894.80 L 310.10 893.90 L 309.50 892.70 L 309.40 891.30 L 309.80 890.00 Z M 728.10 878.00 L 729.50 877.60 L 730.80 877.60 L 732.00 878.20 L 733.00 879.30 L 733.50 880.60 L 733.40 882.00 L 732.80 883.20 L 731.70 884.20 L 719.20 891.30 L 717.90 891.70 L 716.50 891.60 L 715.30 891.00 L 714.40 889.90 L 714.00 888.50 L 714.10 887.20 L 714.70 886.00 L 715.80 885.00 L 728.10 878.00 Z M 273.00 867.80 L 274.00 866.80 L 275.30 866.30 L 276.70 866.30 L 278.00 866.80 L 289.90 874.40 L 291.00 875.40 L 291.50 876.70 L 291.60 878.00 L 291.10 879.40 L 290.10 880.40 L 288.90 881.00 L 287.50 881.00 L 286.20 880.50 L 274.00 872.80 L 273.00 871.80 L 272.50 870.50 L 272.50 869.20 L 273.00 867.80 Z M 763.60 854.60 L 764.90 854.00 L 766.20 853.90 L 767.50 854.40 L 768.60 855.30 L 769.20 856.60 L 769.20 858.00 L 768.80 859.30 L 767.80 860.30 L 756.10 868.70 L 754.70 869.20 L 753.40 869.20 L 752.10 868.70 L 751.10 867.80 L 750.50 866.40 L 750.50 865.10 L 751.00 863.80 L 752.00 862.80 L 763.60 854.60 Z M 238.70 842.20 L 239.80 841.30 L 241.10 840.90 L 242.50 841.00 L 243.70 841.70 L 254.90 850.40 L 255.80 851.50 L 256.20 852.80 L 256.20 854.10 L 255.60 855.40 L 254.50 856.40 L 253.20 856.80 L 251.80 856.70 L 250.50 856.10 L 239.20 847.20 L 238.30 846.10 L 237.90 844.80 L 238.10 843.40 L 238.70 842.20 Z M 796.50 827.70 L 797.70 827.00 L 799.10 826.80 L 800.40 827.10 L 801.60 828.00 L 802.30 829.20 L 802.50 830.60 L 802.10 831.90 L 801.30 833.00 L 790.40 842.50 L 789.20 843.20 L 787.80 843.30 L 786.50 842.90 L 785.40 842.10 L 784.70 840.80 L 784.60 839.50 L 785.00 838.10 L 785.80 837.00 L 796.50 827.70 Z M 207.10 813.20 L 208.30 812.40 L 209.60 812.20 L 211.00 812.40 L 212.20 813.20 L 222.40 823.00 L 223.20 824.20 L 223.50 825.50 L 223.30 826.90 L 222.60 828.10 L 221.40 828.90 L 220.10 829.20 L 218.70 829.00 L 217.50 828.30 L 207.10 818.30 L 206.30 817.10 L 206.10 815.70 L 206.30 814.40 L 207.10 813.20 Z M 826.60 797.80 L 827.70 796.90 L 829.00 796.60 L 830.40 796.80 L 831.60 797.50 L 832.50 798.70 L 832.80 800.00 L 832.60 801.40 L 831.90 802.60 L 822.00 813.10 L 820.80 813.90 L 819.50 814.20 L 818.10 813.90 L 816.90 813.20 L 816.10 812.00 L 815.90 810.60 L 816.10 809.30 L 816.90 808.10 L 826.60 797.80 Z M 178.60 781.30 L 179.90 780.70 L 181.20 780.50 L 182.50 780.90 L 183.60 781.80 L 192.80 792.60 L 193.50 793.90 L 193.70 795.20 L 193.30 796.50 L 192.50 797.70 L 191.20 798.40 L 189.90 798.50 L 188.60 798.20 L 187.40 797.30 L 178.10 786.40 L 177.40 785.10 L 177.30 783.80 L 177.70 782.50 L 178.60 781.30 Z M 853.60 765.00 L 854.60 764.00 L 855.90 763.50 L 857.30 763.60 L 858.60 764.20 L 859.50 765.30 L 860.00 766.60 L 859.90 767.90 L 859.30 769.20 L 850.50 780.60 L 849.40 781.50 L 848.10 782.00 L 846.80 781.90 L 845.50 781.20 L 844.60 780.10 L 844.20 778.80 L 844.30 777.50 L 844.90 776.20 L 853.60 765.00 Z M 153.30 746.70 L 154.60 746.10 L 156.00 746.20 L 157.30 746.70 L 158.30 747.70 L 166.30 759.30 L 166.90 760.60 L 167.00 762.00 L 166.50 763.30 L 165.50 764.30 L 164.20 764.90 L 162.90 764.90 L 161.60 764.50 L 160.50 763.50 L 152.30 751.60 L 151.80 750.30 L 151.80 749.00 L 152.30 747.70 L 153.30 746.70 Z M 877.20 729.60 L 878.10 728.50 L 879.30 728.00 L 880.70 727.90 L 882.00 728.40 L 883.10 729.30 L 883.70 730.50 L 883.80 731.90 L 883.30 733.30 L 875.70 745.50 L 874.70 746.50 L 873.50 747.00 L 872.10 747.10 L 870.80 746.60 L 869.70 745.60 L 869.20 744.30 L 869.20 743.00 L 869.70 741.60 L 877.20 729.60 Z M 131.60 709.70 L 133.00 709.30 L 134.40 709.50 L 135.60 710.10 L 136.50 711.20 L 143.30 723.60 L 143.80 725.00 L 143.70 726.30 L 143.10 727.50 L 142.00 728.50 L 140.70 728.90 L 139.30 728.80 L 138.10 728.20 L 137.10 727.20 L 130.20 714.60 L 129.80 713.20 L 129.90 711.80 L 130.50 710.60 L 131.60 709.70 Z M 897.10 692.10 L 897.90 690.90 L 899.10 690.20 L 900.40 690.00 L 901.80 690.30 L 903.00 691.20 L 903.70 692.40 L 903.90 693.70 L 903.60 695.10 L 897.20 708.00 L 896.30 709.10 L 895.10 709.80 L 893.80 710.00 L 892.40 709.60 L 891.30 708.70 L 890.60 707.50 L 890.50 706.20 L 890.90 704.80 L 897.10 692.10 Z M 113.80 670.80 L 115.20 670.50 L 116.50 670.80 L 117.70 671.60 L 118.40 672.70 L 124.00 685.80 L 124.30 687.20 L 124.10 688.50 L 123.40 689.60 L 122.20 690.50 L 120.80 690.80 L 119.50 690.60 L 118.30 689.80 L 117.50 688.70 L 111.80 675.40 L 111.60 674.00 L 111.80 672.70 L 112.60 671.60 L 113.80 670.80 Z M 913.20 652.70 L 913.90 651.50 L 915.00 650.70 L 916.30 650.30 L 917.70 650.50 L 918.90 651.30 L 919.70 652.40 L 920.10 653.70 L 919.90 655.10 L 914.90 668.60 L 914.10 669.80 L 913.00 670.60 L 911.70 670.90 L 910.30 670.60 L 909.10 669.90 L 908.30 668.70 L 908.00 667.40 L 908.20 666.00 L 913.20 652.70 Z M 99.90 630.20 L 101.40 630.10 L 102.70 630.50 L 103.70 631.40 L 104.40 632.70 L 108.60 646.20 L 108.80 647.60 L 108.40 648.90 L 107.60 650.00 L 106.30 650.70 L 104.90 650.90 L 103.60 650.50 L 102.50 649.70 L 101.80 648.40 L 97.50 634.70 L 97.40 633.30 L 97.80 632.00 L 98.70 630.90 L 99.90 630.20 Z M 925.20 611.90 L 925.80 610.60 L 926.80 609.70 L 928.10 609.30 L 929.50 609.30 L 930.80 609.90 L 931.70 610.90 L 932.20 612.20 L 932.10 613.60 L 928.50 627.60 L 927.90 628.80 L 926.80 629.70 L 925.60 630.10 L 924.10 630.00 L 922.90 629.40 L 922.00 628.40 L 921.50 627.10 L 921.60 625.60 L 925.20 611.90 Z M 90.20 588.50 L 91.70 588.60 L 92.90 589.10 L 93.90 590.10 L 94.40 591.40 L 97.30 605.30 L 97.30 606.70 L 96.80 608.00 L 95.90 608.90 L 94.60 609.50 L 93.10 609.60 L 91.90 609.10 L 90.90 608.10 L 90.30 606.80 L 87.40 592.70 L 87.40 591.30 L 87.90 590.00 L 88.90 589.10 L 90.20 588.50 Z M 933.10 570.10 L 933.50 568.80 L 934.40 567.80 L 935.70 567.20 L 937.10 567.10 L 938.40 567.60 L 939.40 568.50 L 940.00 569.70 L 940.10 571.10 L 937.90 585.40 L 937.40 586.70 L 936.50 587.70 L 935.20 588.20 L 933.80 588.30 L 932.50 587.80 L 931.50 586.80 L 930.90 585.60 L 930.90 584.10 L 933.10 570.10 Z M 84.70 546.00 L 86.20 546.20 L 87.40 546.80 L 88.20 547.90 L 88.60 549.30 L 90.10 563.30 L 90.00 564.80 L 89.30 566.00 L 88.30 566.90 L 87.00 567.30 L 85.50 567.20 L 84.30 566.60 L 83.40 565.60 L 83.00 564.20 L 81.50 549.90 L 81.70 548.50 L 82.30 547.30 L 83.40 546.40 L 84.70 546.00 Z M 940.20 524.40 L 941.80 524.70 L 942.90 525.50 L 943.60 526.70 L 943.80 528.10 L 943.10 542.50 L 942.70 543.90 L 941.90 544.90 L 940.70 545.60 L 939.30 545.80 L 937.90 545.40 L 936.80 544.60 L 936.10 543.40 L 936.00 542.00 L 936.70 527.80 L 937.00 526.40 L 937.80 525.30 L 939.00 524.60 L 940.20 524.40 Z M 83.50 503.20 L 84.90 503.50 L 86.00 504.30 L 86.80 505.40 L 87.00 506.80 L 87.10 521.00 L 86.80 522.40 L 86.10 523.50 L 85.00 524.30 L 83.60 524.60 L 82.20 524.40 L 81.00 523.60 L 80.30 522.50 L 80.00 521.10 L 79.90 512.00 L 79.90 506.70 L 80.20 505.30 L 81.00 504.20 L 82.10 503.50 L 83.50 503.20 Z M 939.50 481.60 L 940.90 481.80 L 942.10 482.50 L 942.90 483.60 L 943.30 485.00 L 944.00 499.40 L 943.70 500.80 L 943.00 501.90 L 941.90 502.70 L 940.50 503.00 L 939.10 502.80 L 937.90 502.00 L 937.10 500.90 L 936.80 499.60 L 936.20 485.40 L 936.40 484.00 L 937.10 482.80 L 938.10 482.00 L 939.50 481.60 Z M 82.50 463.70 L 83.00 462.40 L 83.80 461.30 L 85.00 460.70 L 86.50 460.60 L 87.80 461.00 L 88.90 461.90 L 89.50 463.10 L 89.60 464.50 L 88.30 478.60 L 87.90 480.00 L 87.10 481.10 L 85.90 481.70 L 84.50 481.90 L 83.10 481.50 L 82.00 480.70 L 81.30 479.50 L 81.20 478.10 L 82.50 463.70 Z M 934.40 439.10 L 935.80 439.20 L 937.10 439.70 L 938.00 440.70 L 938.50 442.10 L 940.60 456.30 L 940.50 457.70 L 939.90 458.90 L 938.90 459.80 L 937.50 460.30 L 936.10 460.20 L 934.90 459.60 L 934.00 458.60 L 933.50 457.20 L 931.50 443.20 L 931.50 441.80 L 932.10 440.50 L 933.10 439.60 L 934.40 439.10 Z M 89.50 421.00 L 90.00 419.70 L 91.00 418.80 L 92.30 418.30 L 93.70 418.30 L 95.00 418.90 L 95.90 419.80 L 96.50 421.10 L 96.40 422.50 L 93.70 436.40 L 93.20 437.80 L 92.20 438.70 L 91.00 439.30 L 89.60 439.30 L 88.20 438.80 L 87.30 437.80 L 86.70 436.60 L 86.70 435.20 L 89.50 421.00 Z M 925.10 397.30 L 926.50 397.20 L 927.80 397.60 L 928.80 398.50 L 929.40 399.80 L 932.90 413.80 L 933.00 415.20 L 932.50 416.50 L 931.60 417.50 L 930.30 418.10 L 928.80 418.10 L 927.60 417.60 L 926.60 416.70 L 926.00 415.40 L 922.50 401.60 L 922.40 400.20 L 922.90 398.90 L 923.80 397.90 L 925.10 397.30 Z M 100.60 379.20 L 101.30 378.00 L 102.40 377.20 L 103.70 376.80 L 105.10 376.90 L 106.40 377.60 L 107.20 378.70 L 107.60 380.00 L 107.40 381.40 L 103.30 395.00 L 102.70 396.30 L 101.60 397.10 L 100.30 397.60 L 98.90 397.40 L 97.60 396.80 L 96.80 395.70 L 96.30 394.40 L 96.40 393.00 L 100.60 379.20 Z M 911.50 356.60 L 912.90 356.40 L 914.30 356.70 L 915.40 357.40 L 916.10 358.70 L 921.00 372.20 L 921.20 373.60 L 920.90 374.90 L 920.00 376.00 L 918.80 376.70 L 917.40 376.90 L 916.10 376.60 L 915.00 375.70 L 914.30 374.50 L 909.50 361.20 L 909.20 359.80 L 909.50 358.50 L 910.30 357.30 L 911.50 356.60 Z M 116.00 338.80 L 116.80 337.70 L 117.90 336.90 L 119.30 336.70 L 120.70 337.00 L 121.80 337.80 L 122.60 339.00 L 122.80 340.30 L 122.50 341.70 L 117.00 354.80 L 116.30 356.00 L 115.10 356.70 L 113.80 357.00 L 112.40 356.80 L 111.20 356.00 L 110.40 354.90 L 110.10 353.50 L 110.40 352.10 L 116.00 338.80 Z M 894.00 317.50 L 895.40 317.10 L 896.70 317.30 L 897.90 318.00 L 898.80 319.10 L 905.00 332.10 L 905.40 333.50 L 905.10 334.90 L 904.40 336.00 L 903.30 336.90 L 901.90 337.20 L 900.60 337.00 L 899.40 336.30 L 898.50 335.10 L 892.40 322.30 L 892.10 320.90 L 892.20 319.60 L 892.90 318.40 L 894.00 317.50 Z M 135.20 300.20 L 136.20 299.10 L 137.40 298.50 L 138.80 298.40 L 140.10 298.80 L 141.20 299.80 L 141.80 301.00 L 141.90 302.30 L 141.50 303.70 L 134.70 316.10 L 133.80 317.20 L 132.60 317.90 L 131.30 318.00 L 129.90 317.70 L 128.80 316.80 L 128.20 315.60 L 128.00 314.20 L 128.40 312.80 L 135.20 300.20 Z M 872.70 280.40 L 874.00 279.90 L 875.40 279.90 L 876.60 280.40 L 877.60 281.50 L 885.10 293.80 L 885.50 295.10 L 885.40 296.50 L 884.90 297.70 L 883.80 298.70 L 882.40 299.10 L 881.10 299.00 L 879.90 298.50 L 878.90 297.40 L 871.50 285.30 L 871.00 284.00 L 871.10 282.60 L 871.60 281.40 L 872.70 280.40 Z M 158.30 263.60 L 159.40 262.60 L 160.60 262.10 L 162.00 262.20 L 163.30 262.70 L 164.30 263.80 L 164.80 265.10 L 164.70 266.40 L 164.20 267.70 L 156.20 279.40 L 155.20 280.50 L 154.00 281.00 L 152.60 281.00 L 151.30 280.50 L 150.30 279.50 L 149.70 278.20 L 149.70 276.90 L 150.20 275.50 L 158.30 263.60 Z M 847.70 245.50 L 849.00 244.90 L 850.30 244.80 L 851.60 245.20 L 852.70 246.10 L 861.40 257.60 L 862.00 258.90 L 862.00 260.30 L 861.60 261.60 L 860.60 262.60 L 859.30 263.20 L 857.90 263.30 L 856.70 262.80 L 855.60 261.80 L 847.10 250.50 L 846.40 249.30 L 846.30 247.90 L 846.80 246.60 L 847.70 245.50 Z M 184.90 229.50 L 186.10 228.70 L 187.40 228.30 L 188.70 228.50 L 190.00 229.20 L 190.80 230.30 L 191.20 231.60 L 191.00 233.00 L 190.30 234.20 L 181.30 245.10 L 180.10 246.00 L 178.90 246.40 L 177.50 246.30 L 176.20 245.60 L 175.30 244.50 L 174.90 243.20 L 175.00 241.90 L 175.70 240.60 L 184.90 229.50 Z M 819.40 213.30 L 820.60 212.60 L 821.90 212.30 L 823.30 212.60 L 824.40 213.40 L 834.20 224.00 L 834.90 225.20 L 835.10 226.60 L 834.80 227.90 L 833.90 229.10 L 832.70 229.80 L 831.30 230.00 L 830.00 229.60 L 828.90 228.80 L 819.30 218.40 L 818.50 217.20 L 818.30 215.80 L 818.60 214.50 L 819.40 213.30 Z M 214.70 198.30 L 216.00 197.60 L 217.30 197.40 L 218.60 197.60 L 219.80 198.50 L 220.50 199.70 L 220.80 201.00 L 220.50 202.30 L 219.70 203.50 L 209.50 213.40 L 208.30 214.20 L 207.00 214.50 L 205.70 214.30 L 204.50 213.50 L 203.70 212.30 L 203.40 211.00 L 203.70 209.60 L 204.50 208.40 L 214.70 198.30 Z M 788.10 184.20 L 789.20 183.30 L 790.50 182.90 L 791.90 183.10 L 793.10 183.80 L 803.90 193.30 L 804.70 194.50 L 805.10 195.80 L 804.90 197.20 L 804.10 198.40 L 803.00 199.20 L 801.60 199.50 L 800.30 199.30 L 799.10 198.60 L 788.50 189.20 L 787.60 188.10 L 787.20 186.80 L 787.40 185.40 L 788.10 184.20 Z M 247.50 170.20 L 248.80 169.60 L 250.20 169.50 L 251.40 169.90 L 252.50 170.90 L 253.20 172.10 L 253.20 173.50 L 252.80 174.80 L 251.90 175.90 L 240.80 184.70 L 239.60 185.40 L 238.20 185.50 L 236.90 185.20 L 235.80 184.30 L 235.10 183.00 L 235.00 181.60 L 235.40 180.30 L 236.30 179.20 L 247.50 170.20 Z M 754.00 158.20 L 755.00 157.20 L 756.30 156.70 L 757.60 156.70 L 758.90 157.30 L 770.60 165.70 L 771.60 166.80 L 772.00 168.10 L 771.90 169.50 L 771.30 170.70 L 770.30 171.70 L 769.00 172.10 L 767.60 172.10 L 766.30 171.50 L 754.80 163.20 L 753.90 162.10 L 753.40 160.90 L 753.40 159.50 L 754.00 158.20 Z M 283.00 145.50 L 284.30 145.00 L 285.70 145.00 L 286.90 145.60 L 287.90 146.60 L 288.40 147.90 L 288.40 149.30 L 287.80 150.50 L 286.80 151.50 L 274.90 159.20 L 273.60 159.80 L 272.20 159.80 L 271.00 159.30 L 269.90 158.30 L 269.40 156.90 L 269.40 155.60 L 269.90 154.30 L 270.90 153.30 L 283.00 145.50 Z M 717.50 135.80 L 718.40 134.70 L 719.60 134.10 L 721.00 134.00 L 722.30 134.40 L 734.80 141.60 L 735.80 142.60 L 736.40 143.80 L 736.50 145.20 L 736.00 146.50 L 735.00 147.60 L 733.80 148.20 L 732.40 148.20 L 731.10 147.70 L 718.80 140.60 L 717.80 139.70 L 717.10 138.50 L 717.00 137.10 L 717.50 135.80 Z M 320.70 124.40 L 322.10 124.00 L 323.40 124.20 L 324.60 124.90 L 325.50 126.00 L 325.80 127.40 L 325.70 128.70 L 325.00 129.90 L 323.90 130.80 L 311.30 137.30 L 309.90 137.70 L 308.60 137.60 L 307.30 136.90 L 306.40 135.80 L 306.00 134.50 L 306.20 133.10 L 306.80 131.90 L 307.90 131.00 L 320.70 124.40 Z M 678.90 117.10 L 679.70 115.90 L 680.80 115.20 L 682.20 115.00 L 683.50 115.20 L 696.70 121.20 L 697.80 122.00 L 698.50 123.20 L 698.70 124.60 L 698.40 125.90 L 697.50 127.10 L 696.30 127.80 L 695.00 128.00 L 693.60 127.60 L 680.70 121.80 L 679.50 121.00 L 678.80 119.80 L 678.60 118.50 L 678.90 117.10 Z M 360.30 107.20 L 361.70 107.00 L 363.00 107.30 L 364.10 108.10 L 364.90 109.30 L 365.10 110.70 L 364.80 112.10 L 364.00 113.20 L 362.80 113.90 L 349.60 119.10 L 348.20 119.40 L 346.90 119.10 L 345.80 118.40 L 345.00 117.20 L 344.70 115.80 L 345.00 114.50 L 345.70 113.30 L 346.90 112.50 L 360.30 107.20 Z M 638.60 102.40 L 639.30 101.20 L 640.30 100.30 L 641.60 99.90 L 643.10 100.10 L 656.70 104.70 L 657.90 105.40 L 658.70 106.50 L 659.10 107.80 L 658.90 109.20 L 658.10 110.50 L 657.10 111.30 L 655.70 111.60 L 654.30 111.40 L 640.90 106.90 L 639.70 106.20 L 638.80 105.10 L 638.40 103.80 L 638.60 102.40 Z M 401.50 94.10 L 402.90 94.00 L 404.20 94.50 L 405.20 95.40 L 405.90 96.70 L 406.00 98.10 L 405.50 99.40 L 404.60 100.40 L 403.30 101.00 L 389.70 104.90 L 388.30 105.00 L 387.00 104.60 L 385.90 103.70 L 385.30 102.50 L 385.10 101.00 L 385.50 99.70 L 386.40 98.70 L 387.70 98.00 L 401.50 94.10 Z M 597.00 91.80 L 597.60 90.50 L 598.60 89.60 L 599.80 89.10 L 601.30 89.10 L 615.30 92.30 L 616.60 92.90 L 617.50 93.90 L 618.00 95.20 L 617.90 96.60 L 617.30 97.90 L 616.30 98.80 L 615.00 99.30 L 613.60 99.20 L 599.80 96.10 L 598.50 95.50 L 597.50 94.50 L 597.00 93.30 L 597.00 91.80 Z M 443.80 85.20 L 445.20 85.30 L 446.40 85.80 L 447.40 86.80 L 447.90 88.20 L 447.80 89.60 L 447.20 90.80 L 446.20 91.80 L 444.90 92.30 L 431.00 94.70 L 429.50 94.70 L 428.30 94.20 L 427.30 93.20 L 426.80 91.90 L 426.80 90.50 L 427.30 89.20 L 428.30 88.20 L 429.60 87.70 L 443.80 85.20 Z M 554.60 85.50 L 555.10 84.10 L 556.00 83.10 L 557.20 82.50 L 558.60 82.30 L 572.90 84.10 L 574.20 84.60 L 575.20 85.50 L 575.80 86.70 L 575.90 88.10 L 575.40 89.50 L 574.50 90.50 L 573.30 91.10 L 571.90 91.20 L 557.80 89.40 L 556.50 89.00 L 555.40 88.10 L 554.80 86.90 L 554.60 85.50 Z M 486.70 80.60 L 488.10 80.80 L 489.30 81.50 L 490.10 82.60 L 490.50 83.90 L 490.30 85.40 L 489.60 86.50 L 488.50 87.30 L 487.10 87.70 L 473.00 88.80 L 471.60 88.60 L 470.40 88.00 L 469.50 86.90 L 469.10 85.50 L 469.30 84.10 L 469.90 82.90 L 471.00 82.10 L 472.40 81.70 L 486.70 80.60 Z M 515.50 79.90 L 529.90 80.20 L 531.30 80.60 L 532.40 81.40 L 533.10 82.50 L 533.30 83.90 L 533.00 85.30 L 532.20 86.40 L 531.00 87.10 L 529.60 87.40 L 515.40 87.00 L 514.00 86.70 L 512.90 85.90 L 512.20 84.80 L 511.90 83.40 L 512.20 82.00 L 513.00 80.90 L 514.10 80.10 L 515.50 79.90 Z" fill="#ebedf0" fill-opacity="0.6587904" fill-rule="nonzero" group-id="1,2" hidden="true" id="椭圆形" node-id="43" stroke="none" target-height="864.19995" target-width="864.1" target-x="79.9" target-y="79.9" visibility="hidden"></path><g node-id="215"><g node-id="220"><path d="M 912.00 512.00 L 911.70 528.00 L 910.70 543.80 L 909.20 559.40 L 907.00 575.00 L 904.20 590.40 L 900.90 605.70 L 896.90 620.90 L 892.40 635.80 L 887.20 650.50 L 881.60 665.10 L 875.30 679.40 L 868.50 693.40 L 861.10 707.20 L 853.30 720.70 L 844.80 733.90 L 835.80 746.80 L 826.40 759.30 L 816.40 771.50 L 805.90 783.30 L 794.80 794.80 L 783.30 805.90 L 771.50 816.40 L 759.30 826.40 L 746.80 835.80 L 733.90 844.80 L 720.70 853.30 L 707.20 861.10 L 693.40 868.50 L 679.40 875.30 L 665.10 881.60 L 650.50 887.20 L 635.80 892.40 L 620.90 896.90 L 605.70 900.90 L 590.40 904.20 L 575.00 907.00 L 559.40 909.20 L 543.80 910.70 L 528.00 911.70 L 512.00 912.00 L 496.00 911.70 L 480.20 910.70 L 464.60 909.20 L 449.00 907.00 L 433.60 904.20 L 418.30 900.90 L 403.10 896.90 L 388.20 892.40 L 373.50 887.20 L 358.90 881.60 L 344.60 875.30 L 330.60 868.50 L 316.80 861.10 L 303.30 853.30 L 290.10 844.80 L 277.20 835.80 L 264.70 826.40 L 252.50 816.40 L 240.70 805.90 L 229.20 794.80 L 218.10 783.30 L 207.60 771.50 L 197.60 759.30 L 188.20 746.80 L 179.20 733.90 L 170.70 720.70 L 162.90 707.20 L 155.50 693.40 L 148.70 679.40 L 142.40 665.10 L 136.80 650.50 L 131.60 635.80 L 127.10 620.90 L 123.10 605.70 L 119.80 590.40 L 117.00 575.00 L 114.80 559.40 L 113.30 543.80 L 112.30 528.00 L 112.00 512.00 L 112.30 496.00 L 113.30 480.20 L 114.80 464.60 L 117.00 449.00 L 119.80 433.60 L 123.10 418.30 L 127.10 403.10 L 131.60 388.20 L 136.80 373.50 L 142.40 358.90 L 148.70 344.60 L 155.50 330.60 L 162.90 316.80 L 170.70 303.30 L 179.20 290.10 L 188.20 277.20 L 197.60 264.70 L 207.60 252.50 L 218.10 240.70 L 229.20 229.20 L 240.70 218.10 L 252.50 207.60 L 264.70 197.60 L 277.20 188.20 L 290.10 179.20 L 303.30 170.70 L 316.80 162.90 L 330.60 155.50 L 344.60 148.70 L 358.90 142.40 L 373.50 136.80 L 388.20 131.60 L 403.10 127.10 L 418.30 123.10 L 433.60 119.80 L 449.00 117.00 L 464.60 114.80 L 480.20 113.30 L 496.00 112.30 L 512.00 112.00 L 528.00 112.30 L 543.80 113.30 L 559.40 114.80 L 575.00 117.00 L 590.40 119.80 L 605.70 123.10 L 620.90 127.10 L 635.80 131.60 L 650.50 136.80 L 665.10 142.40 L 679.40 148.70 L 693.40 155.50 L 707.20 162.90 L 720.70 170.70 L 733.90 179.20 L 746.80 188.20 L 759.30 197.60 L 771.50 207.60 L 783.30 218.10 L 794.80 229.20 L 805.90 240.70 L 816.40 252.50 L 826.40 264.70 L 835.80 277.20 L 844.80 290.10 L 853.30 303.30 L 861.10 316.80 L 868.50 330.60 L 875.30 344.60 L 881.60 358.90 L 887.20 373.50 L 892.40 388.20 L 896.90 403.10 L 900.90 418.30 L 904.20 433.60 L 907.00 449.00 L 909.20 464.60 L 910.70 480.20 L 911.70 496.00 L 912.00 512.00 Z" fill="url(#linearGradient-1)" fill-rule="evenodd" group-id="1,2,4,9" hidden="true" node-id="172" stroke="none" target-height="800" target-width="800" target-x="112" target-y="112" visibility="hidden"></path></g><g node-id="221"><path d="M 512.00 222.70 L 513.40 223.00 L 514.50 223.80 L 515.30 224.90 L 515.60 226.30 L 515.60 233.40 L 515.30 234.80 L 514.50 236.00 L 513.40 236.70 L 512.00 237.00 L 510.60 236.70 L 509.50 236.00 L 508.70 234.80 L 508.40 233.40 L 508.40 226.30 L 508.70 224.90 L 509.50 223.80 L 510.60 223.00 L 512.00 222.70 Z M 512.00 194.10 L 513.40 194.40 L 514.50 195.20 L 515.30 196.30 L 515.60 197.70 L 515.60 204.90 L 515.30 206.30 L 514.50 207.40 L 513.40 208.10 L 512.00 208.40 L 510.60 208.10 L 509.50 207.40 L 508.70 206.30 L 508.40 204.90 L 508.40 197.70 L 508.70 196.30 L 509.50 195.20 L 510.60 194.40 L 512.00 194.10 Z M 512.00 165.60 L 513.40 165.90 L 514.50 166.60 L 515.30 167.70 L 515.60 169.10 L 515.60 176.30 L 515.30 177.70 L 514.50 178.80 L 513.40 179.60 L 512.00 179.90 L 510.60 179.60 L 509.50 178.80 L 508.70 177.70 L 508.40 176.30 L 508.40 169.10 L 508.70 167.70 L 509.50 166.60 L 510.60 165.90 L 512.00 165.60 Z M 512.00 137.00 L 513.40 137.30 L 514.50 138.00 L 515.30 139.20 L 515.60 140.60 L 515.60 147.70 L 515.30 149.10 L 514.50 150.20 L 513.40 151.00 L 512.00 151.30 L 510.60 151.00 L 509.50 150.20 L 508.70 149.10 L 508.40 147.70 L 508.40 140.60 L 508.70 139.20 L 509.50 138.00 L 510.60 137.30 L 512.00 137.00 Z M 512.00 108.40 L 513.40 108.70 L 514.50 109.50 L 515.30 110.60 L 515.60 112.00 L 515.60 119.10 L 515.30 120.50 L 514.50 121.70 L 513.40 122.40 L 512.00 122.70 L 510.60 122.40 L 509.50 121.70 L 508.70 120.50 L 508.40 119.10 L 508.40 112.00 L 508.70 110.60 L 509.50 109.50 L 510.60 108.70 L 512.00 108.40 Z" fill="#0f5eff" fill-rule="nonzero" group-id="1,2,4,10" hidden="true" id="路径-22" node-id="48" stroke="none" target-height="128.6" target-width="7.1999817" target-x="508.4" target-y="108.4" visibility="hidden"></path></g><g node-id="222"><path d="M 340.60 908.40 L 342.00 908.70 L 343.10 909.50 L 343.90 910.60 L 344.10 912.00 L 344.10 919.10 L 343.90 920.50 L 343.10 921.70 L 342.00 922.40 L 340.60 922.70 L 339.20 922.40 L 338.00 921.70 L 337.30 920.50 L 337.00 919.10 L 337.00 912.00 L 337.30 910.60 L 338.00 909.50 L 339.20 908.70 L 340.60 908.40 Z M 340.60 879.90 L 342.00 880.10 L 343.10 880.90 L 343.90 882.00 L 344.10 883.40 L 344.10 890.60 L 343.90 892.00 L 343.10 893.10 L 342.00 893.90 L 340.60 894.10 L 339.20 893.90 L 338.00 893.10 L 337.30 892.00 L 337.00 890.60 L 337.00 883.40 L 337.30 882.00 L 338.00 880.90 L 339.20 880.10 L 340.60 879.90 Z M 340.60 851.30 L 342.00 851.60 L 343.10 852.30 L 343.90 853.50 L 344.10 854.90 L 344.10 862.00 L 343.90 863.40 L 343.10 864.50 L 342.00 865.30 L 340.60 865.60 L 339.20 865.30 L 338.00 864.50 L 337.30 863.40 L 337.00 862.00 L 337.00 854.90 L 337.30 853.50 L 338.00 852.30 L 339.20 851.60 L 340.60 851.30 Z M 340.60 822.70 L 342.00 823.00 L 343.10 823.80 L 343.90 824.90 L 344.10 826.30 L 344.10 833.40 L 343.90 834.80 L 343.10 836.00 L 342.00 836.70 L 340.60 837.00 L 339.20 836.70 L 338.00 836.00 L 337.30 834.80 L 337.00 833.40 L 337.00 826.30 L 337.30 824.90 L 338.00 823.80 L 339.20 823.00 L 340.60 822.70 Z M 340.60 794.10 L 342.00 794.40 L 343.10 795.20 L 343.90 796.30 L 344.10 797.70 L 344.10 804.90 L 343.90 806.30 L 343.10 807.40 L 342.00 808.10 L 340.60 808.40 L 339.20 808.10 L 338.00 807.40 L 337.30 806.30 L 337.00 804.90 L 337.00 797.70 L 337.30 796.30 L 338.00 795.20 L 339.20 794.40 L 340.60 794.10 Z" fill="#fd3737" fill-rule="nonzero" group-id="1,2,4,11" hidden="true" id="路径-22备份" node-id="49" stroke="none" target-height="128.60004" target-width="7.100006" target-x="337" target-y="794.1" visibility="hidden"></path></g><path d="M 683.40 908.40 L 684.80 908.70 L 686.00 909.50 L 686.70 910.60 L 687.00 912.00 L 687.00 919.10 L 686.70 920.50 L 686.00 921.70 L 684.80 922.40 L 683.40 922.70 L 682.00 922.40 L 680.90 921.70 L 680.10 920.50 L 679.90 919.10 L 679.90 912.00 L 680.10 910.60 L 680.90 909.50 L 682.00 908.70 L 683.40 908.40 Z M 683.40 879.90 L 684.80 880.10 L 686.00 880.90 L 686.70 882.00 L 687.00 883.40 L 687.00 890.60 L 686.70 892.00 L 686.00 893.10 L 684.80 893.90 L 683.40 894.10 L 682.00 893.90 L 680.90 893.10 L 680.10 892.00 L 679.90 890.60 L 679.90 883.40 L 680.10 882.00 L 680.90 880.90 L 682.00 880.10 L 683.40 879.90 Z M 683.40 851.30 L 684.80 851.60 L 686.00 852.30 L 686.70 853.50 L 687.00 854.90 L 687.00 862.00 L 686.70 863.40 L 686.00 864.50 L 684.80 865.30 L 683.40 865.60 L 682.00 865.30 L 680.90 864.50 L 680.10 863.40 L 679.90 862.00 L 679.90 854.90 L 680.10 853.50 L 680.90 852.30 L 682.00 851.60 L 683.40 851.30 Z M 683.40 822.70 L 684.80 823.00 L 686.00 823.80 L 686.70 824.90 L 687.00 826.30 L 687.00 833.40 L 686.70 834.80 L 686.00 836.00 L 684.80 836.70 L 683.40 837.00 L 682.00 836.70 L 680.90 836.00 L 680.10 834.80 L 679.90 833.40 L 679.90 826.30 L 680.10 824.90 L 680.90 823.80 L 682.00 823.00 L 683.40 822.70 Z M 683.40 794.10 L 684.80 794.40 L 686.00 795.20 L 686.70 796.30 L 687.00 797.70 L 687.00 804.90 L 686.70 806.30 L 686.00 807.40 L 684.80 808.10 L 683.40 808.40 L 682.00 808.10 L 680.90 807.40 L 680.10 806.30 L 679.90 804.90 L 679.90 797.70 L 680.10 796.30 L 680.90 795.20 L 682.00 794.40 L 683.40 794.10 Z" fill="#fd3737" fill-rule="nonzero" group-id="1,2,4,12" hidden="true" id="路径-22备份-2" node-id="50" stroke="none" target-height="128.60004" target-width="7.0999756" target-x="679.9" target-y="794.1" visibility="hidden"></path></g><g node-id="216"><path d="M 826.30 140.60 L 826.00 143.20 L 825.40 145.60 L 824.30 147.80 L 822.90 149.80 L 821.20 151.50 L 819.20 152.90 L 817.00 154.00 L 814.60 154.60 L 812.00 154.90 L 809.40 154.60 L 807.00 154.00 L 804.80 152.90 L 802.80 151.50 L 801.10 149.80 L 799.70 147.80 L 798.60 145.60 L 798.00 143.20 L 797.70 140.60 L 798.00 138.00 L 798.60 135.60 L 799.70 133.40 L 801.10 131.40 L 802.80 129.70 L 804.80 128.20 L 807.00 127.20 L 809.40 126.50 L 812.00 126.30 L 814.60 126.50 L 817.00 127.20 L 819.20 128.20 L 821.20 129.70 L 822.90 131.40 L 824.30 133.40 L 825.40 135.60 L 826.00 138.00 L 826.30 140.60 Z" fill="#edf0f5" fill-opacity="0.6" fill-rule="evenodd" group-id="1,2,5" hidden="true" id="椭圆形" node-id="51" stroke="none" target-height="28.59999" target-width="28.599976" target-x="797.7" target-y="126.3" visibility="hidden"></path></g><path d="M 883.40 162.00 L 885.30 162.30 L 887.00 163.00 L 888.50 164.10 L 889.60 165.50 L 890.30 167.20 L 890.60 169.10 L 890.60 183.40 L 904.90 183.40 L 906.80 183.70 L 908.50 184.40 L 909.90 185.50 L 911.00 187.00 L 911.70 188.70 L 912.00 190.60 L 911.70 192.50 L 911.00 194.20 L 909.90 195.60 L 908.50 196.70 L 906.80 197.50 L 904.90 197.70 L 890.60 197.70 L 890.60 212.00 L 890.30 213.90 L 889.60 215.60 L 888.50 217.10 L 887.00 218.20 L 885.30 218.90 L 883.40 219.10 L 881.50 218.90 L 879.80 218.20 L 878.40 217.10 L 877.30 215.60 L 876.50 213.90 L 876.30 212.00 L 876.30 197.70 L 862.00 197.70 L 860.10 197.50 L 858.40 196.70 L 856.90 195.60 L 855.80 194.20 L 855.10 192.50 L 854.90 190.60 L 855.10 188.70 L 855.80 187.00 L 856.90 185.50 L 858.40 184.40 L 860.10 183.70 L 862.00 183.40 L 876.30 183.40 L 876.30 169.10 L 876.50 167.20 L 877.30 165.50 L 878.40 164.10 L 879.80 163.00 L 881.50 162.30 L 883.40 162.00 Z" fill="#edf0f5" fill-opacity="0.6" fill-rule="evenodd" group-id="1,2" hidden="true" id="形状结合" node-id="52" stroke="none" target-height="57.100006" target-width="57.099976" target-x="854.9" target-y="162" visibility="hidden"></path><path d="M 140.60 162.00 L 142.50 162.30 L 144.20 163.00 L 145.60 164.10 L 146.70 165.50 L 147.50 167.20 L 147.70 169.10 L 147.70 183.40 L 162.00 183.40 L 163.90 183.70 L 165.60 184.40 L 167.10 185.50 L 168.20 187.00 L 168.90 188.70 L 169.10 190.60 L 168.90 192.50 L 168.20 194.20 L 167.10 195.60 L 165.60 196.70 L 163.90 197.50 L 162.00 197.70 L 147.70 197.70 L 147.70 212.00 L 147.50 213.90 L 146.70 215.60 L 145.60 217.10 L 144.20 218.20 L 142.50 218.90 L 140.60 219.10 L 138.70 218.90 L 137.00 218.20 L 135.50 217.10 L 134.40 215.60 L 133.70 213.90 L 133.40 212.00 L 133.40 197.70 L 119.10 197.70 L 117.20 197.50 L 115.50 196.70 L 114.10 195.60 L 113.00 194.20 L 112.30 192.50 L 112.00 190.60 L 112.30 188.70 L 113.00 187.00 L 114.10 185.50 L 115.50 184.40 L 117.20 183.70 L 119.10 183.40 L 133.40 183.40 L 133.40 169.10 L 133.70 167.20 L 134.40 165.50 L 135.50 164.10 L 137.00 163.00 L 138.70 162.30 L 140.60 162.00 Z" fill="#edf0f5" fill-opacity="0.6" fill-rule="evenodd" group-id="1,2" hidden="true" id="形状结合备份-3" node-id="53" stroke="none" target-height="57.100006" target-width="57.100006" target-x="112" target-y="162" visibility="hidden"></path><g node-id="217"><path d="M 226.30 140.60 L 226.00 143.40 L 225.20 146.00 L 223.90 148.50 L 222.10 150.70 L 219.90 152.50 L 217.50 153.80 L 214.80 154.60 L 212.00 154.90 L 209.40 154.60 L 207.00 154.00 L 204.80 152.90 L 202.80 151.50 L 201.10 149.80 L 199.70 147.80 L 198.60 145.60 L 198.00 143.20 L 197.70 140.60 L 198.00 138.00 L 198.60 135.60 L 199.70 133.40 L 201.10 131.40 L 202.80 129.70 L 204.80 128.20 L 207.00 127.20 L 209.40 126.50 L 212.00 126.30 L 214.80 126.60 L 217.50 127.40 L 219.90 128.70 L 222.10 130.50 L 223.90 132.70 L 225.20 135.10 L 226.00 137.80 L 226.30 140.60 Z" fill="#edf0f5" fill-opacity="0.6" fill-rule="evenodd" group-id="1,2,6" hidden="true" id="椭圆形备份-48" node-id="54" stroke="none" target-height="28.59999" target-width="28.600006" target-x="197.7" target-y="126.3" visibility="hidden"></path></g></g><path d="M 262.00 262.00 L 762.00 262.00 L 765.90 262.30 L 769.60 263.00 L 773.10 264.20 L 776.40 265.90 L 779.50 267.90 L 782.20 270.40 L 784.60 273.10 L 786.70 276.10 L 788.30 279.50 L 789.50 283.00 L 790.30 286.60 L 790.60 290.60 L 790.60 390.60 L 790.30 394.50 L 789.50 398.20 L 788.30 401.70 L 786.70 405.00 L 784.60 408.00 L 782.20 410.80 L 779.50 413.20 L 776.40 415.20 L 773.10 416.90 L 769.60 418.10 L 765.90 418.90 L 762.00 419.10 L 262.00 419.10 L 258.10 418.90 L 254.40 418.10 L 250.90 416.90 L 247.60 415.20 L 244.50 413.20 L 241.80 410.80 L 239.40 408.00 L 237.30 405.00 L 235.70 401.70 L 234.50 398.20 L 233.70 394.50 L 233.40 390.60 L 233.40 290.60 L 233.70 286.60 L 234.50 283.00 L 235.70 279.50 L 237.30 276.10 L 239.40 273.10 L 241.80 270.40 L 244.50 267.90 L 247.60 265.90 L 250.90 264.20 L 254.40 263.00 L 258.10 262.30 L 262.00 262.00 Z M 262.00 433.40 L 762.00 433.40 L 765.90 433.70 L 769.60 434.50 L 773.10 435.70 L 776.40 437.30 L 779.50 439.40 L 782.20 441.80 L 784.60 444.50 L 786.70 447.60 L 788.30 450.90 L 789.50 454.40 L 790.30 458.10 L 790.60 462.00 L 790.60 562.00 L 790.30 565.90 L 789.50 569.60 L 788.30 573.10 L 786.70 576.40 L 784.60 579.50 L 782.20 582.20 L 779.50 584.60 L 776.40 586.70 L 773.10 588.30 L 769.60 589.50 L 765.90 590.30 L 762.00 590.60 L 262.00 590.60 L 258.10 590.30 L 254.40 589.50 L 250.90 588.30 L 247.60 586.70 L 244.50 584.60 L 241.80 582.20 L 239.40 579.50 L 237.30 576.40 L 235.70 573.10 L 234.50 569.60 L 233.70 565.90 L 233.40 562.00 L 233.40 462.00 L 233.70 458.10 L 234.50 454.40 L 235.70 450.90 L 237.30 447.60 L 239.40 444.50 L 241.80 441.80 L 244.50 439.40 L 247.60 437.30 L 250.90 435.70 L 254.40 434.50 L 258.10 433.70 L 262.00 433.40 Z M 262.00 604.90 L 762.00 604.90 L 765.90 605.10 L 769.60 605.90 L 773.10 607.10 L 776.40 608.80 L 779.50 610.80 L 782.20 613.20 L 784.60 616.00 L 786.70 619.00 L 788.30 622.30 L 789.50 625.80 L 790.30 629.50 L 790.60 633.40 L 790.60 733.40 L 790.30 737.40 L 789.50 741.00 L 788.30 744.50 L 786.70 747.90 L 784.60 750.90 L 782.20 753.60 L 779.50 756.10 L 776.40 758.10 L 773.10 759.80 L 769.60 761.00 L 765.90 761.70 L 762.00 762.00 L 262.00 762.00 L 258.10 761.70 L 254.40 761.00 L 250.90 759.80 L 247.60 758.10 L 244.50 756.10 L 241.80 753.60 L 239.40 750.90 L 237.30 747.90 L 235.70 744.50 L 234.50 741.00 L 233.70 737.40 L 233.40 733.40 L 233.40 633.40 L 233.70 629.50 L 234.50 625.80 L 235.70 622.30 L 237.30 619.00 L 239.40 616.00 L 241.80 613.20 L 244.50 610.80 L 247.60 608.80 L 250.90 607.10 L 254.40 605.90 L 258.10 605.10 L 262.00 604.90 Z" fill="url(#linearGradient-4)" fill-rule="evenodd" group-id="1" id="形状结合" node-id="55" stroke="none" target-height="500" target-width="557.19995" target-x="233.4" target-y="262"></path><g node-id="214"><path d="M 297.70 247.70 L 726.30 247.70 L 730.20 248.00 L 733.90 248.70 L 737.40 250.00 L 740.70 251.60 L 743.70 253.70 L 746.50 256.10 L 748.90 258.80 L 750.90 261.80 L 752.60 265.20 L 753.80 268.70 L 754.60 272.40 L 754.90 276.30 L 754.90 762.00 L 754.60 765.90 L 753.80 769.60 L 752.60 773.10 L 750.90 776.40 L 748.90 779.50 L 746.50 782.20 L 743.70 784.60 L 740.70 786.70 L 737.40 788.30 L 733.90 789.50 L 730.20 790.30 L 726.30 790.60 L 297.70 790.60 L 293.80 790.30 L 290.10 789.50 L 286.60 788.30 L 283.30 786.70 L 280.30 784.60 L 277.50 782.20 L 275.10 779.50 L 273.10 776.40 L 271.40 773.10 L 270.20 769.60 L 269.40 765.90 L 269.10 762.00 L 269.10 276.30 L 269.40 272.40 L 270.20 268.70 L 271.40 265.20 L 273.10 261.80 L 275.10 258.80 L 277.50 256.10 L 280.30 253.70 L 283.30 251.60 L 286.60 250.00 L 290.10 248.70 L 293.80 248.00 L 297.70 247.70 Z" fill="url(#linearGradient-5)" fill-rule="evenodd" group-id="1,3" id="矩形" node-id="57" stroke="none" target-height="542.89996" target-width="485.80002" target-x="269.1" target-y="247.7"></path><g node-id="218"><g node-id="224"><path d="M 319.10 290.60 L 704.90 290.60 L 707.80 290.80 L 713.20 292.30 L 715.70 293.50 L 718.70 295.60 L 721.20 298.20 L 723.40 301.20 L 724.60 303.70 L 726.10 309.00 L 726.30 312.00 L 726.30 740.60 L 726.10 743.50 L 724.60 748.90 L 723.40 751.40 L 721.20 754.40 L 718.70 756.90 L 715.70 759.10 L 713.20 760.30 L 707.80 761.80 L 704.90 762.00 L 319.10 762.00 L 316.20 761.80 L 310.80 760.30 L 308.30 759.10 L 305.30 756.90 L 302.80 754.40 L 300.60 751.40 L 299.40 748.90 L 297.90 743.50 L 297.70 740.60 L 297.70 312.00 L 297.90 309.00 L 299.40 303.70 L 300.60 301.20 L 302.80 298.20 L 305.30 295.60 L 308.30 293.50 L 310.80 292.30 L 316.20 290.80 L 319.10 290.60 Z" fill="#000000" fill-rule="evenodd" filter="url(#filter-8)" group-id="1,3,7,13" node-id="205" stroke="none" target-height="471.4" target-width="428.59998" target-x="297.7" target-y="290.6"></path></g><path d="M 319.10 290.60 L 704.90 290.60 L 707.80 290.80 L 713.20 292.30 L 715.70 293.50 L 718.70 295.60 L 721.20 298.20 L 723.40 301.20 L 724.60 303.70 L 726.10 309.00 L 726.30 312.00 L 726.30 740.60 L 726.10 743.50 L 724.60 748.90 L 723.40 751.40 L 721.20 754.40 L 718.70 756.90 L 715.70 759.10 L 713.20 760.30 L 707.80 761.80 L 704.90 762.00 L 319.10 762.00 L 316.20 761.80 L 310.80 760.30 L 308.30 759.10 L 305.30 756.90 L 302.80 754.40 L 300.60 751.40 L 299.40 748.90 L 297.90 743.50 L 297.70 740.60 L 297.70 312.00 L 297.90 309.00 L 299.40 303.70 L 300.60 301.20 L 302.80 298.20 L 305.30 295.60 L 308.30 293.50 L 310.80 292.30 L 316.20 290.80 L 319.10 290.60 Z" fill="url(#linearGradient-6)" fill-rule="evenodd" group-id="1,3,7,14" node-id="210" stroke="none" target-height="471.4" target-width="428.59998" target-x="297.7" target-y="290.6"></path></g><path d="M 442.00 233.40 L 582.00 233.40 L 586.80 234.20 L 591.00 236.50 L 594.40 240.00 L 611.10 264.60 L 612.10 266.40 L 612.40 268.30 L 612.30 270.20 L 611.70 272.00 L 610.70 273.60 L 609.20 275.00 L 607.90 275.70 L 605.00 276.30 L 419.00 276.30 L 417.00 276.00 L 415.30 275.30 L 413.70 274.10 L 412.60 272.60 L 411.80 270.80 L 411.50 268.80 L 411.70 267.30 L 412.90 264.60 L 431.20 238.10 L 433.00 236.50 L 437.20 234.20 L 442.00 233.40 Z" fill="url(#linearGradient-9)" fill-rule="evenodd" group-id="1,3" id="矩形" node-id="61" stroke="none" target-height="42.899994" target-width="200.90002" target-x="411.5" target-y="233.4"></path><path d="M 676.30 590.10 L 678.10 590.40 L 679.70 591.00 L 681.00 592.10 L 682.10 593.40 L 682.70 595.00 L 683.00 596.80 L 683.00 697.70 L 682.70 700.20 L 682.10 702.60 L 681.10 704.70 L 679.70 706.60 L 676.10 709.70 L 674.00 710.70 L 671.70 711.30 L 669.10 711.50 L 354.90 711.50 L 352.30 711.30 L 350.00 710.70 L 347.90 709.70 L 344.30 706.60 L 342.90 704.70 L 341.90 702.60 L 341.30 700.20 L 341.00 687.90 L 341.30 686.10 L 341.90 684.60 L 343.00 683.20 L 344.30 682.20 L 345.90 681.50 L 347.70 681.30 L 349.50 681.50 L 351.10 682.20 L 352.40 683.20 L 353.50 684.60 L 354.10 686.10 L 354.40 687.90 L 354.40 697.70 L 354.90 698.20 L 669.10 698.20 L 669.60 697.70 L 669.60 596.80 L 669.90 595.00 L 670.50 593.40 L 671.60 592.10 L 672.90 591.00 L 674.50 590.40 L 676.30 590.10 Z M 669.10 519.60 L 671.70 519.80 L 674.00 520.50 L 676.10 521.50 L 678.10 522.90 L 681.10 526.50 L 682.10 528.60 L 682.70 530.90 L 683.00 540.20 L 682.70 542.00 L 682.10 543.60 L 681.00 545.00 L 679.70 546.00 L 678.10 546.70 L 676.30 546.90 L 674.50 546.70 L 672.90 546.00 L 671.60 545.00 L 670.50 543.60 L 669.90 542.00 L 669.60 540.20 L 669.60 533.40 L 669.10 533.00 L 354.90 533.00 L 354.40 533.40 L 354.40 623.70 L 354.10 625.50 L 353.50 627.10 L 352.40 628.40 L 351.10 629.50 L 349.50 630.10 L 347.70 630.40 L 345.90 630.10 L 344.30 629.50 L 343.00 628.40 L 341.90 627.10 L 341.30 625.50 L 341.00 623.70 L 341.00 533.40 L 341.30 530.90 L 341.90 528.60 L 342.90 526.50 L 345.90 522.90 L 350.00 520.50 L 352.30 519.80 L 354.90 519.60 L 669.10 519.60 Z" fill="url(#linearGradient-10)" fill-rule="nonzero" group-id="1,3" id="形状" node-id="62" stroke="none" target-height="191.90002" target-width="342" target-x="341" target-y="519.6"></path><g node-id="219"><path d="M 674.90 410.40 L 640.90 380.60 L 639.70 379.80 L 637.00 379.20 L 634.30 379.80 L 633.10 380.60 L 599.10 410.40 L 597.80 412.50 L 597.70 413.50 L 598.20 415.10 L 599.20 416.50 L 601.30 417.60 L 619.40 417.80 L 619.40 460.20 L 620.20 462.50 L 622.10 464.30 L 624.90 464.90 L 649.20 464.90 L 650.60 464.70 L 653.00 463.50 L 653.80 462.60 L 654.60 460.20 L 654.60 417.80 L 672.80 417.60 L 674.90 416.50 L 675.90 415.10 L 676.30 413.50 L 676.20 412.40 L 674.90 410.40 Z" fill="url(#linearGradient-11)" fill-rule="evenodd" group-id="1,3,8" id="路径" node-id="63" stroke="none" target-height="85.69998" target-width="78.599976" target-x="597.7" target-y="379.2"></path></g><path d="M 519.10 379.90 L 521.10 380.10 L 522.70 380.80 L 524.20 381.90 L 525.30 383.40 L 526.00 385.10 L 526.30 387.00 L 526.00 388.90 L 525.30 390.60 L 524.20 392.10 L 522.70 393.20 L 521.10 393.90 L 519.10 394.10 L 347.70 394.10 L 345.80 393.90 L 344.10 393.20 L 342.70 392.10 L 341.50 390.60 L 340.80 388.90 L 340.60 387.00 L 340.80 385.10 L 341.50 383.40 L 342.70 381.90 L 344.10 380.80 L 345.80 380.10 L 347.70 379.90 L 519.10 379.90 Z" fill="url(#linearGradient1)" fill-rule="nonzero" group-id="1,3" id="直线-13" node-id="64" stroke="none" target-height="14.200012" target-width="185.69998" target-x="340.6" target-y="379.9"></path><path d="M 519.10 415.60 L 521.10 415.80 L 522.70 416.50 L 524.20 417.70 L 525.30 419.10 L 526.00 420.80 L 526.30 422.70 L 526.00 424.60 L 525.30 426.30 L 524.20 427.80 L 522.70 428.90 L 521.10 429.60 L 519.10 429.90 L 347.70 429.90 L 345.80 429.60 L 344.10 428.90 L 342.70 427.80 L 341.50 426.30 L 340.80 424.60 L 340.60 422.70 L 340.80 420.80 L 341.50 419.10 L 342.70 417.70 L 344.10 416.50 L 345.80 415.80 L 347.70 415.60 L 519.10 415.60 Z" fill="url(#linearGradient-12)" fill-rule="nonzero" group-id="1,3" id="直线-13" node-id="65" stroke="none" target-height="14.299988" target-width="185.69998" target-x="340.6" target-y="415.6"></path><path d="M 404.90 451.30 L 406.80 451.50 L 408.50 452.30 L 409.90 453.40 L 411.00 454.80 L 411.70 456.50 L 412.00 458.40 L 411.70 460.30 L 411.00 462.00 L 409.90 463.50 L 408.50 464.60 L 406.80 465.30 L 404.90 465.60 L 347.70 465.60 L 345.80 465.30 L 344.10 464.60 L 342.70 463.50 L 341.50 462.00 L 340.80 460.30 L 340.60 458.40 L 340.80 456.50 L 341.50 454.80 L 342.70 453.40 L 344.10 452.30 L 345.80 451.50 L 347.70 451.30 L 404.90 451.30 Z" fill="url(#linearGradient-13)" fill-rule="nonzero" group-id="1,3" id="直线-13" node-id="66" stroke="none" target-height="14.300018" target-width="71.399994" target-x="340.6" target-y="451.3"></path><path d="M 662.60 562.50 L 665.30 560.70 L 666.80 560.10 L 669.20 559.90 L 671.60 560.20 L 673.10 560.70 L 675.70 562.60 L 677.60 565.30 L 678.10 566.80 L 678.40 569.20 L 678.10 571.60 L 676.80 574.40 L 637.30 613.60 L 633.90 616.70 L 630.40 619.30 L 626.70 621.50 L 622.80 623.30 L 618.70 624.70 L 610.50 626.40 L 602.00 626.50 L 593.70 625.00 L 589.60 623.60 L 585.70 621.90 L 581.90 619.80 L 578.30 617.30 L 566.20 606.30 L 561.20 603.20 L 558.00 601.90 L 554.60 601.10 L 551.20 600.70 L 547.90 600.70 L 544.50 601.20 L 541.20 602.00 L 538.10 603.30 L 535.20 605.00 L 532.40 607.10 L 530.00 609.60 L 527.80 612.50 L 512.00 635.90 L 506.20 641.90 L 502.40 644.80 L 498.60 647.20 L 494.70 649.10 L 490.50 650.60 L 486.30 651.70 L 482.00 652.40 L 477.70 652.70 L 473.40 652.60 L 469.10 652.00 L 464.90 651.10 L 460.80 649.70 L 456.80 648.00 L 453.00 645.80 L 449.40 643.30 L 445.90 640.30 L 434.30 627.10 L 431.50 624.70 L 428.70 622.80 L 425.60 621.20 L 422.30 620.10 L 419.00 619.40 L 415.70 619.20 L 412.30 619.40 L 409.00 620.00 L 405.70 621.00 L 402.60 622.50 L 399.70 624.40 L 396.90 626.70 L 361.40 661.50 L 358.60 663.40 L 357.10 663.90 L 354.80 664.10 L 352.40 663.80 L 349.50 662.50 L 347.10 660.00 L 345.80 657.10 L 345.60 654.80 L 346.40 650.90 L 348.40 648.20 L 383.90 613.50 L 387.40 610.40 L 391.10 607.70 L 394.90 605.50 L 398.90 603.70 L 403.10 602.30 L 407.30 601.30 L 411.50 600.80 L 415.90 600.60 L 420.20 600.90 L 424.40 601.50 L 428.60 602.60 L 432.80 604.10 L 436.70 606.00 L 440.50 608.30 L 444.10 611.00 L 447.50 614.20 L 456.80 624.90 L 459.40 627.50 L 462.10 629.60 L 465.10 631.40 L 468.30 632.70 L 471.50 633.60 L 474.90 634.10 L 478.20 634.10 L 481.60 633.70 L 484.90 632.90 L 488.10 631.70 L 491.20 630.00 L 494.10 627.80 L 496.70 625.20 L 499.00 622.30 L 512.30 602.20 L 515.00 598.50 L 518.10 595.10 L 521.30 592.20 L 524.90 589.60 L 528.70 587.30 L 532.60 585.50 L 536.60 584.00 L 540.80 583.00 L 545.10 582.30 L 549.40 582.00 L 553.70 582.20 L 558.10 582.80 L 562.30 583.80 L 566.50 585.30 L 570.60 587.10 L 574.60 589.50 L 580.70 594.30 L 587.60 600.80 L 590.30 603.10 L 593.20 604.90 L 596.30 606.30 L 599.50 607.30 L 602.70 607.90 L 606.00 608.00 L 609.30 607.80 L 612.60 607.10 L 615.70 606.10 L 618.80 604.60 L 621.60 602.70 L 624.30 600.40 L 662.60 562.50 Z" fill="#1c67ff" fill-rule="nonzero" group-id="1,3" id="路径-2" node-id="67" stroke="none" target-height="104.19995" target-width="332.80002" target-x="345.6" target-y="559.9"></path></g></g></svg>