<?xml version="1.0" standalone="no"?><!DOCTYPE svg PUBLIC "-//W3C//DTD SVG 1.1//EN" "http://www.w3.org/Graphics/SVG/1.1/DTD/svg11.dtd"><svg height="1024" node-id="1" sillyvg="true" template-height="1024" template-width="1024" version="1.1" viewBox="0 0 1024 1024" width="1024" xmlns="http://www.w3.org/2000/svg" xmlns:xlink="http://www.w3.org/1999/xlink"><defs node-id="80"><linearGradient gradientUnits="objectBoundingBox" id="linearGradient-1" node-id="5" spreadMethod="pad" x1="0.5" x2="0.5" y1="0" y2="1"><stop offset="0" stop-color="#f9fafc"></stop><stop offset="1" stop-color="#f0f2f5"></stop></linearGradient><linearGradient gradientUnits="objectBoundingBox" id="linearGradient-4" node-id="9" spreadMethod="pad" x1="0.6802621" x2="0.6802621" y1="-0.7560432" y2="0.89236754"><stop offset="0" stop-color="#fbfcfe"></stop><stop offset="1" stop-color="#ced6e5"></stop></linearGradient><linearGradient gradientUnits="objectBoundingBox" id="linearGradient-5" node-id="12" spreadMethod="pad" x1="0.079356186" x2="0.079356186" y1="0.22613586" y2="1"><stop offset="0" stop-color="#fcfdff"></stop><stop offset="1" stop-color="#f5f8ff"></stop></linearGradient><linearGradient gradientUnits="objectBoundingBox" id="linearGradient-6" node-id="15" spreadMethod="pad" x1="0.079356186" x2="0.079356186" y1="0.22613586" y2="1"><stop offset="0" stop-color="#fcfdff"></stop><stop offset="1" stop-color="#f5f8ff"></stop></linearGradient><linearGradient gradientUnits="objectBoundingBox" id="linearGradient-7" node-id="18" spreadMethod="pad" x1="0.079356186" x2="0.079356186" y1="0.22613586" y2="1"><stop offset="0" stop-color="#fcfdff"></stop><stop offset="1" stop-color="#f5f8ff"></stop></linearGradient><linearGradient gradientUnits="objectBoundingBox" id="linearGradient-8" node-id="21" spreadMethod="pad" x1="0" x2="1" y1="0.5" y2="0.5"><stop offset="0" stop-color="#e9edf3"></stop><stop offset="1" stop-color="#cbd3e1"></stop></linearGradient><linearGradient gradientUnits="objectBoundingBox" id="linearGradient-9" node-id="24" spreadMethod="pad" x1="0" x2="1" y1="0.5" y2="0.5"><stop offset="0" stop-color="#e9edf3"></stop><stop offset="1" stop-color="#cbd3e1"></stop></linearGradient><linearGradient gradientUnits="objectBoundingBox" id="linearGradient-10" node-id="27" spreadMethod="pad" x1="0.079356186" x2="0.079356186" y1="0.22613586" y2="1"><stop offset="0" stop-color="#fcfdff"></stop><stop offset="1" stop-color="#f5f8ff"></stop></linearGradient><linearGradient gradientUnits="objectBoundingBox" id="linearGradient-13" node-id="35" spreadMethod="pad" x1="0" x2="1" y1="0.5" y2="0.5"><stop offset="0" stop-color="#8f9bb3"></stop><stop offset="1" stop-color="#596680"></stop></linearGradient><linearGradient gradientUnits="objectBoundingBox" id="linearGradient-14" node-id="38" spreadMethod="pad" x1="0.517499" x2="0.46765622" y1="0.39319256" y2="0.6608786"><stop offset="0" stop-color="#e9edf3"></stop><stop offset="1" stop-color="#cbd3e1"></stop></linearGradient><linearGradient gradientUnits="objectBoundingBox" id="linearGradient1" node-id="142" spreadMethod="pad" x1="0.47931987" x2="0.5165327" y1="0.1121901" y2="0.88543844"><stop offset="0" stop-color="#ff5d90"></stop><stop offset="1" stop-color="#ff3959"></stop></linearGradient><linearGradient gradientUnits="objectBoundingBox" id="linearGradient2" node-id="149" spreadMethod="pad" x1="0.47931987" x2="0.5165327" y1="0.1121901" y2="0.88543844"><stop offset="0" stop-color="#ff5d90"></stop><stop offset="1" stop-color="#ff3959"></stop></linearGradient><linearGradient gradientUnits="objectBoundingBox" id="linearGradient3" node-id="156" spreadMethod="pad" x1="0.47931987" x2="0.5165327" y1="0.1121901" y2="0.88543844"><stop offset="0" stop-color="#ff5d90"></stop><stop offset="1" stop-color="#ff3959"></stop></linearGradient><linearGradient gradientUnits="objectBoundingBox" id="linearGradient-15" node-id="41" spreadMethod="pad" x1="0.47931987" x2="0.5165327" y1="0.1121901" y2="0.88543844"><stop offset="0" stop-color="#ff5d90"></stop><stop offset="1" stop-color="#ff3959"></stop></linearGradient><linearGradient gradientUnits="objectBoundingBox" id="linearGradient-16" node-id="44" spreadMethod="pad" x1="0.054449525" x2="0.7764964" y1="0.375" y2="0.5949335"><stop offset="0" stop-color="#2f74ff"></stop><stop offset="1" stop-color="#0f5eff"></stop></linearGradient><filter filterUnits="objectBoundingBox" height="771.4571" id="filter-12" node-id="31" width="985.7572" x="-199.72856" y="-0.14283752"><feOffset color-interpolation-filters="linearRGB" dx="0" dy="57" in="SourceAlpha" result="shadowOffsetOuter1"></feOffset><feGaussianBlur color-interpolation-filters="linearRGB" in="shadowOffsetOuter1" result="shadowBlurOuter1" stdDeviation="71.5 71.5"></feGaussianBlur><feColorMatrix color-interpolation-filters="linearRGB" in="shadowBlurOuter1" result="result3" type="matrix" values="0 0 0 0 0.56 0 0 0 0 0.6066667 0 0 0 0 0.7 0 0 0 0.36166957 0"></feColorMatrix></filter><mask height="231.42859" id="mask-3" maskUnits="userSpaceOnUse" node-id="54" width="787.8641" x="118.08959" y="367.7143"><path d="M 912.00 512.00 L 911.70 528.00 L 910.70 543.80 L 909.20 559.40 L 907.00 575.00 L 904.20 590.40 L 900.90 605.70 L 896.90 620.90 L 892.40 635.80 L 887.20 650.50 L 881.60 665.10 L 875.30 679.40 L 868.50 693.40 L 861.10 707.20 L 853.30 720.70 L 844.80 733.90 L 835.80 746.80 L 826.40 759.30 L 816.40 771.50 L 805.90 783.30 L 794.80 794.80 L 783.30 805.90 L 771.50 816.40 L 759.30 826.40 L 746.80 835.80 L 733.90 844.80 L 720.70 853.30 L 707.20 861.10 L 693.40 868.50 L 679.40 875.30 L 665.10 881.60 L 650.50 887.20 L 635.80 892.40 L 620.90 896.90 L 605.70 900.90 L 590.40 904.20 L 575.00 907.00 L 559.40 909.20 L 543.80 910.70 L 528.00 911.70 L 512.00 912.00 L 496.00 911.70 L 480.20 910.70 L 464.60 909.20 L 449.00 907.00 L 433.60 904.20 L 418.30 900.90 L 403.10 896.90 L 388.20 892.40 L 373.50 887.20 L 358.90 881.60 L 344.60 875.30 L 330.60 868.50 L 316.80 861.10 L 303.30 853.30 L 290.10 844.80 L 277.20 835.80 L 264.70 826.40 L 252.50 816.40 L 240.70 805.90 L 229.20 794.80 L 218.10 783.30 L 207.60 771.50 L 197.60 759.30 L 188.20 746.80 L 179.20 733.90 L 170.70 720.70 L 162.90 707.20 L 155.50 693.40 L 148.70 679.40 L 142.40 665.10 L 136.80 650.50 L 131.60 635.80 L 127.10 620.90 L 123.10 605.70 L 119.80 590.40 L 117.00 575.00 L 114.80 559.40 L 113.30 543.80 L 112.30 528.00 L 112.00 512.00 L 112.30 496.00 L 113.30 480.20 L 114.80 464.60 L 117.00 449.00 L 119.80 433.60 L 123.10 418.30 L 127.10 403.10 L 131.60 388.20 L 136.80 373.50 L 142.40 358.90 L 148.70 344.60 L 155.50 330.60 L 162.90 316.80 L 170.70 303.30 L 179.20 290.10 L 188.20 277.20 L 197.60 264.70 L 207.60 252.50 L 218.10 240.70 L 229.20 229.20 L 240.70 218.10 L 252.50 207.60 L 264.70 197.60 L 277.20 188.20 L 290.10 179.20 L 303.30 170.70 L 316.80 162.90 L 330.60 155.50 L 344.60 148.70 L 358.90 142.40 L 373.50 136.80 L 388.20 131.60 L 403.10 127.10 L 418.30 123.10 L 433.60 119.80 L 449.00 117.00 L 464.60 114.80 L 480.20 113.30 L 496.00 112.30 L 512.00 112.00 L 528.00 112.30 L 543.80 113.30 L 559.40 114.80 L 575.00 117.00 L 590.40 119.80 L 605.70 123.10 L 620.90 127.10 L 635.80 131.60 L 650.50 136.80 L 665.10 142.40 L 679.40 148.70 L 693.40 155.50 L 707.20 162.90 L 720.70 170.70 L 733.90 179.20 L 746.80 188.20 L 759.30 197.60 L 771.50 207.60 L 783.30 218.10 L 794.80 229.20 L 805.90 240.70 L 816.40 252.50 L 826.40 264.70 L 835.80 277.20 L 844.80 290.10 L 853.30 303.30 L 861.10 316.80 L 868.50 330.60 L 875.30 344.60 L 881.60 358.90 L 887.20 373.50 L 892.40 388.20 L 896.90 403.10 L 900.90 418.30 L 904.20 433.60 L 907.00 449.00 L 909.20 464.60 L 910.70 480.20 L 911.70 496.00 L 912.00 512.00 Z" fill="#ffffff" fill-rule="evenodd" node-id="186" stroke="none" target-height="800" target-width="800" target-x="112" target-y="112"></path></mask></defs><g node-id="247"><path d="M 12.00 12.00 L 1012.00 12.00 L 1012.00 1012.00 L 12.00 1012.00 Z" fill="none" group-id="1" hidden="true" id="矩形" node-id="49" stroke="none" target-height="1000" target-width="1000" target-x="12" target-y="12" visibility="hidden"></path><g node-id="248"><path d="M 512.00 940.60 L 526.90 940.30 L 541.50 939.60 L 556.00 938.30 L 570.30 936.60 L 584.40 934.50 L 598.40 931.90 L 612.30 928.80 L 626.10 925.20 L 639.60 921.30 L 652.80 916.90 L 665.90 912.10 L 678.80 906.90 L 691.60 901.20 L 704.10 895.20 L 716.30 888.80 L 728.30 882.00 L 740.10 874.90 L 751.60 867.40 L 765.10 857.90 L 778.20 847.90 L 790.90 837.40 L 803.20 826.50 L 815.00 815.00 L 826.50 803.20 L 837.40 790.90 L 847.90 778.20 L 857.90 765.10 L 867.40 751.60 L 874.90 740.10 L 882.00 728.30 L 888.80 716.30 L 895.20 704.10 L 901.20 691.60 L 906.90 678.80 L 912.10 665.90 L 916.90 652.80 L 921.30 639.60 L 925.20 626.10 L 928.80 612.30 L 931.90 598.40 L 934.50 584.40 L 936.60 570.30 L 938.30 556.00 L 939.60 541.50 L 940.30 526.90 L 940.60 512.00 L 940.30 497.10 L 939.60 482.50 L 938.30 468.00 L 936.60 453.70 L 934.50 439.60 L 931.90 425.60 L 928.80 411.70 L 925.20 397.90 L 921.30 384.40 L 916.90 371.20 L 912.10 358.10 L 906.90 345.20 L 901.20 332.40 L 895.20 319.90 L 888.80 307.70 L 882.00 295.70 L 874.90 283.90 L 867.40 272.40 L 857.90 258.90 L 847.90 245.80 L 837.40 233.10 L 826.50 220.80 L 815.00 209.00 L 803.20 197.50 L 790.90 186.60 L 778.20 176.10 L 765.10 166.10 L 751.60 156.60 L 740.10 149.10 L 728.30 142.00 L 716.30 135.20 L 704.10 128.80 L 691.60 122.80 L 678.80 117.10 L 665.90 111.90 L 652.80 107.10 L 639.60 102.70 L 626.10 98.80 L 612.30 95.20 L 598.40 92.10 L 584.40 89.50 L 570.30 87.40 L 556.00 85.70 L 541.50 84.40 L 526.90 83.70 L 512.00 83.40 L 497.10 83.70 L 482.50 84.40 L 468.00 85.70 L 453.70 87.40 L 439.60 89.50 L 425.60 92.10 L 411.70 95.20 L 397.90 98.80 L 384.40 102.70 L 371.20 107.10 L 358.10 111.90 L 345.20 117.10 L 332.40 122.80 L 319.90 128.80 L 307.70 135.20 L 295.70 142.00 L 283.90 149.10 L 272.40 156.60 L 258.90 166.10 L 245.80 176.10 L 233.10 186.60 L 220.80 197.50 L 209.00 209.00 L 197.50 220.80 L 186.60 233.10 L 176.10 245.80 L 166.10 258.90 L 156.60 272.40 L 149.10 283.90 L 142.00 295.70 L 135.20 307.70 L 128.80 319.90 L 122.80 332.40 L 117.10 345.20 L 111.90 358.10 L 107.10 371.20 L 102.70 384.40 L 98.80 397.90 L 95.20 411.70 L 92.10 425.60 L 89.50 439.60 L 87.40 453.70 L 85.70 468.00 L 84.40 482.50 L 83.70 497.10 L 83.40 512.00 L 83.70 526.90 L 84.40 541.50 L 85.70 556.00 L 87.40 570.30 L 89.50 584.40 L 92.10 598.40 L 95.20 612.30 L 98.80 626.10 L 102.70 639.60 L 107.10 652.80 L 111.90 665.90 L 117.10 678.80 L 122.80 691.60 L 128.80 704.10 L 135.20 716.30 L 142.00 728.30 L 149.10 740.10 L 156.60 751.60 L 166.10 765.10 L 176.10 778.20 L 186.60 790.90 L 197.50 803.20 L 209.00 815.00 L 220.80 826.50 L 233.10 837.40 L 245.80 847.90 L 258.90 857.90 L 272.40 867.40 L 283.90 874.90 L 295.70 882.00 L 307.70 888.80 L 319.90 895.20 L 332.40 901.20 L 345.20 906.90 L 358.10 912.10 L 371.20 916.90 L 384.40 921.30 L 397.90 925.20 L 411.70 928.80 L 425.60 931.90 L 439.60 934.50 L 453.70 936.60 L 468.00 938.30 L 482.50 939.60 L 497.10 940.30 L 512.00 940.60 Z" fill="#ffffff" fill-rule="evenodd" group-id="1,2" hidden="true" id="椭圆形" node-id="51" stroke="none" target-height="857.19995" target-width="857.19995" target-x="83.4" target-y="83.4" visibility="hidden"></path><path d="M 526.20 936.80 L 527.60 937.00 L 528.70 937.70 L 529.50 938.80 L 529.80 940.20 L 529.60 941.60 L 528.90 942.80 L 527.80 943.60 L 526.40 943.90 L 512.00 944.10 L 510.60 943.90 L 509.50 943.10 L 508.70 942.00 L 508.40 940.60 L 508.70 939.20 L 509.50 938.00 L 510.60 937.30 L 512.00 937.00 L 526.20 936.80 Z M 476.60 935.60 L 491.00 936.50 L 492.40 936.80 L 493.40 937.70 L 494.10 938.80 L 494.40 940.20 L 494.00 941.60 L 493.20 942.70 L 492.00 943.40 L 490.60 943.60 L 476.20 942.70 L 474.90 942.30 L 473.80 941.40 L 473.20 940.30 L 473.00 938.80 L 473.40 937.50 L 474.20 936.40 L 475.40 935.70 L 476.60 935.60 Z M 568.50 933.30 L 569.90 933.40 L 571.10 934.00 L 572.00 935.00 L 572.50 936.30 L 572.40 937.80 L 571.80 939.00 L 570.80 939.90 L 569.40 940.40 L 555.10 942.00 L 553.70 941.90 L 552.50 941.20 L 551.70 940.20 L 551.20 938.80 L 551.40 937.40 L 552.00 936.20 L 553.10 935.30 L 554.40 934.90 L 568.50 933.30 Z M 430.50 932.90 L 431.10 931.50 L 432.00 930.60 L 433.30 930.00 L 434.70 930.00 L 448.70 932.30 L 450.00 932.80 L 451.00 933.70 L 451.60 934.90 L 451.70 936.40 L 451.20 937.70 L 450.30 938.70 L 449.00 939.30 L 447.60 939.40 L 433.40 937.00 L 432.10 936.50 L 431.10 935.50 L 430.60 934.30 L 430.50 932.90 Z M 610.30 925.60 L 611.70 925.50 L 613.00 926.00 L 614.00 926.90 L 614.60 928.20 L 614.60 929.70 L 614.20 930.90 L 613.20 931.90 L 611.90 932.50 L 597.90 935.60 L 596.40 935.60 L 595.20 935.10 L 594.20 934.10 L 593.70 932.80 L 593.70 931.40 L 594.20 930.10 L 595.10 929.20 L 596.50 928.60 L 610.30 925.60 Z M 388.90 922.70 L 389.60 921.40 L 390.60 920.50 L 391.90 920.10 L 393.30 920.20 L 407.00 923.90 L 408.30 924.60 L 409.20 925.60 L 409.70 926.80 L 409.60 928.30 L 409.00 929.60 L 408.00 930.50 L 406.70 930.90 L 405.30 930.90 L 391.40 927.10 L 390.10 926.40 L 389.20 925.40 L 388.80 924.10 L 388.90 922.70 Z M 651.10 913.70 L 652.60 913.50 L 653.90 913.90 L 655.00 914.70 L 655.70 915.90 L 655.90 917.30 L 655.50 918.60 L 654.70 919.70 L 653.50 920.50 L 639.80 924.90 L 638.30 925.10 L 637.00 924.70 L 636.00 923.80 L 635.30 922.60 L 635.20 921.20 L 635.60 919.90 L 636.40 918.80 L 637.70 918.10 L 651.10 913.70 Z M 348.50 908.30 L 349.30 907.10 L 350.40 906.40 L 351.80 906.10 L 353.20 906.30 L 366.40 911.40 L 367.60 912.20 L 368.40 913.30 L 368.70 914.60 L 368.50 916.00 L 367.80 917.20 L 366.70 918.00 L 365.40 918.30 L 364.00 918.10 L 350.50 913.00 L 349.30 912.20 L 348.60 911.00 L 348.30 909.70 L 348.50 908.30 Z M 690.50 897.80 L 691.90 897.50 L 693.20 897.70 L 694.40 898.40 L 695.20 899.60 L 695.50 901.00 L 695.30 902.30 L 694.60 903.50 L 693.50 904.30 L 680.30 910.10 L 678.90 910.40 L 677.60 910.20 L 676.40 909.40 L 675.60 908.20 L 675.30 906.80 L 675.60 905.50 L 676.30 904.40 L 677.50 903.60 L 690.50 897.80 Z M 309.80 890.00 L 310.70 888.90 L 311.90 888.20 L 313.20 888.10 L 314.60 888.50 L 327.20 894.80 L 328.40 895.70 L 329.00 896.90 L 329.20 898.20 L 328.90 899.60 L 328.00 900.70 L 326.80 901.40 L 325.50 901.60 L 324.10 901.30 L 311.30 894.80 L 310.10 893.90 L 309.50 892.70 L 309.40 891.30 L 309.80 890.00 Z M 728.10 878.00 L 729.50 877.60 L 730.80 877.60 L 732.00 878.20 L 733.00 879.30 L 733.50 880.60 L 733.40 882.00 L 732.80 883.20 L 731.70 884.20 L 719.20 891.30 L 717.90 891.70 L 716.50 891.60 L 715.30 891.00 L 714.40 889.90 L 714.00 888.50 L 714.10 887.20 L 714.70 886.00 L 715.80 885.00 L 728.10 878.00 Z M 273.00 867.80 L 274.00 866.80 L 275.30 866.30 L 276.70 866.30 L 278.00 866.80 L 289.90 874.40 L 291.00 875.40 L 291.50 876.70 L 291.60 878.00 L 291.10 879.40 L 290.10 880.40 L 288.90 881.00 L 287.50 881.00 L 286.20 880.50 L 274.00 872.80 L 273.00 871.80 L 272.50 870.50 L 272.50 869.20 L 273.00 867.80 Z M 763.60 854.60 L 764.90 854.00 L 766.20 853.90 L 767.50 854.40 L 768.60 855.30 L 769.20 856.60 L 769.20 858.00 L 768.80 859.30 L 767.80 860.30 L 756.10 868.70 L 754.70 869.20 L 753.40 869.20 L 752.10 868.70 L 751.10 867.80 L 750.50 866.40 L 750.50 865.10 L 751.00 863.80 L 752.00 862.80 L 763.60 854.60 Z M 238.70 842.20 L 239.80 841.30 L 241.10 840.90 L 242.50 841.00 L 243.70 841.70 L 254.90 850.40 L 255.80 851.50 L 256.20 852.80 L 256.20 854.10 L 255.60 855.40 L 254.50 856.40 L 253.20 856.80 L 251.80 856.70 L 250.50 856.10 L 239.20 847.20 L 238.30 846.10 L 237.90 844.80 L 238.10 843.40 L 238.70 842.20 Z M 796.50 827.70 L 797.70 827.00 L 799.10 826.80 L 800.40 827.10 L 801.60 828.00 L 802.30 829.20 L 802.50 830.60 L 802.10 831.90 L 801.30 833.00 L 790.40 842.50 L 789.20 843.20 L 787.80 843.30 L 786.50 842.90 L 785.40 842.10 L 784.70 840.80 L 784.60 839.50 L 785.00 838.10 L 785.80 837.00 L 796.50 827.70 Z M 207.10 813.20 L 208.30 812.40 L 209.60 812.20 L 211.00 812.40 L 212.20 813.20 L 222.40 823.00 L 223.20 824.20 L 223.50 825.50 L 223.30 826.90 L 222.60 828.10 L 221.40 828.90 L 220.10 829.20 L 218.70 829.00 L 217.50 828.30 L 207.10 818.30 L 206.30 817.10 L 206.10 815.70 L 206.30 814.40 L 207.10 813.20 Z M 826.60 797.80 L 827.70 796.90 L 829.00 796.60 L 830.40 796.80 L 831.60 797.50 L 832.50 798.70 L 832.80 800.00 L 832.60 801.40 L 831.90 802.60 L 822.00 813.10 L 820.80 813.90 L 819.50 814.20 L 818.10 813.90 L 816.90 813.20 L 816.10 812.00 L 815.90 810.60 L 816.10 809.30 L 816.90 808.10 L 826.60 797.80 Z M 178.60 781.30 L 179.90 780.70 L 181.20 780.50 L 182.50 780.90 L 183.60 781.80 L 192.80 792.60 L 193.50 793.90 L 193.70 795.20 L 193.30 796.50 L 192.50 797.70 L 191.20 798.40 L 189.90 798.50 L 188.60 798.20 L 187.40 797.30 L 178.10 786.40 L 177.40 785.10 L 177.30 783.80 L 177.70 782.50 L 178.60 781.30 Z M 853.60 765.00 L 854.60 764.00 L 855.90 763.50 L 857.30 763.60 L 858.60 764.20 L 859.50 765.30 L 860.00 766.60 L 859.90 767.90 L 859.30 769.20 L 850.50 780.60 L 849.40 781.50 L 848.10 782.00 L 846.80 781.90 L 845.50 781.20 L 844.60 780.10 L 844.20 778.80 L 844.30 777.50 L 844.90 776.20 L 853.60 765.00 Z M 153.30 746.70 L 154.60 746.10 L 156.00 746.20 L 157.30 746.70 L 158.30 747.70 L 166.30 759.30 L 166.90 760.60 L 167.00 762.00 L 166.50 763.30 L 165.50 764.30 L 164.20 764.90 L 162.90 764.90 L 161.60 764.50 L 160.50 763.50 L 152.30 751.60 L 151.80 750.30 L 151.80 749.00 L 152.30 747.70 L 153.30 746.70 Z M 877.20 729.60 L 878.10 728.50 L 879.30 728.00 L 880.70 727.90 L 882.00 728.40 L 883.10 729.30 L 883.70 730.50 L 883.80 731.90 L 883.30 733.30 L 875.70 745.50 L 874.70 746.50 L 873.50 747.00 L 872.10 747.10 L 870.80 746.60 L 869.70 745.60 L 869.20 744.30 L 869.20 743.00 L 869.70 741.60 L 877.20 729.60 Z M 131.60 709.70 L 133.00 709.30 L 134.40 709.50 L 135.60 710.10 L 136.50 711.20 L 143.30 723.60 L 143.80 725.00 L 143.70 726.30 L 143.10 727.50 L 142.00 728.50 L 140.70 728.90 L 139.30 728.80 L 138.10 728.20 L 137.10 727.20 L 130.20 714.60 L 129.80 713.20 L 129.90 711.80 L 130.50 710.60 L 131.60 709.70 Z M 897.10 692.10 L 897.90 690.90 L 899.10 690.20 L 900.40 690.00 L 901.80 690.30 L 903.00 691.20 L 903.70 692.40 L 903.90 693.70 L 903.60 695.10 L 897.20 708.00 L 896.30 709.10 L 895.10 709.80 L 893.80 710.00 L 892.40 709.60 L 891.30 708.70 L 890.60 707.50 L 890.50 706.20 L 890.90 704.80 L 897.10 692.10 Z M 113.80 670.80 L 115.20 670.50 L 116.50 670.80 L 117.70 671.60 L 118.40 672.70 L 124.00 685.80 L 124.30 687.20 L 124.10 688.50 L 123.40 689.60 L 122.20 690.50 L 120.80 690.80 L 119.50 690.60 L 118.30 689.80 L 117.50 688.70 L 111.80 675.40 L 111.60 674.00 L 111.80 672.70 L 112.60 671.60 L 113.80 670.80 Z M 913.20 652.70 L 913.90 651.50 L 915.00 650.70 L 916.30 650.30 L 917.70 650.50 L 918.90 651.30 L 919.70 652.40 L 920.10 653.70 L 919.90 655.10 L 914.90 668.60 L 914.10 669.80 L 913.00 670.60 L 911.70 670.90 L 910.30 670.60 L 909.10 669.90 L 908.30 668.70 L 908.00 667.40 L 908.20 666.00 L 913.20 652.70 Z M 99.90 630.20 L 101.40 630.10 L 102.70 630.50 L 103.70 631.40 L 104.40 632.70 L 108.60 646.20 L 108.80 647.60 L 108.40 648.90 L 107.60 650.00 L 106.30 650.70 L 104.90 650.90 L 103.60 650.50 L 102.50 649.70 L 101.80 648.40 L 97.50 634.70 L 97.40 633.30 L 97.80 632.00 L 98.70 630.90 L 99.90 630.20 Z M 925.20 611.90 L 925.80 610.60 L 926.80 609.70 L 928.10 609.30 L 929.50 609.30 L 930.80 609.90 L 931.70 610.90 L 932.20 612.20 L 932.10 613.60 L 928.50 627.60 L 927.90 628.80 L 926.80 629.70 L 925.60 630.10 L 924.10 630.00 L 922.90 629.40 L 922.00 628.40 L 921.50 627.10 L 921.60 625.60 L 925.20 611.90 Z M 90.20 588.50 L 91.70 588.60 L 92.90 589.10 L 93.90 590.10 L 94.40 591.40 L 97.30 605.30 L 97.30 606.70 L 96.80 608.00 L 95.90 608.90 L 94.60 609.50 L 93.10 609.60 L 91.90 609.10 L 90.90 608.10 L 90.30 606.80 L 87.40 592.70 L 87.40 591.30 L 87.90 590.00 L 88.90 589.10 L 90.20 588.50 Z M 933.10 570.10 L 933.50 568.80 L 934.40 567.80 L 935.70 567.20 L 937.10 567.10 L 938.40 567.60 L 939.40 568.50 L 940.00 569.70 L 940.10 571.10 L 937.90 585.40 L 937.40 586.70 L 936.50 587.70 L 935.20 588.20 L 933.80 588.30 L 932.50 587.80 L 931.50 586.80 L 930.90 585.60 L 930.90 584.10 L 933.10 570.10 Z M 84.70 546.00 L 86.20 546.20 L 87.40 546.80 L 88.20 547.90 L 88.60 549.30 L 90.10 563.30 L 90.00 564.80 L 89.30 566.00 L 88.30 566.90 L 87.00 567.30 L 85.50 567.20 L 84.30 566.60 L 83.40 565.60 L 83.00 564.20 L 81.50 549.90 L 81.70 548.50 L 82.30 547.30 L 83.40 546.40 L 84.70 546.00 Z M 940.20 524.40 L 941.80 524.70 L 942.90 525.50 L 943.60 526.70 L 943.80 528.10 L 943.10 542.50 L 942.70 543.90 L 941.90 544.90 L 940.70 545.60 L 939.30 545.80 L 937.90 545.40 L 936.80 544.60 L 936.10 543.40 L 936.00 542.00 L 936.70 527.80 L 937.00 526.40 L 937.80 525.30 L 939.00 524.60 L 940.20 524.40 Z M 83.50 503.20 L 84.90 503.50 L 86.00 504.30 L 86.80 505.40 L 87.00 506.80 L 87.10 521.00 L 86.80 522.40 L 86.10 523.50 L 85.00 524.30 L 83.60 524.60 L 82.20 524.40 L 81.00 523.60 L 80.30 522.50 L 80.00 521.10 L 79.90 512.00 L 79.90 506.70 L 80.20 505.30 L 81.00 504.20 L 82.10 503.50 L 83.50 503.20 Z M 939.50 481.60 L 940.90 481.80 L 942.10 482.50 L 942.90 483.60 L 943.30 485.00 L 944.00 499.40 L 943.70 500.80 L 943.00 501.90 L 941.90 502.70 L 940.50 503.00 L 939.10 502.80 L 937.90 502.00 L 937.10 500.90 L 936.80 499.60 L 936.20 485.40 L 936.40 484.00 L 937.10 482.80 L 938.10 482.00 L 939.50 481.60 Z M 82.50 463.70 L 83.00 462.40 L 83.80 461.30 L 85.00 460.70 L 86.50 460.60 L 87.80 461.00 L 88.90 461.90 L 89.50 463.10 L 89.60 464.50 L 88.30 478.60 L 87.90 480.00 L 87.10 481.10 L 85.90 481.70 L 84.50 481.90 L 83.10 481.50 L 82.00 480.70 L 81.30 479.50 L 81.20 478.10 L 82.50 463.70 Z M 934.40 439.10 L 935.80 439.20 L 937.10 439.70 L 938.00 440.70 L 938.50 442.10 L 940.60 456.30 L 940.50 457.70 L 939.90 458.90 L 938.90 459.80 L 937.50 460.30 L 936.10 460.20 L 934.90 459.60 L 934.00 458.60 L 933.50 457.20 L 931.50 443.20 L 931.50 441.80 L 932.10 440.50 L 933.10 439.60 L 934.40 439.10 Z M 89.50 421.00 L 90.00 419.70 L 91.00 418.80 L 92.30 418.30 L 93.70 418.30 L 95.00 418.90 L 95.90 419.80 L 96.50 421.10 L 96.40 422.50 L 93.70 436.40 L 93.20 437.80 L 92.20 438.70 L 91.00 439.30 L 89.60 439.30 L 88.20 438.80 L 87.30 437.80 L 86.70 436.60 L 86.70 435.20 L 89.50 421.00 Z M 925.10 397.30 L 926.50 397.20 L 927.80 397.60 L 928.80 398.50 L 929.40 399.80 L 932.90 413.80 L 933.00 415.20 L 932.50 416.50 L 931.60 417.50 L 930.30 418.10 L 928.80 418.10 L 927.60 417.60 L 926.60 416.70 L 926.00 415.40 L 922.50 401.60 L 922.40 400.20 L 922.90 398.90 L 923.80 397.90 L 925.10 397.30 Z M 100.60 379.20 L 101.30 378.00 L 102.40 377.20 L 103.70 376.80 L 105.10 376.90 L 106.40 377.60 L 107.20 378.70 L 107.60 380.00 L 107.40 381.40 L 103.30 395.00 L 102.70 396.30 L 101.60 397.10 L 100.30 397.60 L 98.90 397.40 L 97.60 396.80 L 96.80 395.70 L 96.30 394.40 L 96.40 393.00 L 100.60 379.20 Z M 911.50 356.60 L 912.90 356.40 L 914.30 356.70 L 915.40 357.40 L 916.10 358.70 L 921.00 372.20 L 921.20 373.60 L 920.90 374.90 L 920.00 376.00 L 918.80 376.70 L 917.40 376.90 L 916.10 376.60 L 915.00 375.70 L 914.30 374.50 L 909.50 361.20 L 909.20 359.80 L 909.50 358.50 L 910.30 357.30 L 911.50 356.60 Z M 116.00 338.80 L 116.80 337.70 L 117.90 336.90 L 119.30 336.70 L 120.70 337.00 L 121.80 337.80 L 122.60 339.00 L 122.80 340.30 L 122.50 341.70 L 117.00 354.80 L 116.30 356.00 L 115.10 356.70 L 113.80 357.00 L 112.40 356.80 L 111.20 356.00 L 110.40 354.90 L 110.10 353.50 L 110.40 352.10 L 116.00 338.80 Z M 894.00 317.50 L 895.40 317.10 L 896.70 317.30 L 897.90 318.00 L 898.80 319.10 L 905.00 332.10 L 905.40 333.50 L 905.10 334.90 L 904.40 336.00 L 903.30 336.90 L 901.90 337.20 L 900.60 337.00 L 899.40 336.30 L 898.50 335.10 L 892.40 322.30 L 892.10 320.90 L 892.20 319.60 L 892.90 318.40 L 894.00 317.50 Z M 135.20 300.20 L 136.20 299.10 L 137.40 298.50 L 138.80 298.40 L 140.10 298.80 L 141.20 299.80 L 141.80 301.00 L 141.90 302.30 L 141.50 303.70 L 134.70 316.10 L 133.80 317.20 L 132.60 317.90 L 131.30 318.00 L 129.90 317.70 L 128.80 316.80 L 128.20 315.60 L 128.00 314.20 L 128.40 312.80 L 135.20 300.20 Z M 872.70 280.40 L 874.00 279.90 L 875.40 279.90 L 876.60 280.40 L 877.60 281.50 L 885.10 293.80 L 885.50 295.10 L 885.40 296.50 L 884.90 297.70 L 883.80 298.70 L 882.40 299.10 L 881.10 299.00 L 879.90 298.50 L 878.90 297.40 L 871.50 285.30 L 871.00 284.00 L 871.10 282.60 L 871.60 281.40 L 872.70 280.40 Z M 158.30 263.60 L 159.40 262.60 L 160.60 262.10 L 162.00 262.20 L 163.30 262.70 L 164.30 263.80 L 164.80 265.10 L 164.70 266.40 L 164.20 267.70 L 156.20 279.40 L 155.20 280.50 L 154.00 281.00 L 152.60 281.00 L 151.30 280.50 L 150.30 279.50 L 149.70 278.20 L 149.70 276.90 L 150.20 275.50 L 158.30 263.60 Z M 847.70 245.50 L 849.00 244.90 L 850.30 244.80 L 851.60 245.20 L 852.70 246.10 L 861.40 257.60 L 862.00 258.90 L 862.00 260.30 L 861.60 261.60 L 860.60 262.60 L 859.30 263.20 L 857.90 263.30 L 856.70 262.80 L 855.60 261.80 L 847.10 250.50 L 846.40 249.30 L 846.30 247.90 L 846.80 246.60 L 847.70 245.50 Z M 184.90 229.50 L 186.10 228.70 L 187.40 228.30 L 188.70 228.50 L 190.00 229.20 L 190.80 230.30 L 191.20 231.60 L 191.00 233.00 L 190.30 234.20 L 181.30 245.10 L 180.10 246.00 L 178.90 246.40 L 177.50 246.30 L 176.20 245.60 L 175.30 244.50 L 174.90 243.20 L 175.00 241.90 L 175.70 240.60 L 184.90 229.50 Z M 819.40 213.30 L 820.60 212.60 L 821.90 212.30 L 823.30 212.60 L 824.40 213.40 L 834.20 224.00 L 834.90 225.20 L 835.10 226.60 L 834.80 227.90 L 833.90 229.10 L 832.70 229.80 L 831.30 230.00 L 830.00 229.60 L 828.90 228.80 L 819.30 218.40 L 818.50 217.20 L 818.30 215.80 L 818.60 214.50 L 819.40 213.30 Z M 214.70 198.30 L 216.00 197.60 L 217.30 197.40 L 218.60 197.60 L 219.80 198.50 L 220.50 199.70 L 220.80 201.00 L 220.50 202.30 L 219.70 203.50 L 209.50 213.40 L 208.30 214.20 L 207.00 214.50 L 205.70 214.30 L 204.50 213.50 L 203.70 212.30 L 203.40 211.00 L 203.70 209.60 L 204.50 208.40 L 214.70 198.30 Z M 788.10 184.20 L 789.20 183.30 L 790.50 182.90 L 791.90 183.10 L 793.10 183.80 L 803.90 193.30 L 804.70 194.50 L 805.10 195.80 L 804.90 197.20 L 804.10 198.40 L 803.00 199.20 L 801.60 199.50 L 800.30 199.30 L 799.10 198.60 L 788.50 189.20 L 787.60 188.10 L 787.20 186.80 L 787.40 185.40 L 788.10 184.20 Z M 247.50 170.20 L 248.80 169.60 L 250.20 169.50 L 251.40 169.90 L 252.50 170.90 L 253.20 172.10 L 253.20 173.50 L 252.80 174.80 L 251.90 175.90 L 240.80 184.70 L 239.60 185.40 L 238.20 185.50 L 236.90 185.20 L 235.80 184.30 L 235.10 183.00 L 235.00 181.60 L 235.40 180.30 L 236.30 179.20 L 247.50 170.20 Z M 754.00 158.20 L 755.00 157.20 L 756.30 156.70 L 757.60 156.70 L 758.90 157.30 L 770.60 165.70 L 771.60 166.80 L 772.00 168.10 L 771.90 169.50 L 771.30 170.70 L 770.30 171.70 L 769.00 172.10 L 767.60 172.10 L 766.30 171.50 L 754.80 163.20 L 753.90 162.10 L 753.40 160.90 L 753.40 159.50 L 754.00 158.20 Z M 283.00 145.50 L 284.30 145.00 L 285.70 145.00 L 286.90 145.60 L 287.90 146.60 L 288.40 147.90 L 288.40 149.30 L 287.80 150.50 L 286.80 151.50 L 274.90 159.20 L 273.60 159.80 L 272.20 159.80 L 271.00 159.30 L 269.90 158.30 L 269.40 156.90 L 269.40 155.60 L 269.90 154.30 L 270.90 153.30 L 283.00 145.50 Z M 717.50 135.80 L 718.40 134.70 L 719.60 134.10 L 721.00 134.00 L 722.30 134.40 L 734.80 141.60 L 735.80 142.60 L 736.40 143.80 L 736.50 145.20 L 736.00 146.50 L 735.00 147.60 L 733.80 148.20 L 732.40 148.20 L 731.10 147.70 L 718.80 140.60 L 717.80 139.70 L 717.10 138.50 L 717.00 137.10 L 717.50 135.80 Z M 320.70 124.40 L 322.10 124.00 L 323.40 124.20 L 324.60 124.90 L 325.50 126.00 L 325.80 127.40 L 325.70 128.70 L 325.00 129.90 L 323.90 130.80 L 311.30 137.30 L 309.90 137.70 L 308.60 137.60 L 307.30 136.90 L 306.40 135.80 L 306.00 134.50 L 306.20 133.10 L 306.80 131.90 L 307.90 131.00 L 320.70 124.40 Z M 678.90 117.10 L 679.70 115.90 L 680.80 115.20 L 682.20 115.00 L 683.50 115.20 L 696.70 121.20 L 697.80 122.00 L 698.50 123.20 L 698.70 124.60 L 698.40 125.90 L 697.50 127.10 L 696.30 127.80 L 695.00 128.00 L 693.60 127.60 L 680.70 121.80 L 679.50 121.00 L 678.80 119.80 L 678.60 118.50 L 678.90 117.10 Z M 360.30 107.20 L 361.70 107.00 L 363.00 107.30 L 364.10 108.10 L 364.90 109.30 L 365.10 110.70 L 364.80 112.10 L 364.00 113.20 L 362.80 113.90 L 349.60 119.10 L 348.20 119.40 L 346.90 119.10 L 345.80 118.40 L 345.00 117.20 L 344.70 115.80 L 345.00 114.50 L 345.70 113.30 L 346.90 112.50 L 360.30 107.20 Z M 638.60 102.40 L 639.30 101.20 L 640.30 100.30 L 641.60 99.90 L 643.10 100.10 L 656.70 104.70 L 657.90 105.40 L 658.70 106.50 L 659.10 107.80 L 658.90 109.20 L 658.10 110.50 L 657.10 111.30 L 655.70 111.60 L 654.30 111.40 L 640.90 106.90 L 639.70 106.20 L 638.80 105.10 L 638.40 103.80 L 638.60 102.40 Z M 401.50 94.10 L 402.90 94.00 L 404.20 94.50 L 405.20 95.40 L 405.90 96.70 L 406.00 98.10 L 405.50 99.40 L 404.60 100.40 L 403.30 101.00 L 389.70 104.90 L 388.30 105.00 L 387.00 104.60 L 385.90 103.70 L 385.30 102.50 L 385.10 101.00 L 385.50 99.70 L 386.40 98.70 L 387.70 98.00 L 401.50 94.10 Z M 597.00 91.80 L 597.60 90.50 L 598.60 89.60 L 599.80 89.10 L 601.30 89.10 L 615.30 92.30 L 616.60 92.90 L 617.50 93.90 L 618.00 95.20 L 617.90 96.60 L 617.30 97.90 L 616.30 98.80 L 615.00 99.30 L 613.60 99.20 L 599.80 96.10 L 598.50 95.50 L 597.50 94.50 L 597.00 93.30 L 597.00 91.80 Z M 443.80 85.20 L 445.20 85.30 L 446.40 85.80 L 447.40 86.80 L 447.90 88.20 L 447.80 89.60 L 447.20 90.80 L 446.20 91.80 L 444.90 92.30 L 431.00 94.70 L 429.50 94.70 L 428.30 94.20 L 427.30 93.20 L 426.80 91.90 L 426.80 90.50 L 427.30 89.20 L 428.30 88.20 L 429.60 87.70 L 443.80 85.20 Z M 554.60 85.50 L 555.10 84.10 L 556.00 83.10 L 557.20 82.50 L 558.60 82.30 L 572.90 84.10 L 574.20 84.60 L 575.20 85.50 L 575.80 86.70 L 575.90 88.10 L 575.40 89.50 L 574.50 90.50 L 573.30 91.10 L 571.90 91.20 L 557.80 89.40 L 556.50 89.00 L 555.40 88.10 L 554.80 86.90 L 554.60 85.50 Z M 486.70 80.60 L 488.10 80.80 L 489.30 81.50 L 490.10 82.60 L 490.50 83.90 L 490.30 85.40 L 489.60 86.50 L 488.50 87.30 L 487.10 87.70 L 473.00 88.80 L 471.60 88.60 L 470.40 88.00 L 469.50 86.90 L 469.10 85.50 L 469.30 84.10 L 469.90 82.90 L 471.00 82.10 L 472.40 81.70 L 486.70 80.60 Z M 515.50 79.90 L 529.90 80.20 L 531.30 80.60 L 532.40 81.40 L 533.10 82.50 L 533.30 83.90 L 533.00 85.30 L 532.20 86.40 L 531.00 87.10 L 529.60 87.40 L 515.40 87.00 L 514.00 86.70 L 512.90 85.90 L 512.20 84.80 L 511.90 83.40 L 512.20 82.00 L 513.00 80.90 L 514.10 80.10 L 515.50 79.90 Z" fill="#ebedf0" fill-opacity="0.6587904" fill-rule="nonzero" group-id="1,2" hidden="true" id="椭圆形" node-id="52" stroke="none" target-height="864.19995" target-width="864.1" target-x="79.9" target-y="79.9" visibility="hidden"></path><g node-id="250"><g node-id="258"><path d="M 912.00 512.00 L 911.70 528.00 L 910.70 543.80 L 909.20 559.40 L 907.00 575.00 L 904.20 590.40 L 900.90 605.70 L 896.90 620.90 L 892.40 635.80 L 887.20 650.50 L 881.60 665.10 L 875.30 679.40 L 868.50 693.40 L 861.10 707.20 L 853.30 720.70 L 844.80 733.90 L 835.80 746.80 L 826.40 759.30 L 816.40 771.50 L 805.90 783.30 L 794.80 794.80 L 783.30 805.90 L 771.50 816.40 L 759.30 826.40 L 746.80 835.80 L 733.90 844.80 L 720.70 853.30 L 707.20 861.10 L 693.40 868.50 L 679.40 875.30 L 665.10 881.60 L 650.50 887.20 L 635.80 892.40 L 620.90 896.90 L 605.70 900.90 L 590.40 904.20 L 575.00 907.00 L 559.40 909.20 L 543.80 910.70 L 528.00 911.70 L 512.00 912.00 L 496.00 911.70 L 480.20 910.70 L 464.60 909.20 L 449.00 907.00 L 433.60 904.20 L 418.30 900.90 L 403.10 896.90 L 388.20 892.40 L 373.50 887.20 L 358.90 881.60 L 344.60 875.30 L 330.60 868.50 L 316.80 861.10 L 303.30 853.30 L 290.10 844.80 L 277.20 835.80 L 264.70 826.40 L 252.50 816.40 L 240.70 805.90 L 229.20 794.80 L 218.10 783.30 L 207.60 771.50 L 197.60 759.30 L 188.20 746.80 L 179.20 733.90 L 170.70 720.70 L 162.90 707.20 L 155.50 693.40 L 148.70 679.40 L 142.40 665.10 L 136.80 650.50 L 131.60 635.80 L 127.10 620.90 L 123.10 605.70 L 119.80 590.40 L 117.00 575.00 L 114.80 559.40 L 113.30 543.80 L 112.30 528.00 L 112.00 512.00 L 112.30 496.00 L 113.30 480.20 L 114.80 464.60 L 117.00 449.00 L 119.80 433.60 L 123.10 418.30 L 127.10 403.10 L 131.60 388.20 L 136.80 373.50 L 142.40 358.90 L 148.70 344.60 L 155.50 330.60 L 162.90 316.80 L 170.70 303.30 L 179.20 290.10 L 188.20 277.20 L 197.60 264.70 L 207.60 252.50 L 218.10 240.70 L 229.20 229.20 L 240.70 218.10 L 252.50 207.60 L 264.70 197.60 L 277.20 188.20 L 290.10 179.20 L 303.30 170.70 L 316.80 162.90 L 330.60 155.50 L 344.60 148.70 L 358.90 142.40 L 373.50 136.80 L 388.20 131.60 L 403.10 127.10 L 418.30 123.10 L 433.60 119.80 L 449.00 117.00 L 464.60 114.80 L 480.20 113.30 L 496.00 112.30 L 512.00 112.00 L 528.00 112.30 L 543.80 113.30 L 559.40 114.80 L 575.00 117.00 L 590.40 119.80 L 605.70 123.10 L 620.90 127.10 L 635.80 131.60 L 650.50 136.80 L 665.10 142.40 L 679.40 148.70 L 693.40 155.50 L 707.20 162.90 L 720.70 170.70 L 733.90 179.20 L 746.80 188.20 L 759.30 197.60 L 771.50 207.60 L 783.30 218.10 L 794.80 229.20 L 805.90 240.70 L 816.40 252.50 L 826.40 264.70 L 835.80 277.20 L 844.80 290.10 L 853.30 303.30 L 861.10 316.80 L 868.50 330.60 L 875.30 344.60 L 881.60 358.90 L 887.20 373.50 L 892.40 388.20 L 896.90 403.10 L 900.90 418.30 L 904.20 433.60 L 907.00 449.00 L 909.20 464.60 L 910.70 480.20 L 911.70 496.00 L 912.00 512.00 Z" fill="url(#linearGradient-1)" fill-rule="evenodd" group-id="1,2,4,12" hidden="true" node-id="199" stroke="none" target-height="800" target-width="800" target-x="112" target-y="112" visibility="hidden"></path></g><path d="M 779.70 572.70 L 781.10 573.00 L 782.30 573.80 L 783.00 574.90 L 783.30 576.30 L 783.00 577.70 L 782.30 578.80 L 781.10 579.60 L 779.70 579.90 L 772.60 579.90 L 771.20 579.60 L 770.10 578.80 L 769.30 577.70 L 769.00 576.30 L 769.30 574.90 L 770.10 573.80 L 771.20 573.00 L 772.60 572.70 L 779.70 572.70 Z M 608.30 572.70 L 609.70 573.00 L 610.80 573.80 L 611.60 574.90 L 611.90 576.30 L 611.60 577.70 L 610.80 578.80 L 609.70 579.60 L 608.30 579.90 L 601.20 579.90 L 599.80 579.60 L 598.70 578.80 L 597.90 577.70 L 597.60 576.30 L 597.90 574.90 L 598.70 573.80 L 599.80 573.00 L 601.20 572.70 L 608.30 572.70 Z M 636.90 572.70 L 638.30 573.00 L 639.40 573.80 L 640.20 574.90 L 640.50 576.30 L 640.20 577.70 L 639.40 578.80 L 638.30 579.60 L 636.90 579.90 L 629.70 579.90 L 628.30 579.60 L 627.20 578.80 L 626.50 577.70 L 626.20 576.30 L 626.50 574.90 L 627.20 573.80 L 628.30 573.00 L 629.70 572.70 L 636.90 572.70 Z M 665.50 572.70 L 666.90 573.00 L 668.00 573.80 L 668.70 574.90 L 669.00 576.30 L 668.70 577.70 L 668.00 578.80 L 666.90 579.60 L 665.50 579.90 L 658.30 579.90 L 656.90 579.60 L 655.80 578.80 L 655.00 577.70 L 654.70 576.30 L 655.00 574.90 L 655.80 573.80 L 656.90 573.00 L 658.30 572.70 L 665.50 572.70 Z M 694.00 572.70 L 695.40 573.00 L 696.60 573.80 L 697.30 574.90 L 697.60 576.30 L 697.30 577.70 L 696.60 578.80 L 695.40 579.60 L 694.00 579.90 L 686.90 579.90 L 685.50 579.60 L 684.40 578.80 L 683.60 577.70 L 683.30 576.30 L 683.60 574.90 L 684.40 573.80 L 685.50 573.00 L 686.90 572.70 L 694.00 572.70 Z M 722.60 572.70 L 724.00 573.00 L 725.10 573.80 L 725.90 574.90 L 726.20 576.30 L 725.90 577.70 L 725.10 578.80 L 724.00 579.60 L 722.60 579.90 L 715.50 579.90 L 714.10 579.60 L 712.90 578.80 L 712.20 577.70 L 711.90 576.30 L 712.20 574.90 L 712.90 573.80 L 714.10 573.00 L 715.50 572.70 L 722.60 572.70 Z M 751.20 572.70 L 752.60 573.00 L 753.70 573.80 L 754.50 574.90 L 754.70 576.30 L 754.50 577.70 L 753.70 578.80 L 752.60 579.60 L 751.20 579.90 L 744.00 579.90 L 742.60 579.60 L 741.50 578.80 L 740.70 577.70 L 740.50 576.30 L 740.70 574.90 L 741.50 573.80 L 742.60 573.00 L 744.00 572.70 L 751.20 572.70 Z M 579.70 572.70 L 581.10 573.00 L 582.30 573.80 L 583.00 574.90 L 583.30 576.30 L 583.00 577.70 L 582.30 578.80 L 581.10 579.60 L 579.70 579.90 L 572.60 579.90 L 571.20 579.60 L 570.10 578.80 L 569.30 577.70 L 569.00 576.30 L 569.30 574.90 L 570.10 573.80 L 571.20 573.00 L 572.60 572.70 L 579.70 572.70 Z M 236.90 572.70 L 238.30 573.00 L 239.40 573.80 L 240.20 574.90 L 240.50 576.30 L 240.20 577.70 L 239.40 578.80 L 238.30 579.60 L 236.90 579.90 L 229.70 579.90 L 228.30 579.60 L 227.20 578.80 L 226.50 577.70 L 226.20 576.30 L 226.50 574.90 L 227.20 573.80 L 228.30 573.00 L 229.70 572.70 L 236.90 572.70 Z M 265.50 572.70 L 266.90 573.00 L 268.00 573.80 L 268.70 574.90 L 269.00 576.30 L 268.70 577.70 L 268.00 578.80 L 266.90 579.60 L 265.50 579.90 L 258.30 579.90 L 256.90 579.60 L 255.80 578.80 L 255.00 577.70 L 254.70 576.30 L 255.00 574.90 L 255.80 573.80 L 256.90 573.00 L 258.30 572.70 L 265.50 572.70 Z M 294.00 572.70 L 295.40 573.00 L 296.60 573.80 L 297.30 574.90 L 297.60 576.30 L 297.30 577.70 L 296.60 578.80 L 295.40 579.60 L 294.00 579.90 L 286.90 579.90 L 285.50 579.60 L 284.40 578.80 L 283.60 577.70 L 283.30 576.30 L 283.60 574.90 L 284.40 573.80 L 285.50 573.00 L 286.90 572.70 L 294.00 572.70 Z M 322.60 572.70 L 324.00 573.00 L 325.10 573.80 L 325.90 574.90 L 326.20 576.30 L 325.90 577.70 L 325.10 578.80 L 324.00 579.60 L 322.60 579.90 L 315.50 579.90 L 314.10 579.60 L 312.90 578.80 L 312.20 577.70 L 311.90 576.30 L 312.20 574.90 L 312.90 573.80 L 314.10 573.00 L 315.50 572.70 L 322.60 572.70 Z M 351.20 572.70 L 352.60 573.00 L 353.70 573.80 L 354.50 574.90 L 354.70 576.30 L 354.50 577.70 L 353.70 578.80 L 352.60 579.60 L 351.20 579.90 L 344.00 579.90 L 342.60 579.60 L 341.50 578.80 L 340.70 577.70 L 340.50 576.30 L 340.70 574.90 L 341.50 573.80 L 342.60 573.00 L 344.00 572.70 L 351.20 572.70 Z M 379.70 572.70 L 381.10 573.00 L 382.30 573.80 L 383.00 574.90 L 383.30 576.30 L 383.00 577.70 L 382.30 578.80 L 381.10 579.60 L 379.70 579.90 L 372.60 579.90 L 371.20 579.60 L 370.10 578.80 L 369.30 577.70 L 369.00 576.30 L 369.30 574.90 L 370.10 573.80 L 371.20 573.00 L 372.60 572.70 L 379.70 572.70 Z M 408.30 572.70 L 409.70 573.00 L 410.80 573.80 L 411.60 574.90 L 411.90 576.30 L 411.60 577.70 L 410.80 578.80 L 409.70 579.60 L 408.30 579.90 L 401.20 579.90 L 399.80 579.60 L 398.70 578.80 L 397.90 577.70 L 397.60 576.30 L 397.90 574.90 L 398.70 573.80 L 399.80 573.00 L 401.20 572.70 L 408.30 572.70 Z M 436.90 572.70 L 438.30 573.00 L 439.40 573.80 L 440.20 574.90 L 440.50 576.30 L 440.20 577.70 L 439.40 578.80 L 438.30 579.60 L 436.90 579.90 L 429.70 579.90 L 428.30 579.60 L 427.20 578.80 L 426.50 577.70 L 426.20 576.30 L 426.50 574.90 L 427.20 573.80 L 428.30 573.00 L 429.70 572.70 L 436.90 572.70 Z M 465.50 572.70 L 466.90 573.00 L 468.00 573.80 L 468.70 574.90 L 469.00 576.30 L 468.70 577.70 L 468.00 578.80 L 466.90 579.60 L 465.50 579.90 L 458.30 579.90 L 456.90 579.60 L 455.80 578.80 L 455.00 577.70 L 454.70 576.30 L 455.00 574.90 L 455.80 573.80 L 456.90 573.00 L 458.30 572.70 L 465.50 572.70 Z M 494.00 572.70 L 495.40 573.00 L 496.60 573.80 L 497.30 574.90 L 497.60 576.30 L 497.30 577.70 L 496.60 578.80 L 495.40 579.60 L 494.00 579.90 L 486.90 579.90 L 485.50 579.60 L 484.40 578.80 L 483.60 577.70 L 483.30 576.30 L 483.60 574.90 L 484.40 573.80 L 485.50 573.00 L 486.90 572.70 L 494.00 572.70 Z M 522.60 572.70 L 524.00 573.00 L 525.10 573.80 L 525.90 574.90 L 526.20 576.30 L 525.90 577.70 L 525.10 578.80 L 524.00 579.60 L 522.60 579.90 L 515.50 579.90 L 514.10 579.60 L 512.90 578.80 L 512.20 577.70 L 511.90 576.30 L 512.20 574.90 L 512.90 573.80 L 514.10 573.00 L 515.50 572.70 L 522.60 572.70 Z M 551.20 572.70 L 552.60 573.00 L 553.70 573.80 L 554.50 574.90 L 554.70 576.30 L 554.50 577.70 L 553.70 578.80 L 552.60 579.60 L 551.20 579.90 L 544.00 579.90 L 542.60 579.60 L 541.50 578.80 L 540.70 577.70 L 540.50 576.30 L 540.70 574.90 L 541.50 573.80 L 542.60 573.00 L 544.00 572.70 L 551.20 572.70 Z M 808.00 572.60 L 809.40 572.70 L 810.60 573.40 L 811.50 574.40 L 811.90 575.80 L 811.70 577.20 L 811.10 578.40 L 810.00 579.30 L 808.70 579.70 L 804.90 579.90 L 801.20 579.90 L 799.80 579.60 L 798.70 578.80 L 797.90 577.70 L 797.60 576.30 L 797.90 574.90 L 798.70 573.80 L 799.80 573.00 L 801.20 572.70 L 808.00 572.60 Z M 198.90 569.70 L 199.90 568.70 L 201.10 568.10 L 202.50 568.10 L 209.60 571.20 L 210.80 571.90 L 211.60 573.00 L 212.00 574.30 L 211.80 575.70 L 211.10 577.00 L 210.10 577.80 L 208.70 578.20 L 207.30 578.00 L 203.60 576.50 L 200.10 574.70 L 199.10 573.70 L 198.50 572.40 L 198.40 571.10 L 198.90 569.70 Z M 828.90 559.90 L 829.90 558.90 L 831.20 558.40 L 832.50 558.30 L 833.90 558.80 L 834.90 559.80 L 835.40 561.10 L 835.50 562.40 L 835.00 563.80 L 832.60 567.00 L 829.90 570.00 L 828.70 570.70 L 827.40 571.00 L 826.10 570.70 L 824.90 569.90 L 824.10 568.70 L 823.90 567.40 L 824.20 566.00 L 828.90 559.90 Z M 186.90 544.60 L 188.40 544.70 L 189.60 545.30 L 190.40 546.40 L 190.90 547.70 L 192.40 555.40 L 192.00 556.70 L 191.20 557.80 L 190.00 558.50 L 188.60 558.70 L 187.20 558.30 L 186.20 557.50 L 185.40 556.20 L 184.40 552.40 L 183.80 548.50 L 183.90 547.10 L 184.50 545.90 L 185.60 545.00 L 186.90 544.60 Z M 835.60 530.60 L 837.00 530.80 L 838.20 531.40 L 839.10 532.40 L 839.50 533.80 L 840.30 541.00 L 840.10 542.40 L 839.50 543.60 L 838.40 544.40 L 837.00 544.80 L 835.60 544.70 L 834.40 544.00 L 833.60 543.00 L 833.20 541.60 L 832.40 534.60 L 832.50 533.20 L 833.20 532.00 L 834.20 531.10 L 835.60 530.60 Z M 186.10 519.40 L 186.50 518.00 L 187.40 517.00 L 188.60 516.30 L 190.00 516.20 L 191.40 516.70 L 192.40 517.50 L 193.00 518.70 L 193.20 520.20 L 192.40 527.30 L 192.00 528.60 L 191.10 529.70 L 189.90 530.30 L 188.50 530.40 L 187.10 530.00 L 186.10 529.10 L 185.40 527.90 L 185.30 526.50 L 186.10 519.40 Z M 832.50 502.20 L 833.90 502.40 L 835.10 503.00 L 836.00 504.00 L 836.40 505.40 L 837.20 512.50 L 837.00 513.90 L 836.40 515.10 L 835.40 516.00 L 834.00 516.40 L 832.60 516.30 L 831.40 515.70 L 830.50 514.60 L 830.10 513.30 L 829.30 506.20 L 829.40 504.80 L 830.10 503.60 L 831.10 502.70 L 832.50 502.20 Z M 189.20 491.00 L 189.60 489.60 L 190.50 488.60 L 191.70 487.90 L 193.10 487.80 L 194.50 488.30 L 195.50 489.10 L 196.20 490.30 L 196.30 491.80 L 195.50 498.90 L 195.10 500.20 L 194.20 501.30 L 193.00 501.90 L 191.60 502.00 L 190.20 501.60 L 189.20 500.70 L 188.50 499.50 L 188.40 498.10 L 189.20 491.00 Z M 829.30 473.80 L 830.80 474.00 L 832.00 474.60 L 832.80 475.60 L 833.30 477.00 L 834.10 484.10 L 833.90 485.50 L 833.30 486.70 L 832.30 487.60 L 830.90 488.00 L 829.50 487.90 L 828.30 487.30 L 827.40 486.20 L 827.00 484.90 L 826.20 477.80 L 826.30 476.40 L 826.90 475.10 L 828.00 474.30 L 829.30 473.80 Z M 192.30 462.60 L 192.70 461.20 L 193.60 460.20 L 194.80 459.50 L 196.20 459.40 L 197.60 459.90 L 198.60 460.70 L 199.30 461.90 L 199.40 463.40 L 198.60 470.50 L 198.20 471.80 L 197.30 472.90 L 196.10 473.50 L 194.70 473.60 L 193.30 473.20 L 192.30 472.30 L 191.70 471.10 L 191.50 469.70 L 192.30 462.60 Z M 826.20 445.40 L 827.60 445.60 L 828.80 446.20 L 829.70 447.20 L 830.20 448.60 L 830.90 455.70 L 830.80 457.10 L 830.20 458.30 L 829.10 459.20 L 827.80 459.60 L 826.40 459.50 L 825.20 458.90 L 824.30 457.80 L 823.80 456.50 L 823.10 449.40 L 823.20 447.90 L 823.80 446.70 L 824.90 445.90 L 826.20 445.40 Z M 195.40 434.20 L 195.90 432.80 L 196.70 431.80 L 197.90 431.10 L 199.40 431.00 L 200.70 431.40 L 201.80 432.30 L 202.40 433.50 L 202.50 435.00 L 201.70 442.10 L 201.30 443.40 L 200.40 444.40 L 199.20 445.10 L 197.80 445.20 L 196.40 444.80 L 195.40 443.90 L 194.80 442.70 L 194.60 441.30 L 195.40 434.20 Z M 822.20 417.20 L 823.60 417.10 L 824.90 417.50 L 825.90 418.40 L 826.50 419.70 L 827.80 427.30 L 827.70 428.70 L 827.10 429.90 L 826.00 430.80 L 824.70 431.20 L 823.20 431.10 L 822.00 430.50 L 821.20 429.40 L 820.70 428.10 L 819.60 420.10 L 820.00 418.80 L 820.90 417.80 L 822.20 417.20 Z M 204.00 405.50 L 205.00 404.50 L 206.30 404.00 L 207.60 404.00 L 209.00 404.60 L 210.00 405.60 L 210.40 406.90 L 210.40 408.20 L 209.90 409.50 L 206.60 415.20 L 205.80 416.40 L 204.60 417.10 L 203.30 417.30 L 201.90 417.00 L 200.70 416.10 L 200.00 414.90 L 199.80 413.60 L 200.10 412.20 L 204.00 405.50 Z M 804.40 395.40 L 805.50 394.50 L 806.70 394.00 L 808.10 394.00 L 809.40 394.60 L 815.30 399.70 L 816.00 400.90 L 816.30 402.30 L 816.00 403.60 L 815.20 404.80 L 814.00 405.50 L 812.70 405.80 L 811.30 405.50 L 810.10 404.70 L 804.30 399.40 L 803.80 398.10 L 803.80 396.70 L 804.40 395.40 Z M 229.10 387.90 L 230.50 387.90 L 231.80 388.40 L 232.80 389.30 L 233.40 390.60 L 233.40 392.00 L 232.90 393.30 L 232.00 394.30 L 230.70 394.90 L 224.60 397.00 L 223.20 397.30 L 221.90 397.10 L 220.70 396.40 L 219.90 395.20 L 219.60 393.80 L 219.80 392.50 L 220.50 391.30 L 221.70 390.50 L 229.10 387.90 Z M 786.70 387.00 L 788.80 387.30 L 789.90 388.10 L 790.60 389.20 L 790.90 390.60 L 790.60 392.00 L 789.80 393.10 L 788.60 393.90 L 787.20 394.10 L 780.20 394.10 L 778.80 393.90 L 777.60 393.10 L 776.90 392.00 L 776.60 390.60 L 776.90 389.20 L 777.60 388.00 L 778.80 387.30 L 780.20 387.00 L 786.70 387.00 Z M 758.70 387.00 L 760.10 387.30 L 761.20 388.00 L 762.00 389.20 L 762.30 390.60 L 762.00 392.00 L 761.20 393.10 L 760.10 393.90 L 758.70 394.10 L 751.60 394.10 L 750.20 393.90 L 749.10 393.10 L 748.30 392.00 L 748.00 390.60 L 748.30 389.20 L 749.10 388.00 L 750.20 387.30 L 751.60 387.00 L 758.70 387.00 Z M 730.20 387.00 L 731.60 387.30 L 732.70 388.00 L 733.40 389.20 L 733.70 390.60 L 733.40 392.00 L 732.70 393.10 L 731.60 393.90 L 730.20 394.10 L 723.00 394.10 L 721.60 393.90 L 720.50 393.10 L 719.70 392.00 L 719.40 390.60 L 719.70 389.20 L 720.50 388.00 L 721.60 387.30 L 723.00 387.00 L 730.20 387.00 Z M 701.60 387.00 L 703.00 387.30 L 704.10 388.00 L 704.90 389.20 L 705.20 390.60 L 704.90 392.00 L 704.10 393.10 L 703.00 393.90 L 701.60 394.10 L 694.40 394.10 L 693.00 393.90 L 691.90 393.10 L 691.10 392.00 L 690.90 390.60 L 691.10 389.20 L 691.90 388.00 L 693.00 387.30 L 694.40 387.00 L 701.60 387.00 Z M 673.00 387.00 L 674.40 387.30 L 675.50 388.00 L 676.30 389.20 L 676.60 390.60 L 676.30 392.00 L 675.50 393.10 L 674.40 393.90 L 673.00 394.10 L 665.90 394.10 L 664.50 393.90 L 663.30 393.10 L 662.60 392.00 L 662.30 390.60 L 662.60 389.20 L 663.30 388.00 L 664.50 387.30 L 665.90 387.00 L 673.00 387.00 Z M 644.40 387.00 L 645.80 387.30 L 647.00 388.00 L 647.70 389.20 L 648.00 390.60 L 647.70 392.00 L 647.00 393.10 L 645.80 393.90 L 644.40 394.10 L 637.30 394.10 L 635.90 393.90 L 634.80 393.10 L 634.00 392.00 L 633.70 390.60 L 634.00 389.20 L 634.80 388.00 L 635.90 387.30 L 637.30 387.00 L 644.40 387.00 Z M 615.90 387.00 L 617.30 387.30 L 618.40 388.00 L 619.20 389.20 L 619.40 390.60 L 619.20 392.00 L 618.40 393.10 L 617.30 393.90 L 615.90 394.10 L 608.70 394.10 L 607.30 393.90 L 606.20 393.10 L 605.40 392.00 L 605.20 390.60 L 605.40 389.20 L 606.20 388.00 L 607.30 387.30 L 608.70 387.00 L 615.90 387.00 Z M 587.30 387.00 L 588.70 387.30 L 589.80 388.00 L 590.60 389.20 L 590.90 390.60 L 590.60 392.00 L 589.80 393.10 L 588.70 393.90 L 587.30 394.10 L 580.20 394.10 L 578.80 393.90 L 577.60 393.10 L 576.90 392.00 L 576.60 390.60 L 576.90 389.20 L 577.60 388.00 L 578.80 387.30 L 580.20 387.00 L 587.30 387.00 Z M 558.70 387.00 L 560.10 387.30 L 561.20 388.00 L 562.00 389.20 L 562.30 390.60 L 562.00 392.00 L 561.20 393.10 L 560.10 393.90 L 558.70 394.10 L 551.60 394.10 L 550.20 393.90 L 549.10 393.10 L 548.30 392.00 L 548.00 390.60 L 548.30 389.20 L 549.10 388.00 L 550.20 387.30 L 551.60 387.00 L 558.70 387.00 Z M 530.20 387.00 L 531.60 387.30 L 532.70 388.00 L 533.40 389.20 L 533.70 390.60 L 533.40 392.00 L 532.70 393.10 L 531.60 393.90 L 530.20 394.10 L 523.00 394.10 L 521.60 393.90 L 520.50 393.10 L 519.70 392.00 L 519.40 390.60 L 519.70 389.20 L 520.50 388.00 L 521.60 387.30 L 523.00 387.00 L 530.20 387.00 Z M 501.60 387.00 L 503.00 387.30 L 504.10 388.00 L 504.90 389.20 L 505.20 390.60 L 504.90 392.00 L 504.10 393.10 L 503.00 393.90 L 501.60 394.10 L 494.40 394.10 L 493.00 393.90 L 491.90 393.10 L 491.10 392.00 L 490.90 390.60 L 491.10 389.20 L 491.90 388.00 L 493.00 387.30 L 494.40 387.00 L 501.60 387.00 Z M 473.00 387.00 L 474.40 387.30 L 475.50 388.00 L 476.30 389.20 L 476.60 390.60 L 476.30 392.00 L 475.50 393.10 L 474.40 393.90 L 473.00 394.10 L 465.90 394.10 L 464.50 393.90 L 463.30 393.10 L 462.60 392.00 L 462.30 390.60 L 462.60 389.20 L 463.30 388.00 L 464.50 387.30 L 465.90 387.00 L 473.00 387.00 Z M 444.40 387.00 L 445.80 387.30 L 447.00 388.00 L 447.70 389.20 L 448.00 390.60 L 447.70 392.00 L 447.00 393.10 L 445.80 393.90 L 444.40 394.10 L 437.30 394.10 L 435.90 393.90 L 434.80 393.10 L 434.00 392.00 L 433.70 390.60 L 434.00 389.20 L 434.80 388.00 L 435.90 387.30 L 437.30 387.00 L 444.40 387.00 Z M 415.90 387.00 L 417.30 387.30 L 418.40 388.00 L 419.20 389.20 L 419.40 390.60 L 419.20 392.00 L 418.40 393.10 L 417.30 393.90 L 415.90 394.10 L 408.70 394.10 L 407.30 393.90 L 406.20 393.10 L 405.40 392.00 L 405.20 390.60 L 405.40 389.20 L 406.20 388.00 L 407.30 387.30 L 408.70 387.00 L 415.90 387.00 Z M 387.30 387.00 L 388.70 387.30 L 389.80 388.00 L 390.60 389.20 L 390.90 390.60 L 390.60 392.00 L 389.80 393.10 L 388.70 393.90 L 387.30 394.10 L 380.20 394.10 L 378.80 393.90 L 377.60 393.10 L 376.90 392.00 L 376.60 390.60 L 376.90 389.20 L 377.60 388.00 L 378.80 387.30 L 380.20 387.00 L 387.30 387.00 Z M 358.70 387.00 L 360.10 387.30 L 361.20 388.00 L 362.00 389.20 L 362.30 390.60 L 362.00 392.00 L 361.20 393.10 L 360.10 393.90 L 358.70 394.10 L 351.60 394.10 L 350.20 393.90 L 349.10 393.10 L 348.30 392.00 L 348.00 390.60 L 348.30 389.20 L 349.10 388.00 L 350.20 387.30 L 351.60 387.00 L 358.70 387.00 Z M 330.20 387.00 L 331.60 387.30 L 332.70 388.00 L 333.40 389.20 L 333.70 390.60 L 333.40 392.00 L 332.70 393.10 L 331.60 393.90 L 330.20 394.10 L 323.00 394.10 L 321.60 393.90 L 320.50 393.10 L 319.70 392.00 L 319.40 390.60 L 319.70 389.20 L 320.50 388.00 L 321.60 387.30 L 323.00 387.00 L 330.20 387.00 Z M 301.60 387.00 L 303.00 387.30 L 304.10 388.00 L 304.90 389.20 L 305.20 390.60 L 304.90 392.00 L 304.10 393.10 L 303.00 393.90 L 301.60 394.10 L 294.40 394.10 L 293.00 393.90 L 291.90 393.10 L 291.10 392.00 L 290.90 390.60 L 291.10 389.20 L 291.90 388.00 L 293.00 387.30 L 294.40 387.00 L 301.60 387.00 Z M 273.00 387.00 L 274.40 387.30 L 275.50 388.00 L 276.30 389.20 L 276.60 390.60 L 276.30 392.00 L 275.50 393.10 L 274.40 393.90 L 273.00 394.10 L 265.90 394.10 L 264.50 393.90 L 263.30 393.10 L 262.60 392.00 L 262.30 390.60 L 262.60 389.20 L 263.30 388.00 L 264.50 387.30 L 265.90 387.00 L 273.00 387.00 Z M 244.40 387.00 L 245.80 387.30 L 247.00 388.00 L 247.70 389.20 L 248.00 390.60 L 247.70 392.00 L 247.00 393.10 L 245.80 393.90 L 244.40 394.10 L 237.30 394.10 L 235.90 393.90 L 234.80 393.10 L 234.00 392.00 L 233.70 390.60 L 234.00 389.20 L 234.80 388.00 L 235.90 387.30 L 237.30 387.00 L 244.40 387.00 Z" fill="#0f5eff" fill-rule="nonzero" group-id="1,2,4,13" hidden="true" id="矩形" node-id="57" stroke="none" target-height="192.90002" target-width="656.5" target-x="183.8" target-y="387" visibility="hidden"></path></g><g node-id="251"><path d="M 826.30 140.60 L 826.00 143.20 L 825.40 145.60 L 824.30 147.80 L 822.90 149.80 L 821.20 151.50 L 819.20 152.90 L 817.00 154.00 L 814.60 154.60 L 812.00 154.90 L 809.40 154.60 L 807.00 154.00 L 804.80 152.90 L 802.80 151.50 L 801.10 149.80 L 799.70 147.80 L 798.60 145.60 L 798.00 143.20 L 797.70 140.60 L 798.00 138.00 L 798.60 135.60 L 799.70 133.40 L 801.10 131.40 L 802.80 129.70 L 804.80 128.20 L 807.00 127.20 L 809.40 126.50 L 812.00 126.30 L 814.60 126.50 L 817.00 127.20 L 819.20 128.20 L 821.20 129.70 L 822.90 131.40 L 824.30 133.40 L 825.40 135.60 L 826.00 138.00 L 826.30 140.60 Z" fill="#edf0f5" fill-opacity="0.6" fill-rule="evenodd" group-id="1,2,5" hidden="true" id="椭圆形" node-id="58" stroke="none" target-height="28.59999" target-width="28.599976" target-x="797.7" target-y="126.3" visibility="hidden"></path></g><path d="M 883.40 162.00 L 885.30 162.30 L 887.00 163.00 L 888.50 164.10 L 889.60 165.50 L 890.30 167.20 L 890.60 169.10 L 890.60 183.40 L 904.90 183.40 L 906.80 183.70 L 908.50 184.40 L 909.90 185.50 L 911.00 187.00 L 911.70 188.70 L 912.00 190.60 L 911.70 192.50 L 911.00 194.20 L 909.90 195.60 L 908.50 196.70 L 906.80 197.50 L 904.90 197.70 L 890.60 197.70 L 890.60 212.00 L 890.30 213.90 L 889.60 215.60 L 888.50 217.10 L 887.00 218.20 L 885.30 218.90 L 883.40 219.10 L 881.50 218.90 L 879.80 218.20 L 878.40 217.10 L 877.30 215.60 L 876.50 213.90 L 876.30 212.00 L 876.30 197.70 L 862.00 197.70 L 860.10 197.50 L 858.40 196.70 L 856.90 195.60 L 855.80 194.20 L 855.10 192.50 L 854.90 190.60 L 855.10 188.70 L 855.80 187.00 L 856.90 185.50 L 858.40 184.40 L 860.10 183.70 L 862.00 183.40 L 876.30 183.40 L 876.30 169.10 L 876.50 167.20 L 877.30 165.50 L 878.40 164.10 L 879.80 163.00 L 881.50 162.30 L 883.40 162.00 Z" fill="#edf0f5" fill-opacity="0.6" fill-rule="evenodd" group-id="1,2" hidden="true" id="形状结合" node-id="59" stroke="none" target-height="57.100006" target-width="57.099976" target-x="854.9" target-y="162" visibility="hidden"></path><path d="M 140.60 162.00 L 142.50 162.30 L 144.20 163.00 L 145.60 164.10 L 146.70 165.50 L 147.50 167.20 L 147.70 169.10 L 147.70 183.40 L 162.00 183.40 L 163.90 183.70 L 165.60 184.40 L 167.10 185.50 L 168.20 187.00 L 168.90 188.70 L 169.10 190.60 L 168.90 192.50 L 168.20 194.20 L 167.10 195.60 L 165.60 196.70 L 163.90 197.50 L 162.00 197.70 L 147.70 197.70 L 147.70 212.00 L 147.50 213.90 L 146.70 215.60 L 145.60 217.10 L 144.20 218.20 L 142.50 218.90 L 140.60 219.10 L 138.70 218.90 L 137.00 218.20 L 135.50 217.10 L 134.40 215.60 L 133.70 213.90 L 133.40 212.00 L 133.40 197.70 L 119.10 197.70 L 117.20 197.50 L 115.50 196.70 L 114.10 195.60 L 113.00 194.20 L 112.30 192.50 L 112.00 190.60 L 112.30 188.70 L 113.00 187.00 L 114.10 185.50 L 115.50 184.40 L 117.20 183.70 L 119.10 183.40 L 133.40 183.40 L 133.40 169.10 L 133.70 167.20 L 134.40 165.50 L 135.50 164.10 L 137.00 163.00 L 138.70 162.30 L 140.60 162.00 Z" fill="#edf0f5" fill-opacity="0.6" fill-rule="evenodd" group-id="1,2" hidden="true" id="形状结合备份-3" node-id="60" stroke="none" target-height="57.100006" target-width="57.100006" target-x="112" target-y="162" visibility="hidden"></path><g node-id="252"><path d="M 226.30 140.60 L 226.00 143.40 L 225.20 146.00 L 223.90 148.50 L 222.10 150.70 L 219.90 152.50 L 217.50 153.80 L 214.80 154.60 L 212.00 154.90 L 209.40 154.60 L 207.00 154.00 L 204.80 152.90 L 202.80 151.50 L 201.10 149.80 L 199.70 147.80 L 198.60 145.60 L 198.00 143.20 L 197.70 140.60 L 198.00 138.00 L 198.60 135.60 L 199.70 133.40 L 201.10 131.40 L 202.80 129.70 L 204.80 128.20 L 207.00 127.20 L 209.40 126.50 L 212.00 126.30 L 214.80 126.60 L 217.50 127.40 L 219.90 128.70 L 222.10 130.50 L 223.90 132.70 L 225.20 135.10 L 226.00 137.80 L 226.30 140.60 Z" fill="#edf0f5" fill-opacity="0.6" fill-rule="evenodd" group-id="1,2,6" hidden="true" id="椭圆形备份-48" node-id="61" stroke="none" target-height="28.59999" target-width="28.600006" target-x="197.7" target-y="126.3" visibility="hidden"></path></g></g><g node-id="249"><path d="M 271.40 254.90 L 752.60 254.90 L 755.70 255.10 L 758.60 255.90 L 761.30 257.00 L 763.80 258.60 L 766.00 260.60 L 767.80 262.90 L 769.30 265.40 L 770.40 268.20 L 771.00 271.30 L 802.60 555.80 L 802.60 559.20 L 802.10 562.30 L 801.10 565.30 L 799.60 568.10 L 797.60 570.50 L 795.20 572.60 L 792.60 574.30 L 789.60 575.50 L 786.30 576.20 L 239.80 576.30 L 236.40 576.00 L 233.30 575.10 L 230.50 573.80 L 227.90 571.90 L 225.70 569.70 L 223.80 567.10 L 222.50 564.30 L 221.60 561.20 L 221.40 555.80 L 253.00 271.30 L 253.60 268.20 L 254.70 265.40 L 256.20 262.90 L 258.00 260.60 L 260.20 258.60 L 262.70 257.00 L 265.40 255.90 L 268.30 255.10 L 271.40 254.90 Z" fill="url(#linearGradient-4)" fill-rule="evenodd" group-id="1,3" id="矩形" node-id="63" stroke="none" target-height="321.4" target-width="581.19995" target-x="221.4" target-y="254.9"></path><g node-id="253"><path d="M 332.70 276.30 L 691.30 276.30 L 694.00 276.50 L 699.20 277.90 L 703.90 280.50 L 705.90 282.30 L 707.70 284.40 L 710.40 289.10 L 711.80 294.20 L 712.00 297.00 L 712.00 612.70 L 711.80 615.50 L 710.40 620.70 L 707.70 625.30 L 705.90 627.40 L 701.60 630.70 L 696.70 632.70 L 694.00 633.20 L 332.70 633.40 L 330.00 633.20 L 324.80 631.90 L 320.10 629.20 L 318.10 627.40 L 316.30 625.30 L 313.60 620.70 L 312.20 615.50 L 312.00 612.70 L 312.00 297.00 L 312.40 293.20 L 313.30 289.70 L 314.80 286.50 L 316.90 283.60 L 319.30 281.20 L 322.20 279.10 L 325.50 277.60 L 328.90 276.60 L 332.70 276.30 Z" fill="url(#linearGradient-5)" fill-opacity="0.398326" fill-rule="evenodd" group-id="1,3,7" id="矩形" node-id="64" stroke="none" target-height="357.10004" target-width="400" target-x="312" target-y="276.3"></path></g><g node-id="254"><path d="M 312.00 312.00 L 712.00 312.00 L 715.00 312.20 L 720.30 313.70 L 722.80 314.90 L 725.80 317.10 L 728.40 319.60 L 730.50 322.60 L 731.70 325.10 L 733.20 330.50 L 733.40 333.40 L 733.40 690.60 L 733.20 693.50 L 731.70 698.90 L 730.50 701.40 L 728.40 704.40 L 725.80 706.90 L 722.80 709.10 L 717.70 711.20 L 715.00 711.80 L 712.00 712.00 L 312.00 712.00 L 309.00 711.80 L 303.70 710.30 L 301.20 709.10 L 298.20 706.90 L 295.60 704.40 L 293.50 701.40 L 292.30 698.90 L 290.80 693.50 L 290.60 690.60 L 290.60 333.40 L 290.80 330.50 L 292.30 325.10 L 293.50 322.60 L 295.60 319.60 L 298.20 317.10 L 301.20 314.90 L 303.70 313.70 L 309.00 312.20 L 312.00 312.00 Z" fill="url(#linearGradient-6)" fill-opacity="0.601846" fill-rule="evenodd" group-id="1,3,8" id="矩形" node-id="65" stroke="none" target-height="400" target-width="442.80002" target-x="290.6" target-y="312"></path></g><g node-id="255"><path d="M 288.30 347.70 L 735.70 347.70 L 738.60 347.90 L 743.90 349.30 L 748.70 352.10 L 750.90 354.00 L 752.70 356.10 L 755.50 360.90 L 757.00 366.30 L 757.20 369.10 L 757.20 726.30 L 756.90 729.30 L 755.50 734.60 L 754.20 737.10 L 752.10 740.10 L 749.50 742.70 L 746.50 744.80 L 744.10 746.00 L 738.70 747.50 L 735.70 747.70 L 288.30 747.70 L 285.30 747.50 L 279.90 746.00 L 277.50 744.80 L 274.50 742.70 L 271.90 740.10 L 269.80 737.10 L 268.50 734.60 L 267.10 729.30 L 266.80 726.30 L 266.80 369.10 L 267.10 366.20 L 268.50 360.80 L 269.80 358.30 L 271.90 355.30 L 274.50 352.80 L 277.50 350.60 L 279.90 349.40 L 285.30 347.90 L 288.30 347.70 Z" fill="url(#linearGradient-7)" fill-opacity="0.9" fill-rule="evenodd" group-id="1,3,9" id="矩形" node-id="66" stroke="none" target-height="400" target-width="490.40002" target-x="266.8" target-y="347.7"></path></g><path d="M 447.70 412.00 L 576.30 412.00 L 578.20 412.30 L 579.90 413.00 L 581.30 414.10 L 582.50 415.50 L 583.20 417.20 L 583.40 419.10 L 583.20 421.10 L 582.50 422.70 L 581.30 424.20 L 579.90 425.30 L 578.20 426.00 L 576.30 426.30 L 447.70 426.30 L 445.80 426.00 L 444.10 425.30 L 442.70 424.20 L 441.50 422.70 L 440.80 421.10 L 440.60 419.10 L 440.80 417.20 L 441.50 415.50 L 442.70 414.10 L 444.10 413.00 L 445.80 412.30 L 447.70 412.00 Z" fill="url(#linearGradient-8)" fill-rule="nonzero" group-id="1,3" id="矩形备份-136" node-id="67" stroke="none" target-height="14.299988" target-width="142.80002" target-x="440.6" target-y="412"></path><g node-id="256"><path d="M 304.90 447.70 L 719.10 447.70 L 721.10 448.00 L 722.70 448.70 L 724.20 449.80 L 725.30 451.30 L 726.00 452.90 L 726.30 454.90 L 726.00 456.80 L 725.30 458.50 L 724.20 459.90 L 722.70 461.00 L 721.10 461.70 L 719.10 462.00 L 304.90 462.00 L 302.90 461.70 L 301.30 461.00 L 299.80 459.90 L 298.70 458.50 L 298.00 456.80 L 297.70 454.90 L 298.00 452.90 L 298.70 451.30 L 299.80 449.80 L 301.30 448.70 L 302.90 448.00 L 304.90 447.70 Z" fill="url(#linearGradient-9)" fill-opacity="0.48898527" fill-rule="nonzero" group-id="1,3,10" id="矩形备份-139" node-id="68" stroke="none" target-height="14.299988" target-width="428.59998" target-x="297.7" target-y="447.7"></path></g><g node-id="257"><g node-id="260"><path d="M 240.60 397.70 L 367.10 397.70 L 372.30 398.00 L 377.20 398.90 L 381.90 400.40 L 386.50 402.40 L 390.70 404.80 L 394.60 407.70 L 398.20 411.10 L 401.30 414.80 L 404.10 419.00 L 406.30 423.40 L 408.10 428.10 L 409.30 433.10 L 414.00 458.50 L 415.10 461.70 L 418.40 467.30 L 422.90 472.10 L 428.40 475.70 L 434.50 477.90 L 441.30 478.80 L 590.10 478.80 L 596.90 477.90 L 600.10 477.00 L 605.90 474.00 L 610.90 469.90 L 614.80 464.60 L 617.50 458.50 L 618.30 455.10 L 622.20 433.10 L 623.40 428.10 L 625.10 423.40 L 627.40 419.00 L 630.10 414.80 L 633.30 411.10 L 636.80 407.70 L 640.70 404.80 L 645.00 402.40 L 649.50 400.40 L 654.20 398.90 L 659.20 398.00 L 664.40 397.70 L 783.40 397.70 L 789.20 398.50 L 794.20 400.60 L 797.30 402.80 L 799.80 405.30 L 801.90 408.30 L 804.10 413.40 L 804.90 419.10 L 804.90 747.70 L 804.60 750.70 L 803.20 756.10 L 801.90 758.50 L 799.80 761.50 L 797.30 764.10 L 794.20 766.20 L 791.80 767.50 L 786.40 768.90 L 783.40 769.10 L 240.60 769.10 L 234.80 768.40 L 229.80 766.20 L 226.70 764.10 L 224.20 761.50 L 222.10 758.50 L 219.90 753.50 L 219.10 747.70 L 219.10 419.10 L 219.40 416.20 L 220.80 410.80 L 222.10 408.30 L 224.20 405.30 L 226.70 402.80 L 229.80 400.60 L 232.20 399.40 L 237.60 397.90 L 240.60 397.70 Z" fill="#000000" fill-rule="evenodd" filter="url(#filter-12)" group-id="1,3,11,14" node-id="240" stroke="none" target-height="371.39996" target-width="585.80005" target-x="219.1" target-y="397.7"></path></g><path d="M 240.60 397.70 L 367.10 397.70 L 372.30 398.00 L 377.20 398.90 L 381.90 400.40 L 386.50 402.40 L 390.70 404.80 L 394.60 407.70 L 398.20 411.10 L 401.30 414.80 L 404.10 419.00 L 406.30 423.40 L 408.10 428.10 L 409.30 433.10 L 414.00 458.50 L 415.10 461.70 L 418.40 467.30 L 422.90 472.10 L 428.40 475.70 L 434.50 477.90 L 441.30 478.80 L 590.10 478.80 L 596.90 477.90 L 600.10 477.00 L 605.90 474.00 L 610.90 469.90 L 614.80 464.60 L 617.50 458.50 L 618.30 455.10 L 622.20 433.10 L 623.40 428.10 L 625.10 423.40 L 627.40 419.00 L 630.10 414.80 L 633.30 411.10 L 636.80 407.70 L 640.70 404.80 L 645.00 402.40 L 649.50 400.40 L 654.20 398.90 L 659.20 398.00 L 664.40 397.70 L 783.40 397.70 L 789.20 398.50 L 794.20 400.60 L 797.30 402.80 L 799.80 405.30 L 801.90 408.30 L 804.10 413.40 L 804.90 419.10 L 804.90 747.70 L 804.60 750.70 L 803.20 756.10 L 801.90 758.50 L 799.80 761.50 L 797.30 764.10 L 794.20 766.20 L 791.80 767.50 L 786.40 768.90 L 783.40 769.10 L 240.60 769.10 L 234.80 768.40 L 229.80 766.20 L 226.70 764.10 L 224.20 761.50 L 222.10 758.50 L 219.90 753.50 L 219.10 747.70 L 219.10 419.10 L 219.40 416.20 L 220.80 410.80 L 222.10 408.30 L 224.20 405.30 L 226.70 402.80 L 229.80 400.60 L 232.20 399.40 L 237.60 397.90 L 240.60 397.70 Z" fill="url(#linearGradient-10)" fill-rule="evenodd" group-id="1,3,11,15" node-id="245" stroke="none" target-height="371.39996" target-width="585.80005" target-x="219.1" target-y="397.7"></path></g><path d="M 319.10 769.10 L 704.90 769.10 L 704.60 771.80 L 704.00 774.10 L 702.90 776.40 L 701.50 778.40 L 699.80 780.10 L 697.80 781.50 L 695.60 782.50 L 693.20 783.20 L 690.60 783.40 L 333.40 783.40 L 330.80 783.20 L 328.40 782.50 L 326.20 781.50 L 324.20 780.10 L 322.50 778.40 L 321.10 776.40 L 320.00 774.10 L 319.40 771.80 L 319.10 769.10 Z" fill="url(#linearGradient-13)" fill-rule="evenodd" group-id="1,3" id="矩形" node-id="72" stroke="none" target-height="14.300049" target-width="385.80002" target-x="319.1" target-y="769.1"></path><path d="M 704.90 513.80 L 708.40 514.10 L 711.70 515.00 L 714.80 516.50 L 717.50 518.40 L 719.90 520.80 L 721.80 523.50 L 723.30 526.60 L 724.20 529.80 L 724.50 533.40 L 724.50 690.60 L 724.20 694.20 L 723.30 697.40 L 721.80 700.50 L 719.90 703.20 L 717.50 705.60 L 714.80 707.50 L 711.70 709.00 L 708.40 709.90 L 704.90 710.20 L 319.10 710.20 L 315.60 709.90 L 312.30 709.00 L 309.20 707.50 L 306.50 705.60 L 304.10 703.20 L 302.20 700.50 L 300.70 697.40 L 299.80 694.20 L 299.50 690.60 L 299.50 533.40 L 299.80 529.80 L 300.70 526.60 L 302.20 523.50 L 304.10 520.80 L 306.50 518.40 L 309.20 516.50 L 312.30 515.00 L 315.60 514.10 L 319.10 513.80 L 704.90 513.80 Z M 704.90 524.50 L 319.10 524.50 L 316.80 524.80 L 314.60 525.70 L 312.80 527.10 L 311.40 528.90 L 310.50 531.00 L 310.20 533.40 L 310.20 690.60 L 310.50 693.00 L 311.40 695.10 L 312.80 696.90 L 314.60 698.30 L 316.80 699.20 L 319.10 699.50 L 704.90 699.50 L 707.20 699.20 L 709.40 698.30 L 711.20 696.90 L 712.60 695.10 L 713.50 693.00 L 713.80 690.60 L 713.80 533.40 L 713.50 531.00 L 712.60 528.90 L 711.20 527.10 L 709.40 525.70 L 707.20 524.80 L 704.90 524.50 Z" fill="url(#linearGradient-14)" fill-rule="nonzero" group-id="1,3" id="矩形" node-id="73" stroke="none" target-height="196.40002" target-width="425" target-x="299.5" target-y="513.8"></path><path d="M 701.30 424.50 L 702.70 424.70 L 705.10 426.10 L 706.40 428.40 L 706.60 429.90 L 706.60 458.40 L 705.90 461.10 L 704.00 463.10 L 702.70 463.60 L 701.30 463.80 L 698.60 463.10 L 696.70 461.10 L 695.90 458.40 L 696.10 428.40 L 696.70 427.20 L 698.60 425.20 L 701.30 424.50 Z" fill="url(#linearGradient1)" fill-rule="nonzero" group-id="1,3" id="直线-49" node-id="74" stroke="none" target-height="39.299988" target-width="10.699951" target-x="695.9" target-y="424.5"></path><path d="M 272.70 424.50 L 274.20 424.70 L 276.50 426.10 L 277.90 428.40 L 278.10 429.90 L 277.90 459.90 L 277.30 461.10 L 275.40 463.10 L 272.70 463.80 L 271.30 463.60 L 268.90 462.20 L 267.60 459.90 L 267.40 458.40 L 267.60 428.40 L 268.10 427.20 L 270.00 425.20 L 272.70 424.50 Z" fill="url(#linearGradient2)" fill-rule="nonzero" group-id="1,3" id="直线-49备份-2" node-id="75" stroke="none" target-height="39.299988" target-width="10.700012" target-x="267.4" target-y="424.5"></path><path d="M 751.30 424.50 L 752.70 424.70 L 755.10 426.10 L 756.40 428.40 L 756.60 429.90 L 756.40 459.90 L 755.90 461.10 L 754.00 463.10 L 751.30 463.80 L 749.80 463.60 L 747.50 462.20 L 746.10 459.90 L 745.90 458.40 L 746.10 428.40 L 746.70 427.20 L 748.60 425.20 L 751.30 424.50 Z" fill="url(#linearGradient3)" fill-rule="nonzero" group-id="1,3" id="直线-49备份" node-id="76" stroke="none" target-height="39.299988" target-width="10.699951" target-x="745.9" target-y="424.5"></path><path d="M 322.70 424.50 L 324.20 424.70 L 326.50 426.10 L 327.90 428.40 L 328.10 429.90 L 327.90 459.90 L 327.30 461.10 L 325.40 463.10 L 322.70 463.80 L 321.30 463.60 L 318.90 462.20 L 317.60 459.90 L 317.40 458.40 L 317.60 428.40 L 318.10 427.20 L 320.00 425.20 L 322.70 424.50 Z" fill="url(#linearGradient-15)" fill-rule="nonzero" group-id="1,3" id="直线-49备份-3" node-id="77" stroke="none" target-height="39.299988" target-width="10.700012" target-x="317.4" target-y="424.5"></path><path d="M 518.70 561.70 L 520.50 558.60 L 523.30 556.30 L 524.90 555.50 L 528.50 554.90 L 532.10 555.50 L 535.20 557.30 L 537.50 560.10 L 538.30 561.70 L 538.90 565.20 L 538.30 568.80 L 501.90 664.00 L 499.50 666.70 L 496.50 668.50 L 493.00 669.10 L 489.30 668.50 L 486.10 666.70 L 483.90 663.90 L 482.60 660.60 L 482.50 658.80 L 483.10 655.20 L 518.70 561.70 Z M 567.00 572.20 L 565.10 569.10 L 564.30 565.60 L 564.80 562.00 L 566.50 558.80 L 569.20 556.40 L 572.60 555.10 L 576.20 555.00 L 579.60 556.10 L 581.10 557.00 L 623.60 604.00 L 625.10 606.10 L 626.00 608.40 L 626.30 610.90 L 626.00 613.40 L 625.10 615.70 L 623.60 617.80 L 582.50 663.50 L 579.60 665.80 L 577.90 666.50 L 574.40 666.90 L 570.90 666.20 L 569.30 665.40 L 566.50 662.90 L 565.50 661.40 L 564.40 658.00 L 564.50 654.50 L 565.00 652.80 L 567.00 649.60 L 601.90 610.90 L 567.00 572.20 Z M 457.00 572.20 L 458.90 569.10 L 459.70 565.60 L 459.20 562.00 L 457.50 558.80 L 454.80 556.40 L 451.40 555.10 L 447.80 555.00 L 444.40 556.10 L 442.90 557.00 L 400.40 604.00 L 398.90 606.10 L 398.00 608.40 L 397.70 610.90 L 398.00 613.40 L 398.90 615.70 L 400.40 617.80 L 442.90 664.80 L 446.10 666.40 L 449.60 666.80 L 451.30 666.60 L 454.60 665.30 L 457.40 662.80 L 459.10 659.60 L 459.60 656.20 L 458.90 652.70 L 458.10 651.10 L 422.10 610.90 L 457.00 572.20 Z" fill="url(#linearGradient-16)" fill-rule="evenodd" group-id="1,3" id="形状" node-id="78" stroke="none" target-height="114.19995" target-width="228.59998" target-x="397.7" target-y="554.9"></path></g></g></svg>