<?xml version="1.0" standalone="no"?><!DOCTYPE svg PUBLIC "-//W3C//DTD SVG 1.1//EN" "http://www.w3.org/Graphics/SVG/1.1/DTD/svg11.dtd"><svg height="1024" node-id="1" sillyvg="true" template-height="1024" template-width="1024" version="1.1" viewBox="0 0 1024 1024" width="1024" xmlns="http://www.w3.org/2000/svg" xmlns:xlink="http://www.w3.org/1999/xlink"><defs node-id="102"><linearGradient gradientUnits="objectBoundingBox" id="linearGradient-1" node-id="5" spreadMethod="pad" x1="0.5" x2="0.5" y1="0" y2="1"><stop offset="0" stop-color="#f9fafc"></stop><stop offset="1" stop-color="#f0f2f5"></stop></linearGradient><linearGradient gradientUnits="objectBoundingBox" id="linearGradient-4" node-id="9" spreadMethod="pad" x1="0.5923547" x2="0.5923547" y1="-0.34344256" y2="1.0316275"><stop offset="0" stop-color="#fbfcfe"></stop><stop offset="1" stop-color="#ced6e5"></stop></linearGradient><linearGradient gradientUnits="objectBoundingBox" id="linearGradient1" node-id="116" spreadMethod="pad" x1="0.71213186" x2="0.71213186" y1="0" y2="1"><stop offset="0" stop-color="#8f9bb3"></stop><stop offset="1" stop-color="#596680"></stop></linearGradient><linearGradient gradientUnits="objectBoundingBox" id="linearGradient-5" node-id="12" spreadMethod="pad" x1="0.71213186" x2="0.71213186" y1="0" y2="1"><stop offset="0" stop-color="#8f9bb3"></stop><stop offset="1" stop-color="#596680"></stop></linearGradient><linearGradient gradientUnits="objectBoundingBox" id="linearGradient-6" node-id="15" spreadMethod="pad" x1="0.079356186" x2="0.079356186" y1="0.22613586" y2="1"><stop offset="0" stop-color="#fcfdff"></stop><stop offset="1" stop-color="#f5f8ff"></stop></linearGradient><linearGradient gradientUnits="objectBoundingBox" id="linearGradient-9" node-id="23" spreadMethod="pad" x1="0.054449525" x2="0.7764964" y1="0.3209857" y2="0.63595563"><stop offset="0" stop-color="#ff528b"></stop><stop offset="1" stop-color="#ff3959"></stop></linearGradient><linearGradient gradientUnits="objectBoundingBox" id="linearGradient2" node-id="141" spreadMethod="pad" x1="0" x2="1" y1="0.5" y2="0.5"><stop offset="0" stop-color="#e9edf3"></stop><stop offset="1" stop-color="#cbd3e1"></stop></linearGradient><linearGradient gradientUnits="objectBoundingBox" id="linearGradient-10" node-id="26" spreadMethod="pad" x1="0" x2="1" y1="0.5" y2="0.5"><stop offset="0" stop-color="#e9edf3"></stop><stop offset="1" stop-color="#cbd3e1"></stop></linearGradient><linearGradient gradientUnits="objectBoundingBox" id="linearGradient3" node-id="154" spreadMethod="pad" x1="0" x2="1" y1="0.5" y2="0.5"><stop offset="0" stop-color="#e9edf3"></stop><stop offset="1" stop-color="#cbd3e1"></stop></linearGradient><linearGradient gradientUnits="objectBoundingBox" id="linearGradient-11" node-id="29" spreadMethod="pad" x1="0" x2="1" y1="0.5" y2="0.5"><stop offset="0" stop-color="#e9edf3"></stop><stop offset="1" stop-color="#cbd3e1"></stop></linearGradient><linearGradient gradientUnits="objectBoundingBox" id="linearGradient-12" node-id="32" spreadMethod="pad" x1="-0.04029564" x2="1.2754554" y1="0.5" y2="0.5"><stop offset="0" stop-color="#fbfcfe"></stop><stop offset="1" stop-color="#ced6e5"></stop></linearGradient><linearGradient gradientUnits="objectBoundingBox" id="linearGradient-13" node-id="35" spreadMethod="pad" x1="0" x2="1" y1="0.3204096" y2="0.3204096"><stop offset="0" stop-color="#3392ff"></stop><stop offset="1" stop-color="#1965ff"></stop></linearGradient><linearGradient gradientUnits="objectBoundingBox" id="linearGradient-14" node-id="38" spreadMethod="pad" x1="0.24056728" x2="0.7764964" y1="0.12965745" y2="0.87765455"><stop offset="0" stop-color="#ff5d90"></stop><stop offset="1" stop-color="#ff3959"></stop></linearGradient><linearGradient gradientUnits="objectBoundingBox" id="linearGradient-15" node-id="41" spreadMethod="pad" x1="0.079356186" x2="0.079356186" y1="0.22613586" y2="1"><stop offset="0" stop-color="#fcfdff"></stop><stop offset="1" stop-color="#f5f8ff"></stop></linearGradient><linearGradient gradientUnits="objectBoundingBox" id="linearGradient-18" node-id="49" spreadMethod="pad" x1="0" x2="1" y1="0.5" y2="0.5"><stop offset="0" stop-color="#e9edf3"></stop><stop offset="1" stop-color="#cbd3e1"></stop></linearGradient><linearGradient gradientUnits="objectBoundingBox" id="linearGradient-19" node-id="52" spreadMethod="pad" x1="0" x2="1" y1="0.5" y2="0.5"><stop offset="0" stop-color="#e9edf3"></stop><stop offset="1" stop-color="#cbd3e1"></stop></linearGradient><linearGradient gradientUnits="objectBoundingBox" id="linearGradient-20" node-id="55" spreadMethod="pad" x1="-0.04029564" x2="1.2754554" y1="0.5" y2="0.5"><stop offset="0" stop-color="#fbfcfe"></stop><stop offset="1" stop-color="#ced6e5"></stop></linearGradient><filter filterUnits="objectBoundingBox" height="866.79333" id="filter-8" node-id="19" width="789.29114" x="-189.52835" y="-139.50642"><feOffset color-interpolation-filters="linearRGB" dx="0" dy="50" in="SourceAlpha" result="shadowOffsetOuter1"></feOffset><feGaussianBlur color-interpolation-filters="linearRGB" in="shadowOffsetOuter1" result="shadowBlurOuter1" stdDeviation="64.5 64.5"></feGaussianBlur><feColorMatrix color-interpolation-filters="linearRGB" in="shadowBlurOuter1" result="result3" type="matrix" values="0 0 0 0 0.56 0 0 0 0 0.6066667 0 0 0 0 0.7 0 0 0 0.36166957 0"></feColorMatrix></filter><filter filterUnits="objectBoundingBox" height="756.7901" id="filter-17" node-id="45" width="686.7326" x="-189.52835" y="-115.74659"><feOffset color-interpolation-filters="linearRGB" dx="0" dy="50" in="SourceAlpha" result="shadowOffsetOuter1"></feOffset><feGaussianBlur color-interpolation-filters="linearRGB" in="shadowOffsetOuter1" result="shadowBlurOuter1" stdDeviation="64.5 64.5"></feGaussianBlur><feColorMatrix color-interpolation-filters="linearRGB" in="shadowBlurOuter1" result="result3" type="matrix" values="0 0 0 0 0.56 0 0 0 0 0.6066667 0 0 0 0 0.7 0 0 0 0.36166957 0"></feColorMatrix></filter><mask height="582.8572" id="mask-3" maskUnits="userSpaceOnUse" node-id="65" width="522.8572" x="254.14285" y="277.7143"><path d="M 912.00 512.00 L 911.70 528.00 L 910.70 543.80 L 909.20 559.40 L 907.00 575.00 L 904.20 590.40 L 900.90 605.70 L 896.90 620.90 L 892.40 635.80 L 887.20 650.50 L 881.60 665.10 L 875.30 679.40 L 868.50 693.40 L 861.10 707.20 L 853.30 720.70 L 844.80 733.90 L 835.80 746.80 L 826.40 759.30 L 816.40 771.50 L 805.90 783.30 L 794.80 794.80 L 783.30 805.90 L 771.50 816.40 L 759.30 826.40 L 746.80 835.80 L 733.90 844.80 L 720.70 853.30 L 707.20 861.10 L 693.40 868.50 L 679.40 875.30 L 665.10 881.60 L 650.50 887.20 L 635.80 892.40 L 620.90 896.90 L 605.70 900.90 L 590.40 904.20 L 575.00 907.00 L 559.40 909.20 L 543.80 910.70 L 528.00 911.70 L 512.00 912.00 L 496.00 911.70 L 480.20 910.70 L 464.60 909.20 L 449.00 907.00 L 433.60 904.20 L 418.30 900.90 L 403.10 896.90 L 388.20 892.40 L 373.50 887.20 L 358.90 881.60 L 344.60 875.30 L 330.60 868.50 L 316.80 861.10 L 303.30 853.30 L 290.10 844.80 L 277.20 835.80 L 264.70 826.40 L 252.50 816.40 L 240.70 805.90 L 229.20 794.80 L 218.10 783.30 L 207.60 771.50 L 197.60 759.30 L 188.20 746.80 L 179.20 733.90 L 170.70 720.70 L 162.90 707.20 L 155.50 693.40 L 148.70 679.40 L 142.40 665.10 L 136.80 650.50 L 131.60 635.80 L 127.10 620.90 L 123.10 605.70 L 119.80 590.40 L 117.00 575.00 L 114.80 559.40 L 113.30 543.80 L 112.30 528.00 L 112.00 512.00 L 112.30 496.00 L 113.30 480.20 L 114.80 464.60 L 117.00 449.00 L 119.80 433.60 L 123.10 418.30 L 127.10 403.10 L 131.60 388.20 L 136.80 373.50 L 142.40 358.90 L 148.70 344.60 L 155.50 330.60 L 162.90 316.80 L 170.70 303.30 L 179.20 290.10 L 188.20 277.20 L 197.60 264.70 L 207.60 252.50 L 218.10 240.70 L 229.20 229.20 L 240.70 218.10 L 252.50 207.60 L 264.70 197.60 L 277.20 188.20 L 290.10 179.20 L 303.30 170.70 L 316.80 162.90 L 330.60 155.50 L 344.60 148.70 L 358.90 142.40 L 373.50 136.80 L 388.20 131.60 L 403.10 127.10 L 418.30 123.10 L 433.60 119.80 L 449.00 117.00 L 464.60 114.80 L 480.20 113.30 L 496.00 112.30 L 512.00 112.00 L 528.00 112.30 L 543.80 113.30 L 559.40 114.80 L 575.00 117.00 L 590.40 119.80 L 605.70 123.10 L 620.90 127.10 L 635.80 131.60 L 650.50 136.80 L 665.10 142.40 L 679.40 148.70 L 693.40 155.50 L 707.20 162.90 L 720.70 170.70 L 733.90 179.20 L 746.80 188.20 L 759.30 197.60 L 771.50 207.60 L 783.30 218.10 L 794.80 229.20 L 805.90 240.70 L 816.40 252.50 L 826.40 264.70 L 835.80 277.20 L 844.80 290.10 L 853.30 303.30 L 861.10 316.80 L 868.50 330.60 L 875.30 344.60 L 881.60 358.90 L 887.20 373.50 L 892.40 388.20 L 896.90 403.10 L 900.90 418.30 L 904.20 433.60 L 907.00 449.00 L 909.20 464.60 L 910.70 480.20 L 911.70 496.00 L 912.00 512.00 Z" fill="#ffffff" fill-rule="evenodd" node-id="228" stroke="none" target-height="800" target-width="800" target-x="112" target-y="112"></path></mask><mask height="128.57144" id="mask1" maskUnits="userSpaceOnUse" node-id="232" width="115.33615" x="288.10294" y="315.57144"><path d="M 912.00 512.00 L 911.70 528.00 L 910.70 543.80 L 909.20 559.40 L 907.00 575.00 L 904.20 590.40 L 900.90 605.70 L 896.90 620.90 L 892.40 635.80 L 887.20 650.50 L 881.60 665.10 L 875.30 679.40 L 868.50 693.40 L 861.10 707.20 L 853.30 720.70 L 844.80 733.90 L 835.80 746.80 L 826.40 759.30 L 816.40 771.50 L 805.90 783.30 L 794.80 794.80 L 783.30 805.90 L 771.50 816.40 L 759.30 826.40 L 746.80 835.80 L 733.90 844.80 L 720.70 853.30 L 707.20 861.10 L 693.40 868.50 L 679.40 875.30 L 665.10 881.60 L 650.50 887.20 L 635.80 892.40 L 620.90 896.90 L 605.70 900.90 L 590.40 904.20 L 575.00 907.00 L 559.40 909.20 L 543.80 910.70 L 528.00 911.70 L 512.00 912.00 L 496.00 911.70 L 480.20 910.70 L 464.60 909.20 L 449.00 907.00 L 433.60 904.20 L 418.30 900.90 L 403.10 896.90 L 388.20 892.40 L 373.50 887.20 L 358.90 881.60 L 344.60 875.30 L 330.60 868.50 L 316.80 861.10 L 303.30 853.30 L 290.10 844.80 L 277.20 835.80 L 264.70 826.40 L 252.50 816.40 L 240.70 805.90 L 229.20 794.80 L 218.10 783.30 L 207.60 771.50 L 197.60 759.30 L 188.20 746.80 L 179.20 733.90 L 170.70 720.70 L 162.90 707.20 L 155.50 693.40 L 148.70 679.40 L 142.40 665.10 L 136.80 650.50 L 131.60 635.80 L 127.10 620.90 L 123.10 605.70 L 119.80 590.40 L 117.00 575.00 L 114.80 559.40 L 113.30 543.80 L 112.30 528.00 L 112.00 512.00 L 112.30 496.00 L 113.30 480.20 L 114.80 464.60 L 117.00 449.00 L 119.80 433.60 L 123.10 418.30 L 127.10 403.10 L 131.60 388.20 L 136.80 373.50 L 142.40 358.90 L 148.70 344.60 L 155.50 330.60 L 162.90 316.80 L 170.70 303.30 L 179.20 290.10 L 188.20 277.20 L 197.60 264.70 L 207.60 252.50 L 218.10 240.70 L 229.20 229.20 L 240.70 218.10 L 252.50 207.60 L 264.70 197.60 L 277.20 188.20 L 290.10 179.20 L 303.30 170.70 L 316.80 162.90 L 330.60 155.50 L 344.60 148.70 L 358.90 142.40 L 373.50 136.80 L 388.20 131.60 L 403.10 127.10 L 418.30 123.10 L 433.60 119.80 L 449.00 117.00 L 464.60 114.80 L 480.20 113.30 L 496.00 112.30 L 512.00 112.00 L 528.00 112.30 L 543.80 113.30 L 559.40 114.80 L 575.00 117.00 L 590.40 119.80 L 605.70 123.10 L 620.90 127.10 L 635.80 131.60 L 650.50 136.80 L 665.10 142.40 L 679.40 148.70 L 693.40 155.50 L 707.20 162.90 L 720.70 170.70 L 733.90 179.20 L 746.80 188.20 L 759.30 197.60 L 771.50 207.60 L 783.30 218.10 L 794.80 229.20 L 805.90 240.70 L 816.40 252.50 L 826.40 264.70 L 835.80 277.20 L 844.80 290.10 L 853.30 303.30 L 861.10 316.80 L 868.50 330.60 L 875.30 344.60 L 881.60 358.90 L 887.20 373.50 L 892.40 388.20 L 896.90 403.10 L 900.90 418.30 L 904.20 433.60 L 907.00 449.00 L 909.20 464.60 L 910.70 480.20 L 911.70 496.00 L 912.00 512.00 Z" fill="#ffffff" fill-rule="evenodd" node-id="236" stroke="none" target-height="800" target-width="800" target-x="112" target-y="112"></path></mask><mask height="128.57147" id="mask2" maskUnits="userSpaceOnUse" node-id="240" width="115.33612" x="480.96008" y="644.1428"><path d="M 912.00 512.00 L 911.70 528.00 L 910.70 543.80 L 909.20 559.40 L 907.00 575.00 L 904.20 590.40 L 900.90 605.70 L 896.90 620.90 L 892.40 635.80 L 887.20 650.50 L 881.60 665.10 L 875.30 679.40 L 868.50 693.40 L 861.10 707.20 L 853.30 720.70 L 844.80 733.90 L 835.80 746.80 L 826.40 759.30 L 816.40 771.50 L 805.90 783.30 L 794.80 794.80 L 783.30 805.90 L 771.50 816.40 L 759.30 826.40 L 746.80 835.80 L 733.90 844.80 L 720.70 853.30 L 707.20 861.10 L 693.40 868.50 L 679.40 875.30 L 665.10 881.60 L 650.50 887.20 L 635.80 892.40 L 620.90 896.90 L 605.70 900.90 L 590.40 904.20 L 575.00 907.00 L 559.40 909.20 L 543.80 910.70 L 528.00 911.70 L 512.00 912.00 L 496.00 911.70 L 480.20 910.70 L 464.60 909.20 L 449.00 907.00 L 433.60 904.20 L 418.30 900.90 L 403.10 896.90 L 388.20 892.40 L 373.50 887.20 L 358.90 881.60 L 344.60 875.30 L 330.60 868.50 L 316.80 861.10 L 303.30 853.30 L 290.10 844.80 L 277.20 835.80 L 264.70 826.40 L 252.50 816.40 L 240.70 805.90 L 229.20 794.80 L 218.10 783.30 L 207.60 771.50 L 197.60 759.30 L 188.20 746.80 L 179.20 733.90 L 170.70 720.70 L 162.90 707.20 L 155.50 693.40 L 148.70 679.40 L 142.40 665.10 L 136.80 650.50 L 131.60 635.80 L 127.10 620.90 L 123.10 605.70 L 119.80 590.40 L 117.00 575.00 L 114.80 559.40 L 113.30 543.80 L 112.30 528.00 L 112.00 512.00 L 112.30 496.00 L 113.30 480.20 L 114.80 464.60 L 117.00 449.00 L 119.80 433.60 L 123.10 418.30 L 127.10 403.10 L 131.60 388.20 L 136.80 373.50 L 142.40 358.90 L 148.70 344.60 L 155.50 330.60 L 162.90 316.80 L 170.70 303.30 L 179.20 290.10 L 188.20 277.20 L 197.60 264.70 L 207.60 252.50 L 218.10 240.70 L 229.20 229.20 L 240.70 218.10 L 252.50 207.60 L 264.70 197.60 L 277.20 188.20 L 290.10 179.20 L 303.30 170.70 L 316.80 162.90 L 330.60 155.50 L 344.60 148.70 L 358.90 142.40 L 373.50 136.80 L 388.20 131.60 L 403.10 127.10 L 418.30 123.10 L 433.60 119.80 L 449.00 117.00 L 464.60 114.80 L 480.20 113.30 L 496.00 112.30 L 512.00 112.00 L 528.00 112.30 L 543.80 113.30 L 559.40 114.80 L 575.00 117.00 L 590.40 119.80 L 605.70 123.10 L 620.90 127.10 L 635.80 131.60 L 650.50 136.80 L 665.10 142.40 L 679.40 148.70 L 693.40 155.50 L 707.20 162.90 L 720.70 170.70 L 733.90 179.20 L 746.80 188.20 L 759.30 197.60 L 771.50 207.60 L 783.30 218.10 L 794.80 229.20 L 805.90 240.70 L 816.40 252.50 L 826.40 264.70 L 835.80 277.20 L 844.80 290.10 L 853.30 303.30 L 861.10 316.80 L 868.50 330.60 L 875.30 344.60 L 881.60 358.90 L 887.20 373.50 L 892.40 388.20 L 896.90 403.10 L 900.90 418.30 L 904.20 433.60 L 907.00 449.00 L 909.20 464.60 L 910.70 480.20 L 911.70 496.00 L 912.00 512.00 Z" fill="#ffffff" fill-rule="evenodd" node-id="244" stroke="none" target-height="800" target-width="800" target-x="112" target-y="112"></path></mask><mask height="81.19037" id="mask3" maskUnits="userSpaceOnUse" node-id="248" width="576.2488" x="-180.51376" y="523.0913"><path d="M 912.00 512.00 L 911.70 528.00 L 910.70 543.80 L 909.20 559.40 L 907.00 575.00 L 904.20 590.40 L 900.90 605.70 L 896.90 620.90 L 892.40 635.80 L 887.20 650.50 L 881.60 665.10 L 875.30 679.40 L 868.50 693.40 L 861.10 707.20 L 853.30 720.70 L 844.80 733.90 L 835.80 746.80 L 826.40 759.30 L 816.40 771.50 L 805.90 783.30 L 794.80 794.80 L 783.30 805.90 L 771.50 816.40 L 759.30 826.40 L 746.80 835.80 L 733.90 844.80 L 720.70 853.30 L 707.20 861.10 L 693.40 868.50 L 679.40 875.30 L 665.10 881.60 L 650.50 887.20 L 635.80 892.40 L 620.90 896.90 L 605.70 900.90 L 590.40 904.20 L 575.00 907.00 L 559.40 909.20 L 543.80 910.70 L 528.00 911.70 L 512.00 912.00 L 496.00 911.70 L 480.20 910.70 L 464.60 909.20 L 449.00 907.00 L 433.60 904.20 L 418.30 900.90 L 403.10 896.90 L 388.20 892.40 L 373.50 887.20 L 358.90 881.60 L 344.60 875.30 L 330.60 868.50 L 316.80 861.10 L 303.30 853.30 L 290.10 844.80 L 277.20 835.80 L 264.70 826.40 L 252.50 816.40 L 240.70 805.90 L 229.20 794.80 L 218.10 783.30 L 207.60 771.50 L 197.60 759.30 L 188.20 746.80 L 179.20 733.90 L 170.70 720.70 L 162.90 707.20 L 155.50 693.40 L 148.70 679.40 L 142.40 665.10 L 136.80 650.50 L 131.60 635.80 L 127.10 620.90 L 123.10 605.70 L 119.80 590.40 L 117.00 575.00 L 114.80 559.40 L 113.30 543.80 L 112.30 528.00 L 112.00 512.00 L 112.30 496.00 L 113.30 480.20 L 114.80 464.60 L 117.00 449.00 L 119.80 433.60 L 123.10 418.30 L 127.10 403.10 L 131.60 388.20 L 136.80 373.50 L 142.40 358.90 L 148.70 344.60 L 155.50 330.60 L 162.90 316.80 L 170.70 303.30 L 179.20 290.10 L 188.20 277.20 L 197.60 264.70 L 207.60 252.50 L 218.10 240.70 L 229.20 229.20 L 240.70 218.10 L 252.50 207.60 L 264.70 197.60 L 277.20 188.20 L 290.10 179.20 L 303.30 170.70 L 316.80 162.90 L 330.60 155.50 L 344.60 148.70 L 358.90 142.40 L 373.50 136.80 L 388.20 131.60 L 403.10 127.10 L 418.30 123.10 L 433.60 119.80 L 449.00 117.00 L 464.60 114.80 L 480.20 113.30 L 496.00 112.30 L 512.00 112.00 L 528.00 112.30 L 543.80 113.30 L 559.40 114.80 L 575.00 117.00 L 590.40 119.80 L 605.70 123.10 L 620.90 127.10 L 635.80 131.60 L 650.50 136.80 L 665.10 142.40 L 679.40 148.70 L 693.40 155.50 L 707.20 162.90 L 720.70 170.70 L 733.90 179.20 L 746.80 188.20 L 759.30 197.60 L 771.50 207.60 L 783.30 218.10 L 794.80 229.20 L 805.90 240.70 L 816.40 252.50 L 826.40 264.70 L 835.80 277.20 L 844.80 290.10 L 853.30 303.30 L 861.10 316.80 L 868.50 330.60 L 875.30 344.60 L 881.60 358.90 L 887.20 373.50 L 892.40 388.20 L 896.90 403.10 L 900.90 418.30 L 904.20 433.60 L 907.00 449.00 L 909.20 464.60 L 910.70 480.20 L 911.70 496.00 L 912.00 512.00 Z" fill="#ffffff" fill-rule="evenodd" node-id="252" stroke="none" target-height="800" target-width="800" target-x="112" target-y="112"></path></mask><mask height="97.51752" id="mask4" maskUnits="userSpaceOnUse" node-id="256" width="369.2146" x="699.08923" y="372.41046"><path d="M 855.40 512.00 L 855.70 528.00 L 856.70 543.80 L 858.20 559.40 L 860.40 575.00 L 863.20 590.40 L 866.50 605.70 L 870.50 620.90 L 875.00 635.80 L 880.10 650.50 L 885.80 665.10 L 892.10 679.40 L 898.90 693.40 L 906.20 707.20 L 914.10 720.70 L 922.60 733.90 L 931.50 746.80 L 941.00 759.30 L 951.00 771.50 L 961.50 783.30 L 972.60 794.80 L 984.10 805.90 L 995.90 816.40 L 1008.10 826.40 L 1020.60 835.80 L 1033.50 844.80 L 1046.70 853.30 L 1060.20 861.10 L 1074.00 868.50 L 1088.00 875.30 L 1102.30 881.60 L 1116.90 887.20 L 1131.60 892.40 L 1146.50 896.90 L 1161.70 900.90 L 1177.00 904.20 L 1192.40 907.00 L 1208.00 909.20 L 1223.60 910.70 L 1239.40 911.70 L 1255.40 912.00 L 1271.30 911.70 L 1287.10 910.70 L 1302.80 909.20 L 1318.40 907.00 L 1333.80 904.20 L 1349.10 900.90 L 1364.30 896.90 L 1379.20 892.40 L 1393.90 887.20 L 1408.50 881.60 L 1422.80 875.30 L 1436.80 868.50 L 1450.60 861.10 L 1464.10 853.30 L 1477.30 844.80 L 1490.20 835.80 L 1502.70 826.40 L 1514.90 816.40 L 1526.70 805.90 L 1538.20 794.80 L 1549.30 783.30 L 1559.80 771.50 L 1569.80 759.30 L 1579.20 746.80 L 1588.20 733.90 L 1596.60 720.70 L 1604.50 707.20 L 1611.90 693.40 L 1618.70 679.40 L 1624.90 665.10 L 1630.60 650.50 L 1635.80 635.80 L 1640.30 620.90 L 1644.30 605.70 L 1647.60 590.40 L 1650.40 575.00 L 1652.60 559.40 L 1654.10 543.80 L 1655.10 528.00 L 1655.40 512.00 L 1655.10 496.00 L 1654.10 480.20 L 1652.60 464.60 L 1650.40 449.00 L 1647.60 433.60 L 1644.30 418.30 L 1640.30 403.10 L 1635.80 388.20 L 1630.60 373.50 L 1624.90 358.90 L 1618.70 344.60 L 1611.90 330.60 L 1604.50 316.80 L 1596.60 303.30 L 1588.20 290.10 L 1579.20 277.20 L 1569.80 264.70 L 1559.80 252.50 L 1549.30 240.70 L 1538.20 229.20 L 1526.70 218.10 L 1514.90 207.60 L 1502.70 197.60 L 1490.20 188.20 L 1477.30 179.20 L 1464.10 170.70 L 1450.60 162.90 L 1436.80 155.50 L 1422.80 148.70 L 1408.50 142.40 L 1393.90 136.80 L 1379.20 131.60 L 1364.30 127.10 L 1349.10 123.10 L 1333.80 119.80 L 1318.40 117.00 L 1302.80 114.80 L 1287.10 113.30 L 1271.30 112.30 L 1255.40 112.00 L 1239.40 112.30 L 1223.60 113.30 L 1208.00 114.80 L 1192.40 117.00 L 1177.00 119.80 L 1161.70 123.10 L 1146.50 127.10 L 1131.60 131.60 L 1116.90 136.80 L 1102.30 142.40 L 1088.00 148.70 L 1074.00 155.50 L 1060.20 162.90 L 1046.70 170.70 L 1033.50 179.20 L 1020.60 188.20 L 1008.10 197.60 L 995.90 207.60 L 984.10 218.10 L 972.60 229.20 L 961.50 240.70 L 951.00 252.50 L 941.00 264.70 L 931.50 277.20 L 922.60 290.10 L 914.10 303.30 L 906.20 316.80 L 898.90 330.60 L 892.10 344.60 L 885.80 358.90 L 880.10 373.50 L 875.00 388.20 L 870.50 403.10 L 866.50 418.30 L 863.20 433.60 L 860.40 449.00 L 858.20 464.60 L 856.70 480.20 L 855.70 496.00 L 855.40 512.00 Z" fill="#ffffff" fill-rule="evenodd" node-id="260" stroke="none" target-height="800" target-width="800" target-x="855.4" target-y="112"></path></mask><mask height="97.517456" id="mask5" maskUnits="userSpaceOnUse" node-id="264" width="369.2146" x="699.08923" y="515.2677"><path d="M 855.40 616.10 L 855.70 600.10 L 856.70 584.30 L 858.20 568.60 L 860.40 553.10 L 863.20 537.70 L 866.50 522.30 L 870.50 507.20 L 875.00 492.30 L 880.10 477.50 L 885.80 463.00 L 892.10 448.70 L 898.90 434.60 L 906.20 420.90 L 914.10 407.40 L 922.60 394.10 L 931.50 381.30 L 941.00 368.70 L 951.00 356.60 L 961.50 344.70 L 972.60 333.20 L 984.10 322.20 L 995.90 311.70 L 1008.10 301.70 L 1020.60 292.20 L 1033.50 283.30 L 1046.70 274.80 L 1060.20 266.90 L 1074.00 259.60 L 1088.00 252.80 L 1102.30 246.50 L 1116.90 240.80 L 1131.60 235.70 L 1146.50 231.20 L 1161.70 227.20 L 1177.00 223.80 L 1192.40 221.00 L 1208.00 218.90 L 1223.60 217.30 L 1239.40 216.40 L 1255.40 216.10 L 1271.30 216.40 L 1287.10 217.30 L 1302.80 218.90 L 1318.40 221.00 L 1333.80 223.80 L 1349.10 227.20 L 1364.30 231.20 L 1379.20 235.70 L 1393.90 240.80 L 1408.50 246.50 L 1422.80 252.80 L 1436.80 259.60 L 1450.60 266.90 L 1464.10 274.80 L 1477.30 283.30 L 1490.20 292.20 L 1502.70 301.70 L 1514.90 311.70 L 1526.70 322.20 L 1538.20 333.20 L 1549.30 344.70 L 1559.80 356.60 L 1569.80 368.70 L 1579.20 381.30 L 1588.20 394.10 L 1596.60 407.40 L 1604.50 420.90 L 1611.90 434.60 L 1618.70 448.70 L 1624.90 463.00 L 1630.60 477.50 L 1635.80 492.30 L 1640.30 507.20 L 1644.30 522.30 L 1647.60 537.70 L 1650.40 553.10 L 1652.60 568.60 L 1654.10 584.30 L 1655.10 600.10 L 1655.40 616.10 L 1655.10 632.00 L 1654.10 647.80 L 1652.60 663.50 L 1650.40 679.00 L 1647.60 694.50 L 1644.30 709.80 L 1640.30 724.90 L 1635.80 739.80 L 1630.60 754.60 L 1624.90 769.10 L 1618.70 783.40 L 1611.90 797.50 L 1604.50 811.20 L 1596.60 824.70 L 1588.20 838.00 L 1579.20 850.80 L 1569.80 863.40 L 1559.80 875.50 L 1549.30 887.40 L 1538.20 898.90 L 1526.70 909.90 L 1514.90 920.50 L 1502.70 930.40 L 1490.20 939.90 L 1477.30 948.80 L 1464.10 957.30 L 1450.60 965.20 L 1436.80 972.50 L 1422.80 979.30 L 1408.50 985.60 L 1393.90 991.30 L 1379.20 996.40 L 1364.30 1001.00 L 1349.10 1004.90 L 1333.80 1008.30 L 1318.40 1011.10 L 1302.80 1013.20 L 1287.10 1014.80 L 1271.30 1015.70 L 1255.40 1016.10 L 1239.40 1015.70 L 1223.60 1014.80 L 1208.00 1013.20 L 1192.40 1011.10 L 1177.00 1008.30 L 1161.70 1004.90 L 1146.50 1001.00 L 1131.60 996.40 L 1116.90 991.30 L 1102.30 985.60 L 1088.00 979.30 L 1074.00 972.50 L 1060.20 965.20 L 1046.70 957.30 L 1033.50 948.80 L 1020.60 939.90 L 1008.10 930.40 L 995.90 920.50 L 984.10 909.90 L 972.60 898.90 L 961.50 887.40 L 951.00 875.50 L 941.00 863.40 L 931.50 850.80 L 922.60 838.00 L 914.10 824.70 L 906.20 811.20 L 898.90 797.50 L 892.10 783.40 L 885.80 769.10 L 880.10 754.60 L 875.00 739.80 L 870.50 724.90 L 866.50 709.80 L 863.20 694.50 L 860.40 679.00 L 858.20 663.50 L 856.70 647.80 L 855.70 632.00 L 855.40 616.10 Z" fill="#ffffff" fill-rule="evenodd" node-id="268" stroke="none" target-height="800" target-width="800" target-x="855.4" target-y="216.1"></path></mask><mask height="63.43048" id="mask6" maskUnits="userSpaceOnUse" node-id="272" width="186.4914" x="163.8476" y="598.857"><path d="M 912.00 512.00 L 911.70 528.00 L 910.70 543.80 L 909.20 559.40 L 907.00 575.00 L 904.20 590.40 L 900.90 605.70 L 896.90 620.90 L 892.40 635.80 L 887.20 650.50 L 881.60 665.10 L 875.30 679.40 L 868.50 693.40 L 861.10 707.20 L 853.30 720.70 L 844.80 733.90 L 835.80 746.80 L 826.40 759.30 L 816.40 771.50 L 805.90 783.30 L 794.80 794.80 L 783.30 805.90 L 771.50 816.40 L 759.30 826.40 L 746.80 835.80 L 733.90 844.80 L 720.70 853.30 L 707.20 861.10 L 693.40 868.50 L 679.40 875.30 L 665.10 881.60 L 650.50 887.20 L 635.80 892.40 L 620.90 896.90 L 605.70 900.90 L 590.40 904.20 L 575.00 907.00 L 559.40 909.20 L 543.80 910.70 L 528.00 911.70 L 512.00 912.00 L 496.00 911.70 L 480.20 910.70 L 464.60 909.20 L 449.00 907.00 L 433.60 904.20 L 418.30 900.90 L 403.10 896.90 L 388.20 892.40 L 373.50 887.20 L 358.90 881.60 L 344.60 875.30 L 330.60 868.50 L 316.80 861.10 L 303.30 853.30 L 290.10 844.80 L 277.20 835.80 L 264.70 826.40 L 252.50 816.40 L 240.70 805.90 L 229.20 794.80 L 218.10 783.30 L 207.60 771.50 L 197.60 759.30 L 188.20 746.80 L 179.20 733.90 L 170.70 720.70 L 162.90 707.20 L 155.50 693.40 L 148.70 679.40 L 142.40 665.10 L 136.80 650.50 L 131.60 635.80 L 127.10 620.90 L 123.10 605.70 L 119.80 590.40 L 117.00 575.00 L 114.80 559.40 L 113.30 543.80 L 112.30 528.00 L 112.00 512.00 L 112.30 496.00 L 113.30 480.20 L 114.80 464.60 L 117.00 449.00 L 119.80 433.60 L 123.10 418.30 L 127.10 403.10 L 131.60 388.20 L 136.80 373.50 L 142.40 358.90 L 148.70 344.60 L 155.50 330.60 L 162.90 316.80 L 170.70 303.30 L 179.20 290.10 L 188.20 277.20 L 197.60 264.70 L 207.60 252.50 L 218.10 240.70 L 229.20 229.20 L 240.70 218.10 L 252.50 207.60 L 264.70 197.60 L 277.20 188.20 L 290.10 179.20 L 303.30 170.70 L 316.80 162.90 L 330.60 155.50 L 344.60 148.70 L 358.90 142.40 L 373.50 136.80 L 388.20 131.60 L 403.10 127.10 L 418.30 123.10 L 433.60 119.80 L 449.00 117.00 L 464.60 114.80 L 480.20 113.30 L 496.00 112.30 L 512.00 112.00 L 528.00 112.30 L 543.80 113.30 L 559.40 114.80 L 575.00 117.00 L 590.40 119.80 L 605.70 123.10 L 620.90 127.10 L 635.80 131.60 L 650.50 136.80 L 665.10 142.40 L 679.40 148.70 L 693.40 155.50 L 707.20 162.90 L 720.70 170.70 L 733.90 179.20 L 746.80 188.20 L 759.30 197.60 L 771.50 207.60 L 783.30 218.10 L 794.80 229.20 L 805.90 240.70 L 816.40 252.50 L 826.40 264.70 L 835.80 277.20 L 844.80 290.10 L 853.30 303.30 L 861.10 316.80 L 868.50 330.60 L 875.30 344.60 L 881.60 358.90 L 887.20 373.50 L 892.40 388.20 L 896.90 403.10 L 900.90 418.30 L 904.20 433.60 L 907.00 449.00 L 909.20 464.60 L 910.70 480.20 L 911.70 496.00 L 912.00 512.00 Z" fill="#ffffff" fill-rule="evenodd" node-id="276" stroke="none" target-height="800" target-width="800" target-x="112" target-y="112"></path></mask></defs><g node-id="369"><path d="M 12.00 12.00 L 1012.00 12.00 L 1012.00 1012.00 L 12.00 1012.00 Z" fill="none" group-id="1" hidden="true" id="矩形" node-id="60" stroke="none" target-height="1000" target-width="1000" target-x="12" target-y="12" visibility="hidden"></path><g node-id="370"><path d="M 512.00 940.60 L 526.90 940.30 L 541.50 939.60 L 556.00 938.30 L 570.30 936.60 L 584.40 934.50 L 598.40 931.90 L 612.30 928.80 L 626.10 925.20 L 639.60 921.30 L 652.80 916.90 L 665.90 912.10 L 678.80 906.90 L 691.60 901.20 L 704.10 895.20 L 716.30 888.80 L 728.30 882.00 L 740.10 874.90 L 751.60 867.40 L 765.10 857.90 L 778.20 847.90 L 790.90 837.40 L 803.20 826.50 L 815.00 815.00 L 826.50 803.20 L 837.40 790.90 L 847.90 778.20 L 857.90 765.10 L 867.40 751.60 L 874.90 740.10 L 882.00 728.30 L 888.80 716.30 L 895.20 704.10 L 901.20 691.60 L 906.90 678.80 L 912.10 665.90 L 916.90 652.80 L 921.30 639.60 L 925.20 626.10 L 928.80 612.30 L 931.90 598.40 L 934.50 584.40 L 936.60 570.30 L 938.30 556.00 L 939.60 541.50 L 940.30 526.90 L 940.60 512.00 L 940.30 497.10 L 939.60 482.50 L 938.30 468.00 L 936.60 453.70 L 934.50 439.60 L 931.90 425.60 L 928.80 411.70 L 925.20 397.90 L 921.30 384.40 L 916.90 371.20 L 912.10 358.10 L 906.90 345.20 L 901.20 332.40 L 895.20 319.90 L 888.80 307.70 L 882.00 295.70 L 874.90 283.90 L 867.40 272.40 L 857.90 258.90 L 847.90 245.80 L 837.40 233.10 L 826.50 220.80 L 815.00 209.00 L 803.20 197.50 L 790.90 186.60 L 778.20 176.10 L 765.10 166.10 L 751.60 156.60 L 740.10 149.10 L 728.30 142.00 L 716.30 135.20 L 704.10 128.80 L 691.60 122.80 L 678.80 117.10 L 665.90 111.90 L 652.80 107.10 L 639.60 102.70 L 626.10 98.80 L 612.30 95.20 L 598.40 92.10 L 584.40 89.50 L 570.30 87.40 L 556.00 85.70 L 541.50 84.40 L 526.90 83.70 L 512.00 83.40 L 497.10 83.70 L 482.50 84.40 L 468.00 85.70 L 453.70 87.40 L 439.60 89.50 L 425.60 92.10 L 411.70 95.20 L 397.90 98.80 L 384.40 102.70 L 371.20 107.10 L 358.10 111.90 L 345.20 117.10 L 332.40 122.80 L 319.90 128.80 L 307.70 135.20 L 295.70 142.00 L 283.90 149.10 L 272.40 156.60 L 258.90 166.10 L 245.80 176.10 L 233.10 186.60 L 220.80 197.50 L 209.00 209.00 L 197.50 220.80 L 186.60 233.10 L 176.10 245.80 L 166.10 258.90 L 156.60 272.40 L 149.10 283.90 L 142.00 295.70 L 135.20 307.70 L 128.80 319.90 L 122.80 332.40 L 117.10 345.20 L 111.90 358.10 L 107.10 371.20 L 102.70 384.40 L 98.80 397.90 L 95.20 411.70 L 92.10 425.60 L 89.50 439.60 L 87.40 453.70 L 85.70 468.00 L 84.40 482.50 L 83.70 497.10 L 83.40 512.00 L 83.70 526.90 L 84.40 541.50 L 85.70 556.00 L 87.40 570.30 L 89.50 584.40 L 92.10 598.40 L 95.20 612.30 L 98.80 626.10 L 102.70 639.60 L 107.10 652.80 L 111.90 665.90 L 117.10 678.80 L 122.80 691.60 L 128.80 704.10 L 135.20 716.30 L 142.00 728.30 L 149.10 740.10 L 156.60 751.60 L 166.10 765.10 L 176.10 778.20 L 186.60 790.90 L 197.50 803.20 L 209.00 815.00 L 220.80 826.50 L 233.10 837.40 L 245.80 847.90 L 258.90 857.90 L 272.40 867.40 L 283.90 874.90 L 295.70 882.00 L 307.70 888.80 L 319.90 895.20 L 332.40 901.20 L 345.20 906.90 L 358.10 912.10 L 371.20 916.90 L 384.40 921.30 L 397.90 925.20 L 411.70 928.80 L 425.60 931.90 L 439.60 934.50 L 453.70 936.60 L 468.00 938.30 L 482.50 939.60 L 497.10 940.30 L 512.00 940.60 Z" fill="#ffffff" fill-rule="evenodd" group-id="1,2" hidden="true" id="椭圆形" node-id="62" stroke="none" target-height="857.19995" target-width="857.19995" target-x="83.4" target-y="83.4" visibility="hidden"></path><path d="M 526.20 936.80 L 527.60 937.00 L 528.70 937.70 L 529.50 938.80 L 529.80 940.20 L 529.60 941.60 L 528.90 942.80 L 527.80 943.60 L 526.40 943.90 L 512.00 944.10 L 510.60 943.90 L 509.50 943.10 L 508.70 942.00 L 508.40 940.60 L 508.70 939.20 L 509.50 938.00 L 510.60 937.30 L 512.00 937.00 L 526.20 936.80 Z M 476.60 935.60 L 491.00 936.50 L 492.40 936.80 L 493.40 937.70 L 494.10 938.80 L 494.40 940.20 L 494.00 941.60 L 493.20 942.70 L 492.00 943.40 L 490.60 943.60 L 476.20 942.70 L 474.90 942.30 L 473.80 941.40 L 473.20 940.30 L 473.00 938.80 L 473.40 937.50 L 474.20 936.40 L 475.40 935.70 L 476.60 935.60 Z M 568.50 933.30 L 569.90 933.40 L 571.10 934.00 L 572.00 935.00 L 572.50 936.30 L 572.40 937.80 L 571.80 939.00 L 570.80 939.90 L 569.40 940.40 L 555.10 942.00 L 553.70 941.90 L 552.50 941.20 L 551.70 940.20 L 551.20 938.80 L 551.40 937.40 L 552.00 936.20 L 553.10 935.30 L 554.40 934.90 L 568.50 933.30 Z M 430.50 932.90 L 431.10 931.50 L 432.00 930.60 L 433.30 930.00 L 434.70 930.00 L 448.70 932.30 L 450.00 932.80 L 451.00 933.70 L 451.60 934.90 L 451.70 936.40 L 451.20 937.70 L 450.30 938.70 L 449.00 939.30 L 447.60 939.40 L 433.40 937.00 L 432.10 936.50 L 431.10 935.50 L 430.60 934.30 L 430.50 932.90 Z M 610.30 925.60 L 611.70 925.50 L 613.00 926.00 L 614.00 926.90 L 614.60 928.20 L 614.60 929.70 L 614.20 930.90 L 613.20 931.90 L 611.90 932.50 L 597.90 935.60 L 596.40 935.60 L 595.20 935.10 L 594.20 934.10 L 593.70 932.80 L 593.70 931.40 L 594.20 930.10 L 595.10 929.20 L 596.50 928.60 L 610.30 925.60 Z M 388.90 922.70 L 389.60 921.40 L 390.60 920.50 L 391.90 920.10 L 393.30 920.20 L 407.00 923.90 L 408.30 924.60 L 409.20 925.60 L 409.70 926.80 L 409.60 928.30 L 409.00 929.60 L 408.00 930.50 L 406.70 930.90 L 405.30 930.90 L 391.40 927.10 L 390.10 926.40 L 389.20 925.40 L 388.80 924.10 L 388.90 922.70 Z M 651.10 913.70 L 652.60 913.50 L 653.90 913.90 L 655.00 914.70 L 655.70 915.90 L 655.90 917.30 L 655.50 918.60 L 654.70 919.70 L 653.50 920.50 L 639.80 924.90 L 638.30 925.10 L 637.00 924.70 L 636.00 923.80 L 635.30 922.60 L 635.20 921.20 L 635.60 919.90 L 636.40 918.80 L 637.70 918.10 L 651.10 913.70 Z M 348.50 908.30 L 349.30 907.10 L 350.40 906.40 L 351.80 906.10 L 353.20 906.30 L 366.40 911.40 L 367.60 912.20 L 368.40 913.30 L 368.70 914.60 L 368.50 916.00 L 367.80 917.20 L 366.70 918.00 L 365.40 918.30 L 364.00 918.10 L 350.50 913.00 L 349.30 912.20 L 348.60 911.00 L 348.30 909.70 L 348.50 908.30 Z M 690.50 897.80 L 691.90 897.50 L 693.20 897.70 L 694.40 898.40 L 695.20 899.60 L 695.50 901.00 L 695.30 902.30 L 694.60 903.50 L 693.50 904.30 L 680.30 910.10 L 678.90 910.40 L 677.60 910.20 L 676.40 909.40 L 675.60 908.20 L 675.30 906.80 L 675.60 905.50 L 676.30 904.40 L 677.50 903.60 L 690.50 897.80 Z M 309.80 890.00 L 310.70 888.90 L 311.90 888.20 L 313.20 888.10 L 314.60 888.50 L 327.20 894.80 L 328.40 895.70 L 329.00 896.90 L 329.20 898.20 L 328.90 899.60 L 328.00 900.70 L 326.80 901.40 L 325.50 901.60 L 324.10 901.30 L 311.30 894.80 L 310.10 893.90 L 309.50 892.70 L 309.40 891.30 L 309.80 890.00 Z M 728.10 878.00 L 729.50 877.60 L 730.80 877.60 L 732.00 878.20 L 733.00 879.30 L 733.50 880.60 L 733.40 882.00 L 732.80 883.20 L 731.70 884.20 L 719.20 891.30 L 717.90 891.70 L 716.50 891.60 L 715.30 891.00 L 714.40 889.90 L 714.00 888.50 L 714.10 887.20 L 714.70 886.00 L 715.80 885.00 L 728.10 878.00 Z M 273.00 867.80 L 274.00 866.80 L 275.30 866.30 L 276.70 866.30 L 278.00 866.80 L 289.90 874.40 L 291.00 875.40 L 291.50 876.70 L 291.60 878.00 L 291.10 879.40 L 290.10 880.40 L 288.90 881.00 L 287.50 881.00 L 286.20 880.50 L 274.00 872.80 L 273.00 871.80 L 272.50 870.50 L 272.50 869.20 L 273.00 867.80 Z M 763.60 854.60 L 764.90 854.00 L 766.20 853.90 L 767.50 854.40 L 768.60 855.30 L 769.20 856.60 L 769.20 858.00 L 768.80 859.30 L 767.80 860.30 L 756.10 868.70 L 754.70 869.20 L 753.40 869.20 L 752.10 868.70 L 751.10 867.80 L 750.50 866.40 L 750.50 865.10 L 751.00 863.80 L 752.00 862.80 L 763.60 854.60 Z M 238.70 842.20 L 239.80 841.30 L 241.10 840.90 L 242.50 841.00 L 243.70 841.70 L 254.90 850.40 L 255.80 851.50 L 256.20 852.80 L 256.20 854.10 L 255.60 855.40 L 254.50 856.40 L 253.20 856.80 L 251.80 856.70 L 250.50 856.10 L 239.20 847.20 L 238.30 846.10 L 237.90 844.80 L 238.10 843.40 L 238.70 842.20 Z M 796.50 827.70 L 797.70 827.00 L 799.10 826.80 L 800.40 827.10 L 801.60 828.00 L 802.30 829.20 L 802.50 830.60 L 802.10 831.90 L 801.30 833.00 L 790.40 842.50 L 789.20 843.20 L 787.80 843.30 L 786.50 842.90 L 785.40 842.10 L 784.70 840.80 L 784.60 839.50 L 785.00 838.10 L 785.80 837.00 L 796.50 827.70 Z M 207.10 813.20 L 208.30 812.40 L 209.60 812.20 L 211.00 812.40 L 212.20 813.20 L 222.40 823.00 L 223.20 824.20 L 223.50 825.50 L 223.30 826.90 L 222.60 828.10 L 221.40 828.90 L 220.10 829.20 L 218.70 829.00 L 217.50 828.30 L 207.10 818.30 L 206.30 817.10 L 206.10 815.70 L 206.30 814.40 L 207.10 813.20 Z M 826.60 797.80 L 827.70 796.90 L 829.00 796.60 L 830.40 796.80 L 831.60 797.50 L 832.50 798.70 L 832.80 800.00 L 832.60 801.40 L 831.90 802.60 L 822.00 813.10 L 820.80 813.90 L 819.50 814.20 L 818.10 813.90 L 816.90 813.20 L 816.10 812.00 L 815.90 810.60 L 816.10 809.30 L 816.90 808.10 L 826.60 797.80 Z M 178.60 781.30 L 179.90 780.70 L 181.20 780.50 L 182.50 780.90 L 183.60 781.80 L 192.80 792.60 L 193.50 793.90 L 193.70 795.20 L 193.30 796.50 L 192.50 797.70 L 191.20 798.40 L 189.90 798.50 L 188.60 798.20 L 187.40 797.30 L 178.10 786.40 L 177.40 785.10 L 177.30 783.80 L 177.70 782.50 L 178.60 781.30 Z M 853.60 765.00 L 854.60 764.00 L 855.90 763.50 L 857.30 763.60 L 858.60 764.20 L 859.50 765.30 L 860.00 766.60 L 859.90 767.90 L 859.30 769.20 L 850.50 780.60 L 849.40 781.50 L 848.10 782.00 L 846.80 781.90 L 845.50 781.20 L 844.60 780.10 L 844.20 778.80 L 844.30 777.50 L 844.90 776.20 L 853.60 765.00 Z M 153.30 746.70 L 154.60 746.10 L 156.00 746.20 L 157.30 746.70 L 158.30 747.70 L 166.30 759.30 L 166.90 760.60 L 167.00 762.00 L 166.50 763.30 L 165.50 764.30 L 164.20 764.90 L 162.90 764.90 L 161.60 764.50 L 160.50 763.50 L 152.30 751.60 L 151.80 750.30 L 151.80 749.00 L 152.30 747.70 L 153.30 746.70 Z M 877.20 729.60 L 878.10 728.50 L 879.30 728.00 L 880.70 727.90 L 882.00 728.40 L 883.10 729.30 L 883.70 730.50 L 883.80 731.90 L 883.30 733.30 L 875.70 745.50 L 874.70 746.50 L 873.50 747.00 L 872.10 747.10 L 870.80 746.60 L 869.70 745.60 L 869.20 744.30 L 869.20 743.00 L 869.70 741.60 L 877.20 729.60 Z M 131.60 709.70 L 133.00 709.30 L 134.40 709.50 L 135.60 710.10 L 136.50 711.20 L 143.30 723.60 L 143.80 725.00 L 143.70 726.30 L 143.10 727.50 L 142.00 728.50 L 140.70 728.90 L 139.30 728.80 L 138.10 728.20 L 137.10 727.20 L 130.20 714.60 L 129.80 713.20 L 129.90 711.80 L 130.50 710.60 L 131.60 709.70 Z M 897.10 692.10 L 897.90 690.90 L 899.10 690.20 L 900.40 690.00 L 901.80 690.30 L 903.00 691.20 L 903.70 692.40 L 903.90 693.70 L 903.60 695.10 L 897.20 708.00 L 896.30 709.10 L 895.10 709.80 L 893.80 710.00 L 892.40 709.60 L 891.30 708.70 L 890.60 707.50 L 890.50 706.20 L 890.90 704.80 L 897.10 692.10 Z M 113.80 670.80 L 115.20 670.50 L 116.50 670.80 L 117.70 671.60 L 118.40 672.70 L 124.00 685.80 L 124.30 687.20 L 124.10 688.50 L 123.40 689.60 L 122.20 690.50 L 120.80 690.80 L 119.50 690.60 L 118.30 689.80 L 117.50 688.70 L 111.80 675.40 L 111.60 674.00 L 111.80 672.70 L 112.60 671.60 L 113.80 670.80 Z M 913.20 652.70 L 913.90 651.50 L 915.00 650.70 L 916.30 650.30 L 917.70 650.50 L 918.90 651.30 L 919.70 652.40 L 920.10 653.70 L 919.90 655.10 L 914.90 668.60 L 914.10 669.80 L 913.00 670.60 L 911.70 670.90 L 910.30 670.60 L 909.10 669.90 L 908.30 668.70 L 908.00 667.40 L 908.20 666.00 L 913.20 652.70 Z M 99.90 630.20 L 101.40 630.10 L 102.70 630.50 L 103.70 631.40 L 104.40 632.70 L 108.60 646.20 L 108.80 647.60 L 108.40 648.90 L 107.60 650.00 L 106.30 650.70 L 104.90 650.90 L 103.60 650.50 L 102.50 649.70 L 101.80 648.40 L 97.50 634.70 L 97.40 633.30 L 97.80 632.00 L 98.70 630.90 L 99.90 630.20 Z M 925.20 611.90 L 925.80 610.60 L 926.80 609.70 L 928.10 609.30 L 929.50 609.30 L 930.80 609.90 L 931.70 610.90 L 932.20 612.20 L 932.10 613.60 L 928.50 627.60 L 927.90 628.80 L 926.80 629.70 L 925.60 630.10 L 924.10 630.00 L 922.90 629.40 L 922.00 628.40 L 921.50 627.10 L 921.60 625.60 L 925.20 611.90 Z M 90.20 588.50 L 91.70 588.60 L 92.90 589.10 L 93.90 590.10 L 94.40 591.40 L 97.30 605.30 L 97.30 606.70 L 96.80 608.00 L 95.90 608.90 L 94.60 609.50 L 93.10 609.60 L 91.90 609.10 L 90.90 608.10 L 90.30 606.80 L 87.40 592.70 L 87.40 591.30 L 87.90 590.00 L 88.90 589.10 L 90.20 588.50 Z M 933.10 570.10 L 933.50 568.80 L 934.40 567.80 L 935.70 567.20 L 937.10 567.10 L 938.40 567.60 L 939.40 568.50 L 940.00 569.70 L 940.10 571.10 L 937.90 585.40 L 937.40 586.70 L 936.50 587.70 L 935.20 588.20 L 933.80 588.30 L 932.50 587.80 L 931.50 586.80 L 930.90 585.60 L 930.90 584.10 L 933.10 570.10 Z M 84.70 546.00 L 86.20 546.20 L 87.40 546.80 L 88.20 547.90 L 88.60 549.30 L 90.10 563.30 L 90.00 564.80 L 89.30 566.00 L 88.30 566.90 L 87.00 567.30 L 85.50 567.20 L 84.30 566.60 L 83.40 565.60 L 83.00 564.20 L 81.50 549.90 L 81.70 548.50 L 82.30 547.30 L 83.40 546.40 L 84.70 546.00 Z M 940.20 524.40 L 941.80 524.70 L 942.90 525.50 L 943.60 526.70 L 943.80 528.10 L 943.10 542.50 L 942.70 543.90 L 941.90 544.90 L 940.70 545.60 L 939.30 545.80 L 937.90 545.40 L 936.80 544.60 L 936.10 543.40 L 936.00 542.00 L 936.70 527.80 L 937.00 526.40 L 937.80 525.30 L 939.00 524.60 L 940.20 524.40 Z M 83.50 503.20 L 84.90 503.50 L 86.00 504.30 L 86.80 505.40 L 87.00 506.80 L 87.10 521.00 L 86.80 522.40 L 86.10 523.50 L 85.00 524.30 L 83.60 524.60 L 82.20 524.40 L 81.00 523.60 L 80.30 522.50 L 80.00 521.10 L 79.90 512.00 L 79.90 506.70 L 80.20 505.30 L 81.00 504.20 L 82.10 503.50 L 83.50 503.20 Z M 939.50 481.60 L 940.90 481.80 L 942.10 482.50 L 942.90 483.60 L 943.30 485.00 L 944.00 499.40 L 943.70 500.80 L 943.00 501.90 L 941.90 502.70 L 940.50 503.00 L 939.10 502.80 L 937.90 502.00 L 937.10 500.90 L 936.80 499.60 L 936.20 485.40 L 936.40 484.00 L 937.10 482.80 L 938.10 482.00 L 939.50 481.60 Z M 82.50 463.70 L 83.00 462.40 L 83.80 461.30 L 85.00 460.70 L 86.50 460.60 L 87.80 461.00 L 88.90 461.90 L 89.50 463.10 L 89.60 464.50 L 88.30 478.60 L 87.90 480.00 L 87.10 481.10 L 85.90 481.70 L 84.50 481.90 L 83.10 481.50 L 82.00 480.70 L 81.30 479.50 L 81.20 478.10 L 82.50 463.70 Z M 934.40 439.10 L 935.80 439.20 L 937.10 439.70 L 938.00 440.70 L 938.50 442.10 L 940.60 456.30 L 940.50 457.70 L 939.90 458.90 L 938.90 459.80 L 937.50 460.30 L 936.10 460.20 L 934.90 459.60 L 934.00 458.60 L 933.50 457.20 L 931.50 443.20 L 931.50 441.80 L 932.10 440.50 L 933.10 439.60 L 934.40 439.10 Z M 89.50 421.00 L 90.00 419.70 L 91.00 418.80 L 92.30 418.30 L 93.70 418.30 L 95.00 418.90 L 95.90 419.80 L 96.50 421.10 L 96.40 422.50 L 93.70 436.40 L 93.20 437.80 L 92.20 438.70 L 91.00 439.30 L 89.60 439.30 L 88.20 438.80 L 87.30 437.80 L 86.70 436.60 L 86.70 435.20 L 89.50 421.00 Z M 925.10 397.30 L 926.50 397.20 L 927.80 397.60 L 928.80 398.50 L 929.40 399.80 L 932.90 413.80 L 933.00 415.20 L 932.50 416.50 L 931.60 417.50 L 930.30 418.10 L 928.80 418.10 L 927.60 417.60 L 926.60 416.70 L 926.00 415.40 L 922.50 401.60 L 922.40 400.20 L 922.90 398.90 L 923.80 397.90 L 925.10 397.30 Z M 100.60 379.20 L 101.30 378.00 L 102.40 377.20 L 103.70 376.80 L 105.10 376.90 L 106.40 377.60 L 107.20 378.70 L 107.60 380.00 L 107.40 381.40 L 103.30 395.00 L 102.70 396.30 L 101.60 397.10 L 100.30 397.60 L 98.90 397.40 L 97.60 396.80 L 96.80 395.70 L 96.30 394.40 L 96.40 393.00 L 100.60 379.20 Z M 911.50 356.60 L 912.90 356.40 L 914.30 356.70 L 915.40 357.40 L 916.10 358.70 L 921.00 372.20 L 921.20 373.60 L 920.90 374.90 L 920.00 376.00 L 918.80 376.70 L 917.40 376.90 L 916.10 376.60 L 915.00 375.70 L 914.30 374.50 L 909.50 361.20 L 909.20 359.80 L 909.50 358.50 L 910.30 357.30 L 911.50 356.60 Z M 116.00 338.80 L 116.80 337.70 L 117.90 336.90 L 119.30 336.70 L 120.70 337.00 L 121.80 337.80 L 122.60 339.00 L 122.80 340.30 L 122.50 341.70 L 117.00 354.80 L 116.30 356.00 L 115.10 356.70 L 113.80 357.00 L 112.40 356.80 L 111.20 356.00 L 110.40 354.90 L 110.10 353.50 L 110.40 352.10 L 116.00 338.80 Z M 894.00 317.50 L 895.40 317.10 L 896.70 317.30 L 897.90 318.00 L 898.80 319.10 L 905.00 332.10 L 905.40 333.50 L 905.10 334.90 L 904.40 336.00 L 903.30 336.90 L 901.90 337.20 L 900.60 337.00 L 899.40 336.30 L 898.50 335.10 L 892.40 322.30 L 892.10 320.90 L 892.20 319.60 L 892.90 318.40 L 894.00 317.50 Z M 135.20 300.20 L 136.20 299.10 L 137.40 298.50 L 138.80 298.40 L 140.10 298.80 L 141.20 299.80 L 141.80 301.00 L 141.90 302.30 L 141.50 303.70 L 134.70 316.10 L 133.80 317.20 L 132.60 317.90 L 131.30 318.00 L 129.90 317.70 L 128.80 316.80 L 128.20 315.60 L 128.00 314.20 L 128.40 312.80 L 135.20 300.20 Z M 872.70 280.40 L 874.00 279.90 L 875.40 279.90 L 876.60 280.40 L 877.60 281.50 L 885.10 293.80 L 885.50 295.10 L 885.40 296.50 L 884.90 297.70 L 883.80 298.70 L 882.40 299.10 L 881.10 299.00 L 879.90 298.50 L 878.90 297.40 L 871.50 285.30 L 871.00 284.00 L 871.10 282.60 L 871.60 281.40 L 872.70 280.40 Z M 158.30 263.60 L 159.40 262.60 L 160.60 262.10 L 162.00 262.20 L 163.30 262.70 L 164.30 263.80 L 164.80 265.10 L 164.70 266.40 L 164.20 267.70 L 156.20 279.40 L 155.20 280.50 L 154.00 281.00 L 152.60 281.00 L 151.30 280.50 L 150.30 279.50 L 149.70 278.20 L 149.70 276.90 L 150.20 275.50 L 158.30 263.60 Z M 847.70 245.50 L 849.00 244.90 L 850.30 244.80 L 851.60 245.20 L 852.70 246.10 L 861.40 257.60 L 862.00 258.90 L 862.00 260.30 L 861.60 261.60 L 860.60 262.60 L 859.30 263.20 L 857.90 263.30 L 856.70 262.80 L 855.60 261.80 L 847.10 250.50 L 846.40 249.30 L 846.30 247.90 L 846.80 246.60 L 847.70 245.50 Z M 184.90 229.50 L 186.10 228.70 L 187.40 228.30 L 188.70 228.50 L 190.00 229.20 L 190.80 230.30 L 191.20 231.60 L 191.00 233.00 L 190.30 234.20 L 181.30 245.10 L 180.10 246.00 L 178.90 246.40 L 177.50 246.30 L 176.20 245.60 L 175.30 244.50 L 174.90 243.20 L 175.00 241.90 L 175.70 240.60 L 184.90 229.50 Z M 819.40 213.30 L 820.60 212.60 L 821.90 212.30 L 823.30 212.60 L 824.40 213.40 L 834.20 224.00 L 834.90 225.20 L 835.10 226.60 L 834.80 227.90 L 833.90 229.10 L 832.70 229.80 L 831.30 230.00 L 830.00 229.60 L 828.90 228.80 L 819.30 218.40 L 818.50 217.20 L 818.30 215.80 L 818.60 214.50 L 819.40 213.30 Z M 214.70 198.30 L 216.00 197.60 L 217.30 197.40 L 218.60 197.60 L 219.80 198.50 L 220.50 199.70 L 220.80 201.00 L 220.50 202.30 L 219.70 203.50 L 209.50 213.40 L 208.30 214.20 L 207.00 214.50 L 205.70 214.30 L 204.50 213.50 L 203.70 212.30 L 203.40 211.00 L 203.70 209.60 L 204.50 208.40 L 214.70 198.30 Z M 788.10 184.20 L 789.20 183.30 L 790.50 182.90 L 791.90 183.10 L 793.10 183.80 L 803.90 193.30 L 804.70 194.50 L 805.10 195.80 L 804.90 197.20 L 804.10 198.40 L 803.00 199.20 L 801.60 199.50 L 800.30 199.30 L 799.10 198.60 L 788.50 189.20 L 787.60 188.10 L 787.20 186.80 L 787.40 185.40 L 788.10 184.20 Z M 247.50 170.20 L 248.80 169.60 L 250.20 169.50 L 251.40 169.90 L 252.50 170.90 L 253.20 172.10 L 253.20 173.50 L 252.80 174.80 L 251.90 175.90 L 240.80 184.70 L 239.60 185.40 L 238.20 185.50 L 236.90 185.20 L 235.80 184.30 L 235.10 183.00 L 235.00 181.60 L 235.40 180.30 L 236.30 179.20 L 247.50 170.20 Z M 754.00 158.20 L 755.00 157.20 L 756.30 156.70 L 757.60 156.70 L 758.90 157.30 L 770.60 165.70 L 771.60 166.80 L 772.00 168.10 L 771.90 169.50 L 771.30 170.70 L 770.30 171.70 L 769.00 172.10 L 767.60 172.10 L 766.30 171.50 L 754.80 163.20 L 753.90 162.10 L 753.40 160.90 L 753.40 159.50 L 754.00 158.20 Z M 283.00 145.50 L 284.30 145.00 L 285.70 145.00 L 286.90 145.60 L 287.90 146.60 L 288.40 147.90 L 288.40 149.30 L 287.80 150.50 L 286.80 151.50 L 274.90 159.20 L 273.60 159.80 L 272.20 159.80 L 271.00 159.30 L 269.90 158.30 L 269.40 156.90 L 269.40 155.60 L 269.90 154.30 L 270.90 153.30 L 283.00 145.50 Z M 717.50 135.80 L 718.40 134.70 L 719.60 134.10 L 721.00 134.00 L 722.30 134.40 L 734.80 141.60 L 735.80 142.60 L 736.40 143.80 L 736.50 145.20 L 736.00 146.50 L 735.00 147.60 L 733.80 148.20 L 732.40 148.20 L 731.10 147.70 L 718.80 140.60 L 717.80 139.70 L 717.10 138.50 L 717.00 137.10 L 717.50 135.80 Z M 320.70 124.40 L 322.10 124.00 L 323.40 124.20 L 324.60 124.90 L 325.50 126.00 L 325.80 127.40 L 325.70 128.70 L 325.00 129.90 L 323.90 130.80 L 311.30 137.30 L 309.90 137.70 L 308.60 137.60 L 307.30 136.90 L 306.40 135.80 L 306.00 134.50 L 306.20 133.10 L 306.80 131.90 L 307.90 131.00 L 320.70 124.40 Z M 678.90 117.10 L 679.70 115.90 L 680.80 115.20 L 682.20 115.00 L 683.50 115.20 L 696.70 121.20 L 697.80 122.00 L 698.50 123.20 L 698.70 124.60 L 698.40 125.90 L 697.50 127.10 L 696.30 127.80 L 695.00 128.00 L 693.60 127.60 L 680.70 121.80 L 679.50 121.00 L 678.80 119.80 L 678.60 118.50 L 678.90 117.10 Z M 360.30 107.20 L 361.70 107.00 L 363.00 107.30 L 364.10 108.10 L 364.90 109.30 L 365.10 110.70 L 364.80 112.10 L 364.00 113.20 L 362.80 113.90 L 349.60 119.10 L 348.20 119.40 L 346.90 119.10 L 345.80 118.40 L 345.00 117.20 L 344.70 115.80 L 345.00 114.50 L 345.70 113.30 L 346.90 112.50 L 360.30 107.20 Z M 638.60 102.40 L 639.30 101.20 L 640.30 100.30 L 641.60 99.90 L 643.10 100.10 L 656.70 104.70 L 657.90 105.40 L 658.70 106.50 L 659.10 107.80 L 658.90 109.20 L 658.10 110.50 L 657.10 111.30 L 655.70 111.60 L 654.30 111.40 L 640.90 106.90 L 639.70 106.20 L 638.80 105.10 L 638.40 103.80 L 638.60 102.40 Z M 401.50 94.10 L 402.90 94.00 L 404.20 94.50 L 405.20 95.40 L 405.90 96.70 L 406.00 98.10 L 405.50 99.40 L 404.60 100.40 L 403.30 101.00 L 389.70 104.90 L 388.30 105.00 L 387.00 104.60 L 385.90 103.70 L 385.30 102.50 L 385.10 101.00 L 385.50 99.70 L 386.40 98.70 L 387.70 98.00 L 401.50 94.10 Z M 597.00 91.80 L 597.60 90.50 L 598.60 89.60 L 599.80 89.10 L 601.30 89.10 L 615.30 92.30 L 616.60 92.90 L 617.50 93.90 L 618.00 95.20 L 617.90 96.60 L 617.30 97.90 L 616.30 98.80 L 615.00 99.30 L 613.60 99.20 L 599.80 96.10 L 598.50 95.50 L 597.50 94.50 L 597.00 93.30 L 597.00 91.80 Z M 443.80 85.20 L 445.20 85.30 L 446.40 85.80 L 447.40 86.80 L 447.90 88.20 L 447.80 89.60 L 447.20 90.80 L 446.20 91.80 L 444.90 92.30 L 431.00 94.70 L 429.50 94.70 L 428.30 94.20 L 427.30 93.20 L 426.80 91.90 L 426.80 90.50 L 427.30 89.20 L 428.30 88.20 L 429.60 87.70 L 443.80 85.20 Z M 554.60 85.50 L 555.10 84.10 L 556.00 83.10 L 557.20 82.50 L 558.60 82.30 L 572.90 84.10 L 574.20 84.60 L 575.20 85.50 L 575.80 86.70 L 575.90 88.10 L 575.40 89.50 L 574.50 90.50 L 573.30 91.10 L 571.90 91.20 L 557.80 89.40 L 556.50 89.00 L 555.40 88.10 L 554.80 86.90 L 554.60 85.50 Z M 486.70 80.60 L 488.10 80.80 L 489.30 81.50 L 490.10 82.60 L 490.50 83.90 L 490.30 85.40 L 489.60 86.50 L 488.50 87.30 L 487.10 87.70 L 473.00 88.80 L 471.60 88.60 L 470.40 88.00 L 469.50 86.90 L 469.10 85.50 L 469.30 84.10 L 469.90 82.90 L 471.00 82.10 L 472.40 81.70 L 486.70 80.60 Z M 515.50 79.90 L 529.90 80.20 L 531.30 80.60 L 532.40 81.40 L 533.10 82.50 L 533.30 83.90 L 533.00 85.30 L 532.20 86.40 L 531.00 87.10 L 529.60 87.40 L 515.40 87.00 L 514.00 86.70 L 512.90 85.90 L 512.20 84.80 L 511.90 83.40 L 512.20 82.00 L 513.00 80.90 L 514.10 80.10 L 515.50 79.90 Z" fill="#ebedf0" fill-opacity="0.6587904" fill-rule="nonzero" group-id="1,2" hidden="true" id="椭圆形" node-id="63" stroke="none" target-height="864.19995" target-width="864.1" target-x="79.9" target-y="79.9" visibility="hidden"></path><g node-id="372"><g node-id="377"><path d="M 912.00 512.00 L 911.70 528.00 L 910.70 543.80 L 909.20 559.40 L 907.00 575.00 L 904.20 590.40 L 900.90 605.70 L 896.90 620.90 L 892.40 635.80 L 887.20 650.50 L 881.60 665.10 L 875.30 679.40 L 868.50 693.40 L 861.10 707.20 L 853.30 720.70 L 844.80 733.90 L 835.80 746.80 L 826.40 759.30 L 816.40 771.50 L 805.90 783.30 L 794.80 794.80 L 783.30 805.90 L 771.50 816.40 L 759.30 826.40 L 746.80 835.80 L 733.90 844.80 L 720.70 853.30 L 707.20 861.10 L 693.40 868.50 L 679.40 875.30 L 665.10 881.60 L 650.50 887.20 L 635.80 892.40 L 620.90 896.90 L 605.70 900.90 L 590.40 904.20 L 575.00 907.00 L 559.40 909.20 L 543.80 910.70 L 528.00 911.70 L 512.00 912.00 L 496.00 911.70 L 480.20 910.70 L 464.60 909.20 L 449.00 907.00 L 433.60 904.20 L 418.30 900.90 L 403.10 896.90 L 388.20 892.40 L 373.50 887.20 L 358.90 881.60 L 344.60 875.30 L 330.60 868.50 L 316.80 861.10 L 303.30 853.30 L 290.10 844.80 L 277.20 835.80 L 264.70 826.40 L 252.50 816.40 L 240.70 805.90 L 229.20 794.80 L 218.10 783.30 L 207.60 771.50 L 197.60 759.30 L 188.20 746.80 L 179.20 733.90 L 170.70 720.70 L 162.90 707.20 L 155.50 693.40 L 148.70 679.40 L 142.40 665.10 L 136.80 650.50 L 131.60 635.80 L 127.10 620.90 L 123.10 605.70 L 119.80 590.40 L 117.00 575.00 L 114.80 559.40 L 113.30 543.80 L 112.30 528.00 L 112.00 512.00 L 112.30 496.00 L 113.30 480.20 L 114.80 464.60 L 117.00 449.00 L 119.80 433.60 L 123.10 418.30 L 127.10 403.10 L 131.60 388.20 L 136.80 373.50 L 142.40 358.90 L 148.70 344.60 L 155.50 330.60 L 162.90 316.80 L 170.70 303.30 L 179.20 290.10 L 188.20 277.20 L 197.60 264.70 L 207.60 252.50 L 218.10 240.70 L 229.20 229.20 L 240.70 218.10 L 252.50 207.60 L 264.70 197.60 L 277.20 188.20 L 290.10 179.20 L 303.30 170.70 L 316.80 162.90 L 330.60 155.50 L 344.60 148.70 L 358.90 142.40 L 373.50 136.80 L 388.20 131.60 L 403.10 127.10 L 418.30 123.10 L 433.60 119.80 L 449.00 117.00 L 464.60 114.80 L 480.20 113.30 L 496.00 112.30 L 512.00 112.00 L 528.00 112.30 L 543.80 113.30 L 559.40 114.80 L 575.00 117.00 L 590.40 119.80 L 605.70 123.10 L 620.90 127.10 L 635.80 131.60 L 650.50 136.80 L 665.10 142.40 L 679.40 148.70 L 693.40 155.50 L 707.20 162.90 L 720.70 170.70 L 733.90 179.20 L 746.80 188.20 L 759.30 197.60 L 771.50 207.60 L 783.30 218.10 L 794.80 229.20 L 805.90 240.70 L 816.40 252.50 L 826.40 264.70 L 835.80 277.20 L 844.80 290.10 L 853.30 303.30 L 861.10 316.80 L 868.50 330.60 L 875.30 344.60 L 881.60 358.90 L 887.20 373.50 L 892.40 388.20 L 896.90 403.10 L 900.90 418.30 L 904.20 433.60 L 907.00 449.00 L 909.20 464.60 L 910.70 480.20 L 911.70 496.00 L 912.00 512.00 Z" fill="url(#linearGradient-1)" fill-rule="evenodd" group-id="1,2,4,9" hidden="true" node-id="289" stroke="none" target-height="800" target-width="800" target-x="112" target-y="112" visibility="hidden"></path></g><g node-id="378"><path d="M 326.30 326.30 L 704.90 326.30 L 708.80 326.60 L 712.50 327.30 L 716.00 328.50 L 719.30 330.20 L 722.30 332.20 L 725.10 334.70 L 727.50 337.40 L 729.50 340.40 L 731.20 343.70 L 732.40 347.20 L 733.20 350.90 L 733.40 354.90 L 733.40 783.40 L 733.20 787.40 L 732.40 791.00 L 731.20 794.50 L 729.50 797.90 L 727.50 800.90 L 725.10 803.60 L 722.30 806.10 L 719.30 808.10 L 716.00 809.80 L 712.50 811.00 L 708.80 811.70 L 704.90 812.00 L 326.30 812.00 L 322.40 811.70 L 318.70 811.00 L 315.20 809.80 L 311.80 808.10 L 308.80 806.10 L 306.10 803.60 L 303.70 800.90 L 301.60 797.90 L 300.00 794.50 L 298.70 791.00 L 298.00 787.40 L 297.70 783.40 L 297.70 354.90 L 298.00 350.90 L 298.70 347.20 L 300.00 343.70 L 301.60 340.40 L 303.70 337.40 L 306.10 334.70 L 308.80 332.20 L 311.80 330.20 L 315.20 328.50 L 318.70 327.30 L 322.40 326.60 L 326.30 326.30 Z" fill="url(#linearGradient-4)" fill-rule="evenodd" group-id="1,2,4,10" hidden="true" id="矩形" node-id="68" stroke="none" target-height="485.7" target-width="435.7" target-x="297.7" target-y="326.3" visibility="hidden"></path></g><g node-id="379"><path d="M 326.30 326.30 L 365.30 326.30 L 369.20 326.60 L 372.90 327.30 L 376.40 328.50 L 379.70 330.20 L 382.70 332.20 L 385.50 334.70 L 387.90 337.40 L 389.90 340.40 L 391.60 343.70 L 392.80 347.20 L 393.60 350.90 L 393.80 354.90 L 393.80 404.90 L 393.60 408.60 L 392.90 412.30 L 391.70 415.80 L 390.00 419.10 L 388.00 422.20 L 385.50 425.10 L 382.60 427.60 L 379.50 429.60 L 376.20 431.30 L 372.70 432.50 L 369.00 433.20 L 365.30 433.40 L 326.30 433.40 L 322.50 433.20 L 318.90 432.50 L 315.40 431.30 L 312.00 429.60 L 308.90 427.60 L 306.10 425.10 L 303.60 422.20 L 301.50 419.10 L 299.90 415.80 L 298.70 412.30 L 298.00 408.60 L 297.70 404.90 L 297.70 354.90 L 298.00 350.90 L 298.70 347.20 L 300.00 343.70 L 301.60 340.40 L 303.70 337.40 L 306.10 334.70 L 308.80 332.20 L 311.80 330.20 L 315.20 328.50 L 318.70 327.30 L 322.40 326.60 L 326.30 326.30 Z" fill="url(#linearGradient1)" fill-rule="evenodd" group-id="1,2,4,11" hidden="true" id="矩形" node-id="69" stroke="none" target-height="107.100006" target-width="96.099976" target-x="297.7" target-y="326.3" visibility="hidden"></path></g><g node-id="380"><path d="M 519.10 654.90 L 558.10 654.90 L 562.00 655.10 L 565.70 655.90 L 569.20 657.10 L 572.60 658.80 L 575.60 660.80 L 578.30 663.20 L 580.70 666.00 L 582.80 669.00 L 584.40 672.30 L 585.70 675.80 L 586.40 679.50 L 586.70 683.40 L 586.70 733.40 L 586.40 737.40 L 585.70 741.00 L 584.40 744.50 L 582.80 747.90 L 580.70 750.90 L 578.30 753.60 L 575.60 756.10 L 572.60 758.10 L 569.20 759.80 L 565.70 761.00 L 562.00 761.70 L 558.10 762.00 L 519.10 762.00 L 515.20 761.70 L 511.50 761.00 L 508.00 759.80 L 504.70 758.10 L 501.70 756.10 L 498.90 753.60 L 496.50 750.90 L 494.50 747.90 L 492.80 744.50 L 491.60 741.00 L 490.80 737.40 L 490.60 733.40 L 490.60 683.40 L 490.80 679.50 L 491.60 675.80 L 492.80 672.30 L 494.50 669.00 L 496.50 666.00 L 498.90 663.20 L 501.70 660.80 L 504.70 658.80 L 508.00 657.10 L 511.50 655.90 L 515.20 655.10 L 519.10 654.90 Z" fill="url(#linearGradient-5)" fill-rule="evenodd" group-id="1,2,4,12" hidden="true" id="矩形备份-36" node-id="70" stroke="none" target-height="107.099976" target-width="96.100006" target-x="490.6" target-y="654.9" visibility="hidden"></path></g><g node-id="381"><path d="M 183.00 584.10 L 184.40 584.40 L 185.50 585.10 L 186.20 586.30 L 186.50 587.70 L 186.50 597.50 L 182.10 597.50 L 180.70 597.20 L 179.60 596.50 L 178.80 595.30 L 178.50 593.90 L 178.70 592.80 L 179.40 591.60 L 179.70 586.30 L 180.40 585.20 L 181.40 584.40 L 183.00 584.10 Z M 160.70 590.40 L 162.10 590.70 L 163.20 591.40 L 164.00 592.50 L 164.20 593.90 L 164.00 595.30 L 163.20 596.50 L 162.10 597.20 L 160.70 597.50 L 153.50 597.50 L 152.10 597.20 L 151.00 596.50 L 150.20 595.30 L 150.00 593.90 L 150.20 592.50 L 151.00 591.40 L 152.10 590.70 L 153.50 590.40 L 160.70 590.40 Z M 132.10 590.40 L 133.50 590.70 L 134.60 591.40 L 135.40 592.50 L 135.70 593.90 L 135.40 595.30 L 134.60 596.50 L 133.50 597.20 L 132.10 597.50 L 125.00 597.50 L 123.60 597.20 L 122.40 596.50 L 121.70 595.30 L 121.40 593.90 L 121.70 592.50 L 122.40 591.40 L 123.60 590.70 L 125.00 590.40 L 132.10 590.40 Z M 103.50 590.40 L 104.90 590.70 L 106.10 591.40 L 106.80 592.50 L 107.10 593.90 L 106.80 595.30 L 106.10 596.50 L 104.90 597.20 L 103.50 597.50 L 96.40 597.50 L 95.00 597.20 L 93.90 596.50 L 93.10 595.30 L 92.80 593.90 L 93.10 592.50 L 93.90 591.40 L 95.00 590.70 L 96.40 590.40 L 103.50 590.40 Z M 75.00 590.40 L 76.40 590.70 L 77.50 591.40 L 78.20 592.50 L 78.50 593.90 L 78.20 595.30 L 77.50 596.50 L 76.40 597.20 L 75.00 597.50 L 67.80 597.50 L 66.40 597.20 L 65.30 596.50 L 64.50 595.30 L 64.20 593.90 L 64.50 592.50 L 65.30 591.40 L 66.40 590.70 L 67.80 590.40 L 75.00 590.40 Z M 46.40 590.40 L 47.80 590.70 L 48.90 591.40 L 49.70 592.50 L 50.00 593.90 L 49.70 595.30 L 48.90 596.50 L 47.80 597.20 L 46.40 597.50 L 39.20 597.50 L 37.80 597.20 L 36.70 596.50 L 36.00 595.30 L 35.70 593.90 L 36.00 592.50 L 36.70 591.40 L 37.80 590.70 L 39.20 590.40 L 46.40 590.40 Z M 17.80 590.40 L 19.20 590.70 L 20.30 591.40 L 21.10 592.50 L 21.40 593.90 L 21.10 595.30 L 20.30 596.50 L 19.20 597.20 L 17.80 597.50 L 10.70 597.50 L 9.30 597.20 L 8.20 596.50 L 7.40 595.30 L 7.10 593.90 L 7.40 592.50 L 8.20 591.40 L 9.30 590.70 L 10.70 590.40 L 17.80 590.40 Z M -10.80 590.40 L -9.40 590.70 L -8.20 591.40 L -7.50 592.50 L -7.20 593.90 L -7.50 595.30 L -8.20 596.50 L -9.40 597.20 L -10.80 597.50 L -17.90 597.50 L -19.30 597.20 L -20.40 596.50 L -21.20 595.30 L -21.50 593.90 L -21.20 592.50 L -20.40 591.40 L -19.30 590.70 L -17.90 590.40 L -10.80 590.40 Z M -39.30 590.40 L -37.90 590.70 L -36.80 591.40 L -36.00 592.50 L -35.80 593.90 L -36.00 595.30 L -36.80 596.50 L -37.90 597.20 L -39.30 597.50 L -46.50 597.50 L -47.90 597.20 L -49.00 596.50 L -49.80 595.30 L -50.00 593.90 L -49.80 592.50 L -49.00 591.40 L -47.90 590.70 L -46.50 590.40 L -39.30 590.40 Z M -67.90 590.40 L -66.50 590.70 L -65.40 591.40 L -64.60 592.50 L -64.30 593.90 L -64.60 595.30 L -65.40 596.50 L -66.50 597.20 L -67.90 597.50 L -75.00 597.50 L -76.40 597.20 L -77.60 596.50 L -78.30 595.30 L -78.60 593.90 L -78.30 592.50 L -77.60 591.40 L -76.40 590.70 L -75.00 590.40 L -67.90 590.40 Z M -96.50 590.40 L -95.10 590.70 L -93.90 591.40 L -93.20 592.50 L -92.90 593.90 L -93.20 595.30 L -93.90 596.50 L -95.10 597.20 L -96.50 597.50 L -103.60 597.50 L -105.00 597.20 L -106.10 596.50 L -106.90 595.30 L -107.20 593.90 L -106.90 592.50 L -106.10 591.40 L -105.00 590.70 L -103.60 590.40 L -96.50 590.40 Z M -125.00 590.40 L -123.60 590.70 L -122.50 591.40 L -121.80 592.50 L -121.50 593.90 L -121.80 595.30 L -122.50 596.50 L -123.60 597.20 L -125.00 597.50 L -128.90 597.50 L -130.30 597.20 L -131.40 596.50 L -132.20 595.30 L -132.50 593.90 L -132.20 592.50 L -131.40 591.40 L -130.30 590.70 L -128.90 590.40 L -125.00 590.40 Z M 180.90 558.30 L 181.60 557.00 L 182.60 556.20 L 183.90 555.70 L 185.30 555.90 L 186.60 556.50 L 187.50 557.60 L 187.90 558.80 L 187.80 560.30 L 186.60 566.60 L 186.20 568.00 L 185.40 569.00 L 184.20 569.70 L 182.80 569.90 L 181.40 569.50 L 180.40 568.60 L 179.70 567.50 L 179.50 566.00 L 180.90 558.30 Z M 200.20 534.40 L 201.60 534.00 L 203.00 534.20 L 204.20 534.80 L 205.10 535.90 L 205.50 537.30 L 205.30 538.60 L 204.70 539.80 L 203.60 540.70 L 198.30 544.30 L 197.00 545.00 L 195.60 545.10 L 194.30 544.70 L 193.20 543.80 L 192.60 542.60 L 192.40 541.20 L 192.80 539.90 L 193.70 538.80 L 200.20 534.40 Z M 344.10 529.90 L 345.50 530.10 L 346.70 530.90 L 347.40 532.00 L 347.70 533.40 L 347.40 534.80 L 346.70 536.00 L 345.50 536.70 L 344.10 537.00 L 337.00 537.00 L 335.60 536.70 L 334.50 536.00 L 333.70 534.80 L 333.40 533.40 L 333.70 532.00 L 334.50 530.90 L 335.60 530.10 L 337.00 529.90 L 344.10 529.90 Z M 315.60 529.90 L 317.00 530.10 L 318.10 530.90 L 318.90 532.00 L 319.10 533.40 L 318.90 534.80 L 318.10 536.00 L 317.00 536.70 L 315.60 537.00 L 308.40 537.00 L 307.00 536.70 L 305.90 536.00 L 305.10 534.80 L 304.90 533.40 L 305.10 532.00 L 305.90 530.90 L 307.00 530.10 L 308.40 529.90 L 315.60 529.90 Z M 287.00 529.90 L 288.40 530.10 L 289.50 530.90 L 290.30 532.00 L 290.60 533.40 L 290.30 534.80 L 289.50 536.00 L 288.40 536.70 L 287.00 537.00 L 279.90 537.00 L 278.50 536.70 L 277.30 536.00 L 276.60 534.80 L 276.30 533.40 L 276.60 532.00 L 277.30 530.90 L 278.50 530.10 L 279.90 529.90 L 287.00 529.90 Z M 258.40 529.90 L 259.80 530.10 L 261.00 530.90 L 261.70 532.00 L 262.00 533.40 L 261.70 534.80 L 261.00 536.00 L 259.80 536.70 L 258.40 537.00 L 251.30 537.00 L 249.90 536.70 L 248.80 536.00 L 248.00 534.80 L 247.70 533.40 L 248.00 532.00 L 248.80 530.90 L 249.90 530.10 L 251.30 529.90 L 258.40 529.90 Z M 229.90 529.90 L 231.30 530.10 L 232.40 530.90 L 233.10 532.00 L 233.40 533.40 L 233.10 534.80 L 232.40 536.00 L 231.30 536.70 L 229.90 537.00 L 222.70 537.00 L 221.30 536.70 L 220.20 536.00 L 219.40 534.80 L 219.10 533.40 L 219.40 532.00 L 220.20 530.90 L 221.30 530.10 L 222.70 529.90 L 229.90 529.90 Z" fill="#fd3737" fill-rule="nonzero" group-id="1,2,4,13" hidden="true" id="路径-2" node-id="71" stroke="none" target-height="67.599976" target-width="480.2" target-x="-132.5" target-y="529.9" visibility="hidden"></path></g><g node-id="382"><path d="M 855.40 454.70 L 854.00 454.90 L 852.90 455.70 L 852.10 456.80 L 851.80 458.20 L 852.10 459.60 L 852.90 460.80 L 854.00 461.50 L 855.40 461.80 L 862.50 461.80 L 863.90 461.50 L 865.10 460.80 L 865.80 459.60 L 866.10 458.20 L 865.80 456.80 L 865.10 455.70 L 863.90 454.90 L 862.50 454.70 L 855.40 454.70 Z M 884.00 454.70 L 882.60 454.90 L 881.40 455.70 L 880.70 456.80 L 880.40 458.20 L 880.70 459.60 L 881.40 460.80 L 882.60 461.50 L 884.00 461.80 L 891.10 461.80 L 892.50 461.50 L 893.60 460.80 L 894.40 459.60 L 894.70 458.20 L 894.40 456.80 L 893.60 455.70 L 892.50 454.90 L 891.10 454.70 L 884.00 454.70 Z M 912.50 454.70 L 911.10 454.90 L 910.00 455.70 L 909.20 456.80 L 909.00 458.20 L 909.20 459.60 L 910.00 460.80 L 911.10 461.50 L 912.50 461.80 L 919.70 461.80 L 921.10 461.50 L 922.20 460.80 L 923.00 459.60 L 923.30 458.20 L 923.00 456.80 L 922.20 455.70 L 921.10 454.90 L 919.70 454.70 L 912.50 454.70 Z M 941.10 454.70 L 939.70 454.90 L 938.60 455.70 L 937.80 456.80 L 937.50 458.20 L 937.80 459.60 L 938.60 460.80 L 939.70 461.50 L 941.10 461.80 L 948.30 461.80 L 949.70 461.50 L 950.80 460.80 L 951.50 459.60 L 951.80 458.20 L 951.50 456.80 L 950.80 455.70 L 949.70 454.90 L 948.30 454.70 L 941.10 454.70 Z M 969.70 454.70 L 968.30 454.90 L 967.20 455.70 L 966.40 456.80 L 966.10 458.20 L 966.40 459.60 L 967.20 460.80 L 968.30 461.50 L 969.70 461.80 L 976.80 461.80 L 978.20 461.50 L 979.30 460.80 L 980.10 459.60 L 980.40 458.20 L 980.10 456.80 L 979.30 455.70 L 978.20 454.90 L 976.80 454.70 L 969.70 454.70 Z M 998.30 454.70 L 996.80 454.90 L 995.70 455.70 L 995.00 456.80 L 994.70 458.20 L 995.00 459.60 L 995.70 460.80 L 996.80 461.50 L 998.30 461.80 L 1005.40 461.80 L 1006.80 461.50 L 1007.90 460.80 L 1008.70 459.60 L 1009.00 458.20 L 1008.70 456.80 L 1007.90 455.70 L 1006.80 454.90 L 1005.40 454.70 L 998.30 454.70 Z M 1026.80 454.70 L 1025.40 454.90 L 1024.30 455.70 L 1023.50 456.80 L 1023.30 458.20 L 1023.50 459.60 L 1024.30 460.80 L 1025.40 461.50 L 1026.80 461.80 L 1034.00 461.80 L 1035.40 461.50 L 1036.50 460.80 L 1037.30 459.60 L 1037.50 458.20 L 1037.30 456.80 L 1036.50 455.70 L 1035.40 454.90 L 1034.00 454.70 L 1026.80 454.70 Z M 834.10 443.60 L 833.10 442.50 L 831.80 442.00 L 830.40 442.00 L 829.10 442.60 L 828.10 443.60 L 827.60 444.80 L 827.60 446.20 L 828.10 447.50 L 830.60 450.70 L 833.40 453.60 L 834.60 454.30 L 836.00 454.50 L 837.30 454.20 L 838.40 453.30 L 839.20 452.10 L 839.40 450.70 L 839.00 449.40 L 834.10 443.60 Z M 826.30 414.30 L 824.90 414.60 L 823.80 415.30 L 823.00 416.50 L 822.70 417.90 L 822.70 425.00 L 823.00 426.40 L 823.80 427.50 L 824.90 428.30 L 826.30 428.60 L 827.70 428.30 L 828.80 427.50 L 829.60 426.40 L 829.90 425.00 L 829.90 417.90 L 829.60 416.50 L 828.80 415.30 L 827.70 414.60 L 826.30 414.30 Z M 819.60 389.20 L 818.40 388.40 L 817.10 388.20 L 815.80 388.50 L 814.60 389.40 L 813.90 390.60 L 813.60 391.90 L 813.90 393.20 L 818.80 399.20 L 819.80 400.20 L 821.00 400.80 L 822.40 400.80 L 823.70 400.30 L 824.70 399.30 L 825.30 398.00 L 825.30 396.70 L 824.80 395.40 L 822.40 392.10 L 819.60 389.20 Z M 733.40 380.50 L 732.00 380.80 L 730.90 381.60 L 730.10 382.70 L 729.90 384.10 L 730.10 385.50 L 730.90 386.60 L 732.00 387.40 L 733.40 387.70 L 740.60 387.70 L 742.00 387.40 L 743.10 386.60 L 743.90 385.50 L 744.10 384.10 L 743.90 382.70 L 743.10 381.60 L 742.00 380.80 L 740.60 380.50 L 733.40 380.50 Z M 762.00 380.50 L 760.60 380.80 L 759.50 381.60 L 758.70 382.70 L 758.40 384.10 L 758.70 385.50 L 759.50 386.60 L 760.60 387.40 L 762.00 387.70 L 769.10 387.70 L 770.50 387.40 L 771.70 386.60 L 772.40 385.50 L 772.70 384.10 L 772.40 382.70 L 771.70 381.60 L 770.50 380.80 L 769.10 380.50 L 762.00 380.50 Z M 790.60 380.50 L 789.20 380.80 L 788.00 381.60 L 787.30 382.70 L 787.00 384.10 L 787.30 385.50 L 788.00 386.60 L 789.20 387.40 L 790.60 387.70 L 797.70 387.70 L 799.10 387.40 L 800.20 386.60 L 801.00 385.50 L 801.30 384.10 L 801.00 382.70 L 800.20 381.60 L 799.10 380.80 L 797.70 380.50 L 790.60 380.50 Z" fill="#0f5eff" fill-rule="nonzero" group-id="1,2,4,14" hidden="true" id="路径-2" node-id="72" stroke="none" target-height="81.29999" target-width="307.59998" target-x="729.9" target-y="380.5" visibility="hidden"></path></g><g node-id="383"><path d="M 855.40 530.50 L 854.00 530.30 L 852.90 529.50 L 852.10 528.40 L 851.80 527.00 L 852.10 525.60 L 852.90 524.40 L 854.00 523.70 L 855.40 523.40 L 862.50 523.40 L 863.90 523.70 L 865.10 524.40 L 865.80 525.60 L 866.10 527.00 L 865.80 528.40 L 865.10 529.50 L 863.90 530.30 L 862.50 530.50 L 855.40 530.50 Z M 884.00 530.50 L 882.60 530.30 L 881.40 529.50 L 880.70 528.40 L 880.40 527.00 L 880.70 525.60 L 881.40 524.40 L 882.60 523.70 L 884.00 523.40 L 891.10 523.40 L 892.50 523.70 L 893.60 524.40 L 894.40 525.60 L 894.70 527.00 L 894.40 528.40 L 893.60 529.50 L 892.50 530.30 L 891.10 530.50 L 884.00 530.50 Z M 912.50 530.50 L 911.10 530.30 L 910.00 529.50 L 909.20 528.40 L 909.00 527.00 L 909.20 525.60 L 910.00 524.40 L 911.10 523.70 L 912.50 523.40 L 919.70 523.40 L 921.10 523.70 L 922.20 524.40 L 923.00 525.60 L 923.30 527.00 L 923.00 528.40 L 922.20 529.50 L 921.10 530.30 L 919.70 530.50 L 912.50 530.50 Z M 941.10 530.50 L 939.70 530.30 L 938.60 529.50 L 937.80 528.40 L 937.50 527.00 L 937.80 525.60 L 938.60 524.40 L 939.70 523.70 L 941.10 523.40 L 948.30 523.40 L 949.70 523.70 L 950.80 524.40 L 951.50 525.60 L 951.80 527.00 L 951.50 528.40 L 950.80 529.50 L 949.70 530.30 L 948.30 530.50 L 941.10 530.50 Z M 969.70 530.50 L 968.30 530.30 L 967.20 529.50 L 966.40 528.40 L 966.10 527.00 L 966.40 525.60 L 967.20 524.40 L 968.30 523.70 L 969.70 523.40 L 976.80 523.40 L 978.20 523.70 L 979.30 524.40 L 980.10 525.60 L 980.40 527.00 L 980.10 528.40 L 979.30 529.50 L 978.20 530.30 L 976.80 530.50 L 969.70 530.50 Z M 998.30 530.50 L 996.80 530.30 L 995.70 529.50 L 995.00 528.40 L 994.70 527.00 L 995.00 525.60 L 995.70 524.40 L 996.80 523.70 L 998.30 523.40 L 1005.40 523.40 L 1006.80 523.70 L 1007.90 524.40 L 1008.70 525.60 L 1009.00 527.00 L 1008.70 528.40 L 1007.90 529.50 L 1006.80 530.30 L 1005.40 530.50 L 998.30 530.50 Z M 1026.80 530.50 L 1025.40 530.30 L 1024.30 529.50 L 1023.50 528.40 L 1023.30 527.00 L 1023.50 525.60 L 1024.30 524.40 L 1025.40 523.70 L 1026.80 523.40 L 1034.00 523.40 L 1035.40 523.70 L 1036.50 524.40 L 1037.30 525.60 L 1037.50 527.00 L 1037.30 528.40 L 1036.50 529.50 L 1035.40 530.30 L 1034.00 530.50 L 1026.80 530.50 Z M 834.10 541.60 L 833.10 542.60 L 831.80 543.20 L 830.40 543.20 L 829.10 542.60 L 828.10 541.60 L 827.60 540.40 L 827.60 539.00 L 828.10 537.70 L 830.60 534.50 L 833.40 531.60 L 834.60 530.90 L 836.00 530.70 L 837.30 531.00 L 838.40 531.90 L 839.20 533.10 L 839.40 534.50 L 839.00 535.80 L 834.10 541.60 Z M 826.30 570.90 L 824.90 570.60 L 823.80 569.90 L 823.00 568.70 L 822.70 567.30 L 822.70 560.20 L 823.00 558.80 L 823.80 557.70 L 824.90 556.90 L 826.30 556.60 L 827.70 556.90 L 828.80 557.70 L 829.60 558.80 L 829.90 560.20 L 829.90 567.30 L 829.60 568.70 L 828.80 569.90 L 827.70 570.60 L 826.30 570.90 Z M 819.60 596.00 L 818.40 596.80 L 817.10 597.00 L 815.80 596.70 L 814.60 595.80 L 813.90 594.60 L 813.60 593.30 L 813.90 592.00 L 818.80 586.00 L 819.80 585.00 L 821.00 584.40 L 822.40 584.40 L 823.70 584.90 L 824.70 585.90 L 825.30 587.20 L 825.30 588.50 L 824.80 589.80 L 822.40 593.10 L 819.60 596.00 Z M 733.40 604.70 L 732.00 604.40 L 730.90 603.60 L 730.10 602.50 L 729.90 601.10 L 730.10 599.70 L 730.90 598.60 L 732.00 597.80 L 733.40 597.50 L 740.60 597.50 L 742.00 597.80 L 743.10 598.60 L 743.90 599.70 L 744.10 601.10 L 743.90 602.50 L 743.10 603.60 L 742.00 604.40 L 740.60 604.70 L 733.40 604.70 Z M 762.00 604.70 L 760.60 604.40 L 759.50 603.60 L 758.70 602.50 L 758.40 601.10 L 758.70 599.70 L 759.50 598.60 L 760.60 597.80 L 762.00 597.50 L 769.10 597.50 L 770.50 597.80 L 771.70 598.60 L 772.40 599.70 L 772.70 601.10 L 772.40 602.50 L 771.70 603.60 L 770.50 604.40 L 769.10 604.70 L 762.00 604.70 Z M 790.60 604.70 L 789.20 604.40 L 788.00 603.60 L 787.30 602.50 L 787.00 601.10 L 787.30 599.70 L 788.00 598.60 L 789.20 597.80 L 790.60 597.50 L 797.70 597.50 L 799.10 597.80 L 800.20 598.60 L 801.00 599.70 L 801.30 601.10 L 801.00 602.50 L 800.20 603.60 L 799.10 604.40 L 797.70 604.70 L 790.60 604.70 Z" fill="#0f5eff" fill-rule="nonzero" group-id="1,2,4,15" hidden="true" id="路径-2备份" node-id="73" stroke="none" target-height="81.29999" target-width="307.59998" target-x="729.9" target-y="523.4" visibility="hidden"></path></g><path d="M 245.50 649.90 L 246.90 650.10 L 248.00 650.90 L 248.80 652.00 L 249.10 653.40 L 248.80 654.80 L 248.00 656.00 L 246.90 656.70 L 245.50 657.00 L 238.40 657.00 L 237.00 656.70 L 235.80 656.00 L 235.10 654.80 L 234.80 653.40 L 235.10 652.00 L 235.80 650.90 L 237.00 650.10 L 238.40 649.90 L 245.50 649.90 Z M 274.10 649.90 L 275.50 650.10 L 276.60 650.90 L 277.40 652.00 L 277.70 653.40 L 277.40 654.80 L 276.60 656.00 L 275.50 656.70 L 274.10 657.00 L 266.90 657.00 L 265.50 656.70 L 264.40 656.00 L 263.70 654.80 L 263.40 653.40 L 263.70 652.00 L 264.40 650.90 L 265.50 650.10 L 266.90 649.90 L 274.10 649.90 Z M 302.70 649.90 L 304.10 650.10 L 305.20 650.90 L 305.90 652.00 L 306.20 653.40 L 305.90 654.80 L 305.20 656.00 L 304.10 656.70 L 302.70 657.00 L 295.50 657.00 L 294.10 656.70 L 293.00 656.00 L 292.20 654.80 L 291.90 653.40 L 292.20 652.00 L 293.00 650.90 L 294.10 650.10 L 295.50 649.90 L 302.70 649.90 Z M 331.20 649.90 L 332.60 650.10 L 333.80 650.90 L 334.50 652.00 L 334.80 653.40 L 334.50 654.80 L 333.80 656.00 L 332.60 656.70 L 331.20 657.00 L 324.10 657.00 L 322.70 656.70 L 321.60 656.00 L 320.80 654.80 L 320.50 653.40 L 320.80 652.00 L 321.60 650.90 L 322.70 650.10 L 324.10 649.90 L 331.20 649.90 Z M 206.40 651.50 L 207.00 650.20 L 208.10 649.30 L 209.30 648.80 L 217.10 649.80 L 218.50 650.20 L 219.60 651.00 L 220.30 652.10 L 220.50 653.60 L 220.20 654.90 L 219.40 656.00 L 218.20 656.70 L 216.80 657.00 L 212.90 656.60 L 209.00 655.80 L 207.70 655.20 L 206.80 654.20 L 206.40 652.90 L 206.40 651.50 Z M 185.90 632.40 L 187.30 632.00 L 188.60 632.10 L 189.80 632.70 L 194.50 638.90 L 195.30 640.20 L 195.40 641.50 L 195.10 642.90 L 194.20 644.00 L 193.00 644.70 L 191.60 644.90 L 190.30 644.50 L 189.20 643.70 L 186.70 640.60 L 184.60 637.30 L 184.20 635.90 L 184.30 634.60 L 184.80 633.40 L 185.90 632.40 Z M 183.00 604.10 L 184.40 604.40 L 185.50 605.20 L 186.20 606.30 L 186.50 607.70 L 186.50 614.90 L 186.20 616.30 L 185.50 617.40 L 184.40 618.10 L 183.00 618.40 L 181.60 618.10 L 180.40 617.40 L 179.70 616.30 L 179.40 614.90 L 179.40 607.70 L 179.70 606.30 L 180.40 605.20 L 181.60 604.40 L 183.00 604.10 Z" fill="#fd3737" fill-rule="nonzero" group-id="1,2,4,16" hidden="true" id="路径-13" node-id="74" stroke="none" target-height="52.900024" target-width="155.4" target-x="179.4" target-y="604.1" visibility="hidden"></path></g><g node-id="373"><path d="M 826.30 140.60 L 826.00 143.20 L 825.40 145.60 L 824.30 147.80 L 822.90 149.80 L 821.20 151.50 L 819.20 152.90 L 817.00 154.00 L 814.60 154.60 L 812.00 154.90 L 809.40 154.60 L 807.00 154.00 L 804.80 152.90 L 802.80 151.50 L 801.10 149.80 L 799.70 147.80 L 798.60 145.60 L 798.00 143.20 L 797.70 140.60 L 798.00 138.00 L 798.60 135.60 L 799.70 133.40 L 801.10 131.40 L 802.80 129.70 L 804.80 128.20 L 807.00 127.20 L 809.40 126.50 L 812.00 126.30 L 814.60 126.50 L 817.00 127.20 L 819.20 128.20 L 821.20 129.70 L 822.90 131.40 L 824.30 133.40 L 825.40 135.60 L 826.00 138.00 L 826.30 140.60 Z" fill="#edf0f5" fill-opacity="0.6" fill-rule="evenodd" group-id="1,2,5" hidden="true" id="椭圆形" node-id="75" stroke="none" target-height="28.59999" target-width="28.599976" target-x="797.7" target-y="126.3" visibility="hidden"></path></g><path d="M 883.40 162.00 L 885.30 162.30 L 887.00 163.00 L 888.50 164.10 L 889.60 165.50 L 890.30 167.20 L 890.60 169.10 L 890.60 183.40 L 904.90 183.40 L 906.80 183.70 L 908.50 184.40 L 909.90 185.50 L 911.00 187.00 L 911.70 188.70 L 912.00 190.60 L 911.70 192.50 L 911.00 194.20 L 909.90 195.60 L 908.50 196.70 L 906.80 197.50 L 904.90 197.70 L 890.60 197.70 L 890.60 212.00 L 890.30 213.90 L 889.60 215.60 L 888.50 217.10 L 887.00 218.20 L 885.30 218.90 L 883.40 219.10 L 881.50 218.90 L 879.80 218.20 L 878.40 217.10 L 877.30 215.60 L 876.50 213.90 L 876.30 212.00 L 876.30 197.70 L 862.00 197.70 L 860.10 197.50 L 858.40 196.70 L 856.90 195.60 L 855.80 194.20 L 855.10 192.50 L 854.90 190.60 L 855.10 188.70 L 855.80 187.00 L 856.90 185.50 L 858.40 184.40 L 860.10 183.70 L 862.00 183.40 L 876.30 183.40 L 876.30 169.10 L 876.50 167.20 L 877.30 165.50 L 878.40 164.10 L 879.80 163.00 L 881.50 162.30 L 883.40 162.00 Z" fill="#edf0f5" fill-opacity="0.6" fill-rule="evenodd" group-id="1,2" hidden="true" id="形状结合" node-id="76" stroke="none" target-height="57.100006" target-width="57.099976" target-x="854.9" target-y="162" visibility="hidden"></path><path d="M 140.60 162.00 L 142.50 162.30 L 144.20 163.00 L 145.60 164.10 L 146.70 165.50 L 147.50 167.20 L 147.70 169.10 L 147.70 183.40 L 162.00 183.40 L 163.90 183.70 L 165.60 184.40 L 167.10 185.50 L 168.20 187.00 L 168.90 188.70 L 169.10 190.60 L 168.90 192.50 L 168.20 194.20 L 167.10 195.60 L 165.60 196.70 L 163.90 197.50 L 162.00 197.70 L 147.70 197.70 L 147.70 212.00 L 147.50 213.90 L 146.70 215.60 L 145.60 217.10 L 144.20 218.20 L 142.50 218.90 L 140.60 219.10 L 138.70 218.90 L 137.00 218.20 L 135.50 217.10 L 134.40 215.60 L 133.70 213.90 L 133.40 212.00 L 133.40 197.70 L 119.10 197.70 L 117.20 197.50 L 115.50 196.70 L 114.10 195.60 L 113.00 194.20 L 112.30 192.50 L 112.00 190.60 L 112.30 188.70 L 113.00 187.00 L 114.10 185.50 L 115.50 184.40 L 117.20 183.70 L 119.10 183.40 L 133.40 183.40 L 133.40 169.10 L 133.70 167.20 L 134.40 165.50 L 135.50 164.10 L 137.00 163.00 L 138.70 162.30 L 140.60 162.00 Z" fill="#edf0f5" fill-opacity="0.6" fill-rule="evenodd" group-id="1,2" hidden="true" id="形状结合备份-3" node-id="77" stroke="none" target-height="57.100006" target-width="57.100006" target-x="112" target-y="162" visibility="hidden"></path><g node-id="374"><path d="M 226.30 140.60 L 226.00 143.40 L 225.20 146.00 L 223.90 148.50 L 222.10 150.70 L 219.90 152.50 L 217.50 153.80 L 214.80 154.60 L 212.00 154.90 L 209.40 154.60 L 207.00 154.00 L 204.80 152.90 L 202.80 151.50 L 201.10 149.80 L 199.70 147.80 L 198.60 145.60 L 198.00 143.20 L 197.70 140.60 L 198.00 138.00 L 198.60 135.60 L 199.70 133.40 L 201.10 131.40 L 202.80 129.70 L 204.80 128.20 L 207.00 127.20 L 209.40 126.50 L 212.00 126.30 L 214.80 126.60 L 217.50 127.40 L 219.90 128.70 L 222.10 130.50 L 223.90 132.70 L 225.20 135.10 L 226.00 137.80 L 226.30 140.60 Z" fill="#edf0f5" fill-opacity="0.6" fill-rule="evenodd" group-id="1,2,6" hidden="true" id="椭圆形备份-48" node-id="78" stroke="none" target-height="28.59999" target-width="28.600006" target-x="197.7" target-y="126.3" visibility="hidden"></path></g></g><g node-id="371"><g node-id="375"><g node-id="385"><g node-id="388"><path d="M 393.70 240.60 L 748.70 240.60 L 752.50 240.80 L 756.00 241.60 L 759.40 242.70 L 762.60 244.40 L 765.50 246.30 L 768.20 248.70 L 770.50 251.30 L 772.50 254.20 L 774.10 257.40 L 775.30 260.80 L 776.00 264.40 L 776.30 268.20 L 776.30 700.70 L 776.00 704.50 L 775.30 708.10 L 774.10 711.50 L 772.50 714.70 L 770.50 717.60 L 768.20 720.30 L 765.50 722.60 L 762.60 724.60 L 759.40 726.20 L 756.00 727.40 L 752.50 728.10 L 748.70 728.40 L 393.70 728.40 L 389.90 728.10 L 386.30 727.40 L 382.90 726.20 L 379.70 724.60 L 376.80 722.60 L 374.10 720.30 L 371.80 717.60 L 369.80 714.70 L 368.20 711.50 L 367.00 708.10 L 366.30 704.50 L 366.10 700.70 L 366.10 268.20 L 366.30 264.40 L 367.00 260.80 L 368.20 257.40 L 369.80 254.20 L 371.80 251.30 L 374.10 248.70 L 376.80 246.30 L 379.70 244.40 L 382.90 242.70 L 386.30 241.60 L 389.90 240.80 L 393.70 240.60 Z" fill="#000000" fill-rule="evenodd" filter="url(#filter-8)" group-id="1,3,7,17,20" node-id="337" stroke="none" target-height="487.80002" target-width="410.19998" target-x="366.1" target-y="240.6"></path></g><path d="M 393.70 240.60 L 748.70 240.60 L 752.50 240.80 L 756.00 241.60 L 759.40 242.70 L 762.60 244.40 L 765.50 246.30 L 768.20 248.70 L 770.50 251.30 L 772.50 254.20 L 774.10 257.40 L 775.30 260.80 L 776.00 264.40 L 776.30 268.20 L 776.30 700.70 L 776.00 704.50 L 775.30 708.10 L 774.10 711.50 L 772.50 714.70 L 770.50 717.60 L 768.20 720.30 L 765.50 722.60 L 762.60 724.60 L 759.40 726.20 L 756.00 727.40 L 752.50 728.10 L 748.70 728.40 L 393.70 728.40 L 389.90 728.10 L 386.30 727.40 L 382.90 726.20 L 379.70 724.60 L 376.80 722.60 L 374.10 720.30 L 371.80 717.60 L 369.80 714.70 L 368.20 711.50 L 367.00 708.10 L 366.30 704.50 L 366.10 700.70 L 366.10 268.20 L 366.30 264.40 L 367.00 260.80 L 368.20 257.40 L 369.80 254.20 L 371.80 251.30 L 374.10 248.70 L 376.80 246.30 L 379.70 244.40 L 382.90 242.70 L 386.30 241.60 L 389.90 240.80 L 393.70 240.60 Z" fill="url(#linearGradient-6)" fill-rule="evenodd" group-id="1,3,7,17,21" node-id="342" stroke="none" target-height="487.80002" target-width="410.19998" target-x="366.1" target-y="240.6"></path></g><g node-id="386"><path d="M 681.60 626.20 L 681.60 578.80 L 681.30 576.70 L 680.50 574.80 L 679.30 573.20 L 677.70 572.00 L 675.80 571.20 L 673.70 570.90 L 671.60 571.20 L 669.80 572.00 L 668.20 573.20 L 666.90 574.80 L 666.20 576.70 L 665.90 578.80 L 665.90 626.20 L 666.20 628.30 L 666.90 630.10 L 668.20 631.70 L 669.80 633.00 L 671.60 633.70 L 673.70 634.00 L 675.80 633.70 L 677.70 633.00 L 679.30 631.70 L 680.50 630.10 L 681.30 628.30 L 681.60 626.20 Z M 641.50 634.00 L 641.50 617.80 L 641.20 615.80 L 640.40 614.10 L 639.30 612.60 L 637.80 611.40 L 636.00 610.60 L 634.00 610.40 L 632.00 610.60 L 630.20 611.40 L 628.70 612.60 L 627.50 614.10 L 626.80 615.80 L 626.50 617.80 L 626.50 634.00 L 626.80 638.90 L 627.50 643.60 L 628.70 648.10 L 630.20 652.40 L 632.30 656.60 L 634.60 660.50 L 637.30 664.10 L 640.40 667.50 L 643.80 670.50 L 647.40 673.20 L 651.20 675.60 L 655.40 677.60 L 659.70 679.20 L 664.20 680.40 L 668.80 681.10 L 673.70 681.40 L 678.60 681.10 L 683.30 680.40 L 687.70 679.20 L 692.10 677.60 L 696.20 675.60 L 700.10 673.20 L 703.70 670.50 L 707.10 667.50 L 710.10 664.10 L 712.80 660.50 L 715.20 656.60 L 717.20 652.40 L 718.80 648.10 L 720.00 643.60 L 720.70 638.90 L 720.90 634.00 L 720.90 617.80 L 720.70 615.80 L 719.90 614.10 L 718.70 612.60 L 717.20 611.40 L 715.50 610.60 L 713.50 610.40 L 711.50 610.60 L 709.70 611.40 L 708.20 612.60 L 707.00 614.10 L 706.30 615.80 L 706.00 617.80 L 706.00 634.00 L 705.70 638.50 L 704.80 642.80 L 703.50 646.70 L 701.60 650.50 L 699.30 653.90 L 696.60 657.00 L 693.60 659.70 L 690.10 662.00 L 686.40 663.90 L 682.40 665.20 L 678.20 666.10 L 673.70 666.40 L 669.20 666.10 L 665.00 665.20 L 661.10 663.90 L 657.30 662.00 L 653.90 659.70 L 650.80 657.00 L 648.10 653.90 L 645.80 650.50 L 644.00 646.70 L 642.60 642.80 L 641.80 638.50 L 641.50 634.00 Z M 634.00 594.60 L 636.00 594.30 L 637.80 593.60 L 639.30 592.40 L 640.40 590.90 L 641.20 589.10 L 641.50 587.10 L 641.50 570.90 L 641.80 566.40 L 642.60 562.20 L 644.00 558.20 L 645.80 554.50 L 648.10 551.00 L 650.80 547.90 L 653.90 545.20 L 657.30 543.00 L 661.10 541.10 L 665.00 539.70 L 669.20 538.90 L 673.70 538.60 L 678.20 538.90 L 682.40 539.70 L 686.40 541.10 L 690.10 543.00 L 693.60 545.20 L 696.60 547.90 L 699.30 551.00 L 701.60 554.50 L 703.50 558.20 L 704.80 562.20 L 705.70 566.40 L 706.00 570.90 L 706.00 587.10 L 706.30 589.10 L 707.00 590.90 L 708.20 592.40 L 709.70 593.60 L 711.50 594.30 L 713.50 594.60 L 715.50 594.30 L 717.20 593.60 L 718.70 592.40 L 719.90 590.90 L 720.70 589.10 L 720.90 587.10 L 720.90 570.90 L 720.70 566.00 L 720.00 561.30 L 718.80 556.90 L 717.20 552.50 L 715.20 548.40 L 712.80 544.50 L 710.10 540.90 L 707.10 537.50 L 703.70 534.40 L 700.10 531.70 L 696.20 529.30 L 692.10 527.30 L 687.70 525.70 L 683.30 524.60 L 678.60 523.80 L 673.70 523.60 L 668.80 523.80 L 664.20 524.60 L 659.70 525.70 L 655.40 527.30 L 651.20 529.30 L 647.40 531.70 L 643.80 534.40 L 640.40 537.50 L 637.30 540.90 L 634.60 544.50 L 632.30 548.40 L 630.20 552.50 L 628.70 556.90 L 627.50 561.30 L 626.80 566.00 L 626.50 570.90 L 626.50 587.10 L 626.80 589.10 L 627.50 590.90 L 628.70 592.40 L 630.20 593.60 L 632.00 594.30 L 634.00 594.60 Z" fill="url(#linearGradient-9)" fill-rule="evenodd" group-id="1,3,7,18" id="形状" node-id="84" stroke="none" target-height="157.80005" target-width="94.400024" target-x="626.5" target-y="523.6"></path></g><path d="M 579.10 527.70 L 581.20 528.00 L 583.00 528.80 L 584.60 530.00 L 585.90 531.60 L 586.70 533.50 L 586.90 535.60 L 586.70 537.70 L 585.90 539.60 L 584.60 541.20 L 583.00 542.40 L 581.20 543.20 L 579.10 543.50 L 421.30 543.50 L 419.20 543.20 L 417.30 542.40 L 415.70 541.20 L 414.50 539.60 L 413.70 537.70 L 413.40 535.60 L 413.70 533.50 L 414.50 531.60 L 415.70 530.00 L 417.30 528.80 L 419.20 528.00 L 421.30 527.70 L 579.10 527.70 Z" fill="url(#linearGradient2)" fill-rule="nonzero" group-id="1,3,7" id="直线-39" node-id="85" stroke="none" target-height="15.799988" target-width="173.50003" target-x="413.4" target-y="527.7"></path><path d="M 579.10 590.70 L 581.20 590.90 L 583.00 591.70 L 584.60 593.00 L 585.90 594.60 L 586.70 596.40 L 586.90 598.50 L 586.70 600.70 L 585.90 602.50 L 584.60 604.10 L 583.00 605.40 L 581.20 606.10 L 579.10 606.40 L 421.30 606.40 L 419.20 606.10 L 417.30 605.40 L 415.70 604.10 L 414.50 602.50 L 413.70 600.70 L 413.40 598.50 L 413.70 596.40 L 414.50 594.60 L 415.70 593.00 L 417.30 591.70 L 419.20 590.90 L 421.30 590.70 L 579.10 590.70 Z" fill="url(#linearGradient-10)" fill-rule="nonzero" group-id="1,3,7" id="直线-39备份-2" node-id="86" stroke="none" target-height="15.700012" target-width="173.50003" target-x="413.4" target-y="590.7"></path><path d="M 721.10 409.70 L 723.20 410.00 L 725.00 410.80 L 726.60 412.00 L 727.90 413.60 L 728.70 415.50 L 729.00 417.60 L 728.70 419.70 L 727.90 421.60 L 726.60 423.20 L 725.00 424.40 L 723.20 425.20 L 721.10 425.50 L 421.30 425.50 L 419.20 425.20 L 417.30 424.40 L 415.70 423.20 L 414.50 421.60 L 413.70 419.70 L 413.40 417.60 L 413.70 415.50 L 414.50 413.60 L 415.70 412.00 L 417.30 410.80 L 419.20 410.00 L 421.30 409.70 L 721.10 409.70 Z" fill="url(#linearGradient3)" fill-rule="nonzero" group-id="1,3,7" id="直线-39备份-6" node-id="87" stroke="none" target-height="15.799988" target-width="315.6" target-x="413.4" target-y="409.7"></path><path d="M 721.10 464.80 L 723.20 465.10 L 725.00 465.90 L 726.60 467.10 L 727.90 468.70 L 728.70 470.50 L 729.00 472.70 L 728.70 474.80 L 727.90 476.60 L 726.60 478.20 L 725.00 479.50 L 723.20 480.30 L 721.10 480.60 L 421.30 480.60 L 419.20 480.30 L 417.30 479.50 L 415.70 478.20 L 414.50 476.60 L 413.70 474.80 L 413.40 472.70 L 413.70 470.50 L 414.50 468.70 L 415.70 467.10 L 417.30 465.90 L 419.20 465.10 L 421.30 464.80 L 721.10 464.80 Z" fill="url(#linearGradient-11)" fill-rule="nonzero" group-id="1,3,7" id="直线-39备份-7" node-id="88" stroke="none" target-height="15.800018" target-width="315.6" target-x="413.4" target-y="464.8"></path><path d="M 393.70 240.60 L 748.70 240.60 L 752.50 240.80 L 756.00 241.60 L 759.40 242.70 L 762.60 244.40 L 765.50 246.30 L 768.20 248.70 L 770.50 251.30 L 772.50 254.20 L 774.10 257.40 L 775.30 260.80 L 776.00 264.40 L 776.30 268.20 L 776.30 342.80 L 366.10 342.80 L 366.10 268.20 L 366.30 264.40 L 367.00 260.80 L 368.20 257.40 L 369.80 254.20 L 371.80 251.30 L 374.10 248.70 L 376.80 246.30 L 379.70 244.40 L 382.90 242.70 L 386.30 241.60 L 389.90 240.80 L 393.70 240.60 Z" fill="url(#linearGradient-12)" fill-rule="evenodd" group-id="1,3,7" id="矩形" node-id="89" stroke="none" target-height="102.19998" target-width="410.19998" target-x="366.1" target-y="240.6"></path><path d="M 417.40 276.20 L 420.40 276.40 L 423.00 277.20 L 425.40 278.30 L 427.70 279.90 L 429.50 281.80 L 431.10 284.00 L 432.30 286.40 L 433.00 289.00 L 433.20 291.90 L 433.00 294.80 L 432.30 297.40 L 431.10 299.80 L 429.50 302.10 L 427.70 303.90 L 425.40 305.50 L 423.00 306.70 L 420.40 307.40 L 417.50 307.60 L 414.50 307.40 L 411.90 306.70 L 409.50 305.50 L 407.30 303.90 L 405.40 302.10 L 403.80 299.80 L 402.70 297.40 L 402.00 294.80 L 401.70 291.90 L 402.00 289.00 L 402.70 286.40 L 403.80 284.00 L 405.40 281.80 L 407.30 279.90 L 409.50 278.30 L 411.90 277.20 L 414.50 276.40 L 417.40 276.20 Z" fill="url(#linearGradient-13)" fill-rule="evenodd" group-id="1,3,7" id="矩形" node-id="90" stroke="none" target-height="31.399994" target-width="31.5" target-x="401.7" target-y="276.2"></path><path d="M 488.40 276.20 L 491.40 276.40 L 494.00 277.20 L 496.40 278.30 L 498.70 279.90 L 500.50 281.80 L 502.10 284.00 L 503.30 286.40 L 504.00 289.00 L 504.20 291.90 L 504.00 294.80 L 503.30 297.40 L 502.10 299.80 L 500.50 302.10 L 498.70 303.90 L 496.40 305.50 L 494.00 306.70 L 491.40 307.40 L 488.50 307.60 L 485.50 307.40 L 482.90 306.70 L 480.50 305.50 L 478.30 303.90 L 476.40 302.10 L 474.80 299.80 L 473.70 297.40 L 473.00 294.80 L 472.70 291.90 L 473.00 289.00 L 473.70 286.40 L 474.80 284.00 L 476.40 281.80 L 478.30 279.90 L 480.50 278.30 L 482.90 277.20 L 485.50 276.40 L 488.40 276.20 Z" fill="url(#linearGradient-14)" fill-rule="evenodd" group-id="1,3,7" id="矩形备份-125" node-id="91" stroke="none" target-height="31.399994" target-width="31.5" target-x="472.7" target-y="276.2"></path></g><g node-id="376"><g node-id="387"><g node-id="390"><path d="M 275.30 405.80 L 527.80 405.80 L 531.60 406.10 L 535.10 406.80 L 538.50 408.00 L 541.70 409.60 L 544.60 411.50 L 547.30 413.90 L 549.60 416.50 L 551.60 419.40 L 553.20 422.70 L 554.40 426.00 L 555.10 429.60 L 555.40 433.40 L 555.40 755.80 L 555.10 759.60 L 554.40 763.20 L 553.20 766.60 L 551.60 769.80 L 549.60 772.70 L 547.30 775.30 L 544.60 777.70 L 541.70 779.60 L 538.50 781.30 L 535.10 782.40 L 531.60 783.20 L 527.80 783.40 L 275.30 783.40 L 271.50 783.20 L 268.00 782.40 L 264.60 781.30 L 261.40 779.60 L 258.50 777.70 L 255.80 775.30 L 253.50 772.70 L 251.50 769.80 L 249.90 766.60 L 248.70 763.20 L 248.00 759.60 L 247.70 755.80 L 247.70 433.40 L 248.00 429.60 L 248.70 426.00 L 249.90 422.70 L 251.50 419.40 L 253.50 416.50 L 255.80 413.90 L 258.50 411.50 L 261.40 409.60 L 264.60 408.00 L 268.00 406.80 L 271.50 406.10 L 275.30 405.80 Z" fill="#000000" fill-rule="evenodd" filter="url(#filter-17)" group-id="1,3,8,19,22" node-id="362" stroke="none" target-height="377.60004" target-width="307.7" target-x="247.7" target-y="405.8"></path></g><path d="M 275.30 405.80 L 527.80 405.80 L 531.60 406.10 L 535.10 406.80 L 538.50 408.00 L 541.70 409.60 L 544.60 411.50 L 547.30 413.90 L 549.60 416.50 L 551.60 419.40 L 553.20 422.70 L 554.40 426.00 L 555.10 429.60 L 555.40 433.40 L 555.40 755.80 L 555.10 759.60 L 554.40 763.20 L 553.20 766.60 L 551.60 769.80 L 549.60 772.70 L 547.30 775.30 L 544.60 777.70 L 541.70 779.60 L 538.50 781.30 L 535.10 782.40 L 531.60 783.20 L 527.80 783.40 L 275.30 783.40 L 271.50 783.20 L 268.00 782.40 L 264.60 781.30 L 261.40 779.60 L 258.50 777.70 L 255.80 775.30 L 253.50 772.70 L 251.50 769.80 L 249.90 766.60 L 248.70 763.20 L 248.00 759.60 L 247.70 755.80 L 247.70 433.40 L 248.00 429.60 L 248.70 426.00 L 249.90 422.70 L 251.50 419.40 L 253.50 416.50 L 255.80 413.90 L 258.50 411.50 L 261.40 409.60 L 264.60 408.00 L 268.00 406.80 L 271.50 406.10 L 275.30 405.80 Z" fill="url(#linearGradient-15)" fill-rule="evenodd" group-id="1,3,8,19,23" node-id="367" stroke="none" target-height="377.60004" target-width="307.7" target-x="247.7" target-y="405.8"></path></g><path d="M 302.90 728.40 L 500.20 728.40 L 502.30 728.60 L 504.20 729.40 L 505.80 730.70 L 507.00 732.30 L 507.80 734.10 L 508.10 736.20 L 507.80 738.30 L 507.00 740.20 L 505.80 741.80 L 504.20 743.00 L 502.30 743.80 L 500.20 744.10 L 302.90 744.10 L 300.80 743.80 L 298.90 743.00 L 297.40 741.80 L 296.10 740.20 L 295.30 738.30 L 295.00 736.20 L 295.30 734.10 L 296.10 732.30 L 297.40 730.70 L 298.90 729.40 L 300.80 728.60 L 302.90 728.40 Z" fill="url(#linearGradient-18)" fill-rule="nonzero" group-id="1,3,8" id="矩形备份-140" node-id="96" stroke="none" target-height="15.699951" target-width="213.1" target-x="295" target-y="728.4"></path><path d="M 302.90 689.00 L 397.60 689.00 L 399.70 689.30 L 401.60 690.10 L 403.20 691.30 L 404.40 692.90 L 405.20 694.80 L 405.50 696.90 L 405.20 699.00 L 404.40 700.90 L 403.20 702.40 L 401.60 703.70 L 399.70 704.50 L 397.60 704.80 L 302.90 704.80 L 300.80 704.50 L 298.90 703.70 L 297.40 702.40 L 296.10 700.90 L 295.30 699.00 L 295.00 696.90 L 295.30 694.80 L 296.10 692.90 L 297.40 691.30 L 298.90 690.10 L 300.80 689.30 L 302.90 689.00 Z" fill="url(#linearGradient-19)" fill-rule="nonzero" group-id="1,3,8" id="矩形备份-141" node-id="97" stroke="none" target-height="15.799988" target-width="110.5" target-x="295" target-y="689"></path><path d="M 340.30 382.20 L 462.90 382.20 L 467.80 383.00 L 470.00 383.90 L 473.90 386.70 L 476.80 390.50 L 478.40 395.20 L 481.10 410.90 L 481.40 413.80 L 481.10 416.50 L 480.40 419.10 L 479.20 421.60 L 477.70 423.70 L 475.80 425.70 L 473.60 427.20 L 471.10 428.40 L 468.30 429.20 L 465.60 429.40 L 337.50 429.40 L 334.60 429.10 L 332.00 428.40 L 329.50 427.20 L 327.30 425.70 L 325.40 423.80 L 323.90 421.60 L 322.70 419.10 L 322.00 416.50 L 321.70 413.60 L 322.00 410.90 L 324.70 395.20 L 326.30 390.50 L 329.20 386.70 L 333.10 383.90 L 335.30 383.00 L 340.30 382.20 Z" fill="url(#linearGradient-20)" fill-rule="evenodd" group-id="1,3,8" id="矩形" node-id="98" stroke="none" target-height="47.19998" target-width="159.69998" target-x="321.7" target-y="382.2"></path><path d="M 401.60 475.50 L 406.20 475.80 L 410.60 476.40 L 414.80 477.50 L 418.80 479.00 L 422.80 480.90 L 426.40 483.10 L 429.80 485.60 L 433.00 488.50 L 435.80 491.70 L 438.40 495.10 L 440.60 498.70 L 442.50 502.60 L 444.00 506.70 L 445.10 510.90 L 445.70 515.30 L 446.00 519.90 L 445.70 524.50 L 445.10 528.90 L 444.00 533.10 L 442.50 537.10 L 440.60 541.00 L 438.40 544.70 L 435.80 548.10 L 433.00 551.20 L 429.80 554.10 L 426.40 556.60 L 422.80 558.80 L 418.80 560.70 L 414.80 562.20 L 410.60 563.30 L 406.20 564.00 L 401.60 564.20 L 396.90 564.00 L 392.50 563.30 L 388.30 562.20 L 384.30 560.70 L 380.30 558.80 L 376.70 556.60 L 373.30 554.10 L 370.10 551.20 L 367.30 548.10 L 364.70 544.70 L 362.50 541.00 L 360.60 537.10 L 359.10 533.10 L 358.00 528.90 L 357.40 524.50 L 357.10 519.90 L 357.40 515.30 L 358.00 510.90 L 359.10 506.70 L 360.60 502.60 L 362.50 498.70 L 364.70 495.10 L 367.30 491.70 L 370.10 488.50 L 373.30 485.60 L 376.70 483.10 L 380.30 480.90 L 384.30 479.00 L 388.30 477.50 L 392.50 476.40 L 396.90 475.80 L 401.60 475.50 Z M 401.60 493.40 L 397.90 493.60 L 394.50 494.30 L 391.20 495.50 L 388.10 497.00 L 385.30 498.90 L 382.80 501.10 L 380.50 503.70 L 378.60 506.50 L 377.10 509.60 L 375.90 512.80 L 375.20 516.20 L 375.00 519.90 L 375.20 523.50 L 375.90 526.90 L 377.10 530.20 L 378.60 533.20 L 380.50 536.00 L 382.80 538.60 L 385.30 540.80 L 388.10 542.70 L 391.20 544.30 L 394.50 545.40 L 397.90 546.10 L 401.60 546.30 L 405.20 546.10 L 408.60 545.40 L 411.90 544.30 L 415.00 542.70 L 417.80 540.80 L 420.30 538.60 L 422.60 536.00 L 424.50 533.20 L 426.00 530.20 L 427.20 526.90 L 427.90 523.50 L 428.10 519.90 L 427.90 516.20 L 427.20 512.80 L 426.00 509.60 L 424.50 506.50 L 422.60 503.70 L 420.30 501.10 L 417.80 498.90 L 415.00 497.00 L 411.90 495.50 L 408.60 494.30 L 405.20 493.60 L 401.60 493.40 Z" fill="#1c67ff" fill-rule="nonzero" group-id="1,3,8" id="椭圆形" node-id="99" stroke="none" target-height="88.70001" target-width="88.899994" target-x="357.1" target-y="475.5"></path><path d="M 401.60 555.30 L 408.80 555.60 L 415.90 556.50 L 422.70 557.90 L 429.40 559.80 L 435.80 562.30 L 442.00 565.20 L 447.80 568.50 L 453.40 572.40 L 458.60 576.60 L 463.50 581.20 L 467.90 586.20 L 471.90 591.60 L 475.40 597.20 L 478.50 603.20 L 481.00 609.40 L 483.00 616.00 L 483.50 618.80 L 483.70 621.60 L 483.50 624.70 L 482.90 627.60 L 480.70 632.90 L 479.00 635.30 L 475.00 639.30 L 470.10 642.20 L 467.30 643.20 L 461.30 644.00 L 339.00 643.80 L 336.20 643.30 L 330.60 641.00 L 326.00 637.50 L 322.50 632.90 L 320.20 627.70 L 319.40 622.00 L 320.10 616.00 L 322.10 609.40 L 324.70 603.10 L 327.70 597.20 L 331.20 591.50 L 335.30 586.20 L 339.70 581.20 L 344.50 576.60 L 349.70 572.30 L 355.30 568.50 L 361.10 565.20 L 367.30 562.30 L 373.80 559.80 L 380.40 557.90 L 387.20 556.50 L 394.30 555.60 L 401.60 555.30 Z M 401.60 573.20 L 395.80 573.40 L 390.20 574.10 L 384.80 575.20 L 379.60 576.70 L 374.40 578.60 L 369.60 580.90 L 365.00 583.50 L 360.60 586.50 L 356.50 589.80 L 352.70 593.40 L 349.20 597.30 L 346.10 601.50 L 343.30 605.90 L 340.90 610.50 L 339.00 615.30 L 337.40 620.40 L 337.40 622.80 L 338.60 624.80 L 339.50 625.50 L 341.80 626.10 L 461.30 626.10 L 462.60 625.90 L 464.50 624.80 L 465.70 622.80 L 465.70 620.50 L 464.20 615.40 L 462.20 610.50 L 459.80 605.90 L 457.00 601.50 L 453.90 597.30 L 450.40 593.40 L 446.60 589.80 L 442.50 586.50 L 438.10 583.50 L 433.50 580.90 L 428.70 578.60 L 423.50 576.70 L 418.30 575.20 L 412.90 574.10 L 407.30 573.40 L 401.60 573.20 Z" fill="#1c67ff" fill-rule="nonzero" group-id="1,3,8" id="路径" node-id="100" stroke="none" target-height="88.70001" target-width="164.30002" target-x="319.4" target-y="555.3"></path></g></g></g></svg>